G04 #@! TF.FileFunction,Paste,Top*
%FSLAX46Y46*%
G04 Gerber Fmt 4.6, Leading zero omitted, Abs format (unit mm)*
G04 Created by KiCad (PCBNEW 4.0.4-stable) date 10/24/16 21:05:07*
%MOMM*%
%LPD*%
G01*
G04 APERTURE LIST*
%ADD10C,0.100000*%
%ADD11R,1.800000X0.600000*%
%ADD12R,2.800000X1.000000*%
%ADD13R,1.200000X0.750000*%
%ADD14R,1.800860X1.549400*%
%ADD15R,0.750000X1.200000*%
%ADD16R,0.797560X0.797560*%
%ADD17R,0.600000X0.800000*%
%ADD18R,1.350000X0.400000*%
%ADD19R,0.800100X1.800860*%
%ADD20R,0.900000X1.200000*%
%ADD21R,1.200000X0.900000*%
%ADD22R,1.000000X0.800000*%
%ADD23R,0.700000X1.500000*%
%ADD24R,0.600000X1.000000*%
%ADD25R,1.000000X0.600000*%
%ADD26R,1.060000X0.650000*%
%ADD27R,1.450000X0.450000*%
%ADD28R,2.400000X2.000000*%
G04 APERTURE END LIST*
D10*
D11*
X89051000Y-109621000D03*
X89051000Y-110871000D03*
X89051000Y-112121000D03*
D12*
X85701000Y-113871000D03*
X85701000Y-107871000D03*
D13*
X127955000Y-102870000D03*
X129855000Y-102870000D03*
X114239000Y-82169000D03*
X116139000Y-82169000D03*
D14*
X105537000Y-85725000D03*
X105537000Y-88077040D03*
D15*
X86360000Y-84333000D03*
X86360000Y-86233000D03*
X100584000Y-101600000D03*
X100584000Y-99700000D03*
D13*
X119446000Y-106299000D03*
X121346000Y-106299000D03*
X119446000Y-102235000D03*
X121346000Y-102235000D03*
D14*
X114935000Y-85564980D03*
X114935000Y-87917020D03*
D13*
X115316000Y-98171000D03*
X117216000Y-98171000D03*
D14*
X98425000Y-102141020D03*
X98425000Y-99788980D03*
D13*
X120208000Y-98425000D03*
X122108000Y-98425000D03*
D15*
X118618000Y-85791000D03*
X118618000Y-87691000D03*
X101981000Y-86045000D03*
X101981000Y-87945000D03*
D16*
X128778000Y-87109300D03*
X128778000Y-85610700D03*
X90195400Y-92964000D03*
X91694000Y-92964000D03*
X87223600Y-104394000D03*
X85725000Y-104394000D03*
D17*
X94996000Y-94615000D03*
X93296000Y-94615000D03*
D18*
X88044000Y-96546000D03*
X88044000Y-97196000D03*
X88044000Y-97846000D03*
X88044000Y-98496000D03*
X88044000Y-99146000D03*
D19*
X122550000Y-111760000D03*
X120650000Y-111760000D03*
X121600000Y-114762280D03*
X94300000Y-114300000D03*
X96200000Y-114300000D03*
X95250000Y-111297720D03*
D20*
X122555000Y-87757000D03*
X122555000Y-85557000D03*
D21*
X103040000Y-90805000D03*
X105240000Y-90805000D03*
D20*
X118237000Y-111252000D03*
X118237000Y-113452000D03*
X115824000Y-111211000D03*
X115824000Y-113411000D03*
D21*
X119296000Y-108585000D03*
X121496000Y-108585000D03*
X98214000Y-106299000D03*
X100414000Y-106299000D03*
X98087000Y-108839000D03*
X100287000Y-108839000D03*
X100668000Y-111506000D03*
X98468000Y-111506000D03*
X98511000Y-113919000D03*
X100711000Y-113919000D03*
X93642000Y-89154000D03*
X95842000Y-89154000D03*
X93642000Y-91440000D03*
X95842000Y-91440000D03*
X93642000Y-100711000D03*
X95842000Y-100711000D03*
D20*
X98679000Y-97790000D03*
X98679000Y-95590000D03*
D21*
X93558000Y-96647000D03*
X95758000Y-96647000D03*
X93472000Y-98425000D03*
X95672000Y-98425000D03*
X95799000Y-102997000D03*
X93599000Y-102997000D03*
D22*
X92329000Y-80518000D03*
X92329000Y-82550000D03*
X99441000Y-82550000D03*
D23*
X95123000Y-83312000D03*
X93599000Y-83312000D03*
X98171000Y-83312000D03*
D22*
X99441000Y-80518000D03*
D24*
X130048000Y-100330000D03*
X128397000Y-100330000D03*
X130048000Y-94234000D03*
X128397000Y-94234000D03*
D25*
X125730000Y-80518000D03*
X125730000Y-82169000D03*
X119634000Y-80518000D03*
X119634000Y-82169000D03*
D26*
X109263000Y-85537000D03*
X109263000Y-86487000D03*
X109263000Y-87437000D03*
X111463000Y-87437000D03*
X111463000Y-85537000D03*
D27*
X109884000Y-104652000D03*
X109884000Y-104002000D03*
X109884000Y-103352000D03*
X109884000Y-102702000D03*
X109884000Y-102052000D03*
X109884000Y-101402000D03*
X109884000Y-100752000D03*
X109884000Y-100102000D03*
X109884000Y-99452000D03*
X109884000Y-98802000D03*
X103984000Y-98802000D03*
X103984000Y-99452000D03*
X103984000Y-100102000D03*
X103984000Y-100752000D03*
X103984000Y-101402000D03*
X103984000Y-102052000D03*
X103984000Y-102702000D03*
X103984000Y-103352000D03*
X103984000Y-104002000D03*
X103984000Y-104652000D03*
D28*
X115951000Y-105682000D03*
X115951000Y-101582000D03*
M02*
