G04 #@! TF.FileFunction,Legend,Bot*
%FSLAX46Y46*%
G04 Gerber Fmt 4.6, Leading zero omitted, Abs format (unit mm)*
G04 Created by KiCad (PCBNEW 4.0.4-stable) date 10/24/16 21:05:07*
%MOMM*%
%LPD*%
G01*
G04 APERTURE LIST*
%ADD10C,0.100000*%
%ADD11C,0.200000*%
%ADD12C,0.010000*%
G04 APERTURE END LIST*
D10*
D11*
X100122857Y-118927619D02*
X100075238Y-118880000D01*
X99980000Y-118832381D01*
X99741904Y-118832381D01*
X99646666Y-118880000D01*
X99599047Y-118927619D01*
X99551428Y-119022857D01*
X99551428Y-119118095D01*
X99599047Y-119260952D01*
X100170476Y-119832381D01*
X99551428Y-119832381D01*
X98932381Y-118832381D02*
X98837142Y-118832381D01*
X98741904Y-118880000D01*
X98694285Y-118927619D01*
X98646666Y-119022857D01*
X98599047Y-119213333D01*
X98599047Y-119451429D01*
X98646666Y-119641905D01*
X98694285Y-119737143D01*
X98741904Y-119784762D01*
X98837142Y-119832381D01*
X98932381Y-119832381D01*
X99027619Y-119784762D01*
X99075238Y-119737143D01*
X99122857Y-119641905D01*
X99170476Y-119451429D01*
X99170476Y-119213333D01*
X99122857Y-119022857D01*
X99075238Y-118927619D01*
X99027619Y-118880000D01*
X98932381Y-118832381D01*
X97646666Y-119832381D02*
X98218095Y-119832381D01*
X97932381Y-119832381D02*
X97932381Y-118832381D01*
X98027619Y-118975238D01*
X98122857Y-119070476D01*
X98218095Y-119118095D01*
X96789523Y-118832381D02*
X96980000Y-118832381D01*
X97075238Y-118880000D01*
X97122857Y-118927619D01*
X97218095Y-119070476D01*
X97265714Y-119260952D01*
X97265714Y-119641905D01*
X97218095Y-119737143D01*
X97170476Y-119784762D01*
X97075238Y-119832381D01*
X96884761Y-119832381D01*
X96789523Y-119784762D01*
X96741904Y-119737143D01*
X96694285Y-119641905D01*
X96694285Y-119403810D01*
X96741904Y-119308571D01*
X96789523Y-119260952D01*
X96884761Y-119213333D01*
X97075238Y-119213333D01*
X97170476Y-119260952D01*
X97218095Y-119308571D01*
X97265714Y-119403810D01*
X96265714Y-119451429D02*
X95503809Y-119451429D01*
X94503809Y-119832381D02*
X95075238Y-119832381D01*
X94789524Y-119832381D02*
X94789524Y-118832381D01*
X94884762Y-118975238D01*
X94980000Y-119070476D01*
X95075238Y-119118095D01*
X93884762Y-118832381D02*
X93789523Y-118832381D01*
X93694285Y-118880000D01*
X93646666Y-118927619D01*
X93599047Y-119022857D01*
X93551428Y-119213333D01*
X93551428Y-119451429D01*
X93599047Y-119641905D01*
X93646666Y-119737143D01*
X93694285Y-119784762D01*
X93789523Y-119832381D01*
X93884762Y-119832381D01*
X93980000Y-119784762D01*
X94027619Y-119737143D01*
X94075238Y-119641905D01*
X94122857Y-119451429D01*
X94122857Y-119213333D01*
X94075238Y-119022857D01*
X94027619Y-118927619D01*
X93980000Y-118880000D01*
X93884762Y-118832381D01*
X93122857Y-119451429D02*
X92360952Y-119451429D01*
X91932381Y-118927619D02*
X91884762Y-118880000D01*
X91789524Y-118832381D01*
X91551428Y-118832381D01*
X91456190Y-118880000D01*
X91408571Y-118927619D01*
X91360952Y-119022857D01*
X91360952Y-119118095D01*
X91408571Y-119260952D01*
X91980000Y-119832381D01*
X91360952Y-119832381D01*
X91027619Y-118832381D02*
X90408571Y-118832381D01*
X90741905Y-119213333D01*
X90599047Y-119213333D01*
X90503809Y-119260952D01*
X90456190Y-119308571D01*
X90408571Y-119403810D01*
X90408571Y-119641905D01*
X90456190Y-119737143D01*
X90503809Y-119784762D01*
X90599047Y-119832381D01*
X90884762Y-119832381D01*
X90980000Y-119784762D01*
X91027619Y-119737143D01*
X89360952Y-118832381D02*
X89027619Y-119832381D01*
X88694285Y-118832381D01*
X87837142Y-119832381D02*
X88408571Y-119832381D01*
X88122857Y-119832381D02*
X88122857Y-118832381D01*
X88218095Y-118975238D01*
X88313333Y-119070476D01*
X88408571Y-119118095D01*
D12*
G36*
X116099754Y-91920945D02*
X116047189Y-91921480D01*
X115893165Y-91925196D01*
X115764171Y-91936235D01*
X115655809Y-91955782D01*
X115563684Y-91985019D01*
X115483399Y-92025133D01*
X115410558Y-92077305D01*
X115384541Y-92099969D01*
X115341383Y-92152998D01*
X115302467Y-92224957D01*
X115272473Y-92304720D01*
X115256081Y-92381161D01*
X115254378Y-92409408D01*
X115265051Y-92487710D01*
X115293653Y-92573241D01*
X115335057Y-92654199D01*
X115384141Y-92718782D01*
X115392113Y-92726574D01*
X115459646Y-92781344D01*
X115533598Y-92824099D01*
X115618234Y-92855959D01*
X115717817Y-92878044D01*
X115836612Y-92891474D01*
X115978880Y-92897370D01*
X116044046Y-92897870D01*
X116126901Y-92897471D01*
X116185169Y-92895802D01*
X116224316Y-92892158D01*
X116249809Y-92885829D01*
X116267114Y-92876110D01*
X116276390Y-92867810D01*
X116285152Y-92857728D01*
X116292025Y-92844721D01*
X116297238Y-92825305D01*
X116301019Y-92795996D01*
X116303597Y-92753309D01*
X116305200Y-92693761D01*
X116306057Y-92613866D01*
X116306397Y-92510141D01*
X116306449Y-92409408D01*
X116306780Y-92275055D01*
X116306708Y-92167728D01*
X116305430Y-92116331D01*
X116111065Y-92116331D01*
X116111065Y-92702485D01*
X115987071Y-92702371D01*
X115912461Y-92700232D01*
X115834318Y-92694719D01*
X115769120Y-92687008D01*
X115767136Y-92686691D01*
X115661763Y-92661214D01*
X115580032Y-92621536D01*
X115517862Y-92565074D01*
X115478360Y-92503942D01*
X115454020Y-92436129D01*
X115455907Y-92372455D01*
X115484155Y-92304201D01*
X115539408Y-92233592D01*
X115615973Y-92181271D01*
X115715495Y-92146299D01*
X115782007Y-92133922D01*
X115857507Y-92125230D01*
X115937525Y-92118940D01*
X116005584Y-92116324D01*
X116009615Y-92116312D01*
X116111065Y-92116331D01*
X116305430Y-92116331D01*
X116304636Y-92084417D01*
X116298961Y-92022115D01*
X116288087Y-91977811D01*
X116270414Y-91948496D01*
X116244343Y-91931161D01*
X116208275Y-91922797D01*
X116160612Y-91920395D01*
X116099754Y-91920945D01*
X116099754Y-91920945D01*
G37*
X116099754Y-91920945D02*
X116047189Y-91921480D01*
X115893165Y-91925196D01*
X115764171Y-91936235D01*
X115655809Y-91955782D01*
X115563684Y-91985019D01*
X115483399Y-92025133D01*
X115410558Y-92077305D01*
X115384541Y-92099969D01*
X115341383Y-92152998D01*
X115302467Y-92224957D01*
X115272473Y-92304720D01*
X115256081Y-92381161D01*
X115254378Y-92409408D01*
X115265051Y-92487710D01*
X115293653Y-92573241D01*
X115335057Y-92654199D01*
X115384141Y-92718782D01*
X115392113Y-92726574D01*
X115459646Y-92781344D01*
X115533598Y-92824099D01*
X115618234Y-92855959D01*
X115717817Y-92878044D01*
X115836612Y-92891474D01*
X115978880Y-92897370D01*
X116044046Y-92897870D01*
X116126901Y-92897471D01*
X116185169Y-92895802D01*
X116224316Y-92892158D01*
X116249809Y-92885829D01*
X116267114Y-92876110D01*
X116276390Y-92867810D01*
X116285152Y-92857728D01*
X116292025Y-92844721D01*
X116297238Y-92825305D01*
X116301019Y-92795996D01*
X116303597Y-92753309D01*
X116305200Y-92693761D01*
X116306057Y-92613866D01*
X116306397Y-92510141D01*
X116306449Y-92409408D01*
X116306780Y-92275055D01*
X116306708Y-92167728D01*
X116305430Y-92116331D01*
X116111065Y-92116331D01*
X116111065Y-92702485D01*
X115987071Y-92702371D01*
X115912461Y-92700232D01*
X115834318Y-92694719D01*
X115769120Y-92687008D01*
X115767136Y-92686691D01*
X115661763Y-92661214D01*
X115580032Y-92621536D01*
X115517862Y-92565074D01*
X115478360Y-92503942D01*
X115454020Y-92436129D01*
X115455907Y-92372455D01*
X115484155Y-92304201D01*
X115539408Y-92233592D01*
X115615973Y-92181271D01*
X115715495Y-92146299D01*
X115782007Y-92133922D01*
X115857507Y-92125230D01*
X115937525Y-92118940D01*
X116005584Y-92116324D01*
X116009615Y-92116312D01*
X116111065Y-92116331D01*
X116305430Y-92116331D01*
X116304636Y-92084417D01*
X116298961Y-92022115D01*
X116288087Y-91977811D01*
X116270414Y-91948496D01*
X116244343Y-91931161D01*
X116208275Y-91922797D01*
X116160612Y-91920395D01*
X116099754Y-91920945D01*
G36*
X114224430Y-91921052D02*
X114132022Y-91921548D01*
X114062273Y-91922701D01*
X114011483Y-91924780D01*
X113975951Y-91928051D01*
X113951978Y-91932783D01*
X113935864Y-91939243D01*
X113923909Y-91947699D01*
X113919579Y-91951591D01*
X113893251Y-91992940D01*
X113888511Y-92040452D01*
X113905830Y-92082631D01*
X113913839Y-92091156D01*
X113926792Y-92099421D01*
X113947648Y-92105797D01*
X113980276Y-92110595D01*
X114028542Y-92114124D01*
X114096314Y-92116694D01*
X114187460Y-92118617D01*
X114270791Y-92119787D01*
X114600592Y-92123846D01*
X114609606Y-92296686D01*
X114385742Y-92296686D01*
X114288554Y-92297525D01*
X114217403Y-92301032D01*
X114168291Y-92308695D01*
X114137217Y-92322003D01*
X114120184Y-92342441D01*
X114113192Y-92371499D01*
X114112130Y-92398467D01*
X114115430Y-92431557D01*
X114127883Y-92455940D01*
X114153320Y-92472889D01*
X114195571Y-92483679D01*
X114258466Y-92489584D01*
X114345835Y-92491877D01*
X114393521Y-92492071D01*
X114608106Y-92492071D01*
X114608106Y-92702485D01*
X114277455Y-92702485D01*
X114169070Y-92702636D01*
X114086697Y-92703314D01*
X114026289Y-92704856D01*
X113983799Y-92707599D01*
X113955181Y-92711881D01*
X113936388Y-92718039D01*
X113923374Y-92726409D01*
X113916745Y-92732544D01*
X113894007Y-92768349D01*
X113886686Y-92800177D01*
X113897139Y-92839054D01*
X113916745Y-92867810D01*
X113927205Y-92876863D01*
X113940708Y-92883893D01*
X113960886Y-92889154D01*
X113991371Y-92892901D01*
X114035795Y-92895390D01*
X114097791Y-92896875D01*
X114180991Y-92897611D01*
X114289027Y-92897854D01*
X114345089Y-92897870D01*
X114465144Y-92897763D01*
X114558774Y-92897275D01*
X114629609Y-92896149D01*
X114681281Y-92894131D01*
X114717423Y-92890966D01*
X114741668Y-92886399D01*
X114757647Y-92880176D01*
X114768993Y-92872040D01*
X114773432Y-92867810D01*
X114782217Y-92857696D01*
X114789104Y-92844648D01*
X114794321Y-92825170D01*
X114798099Y-92795764D01*
X114800670Y-92752934D01*
X114802264Y-92693184D01*
X114803111Y-92613017D01*
X114803442Y-92508937D01*
X114803491Y-92412028D01*
X114803446Y-92287923D01*
X114803134Y-92190366D01*
X114802288Y-92115846D01*
X114800642Y-92060851D01*
X114797929Y-92021870D01*
X114793883Y-91995393D01*
X114788237Y-91977906D01*
X114780726Y-91965900D01*
X114771082Y-91955863D01*
X114768706Y-91953626D01*
X114757175Y-91943719D01*
X114743778Y-91936048D01*
X114724796Y-91930326D01*
X114696515Y-91926268D01*
X114655218Y-91923588D01*
X114597188Y-91922002D01*
X114518709Y-91921224D01*
X114416066Y-91920968D01*
X114343196Y-91920946D01*
X114224430Y-91921052D01*
X114224430Y-91921052D01*
G37*
X114224430Y-91921052D02*
X114132022Y-91921548D01*
X114062273Y-91922701D01*
X114011483Y-91924780D01*
X113975951Y-91928051D01*
X113951978Y-91932783D01*
X113935864Y-91939243D01*
X113923909Y-91947699D01*
X113919579Y-91951591D01*
X113893251Y-91992940D01*
X113888511Y-92040452D01*
X113905830Y-92082631D01*
X113913839Y-92091156D01*
X113926792Y-92099421D01*
X113947648Y-92105797D01*
X113980276Y-92110595D01*
X114028542Y-92114124D01*
X114096314Y-92116694D01*
X114187460Y-92118617D01*
X114270791Y-92119787D01*
X114600592Y-92123846D01*
X114609606Y-92296686D01*
X114385742Y-92296686D01*
X114288554Y-92297525D01*
X114217403Y-92301032D01*
X114168291Y-92308695D01*
X114137217Y-92322003D01*
X114120184Y-92342441D01*
X114113192Y-92371499D01*
X114112130Y-92398467D01*
X114115430Y-92431557D01*
X114127883Y-92455940D01*
X114153320Y-92472889D01*
X114195571Y-92483679D01*
X114258466Y-92489584D01*
X114345835Y-92491877D01*
X114393521Y-92492071D01*
X114608106Y-92492071D01*
X114608106Y-92702485D01*
X114277455Y-92702485D01*
X114169070Y-92702636D01*
X114086697Y-92703314D01*
X114026289Y-92704856D01*
X113983799Y-92707599D01*
X113955181Y-92711881D01*
X113936388Y-92718039D01*
X113923374Y-92726409D01*
X113916745Y-92732544D01*
X113894007Y-92768349D01*
X113886686Y-92800177D01*
X113897139Y-92839054D01*
X113916745Y-92867810D01*
X113927205Y-92876863D01*
X113940708Y-92883893D01*
X113960886Y-92889154D01*
X113991371Y-92892901D01*
X114035795Y-92895390D01*
X114097791Y-92896875D01*
X114180991Y-92897611D01*
X114289027Y-92897854D01*
X114345089Y-92897870D01*
X114465144Y-92897763D01*
X114558774Y-92897275D01*
X114629609Y-92896149D01*
X114681281Y-92894131D01*
X114717423Y-92890966D01*
X114741668Y-92886399D01*
X114757647Y-92880176D01*
X114768993Y-92872040D01*
X114773432Y-92867810D01*
X114782217Y-92857696D01*
X114789104Y-92844648D01*
X114794321Y-92825170D01*
X114798099Y-92795764D01*
X114800670Y-92752934D01*
X114802264Y-92693184D01*
X114803111Y-92613017D01*
X114803442Y-92508937D01*
X114803491Y-92412028D01*
X114803446Y-92287923D01*
X114803134Y-92190366D01*
X114802288Y-92115846D01*
X114800642Y-92060851D01*
X114797929Y-92021870D01*
X114793883Y-91995393D01*
X114788237Y-91977906D01*
X114780726Y-91965900D01*
X114771082Y-91955863D01*
X114768706Y-91953626D01*
X114757175Y-91943719D01*
X114743778Y-91936048D01*
X114724796Y-91930326D01*
X114696515Y-91926268D01*
X114655218Y-91923588D01*
X114597188Y-91922002D01*
X114518709Y-91921224D01*
X114416066Y-91920968D01*
X114343196Y-91920946D01*
X114224430Y-91921052D01*
G36*
X112864988Y-91922657D02*
X112765383Y-91929620D01*
X112672744Y-91940495D01*
X112592458Y-91954874D01*
X112529908Y-91972346D01*
X112490481Y-91992502D01*
X112484429Y-91998435D01*
X112463384Y-92044475D01*
X112469766Y-92091740D01*
X112502407Y-92132178D01*
X112503964Y-92133337D01*
X112523163Y-92145797D01*
X112543205Y-92152349D01*
X112571160Y-92153144D01*
X112614099Y-92148336D01*
X112679091Y-92138075D01*
X112684319Y-92137211D01*
X112781161Y-92125314D01*
X112885644Y-92119445D01*
X112990435Y-92119388D01*
X113088202Y-92124927D01*
X113171612Y-92135845D01*
X113233333Y-92151925D01*
X113237388Y-92153541D01*
X113282164Y-92178629D01*
X113297896Y-92204018D01*
X113285580Y-92228987D01*
X113246215Y-92252816D01*
X113180798Y-92274782D01*
X113090326Y-92294166D01*
X113030000Y-92303498D01*
X112904600Y-92321449D01*
X112804865Y-92337859D01*
X112726546Y-92354148D01*
X112665393Y-92371738D01*
X112617159Y-92392049D01*
X112577595Y-92416503D01*
X112542452Y-92446520D01*
X112514211Y-92475996D01*
X112480708Y-92517067D01*
X112464219Y-92552382D01*
X112459063Y-92595893D01*
X112458876Y-92611828D01*
X112462748Y-92664705D01*
X112478227Y-92704043D01*
X112505015Y-92738960D01*
X112559459Y-92792334D01*
X112620170Y-92833038D01*
X112691658Y-92862400D01*
X112778436Y-92881747D01*
X112885014Y-92892406D01*
X113015903Y-92895705D01*
X113037515Y-92895649D01*
X113124798Y-92893840D01*
X113211359Y-92889729D01*
X113287762Y-92883906D01*
X113344570Y-92876961D01*
X113349164Y-92876164D01*
X113405645Y-92862784D01*
X113453552Y-92845882D01*
X113480673Y-92830431D01*
X113505911Y-92789666D01*
X113507669Y-92742198D01*
X113485912Y-92699895D01*
X113481044Y-92695112D01*
X113460922Y-92680899D01*
X113435758Y-92674776D01*
X113396813Y-92675818D01*
X113349535Y-92681234D01*
X113296705Y-92686073D01*
X113222648Y-92690155D01*
X113136191Y-92693118D01*
X113046163Y-92694597D01*
X113022485Y-92694694D01*
X112932122Y-92694330D01*
X112865989Y-92692576D01*
X112818267Y-92688823D01*
X112783138Y-92682463D01*
X112754782Y-92672887D01*
X112737741Y-92664911D01*
X112700296Y-92642765D01*
X112676421Y-92622708D01*
X112672932Y-92617023D01*
X112680293Y-92593545D01*
X112715287Y-92570817D01*
X112775488Y-92549870D01*
X112858471Y-92531736D01*
X112882920Y-92527697D01*
X113010622Y-92507639D01*
X113112540Y-92490874D01*
X113192606Y-92476183D01*
X113254754Y-92462348D01*
X113302918Y-92448151D01*
X113341032Y-92432373D01*
X113373030Y-92413796D01*
X113402844Y-92391202D01*
X113434410Y-92363373D01*
X113445032Y-92353616D01*
X113482273Y-92317202D01*
X113501987Y-92288352D01*
X113509699Y-92255338D01*
X113510947Y-92213735D01*
X113497215Y-92132151D01*
X113456178Y-92062834D01*
X113388070Y-92006008D01*
X113293127Y-91961897D01*
X113225384Y-91942112D01*
X113151759Y-91929333D01*
X113063561Y-91922104D01*
X112966176Y-91920015D01*
X112864988Y-91922657D01*
X112864988Y-91922657D01*
G37*
X112864988Y-91922657D02*
X112765383Y-91929620D01*
X112672744Y-91940495D01*
X112592458Y-91954874D01*
X112529908Y-91972346D01*
X112490481Y-91992502D01*
X112484429Y-91998435D01*
X112463384Y-92044475D01*
X112469766Y-92091740D01*
X112502407Y-92132178D01*
X112503964Y-92133337D01*
X112523163Y-92145797D01*
X112543205Y-92152349D01*
X112571160Y-92153144D01*
X112614099Y-92148336D01*
X112679091Y-92138075D01*
X112684319Y-92137211D01*
X112781161Y-92125314D01*
X112885644Y-92119445D01*
X112990435Y-92119388D01*
X113088202Y-92124927D01*
X113171612Y-92135845D01*
X113233333Y-92151925D01*
X113237388Y-92153541D01*
X113282164Y-92178629D01*
X113297896Y-92204018D01*
X113285580Y-92228987D01*
X113246215Y-92252816D01*
X113180798Y-92274782D01*
X113090326Y-92294166D01*
X113030000Y-92303498D01*
X112904600Y-92321449D01*
X112804865Y-92337859D01*
X112726546Y-92354148D01*
X112665393Y-92371738D01*
X112617159Y-92392049D01*
X112577595Y-92416503D01*
X112542452Y-92446520D01*
X112514211Y-92475996D01*
X112480708Y-92517067D01*
X112464219Y-92552382D01*
X112459063Y-92595893D01*
X112458876Y-92611828D01*
X112462748Y-92664705D01*
X112478227Y-92704043D01*
X112505015Y-92738960D01*
X112559459Y-92792334D01*
X112620170Y-92833038D01*
X112691658Y-92862400D01*
X112778436Y-92881747D01*
X112885014Y-92892406D01*
X113015903Y-92895705D01*
X113037515Y-92895649D01*
X113124798Y-92893840D01*
X113211359Y-92889729D01*
X113287762Y-92883906D01*
X113344570Y-92876961D01*
X113349164Y-92876164D01*
X113405645Y-92862784D01*
X113453552Y-92845882D01*
X113480673Y-92830431D01*
X113505911Y-92789666D01*
X113507669Y-92742198D01*
X113485912Y-92699895D01*
X113481044Y-92695112D01*
X113460922Y-92680899D01*
X113435758Y-92674776D01*
X113396813Y-92675818D01*
X113349535Y-92681234D01*
X113296705Y-92686073D01*
X113222648Y-92690155D01*
X113136191Y-92693118D01*
X113046163Y-92694597D01*
X113022485Y-92694694D01*
X112932122Y-92694330D01*
X112865989Y-92692576D01*
X112818267Y-92688823D01*
X112783138Y-92682463D01*
X112754782Y-92672887D01*
X112737741Y-92664911D01*
X112700296Y-92642765D01*
X112676421Y-92622708D01*
X112672932Y-92617023D01*
X112680293Y-92593545D01*
X112715287Y-92570817D01*
X112775488Y-92549870D01*
X112858471Y-92531736D01*
X112882920Y-92527697D01*
X113010622Y-92507639D01*
X113112540Y-92490874D01*
X113192606Y-92476183D01*
X113254754Y-92462348D01*
X113302918Y-92448151D01*
X113341032Y-92432373D01*
X113373030Y-92413796D01*
X113402844Y-92391202D01*
X113434410Y-92363373D01*
X113445032Y-92353616D01*
X113482273Y-92317202D01*
X113501987Y-92288352D01*
X113509699Y-92255338D01*
X113510947Y-92213735D01*
X113497215Y-92132151D01*
X113456178Y-92062834D01*
X113388070Y-92006008D01*
X113293127Y-91961897D01*
X113225384Y-91942112D01*
X113151759Y-91929333D01*
X113063561Y-91922104D01*
X112966176Y-91920015D01*
X112864988Y-91922657D01*
G36*
X111842663Y-91951006D02*
X111833901Y-91961088D01*
X111827028Y-91974095D01*
X111821815Y-91993511D01*
X111818034Y-92022820D01*
X111815456Y-92065507D01*
X111813853Y-92125055D01*
X111812995Y-92204950D01*
X111812656Y-92308676D01*
X111812603Y-92409408D01*
X111812696Y-92534352D01*
X111813127Y-92632721D01*
X111814123Y-92708001D01*
X111815915Y-92763674D01*
X111818729Y-92803226D01*
X111822796Y-92830141D01*
X111828342Y-92847903D01*
X111835597Y-92859997D01*
X111842663Y-92867810D01*
X111886602Y-92894012D01*
X111933420Y-92891661D01*
X111975309Y-92863084D01*
X111984934Y-92851927D01*
X111992455Y-92838983D01*
X111998134Y-92820672D01*
X112002227Y-92793418D01*
X112004995Y-92753640D01*
X112006696Y-92697762D01*
X112007589Y-92622204D01*
X112007933Y-92523388D01*
X112007988Y-92411514D01*
X112007988Y-91994728D01*
X111971097Y-91957837D01*
X111925625Y-91926800D01*
X111881516Y-91925681D01*
X111842663Y-91951006D01*
X111842663Y-91951006D01*
G37*
X111842663Y-91951006D02*
X111833901Y-91961088D01*
X111827028Y-91974095D01*
X111821815Y-91993511D01*
X111818034Y-92022820D01*
X111815456Y-92065507D01*
X111813853Y-92125055D01*
X111812995Y-92204950D01*
X111812656Y-92308676D01*
X111812603Y-92409408D01*
X111812696Y-92534352D01*
X111813127Y-92632721D01*
X111814123Y-92708001D01*
X111815915Y-92763674D01*
X111818729Y-92803226D01*
X111822796Y-92830141D01*
X111828342Y-92847903D01*
X111835597Y-92859997D01*
X111842663Y-92867810D01*
X111886602Y-92894012D01*
X111933420Y-92891661D01*
X111975309Y-92863084D01*
X111984934Y-92851927D01*
X111992455Y-92838983D01*
X111998134Y-92820672D01*
X112002227Y-92793418D01*
X112004995Y-92753640D01*
X112006696Y-92697762D01*
X112007589Y-92622204D01*
X112007933Y-92523388D01*
X112007988Y-92411514D01*
X112007988Y-91994728D01*
X111971097Y-91957837D01*
X111925625Y-91926800D01*
X111881516Y-91925681D01*
X111842663Y-91951006D01*
G36*
X110546262Y-91928312D02*
X110455041Y-91943618D01*
X110384982Y-91967411D01*
X110339404Y-91998740D01*
X110326984Y-92016614D01*
X110314354Y-92058185D01*
X110322853Y-92095792D01*
X110349685Y-92131455D01*
X110391376Y-92148139D01*
X110451870Y-92146784D01*
X110498659Y-92137745D01*
X110602628Y-92120523D01*
X110708880Y-92118887D01*
X110827809Y-92132865D01*
X110860660Y-92138788D01*
X110971245Y-92169967D01*
X111057759Y-92216346D01*
X111119253Y-92277135D01*
X111154778Y-92351544D01*
X111162125Y-92390014D01*
X111157316Y-92468063D01*
X111126266Y-92537117D01*
X111071806Y-92595829D01*
X110996764Y-92642853D01*
X110903970Y-92676843D01*
X110796252Y-92696454D01*
X110676441Y-92700341D01*
X110547365Y-92687156D01*
X110540077Y-92685912D01*
X110488738Y-92676350D01*
X110460272Y-92667114D01*
X110447934Y-92653409D01*
X110444978Y-92630442D01*
X110444911Y-92618279D01*
X110444911Y-92567219D01*
X110536077Y-92567219D01*
X110616582Y-92561704D01*
X110671521Y-92544130D01*
X110703486Y-92512953D01*
X110715072Y-92466630D01*
X110715213Y-92460584D01*
X110708435Y-92420989D01*
X110685191Y-92392717D01*
X110641930Y-92374007D01*
X110575101Y-92363100D01*
X110510370Y-92359090D01*
X110416287Y-92356789D01*
X110348044Y-92360300D01*
X110301501Y-92373255D01*
X110272518Y-92399286D01*
X110256955Y-92442027D01*
X110250671Y-92505110D01*
X110249526Y-92587964D01*
X110251402Y-92680446D01*
X110257046Y-92743354D01*
X110266482Y-92776939D01*
X110268313Y-92779569D01*
X110320125Y-92821534D01*
X110396090Y-92854768D01*
X110491392Y-92878559D01*
X110601216Y-92892199D01*
X110720746Y-92894978D01*
X110845166Y-92886185D01*
X110918343Y-92875385D01*
X111033120Y-92842898D01*
X111139796Y-92789786D01*
X111229111Y-92720855D01*
X111242686Y-92707078D01*
X111286792Y-92649158D01*
X111326589Y-92577376D01*
X111357427Y-92502119D01*
X111374657Y-92433777D01*
X111376734Y-92407529D01*
X111367893Y-92352777D01*
X111344395Y-92284655D01*
X111310749Y-92212950D01*
X111271464Y-92147449D01*
X111236755Y-92103698D01*
X111155603Y-92038619D01*
X111050698Y-91986821D01*
X110925800Y-91949474D01*
X110784667Y-91927753D01*
X110655325Y-91922445D01*
X110546262Y-91928312D01*
X110546262Y-91928312D01*
G37*
X110546262Y-91928312D02*
X110455041Y-91943618D01*
X110384982Y-91967411D01*
X110339404Y-91998740D01*
X110326984Y-92016614D01*
X110314354Y-92058185D01*
X110322853Y-92095792D01*
X110349685Y-92131455D01*
X110391376Y-92148139D01*
X110451870Y-92146784D01*
X110498659Y-92137745D01*
X110602628Y-92120523D01*
X110708880Y-92118887D01*
X110827809Y-92132865D01*
X110860660Y-92138788D01*
X110971245Y-92169967D01*
X111057759Y-92216346D01*
X111119253Y-92277135D01*
X111154778Y-92351544D01*
X111162125Y-92390014D01*
X111157316Y-92468063D01*
X111126266Y-92537117D01*
X111071806Y-92595829D01*
X110996764Y-92642853D01*
X110903970Y-92676843D01*
X110796252Y-92696454D01*
X110676441Y-92700341D01*
X110547365Y-92687156D01*
X110540077Y-92685912D01*
X110488738Y-92676350D01*
X110460272Y-92667114D01*
X110447934Y-92653409D01*
X110444978Y-92630442D01*
X110444911Y-92618279D01*
X110444911Y-92567219D01*
X110536077Y-92567219D01*
X110616582Y-92561704D01*
X110671521Y-92544130D01*
X110703486Y-92512953D01*
X110715072Y-92466630D01*
X110715213Y-92460584D01*
X110708435Y-92420989D01*
X110685191Y-92392717D01*
X110641930Y-92374007D01*
X110575101Y-92363100D01*
X110510370Y-92359090D01*
X110416287Y-92356789D01*
X110348044Y-92360300D01*
X110301501Y-92373255D01*
X110272518Y-92399286D01*
X110256955Y-92442027D01*
X110250671Y-92505110D01*
X110249526Y-92587964D01*
X110251402Y-92680446D01*
X110257046Y-92743354D01*
X110266482Y-92776939D01*
X110268313Y-92779569D01*
X110320125Y-92821534D01*
X110396090Y-92854768D01*
X110491392Y-92878559D01*
X110601216Y-92892199D01*
X110720746Y-92894978D01*
X110845166Y-92886185D01*
X110918343Y-92875385D01*
X111033120Y-92842898D01*
X111139796Y-92789786D01*
X111229111Y-92720855D01*
X111242686Y-92707078D01*
X111286792Y-92649158D01*
X111326589Y-92577376D01*
X111357427Y-92502119D01*
X111374657Y-92433777D01*
X111376734Y-92407529D01*
X111367893Y-92352777D01*
X111344395Y-92284655D01*
X111310749Y-92212950D01*
X111271464Y-92147449D01*
X111236755Y-92103698D01*
X111155603Y-92038619D01*
X111050698Y-91986821D01*
X110925800Y-91949474D01*
X110784667Y-91927753D01*
X110655325Y-91922445D01*
X110546262Y-91928312D01*
G36*
X109680920Y-91926780D02*
X109649545Y-91945185D01*
X109608522Y-91975285D01*
X109555724Y-92018496D01*
X109489025Y-92076238D01*
X109406299Y-92149928D01*
X109305420Y-92240984D01*
X109189941Y-92345674D01*
X108949467Y-92563743D01*
X108941952Y-92271044D01*
X108939239Y-92170290D01*
X108936622Y-92095258D01*
X108933520Y-92041620D01*
X108929356Y-92005046D01*
X108923551Y-91981207D01*
X108915524Y-91965774D01*
X108904697Y-91954418D01*
X108898956Y-91949646D01*
X108852983Y-91924413D01*
X108809237Y-91928102D01*
X108774535Y-91949659D01*
X108739053Y-91978371D01*
X108734640Y-92397686D01*
X108733419Y-92521007D01*
X108732797Y-92617884D01*
X108732990Y-92691930D01*
X108734214Y-92746757D01*
X108736684Y-92785979D01*
X108740614Y-92813209D01*
X108746220Y-92832059D01*
X108753718Y-92846141D01*
X108762033Y-92857435D01*
X108780022Y-92878382D01*
X108797921Y-92892267D01*
X108818212Y-92897596D01*
X108843378Y-92892876D01*
X108875900Y-92876613D01*
X108918263Y-92847313D01*
X108972948Y-92803482D01*
X109042437Y-92743627D01*
X109129215Y-92666254D01*
X109227515Y-92577350D01*
X109580710Y-92256971D01*
X109588225Y-92548713D01*
X109590943Y-92649283D01*
X109593567Y-92724140D01*
X109596679Y-92777620D01*
X109600862Y-92814062D01*
X109606697Y-92837804D01*
X109614766Y-92853182D01*
X109625651Y-92864536D01*
X109631221Y-92869162D01*
X109680456Y-92894578D01*
X109726977Y-92890745D01*
X109767489Y-92858269D01*
X109776756Y-92845203D01*
X109783979Y-92829945D01*
X109789412Y-92808832D01*
X109793308Y-92778205D01*
X109795921Y-92734402D01*
X109797507Y-92673763D01*
X109798318Y-92592627D01*
X109798608Y-92487333D01*
X109798639Y-92409408D01*
X109798541Y-92287524D01*
X109798079Y-92192039D01*
X109796997Y-92119291D01*
X109795043Y-92065619D01*
X109791962Y-92027363D01*
X109787500Y-92000863D01*
X109781403Y-91982456D01*
X109773417Y-91968484D01*
X109767489Y-91960547D01*
X109752462Y-91941748D01*
X109738418Y-91927553D01*
X109723230Y-91919382D01*
X109704773Y-91918652D01*
X109680920Y-91926780D01*
X109680920Y-91926780D01*
G37*
X109680920Y-91926780D02*
X109649545Y-91945185D01*
X109608522Y-91975285D01*
X109555724Y-92018496D01*
X109489025Y-92076238D01*
X109406299Y-92149928D01*
X109305420Y-92240984D01*
X109189941Y-92345674D01*
X108949467Y-92563743D01*
X108941952Y-92271044D01*
X108939239Y-92170290D01*
X108936622Y-92095258D01*
X108933520Y-92041620D01*
X108929356Y-92005046D01*
X108923551Y-91981207D01*
X108915524Y-91965774D01*
X108904697Y-91954418D01*
X108898956Y-91949646D01*
X108852983Y-91924413D01*
X108809237Y-91928102D01*
X108774535Y-91949659D01*
X108739053Y-91978371D01*
X108734640Y-92397686D01*
X108733419Y-92521007D01*
X108732797Y-92617884D01*
X108732990Y-92691930D01*
X108734214Y-92746757D01*
X108736684Y-92785979D01*
X108740614Y-92813209D01*
X108746220Y-92832059D01*
X108753718Y-92846141D01*
X108762033Y-92857435D01*
X108780022Y-92878382D01*
X108797921Y-92892267D01*
X108818212Y-92897596D01*
X108843378Y-92892876D01*
X108875900Y-92876613D01*
X108918263Y-92847313D01*
X108972948Y-92803482D01*
X109042437Y-92743627D01*
X109129215Y-92666254D01*
X109227515Y-92577350D01*
X109580710Y-92256971D01*
X109588225Y-92548713D01*
X109590943Y-92649283D01*
X109593567Y-92724140D01*
X109596679Y-92777620D01*
X109600862Y-92814062D01*
X109606697Y-92837804D01*
X109614766Y-92853182D01*
X109625651Y-92864536D01*
X109631221Y-92869162D01*
X109680456Y-92894578D01*
X109726977Y-92890745D01*
X109767489Y-92858269D01*
X109776756Y-92845203D01*
X109783979Y-92829945D01*
X109789412Y-92808832D01*
X109793308Y-92778205D01*
X109795921Y-92734402D01*
X109797507Y-92673763D01*
X109798318Y-92592627D01*
X109798608Y-92487333D01*
X109798639Y-92409408D01*
X109798541Y-92287524D01*
X109798079Y-92192039D01*
X109796997Y-92119291D01*
X109795043Y-92065619D01*
X109791962Y-92027363D01*
X109787500Y-92000863D01*
X109781403Y-91982456D01*
X109773417Y-91968484D01*
X109767489Y-91960547D01*
X109752462Y-91941748D01*
X109738418Y-91927553D01*
X109723230Y-91919382D01*
X109704773Y-91918652D01*
X109680920Y-91926780D01*
G36*
X107643330Y-91921203D02*
X107541669Y-91922420D01*
X107463764Y-91925266D01*
X107406465Y-91930410D01*
X107366619Y-91938520D01*
X107341078Y-91950267D01*
X107326689Y-91966318D01*
X107320301Y-91987344D01*
X107318765Y-92014012D01*
X107318757Y-92017162D01*
X107320091Y-92047326D01*
X107326395Y-92070639D01*
X107341124Y-92088042D01*
X107367731Y-92100476D01*
X107409672Y-92108881D01*
X107470400Y-92114201D01*
X107553370Y-92117375D01*
X107662035Y-92119345D01*
X107695341Y-92119781D01*
X108017633Y-92123846D01*
X108022140Y-92210266D01*
X108026648Y-92296686D01*
X107802783Y-92296686D01*
X107715325Y-92297009D01*
X107652877Y-92298373D01*
X107610392Y-92301375D01*
X107582823Y-92306609D01*
X107565124Y-92314671D01*
X107552249Y-92326156D01*
X107552166Y-92326247D01*
X107528816Y-92371007D01*
X107529660Y-92419383D01*
X107554167Y-92460622D01*
X107559017Y-92464861D01*
X107576231Y-92475785D01*
X107599820Y-92483385D01*
X107635039Y-92488233D01*
X107687146Y-92490902D01*
X107761396Y-92491964D01*
X107808884Y-92492071D01*
X108025148Y-92492071D01*
X108025148Y-92702485D01*
X107696826Y-92702485D01*
X107588428Y-92702675D01*
X107506111Y-92703450D01*
X107445897Y-92705120D01*
X107403811Y-92707994D01*
X107375875Y-92712383D01*
X107358112Y-92718595D01*
X107346546Y-92726940D01*
X107343631Y-92729970D01*
X107322110Y-92771970D01*
X107320536Y-92819750D01*
X107338191Y-92861178D01*
X107352161Y-92874473D01*
X107366692Y-92881792D01*
X107389208Y-92887455D01*
X107423270Y-92891659D01*
X107472439Y-92894604D01*
X107540278Y-92896487D01*
X107630348Y-92897506D01*
X107746209Y-92897861D01*
X107772403Y-92897870D01*
X107890207Y-92897792D01*
X107981650Y-92897367D01*
X108050432Y-92896302D01*
X108100250Y-92894305D01*
X108134806Y-92891086D01*
X108157796Y-92886352D01*
X108172920Y-92879813D01*
X108183877Y-92871177D01*
X108189888Y-92864976D01*
X108198936Y-92853993D01*
X108206004Y-92840388D01*
X108211337Y-92820592D01*
X108215178Y-92791038D01*
X108217771Y-92748157D01*
X108219359Y-92688381D01*
X108220185Y-92608143D01*
X108220494Y-92503875D01*
X108220532Y-92416116D01*
X108220438Y-92293144D01*
X108219989Y-92196605D01*
X108218938Y-92122875D01*
X108217036Y-92068326D01*
X108214037Y-92029335D01*
X108209691Y-92002275D01*
X108203752Y-91983520D01*
X108195971Y-91969446D01*
X108189382Y-91960547D01*
X108158232Y-91920946D01*
X107771898Y-91920946D01*
X107643330Y-91921203D01*
X107643330Y-91921203D01*
G37*
X107643330Y-91921203D02*
X107541669Y-91922420D01*
X107463764Y-91925266D01*
X107406465Y-91930410D01*
X107366619Y-91938520D01*
X107341078Y-91950267D01*
X107326689Y-91966318D01*
X107320301Y-91987344D01*
X107318765Y-92014012D01*
X107318757Y-92017162D01*
X107320091Y-92047326D01*
X107326395Y-92070639D01*
X107341124Y-92088042D01*
X107367731Y-92100476D01*
X107409672Y-92108881D01*
X107470400Y-92114201D01*
X107553370Y-92117375D01*
X107662035Y-92119345D01*
X107695341Y-92119781D01*
X108017633Y-92123846D01*
X108022140Y-92210266D01*
X108026648Y-92296686D01*
X107802783Y-92296686D01*
X107715325Y-92297009D01*
X107652877Y-92298373D01*
X107610392Y-92301375D01*
X107582823Y-92306609D01*
X107565124Y-92314671D01*
X107552249Y-92326156D01*
X107552166Y-92326247D01*
X107528816Y-92371007D01*
X107529660Y-92419383D01*
X107554167Y-92460622D01*
X107559017Y-92464861D01*
X107576231Y-92475785D01*
X107599820Y-92483385D01*
X107635039Y-92488233D01*
X107687146Y-92490902D01*
X107761396Y-92491964D01*
X107808884Y-92492071D01*
X108025148Y-92492071D01*
X108025148Y-92702485D01*
X107696826Y-92702485D01*
X107588428Y-92702675D01*
X107506111Y-92703450D01*
X107445897Y-92705120D01*
X107403811Y-92707994D01*
X107375875Y-92712383D01*
X107358112Y-92718595D01*
X107346546Y-92726940D01*
X107343631Y-92729970D01*
X107322110Y-92771970D01*
X107320536Y-92819750D01*
X107338191Y-92861178D01*
X107352161Y-92874473D01*
X107366692Y-92881792D01*
X107389208Y-92887455D01*
X107423270Y-92891659D01*
X107472439Y-92894604D01*
X107540278Y-92896487D01*
X107630348Y-92897506D01*
X107746209Y-92897861D01*
X107772403Y-92897870D01*
X107890207Y-92897792D01*
X107981650Y-92897367D01*
X108050432Y-92896302D01*
X108100250Y-92894305D01*
X108134806Y-92891086D01*
X108157796Y-92886352D01*
X108172920Y-92879813D01*
X108183877Y-92871177D01*
X108189888Y-92864976D01*
X108198936Y-92853993D01*
X108206004Y-92840388D01*
X108211337Y-92820592D01*
X108215178Y-92791038D01*
X108217771Y-92748157D01*
X108219359Y-92688381D01*
X108220185Y-92608143D01*
X108220494Y-92503875D01*
X108220532Y-92416116D01*
X108220438Y-92293144D01*
X108219989Y-92196605D01*
X108218938Y-92122875D01*
X108217036Y-92068326D01*
X108214037Y-92029335D01*
X108209691Y-92002275D01*
X108203752Y-91983520D01*
X108195971Y-91969446D01*
X108189382Y-91960547D01*
X108158232Y-91920946D01*
X107771898Y-91920946D01*
X107643330Y-91921203D01*
G36*
X106594263Y-91921223D02*
X106422545Y-91927029D01*
X106276491Y-91944637D01*
X106153693Y-91975099D01*
X106051743Y-92019471D01*
X105968232Y-92078807D01*
X105900753Y-92154160D01*
X105846897Y-92246586D01*
X105845838Y-92248840D01*
X105813697Y-92331560D01*
X105802245Y-92404820D01*
X105811526Y-92478548D01*
X105841585Y-92562671D01*
X105847285Y-92575473D01*
X105886161Y-92650398D01*
X105929851Y-92708293D01*
X105986240Y-92757508D01*
X106063208Y-92806393D01*
X106067680Y-92808945D01*
X106134683Y-92841131D01*
X106210415Y-92865168D01*
X106299742Y-92881887D01*
X106407531Y-92892115D01*
X106538648Y-92896682D01*
X106584974Y-92897079D01*
X106805570Y-92897870D01*
X106836720Y-92858269D01*
X106845960Y-92845247D01*
X106853168Y-92830040D01*
X106858596Y-92809002D01*
X106862495Y-92778486D01*
X106865117Y-92734847D01*
X106865972Y-92702485D01*
X106657455Y-92702485D01*
X106532464Y-92702485D01*
X106459323Y-92700346D01*
X106384239Y-92694717D01*
X106322616Y-92686779D01*
X106318897Y-92686111D01*
X106209447Y-92656748D01*
X106124552Y-92612633D01*
X106061528Y-92551719D01*
X106017686Y-92471960D01*
X106010063Y-92450820D01*
X106002590Y-92417898D01*
X106005825Y-92385372D01*
X106021567Y-92342100D01*
X106031056Y-92320843D01*
X106062129Y-92264356D01*
X106099567Y-92224727D01*
X106140759Y-92197130D01*
X106223270Y-92161218D01*
X106328867Y-92135204D01*
X106451882Y-92120224D01*
X106540976Y-92116928D01*
X106657455Y-92116331D01*
X106657455Y-92702485D01*
X106865972Y-92702485D01*
X106866714Y-92674436D01*
X106867536Y-92593608D01*
X106867836Y-92488717D01*
X106867870Y-92406698D01*
X106867870Y-91994728D01*
X106830979Y-91957837D01*
X106814606Y-91942884D01*
X106796903Y-91932644D01*
X106772181Y-91926237D01*
X106734752Y-91922783D01*
X106678927Y-91921403D01*
X106599018Y-91921217D01*
X106594263Y-91921223D01*
X106594263Y-91921223D01*
G37*
X106594263Y-91921223D02*
X106422545Y-91927029D01*
X106276491Y-91944637D01*
X106153693Y-91975099D01*
X106051743Y-92019471D01*
X105968232Y-92078807D01*
X105900753Y-92154160D01*
X105846897Y-92246586D01*
X105845838Y-92248840D01*
X105813697Y-92331560D01*
X105802245Y-92404820D01*
X105811526Y-92478548D01*
X105841585Y-92562671D01*
X105847285Y-92575473D01*
X105886161Y-92650398D01*
X105929851Y-92708293D01*
X105986240Y-92757508D01*
X106063208Y-92806393D01*
X106067680Y-92808945D01*
X106134683Y-92841131D01*
X106210415Y-92865168D01*
X106299742Y-92881887D01*
X106407531Y-92892115D01*
X106538648Y-92896682D01*
X106584974Y-92897079D01*
X106805570Y-92897870D01*
X106836720Y-92858269D01*
X106845960Y-92845247D01*
X106853168Y-92830040D01*
X106858596Y-92809002D01*
X106862495Y-92778486D01*
X106865117Y-92734847D01*
X106865972Y-92702485D01*
X106657455Y-92702485D01*
X106532464Y-92702485D01*
X106459323Y-92700346D01*
X106384239Y-92694717D01*
X106322616Y-92686779D01*
X106318897Y-92686111D01*
X106209447Y-92656748D01*
X106124552Y-92612633D01*
X106061528Y-92551719D01*
X106017686Y-92471960D01*
X106010063Y-92450820D01*
X106002590Y-92417898D01*
X106005825Y-92385372D01*
X106021567Y-92342100D01*
X106031056Y-92320843D01*
X106062129Y-92264356D01*
X106099567Y-92224727D01*
X106140759Y-92197130D01*
X106223270Y-92161218D01*
X106328867Y-92135204D01*
X106451882Y-92120224D01*
X106540976Y-92116928D01*
X106657455Y-92116331D01*
X106657455Y-92702485D01*
X106865972Y-92702485D01*
X106866714Y-92674436D01*
X106867536Y-92593608D01*
X106867836Y-92488717D01*
X106867870Y-92406698D01*
X106867870Y-91994728D01*
X106830979Y-91957837D01*
X106814606Y-91942884D01*
X106796903Y-91932644D01*
X106772181Y-91926237D01*
X106734752Y-91922783D01*
X106678927Y-91921403D01*
X106599018Y-91921217D01*
X106594263Y-91921223D01*
G36*
X102964499Y-91923566D02*
X102938418Y-91932886D01*
X102937412Y-91933342D01*
X102901994Y-91960370D01*
X102882480Y-91988172D01*
X102878662Y-92001208D01*
X102878851Y-92018528D01*
X102884224Y-92043203D01*
X102895958Y-92078300D01*
X102915233Y-92126889D01*
X102943224Y-92192038D01*
X102981110Y-92276817D01*
X103030068Y-92384295D01*
X103057015Y-92443039D01*
X103105676Y-92547909D01*
X103151356Y-92644350D01*
X103192312Y-92728834D01*
X103226800Y-92797836D01*
X103253077Y-92847830D01*
X103269400Y-92875290D01*
X103272630Y-92879083D01*
X103313957Y-92895816D01*
X103360637Y-92893575D01*
X103398076Y-92873223D01*
X103399602Y-92871568D01*
X103414495Y-92849022D01*
X103439477Y-92805107D01*
X103471467Y-92745476D01*
X103507386Y-92675782D01*
X103520294Y-92650099D01*
X103617732Y-92454933D01*
X103723940Y-92666943D01*
X103761849Y-92740197D01*
X103797019Y-92803726D01*
X103826578Y-92852667D01*
X103847652Y-92882158D01*
X103854794Y-92888412D01*
X103910308Y-92896881D01*
X103956117Y-92879083D01*
X103969592Y-92860061D01*
X103992910Y-92817785D01*
X104024169Y-92756416D01*
X104061466Y-92680112D01*
X104102900Y-92593035D01*
X104146568Y-92499343D01*
X104190568Y-92403197D01*
X104232998Y-92308757D01*
X104271956Y-92220181D01*
X104305539Y-92141632D01*
X104331845Y-92077267D01*
X104348972Y-92031247D01*
X104355017Y-92007733D01*
X104354955Y-92006881D01*
X104340246Y-91977292D01*
X104310844Y-91947156D01*
X104309113Y-91945844D01*
X104272976Y-91925418D01*
X104239552Y-91925616D01*
X104227024Y-91929467D01*
X104211759Y-91937789D01*
X104195548Y-91954161D01*
X104176447Y-91981978D01*
X104152511Y-92024636D01*
X104121795Y-92085531D01*
X104082355Y-92168061D01*
X104046788Y-92244243D01*
X104005869Y-92332550D01*
X103969202Y-92411962D01*
X103938692Y-92478332D01*
X103916244Y-92527511D01*
X103903763Y-92555349D01*
X103901943Y-92559704D01*
X103893756Y-92552585D01*
X103874941Y-92522777D01*
X103848000Y-92474632D01*
X103815438Y-92412499D01*
X103802480Y-92386864D01*
X103758586Y-92300301D01*
X103724735Y-92237261D01*
X103698149Y-92194078D01*
X103676051Y-92167088D01*
X103655662Y-92152624D01*
X103634206Y-92147023D01*
X103620223Y-92146390D01*
X103595558Y-92148576D01*
X103573944Y-92157615D01*
X103552468Y-92177233D01*
X103528216Y-92211153D01*
X103498276Y-92263098D01*
X103459733Y-92336794D01*
X103438468Y-92378716D01*
X103403974Y-92445530D01*
X103373890Y-92500937D01*
X103350869Y-92540263D01*
X103337566Y-92558832D01*
X103335757Y-92559605D01*
X103327166Y-92544991D01*
X103307932Y-92507043D01*
X103279981Y-92449732D01*
X103245239Y-92377032D01*
X103205633Y-92292912D01*
X103186150Y-92251130D01*
X103135466Y-92143299D01*
X103094653Y-92060326D01*
X103061592Y-91999502D01*
X103034165Y-91958121D01*
X103010254Y-91933476D01*
X102987738Y-91922860D01*
X102964499Y-91923566D01*
X102964499Y-91923566D01*
G37*
X102964499Y-91923566D02*
X102938418Y-91932886D01*
X102937412Y-91933342D01*
X102901994Y-91960370D01*
X102882480Y-91988172D01*
X102878662Y-92001208D01*
X102878851Y-92018528D01*
X102884224Y-92043203D01*
X102895958Y-92078300D01*
X102915233Y-92126889D01*
X102943224Y-92192038D01*
X102981110Y-92276817D01*
X103030068Y-92384295D01*
X103057015Y-92443039D01*
X103105676Y-92547909D01*
X103151356Y-92644350D01*
X103192312Y-92728834D01*
X103226800Y-92797836D01*
X103253077Y-92847830D01*
X103269400Y-92875290D01*
X103272630Y-92879083D01*
X103313957Y-92895816D01*
X103360637Y-92893575D01*
X103398076Y-92873223D01*
X103399602Y-92871568D01*
X103414495Y-92849022D01*
X103439477Y-92805107D01*
X103471467Y-92745476D01*
X103507386Y-92675782D01*
X103520294Y-92650099D01*
X103617732Y-92454933D01*
X103723940Y-92666943D01*
X103761849Y-92740197D01*
X103797019Y-92803726D01*
X103826578Y-92852667D01*
X103847652Y-92882158D01*
X103854794Y-92888412D01*
X103910308Y-92896881D01*
X103956117Y-92879083D01*
X103969592Y-92860061D01*
X103992910Y-92817785D01*
X104024169Y-92756416D01*
X104061466Y-92680112D01*
X104102900Y-92593035D01*
X104146568Y-92499343D01*
X104190568Y-92403197D01*
X104232998Y-92308757D01*
X104271956Y-92220181D01*
X104305539Y-92141632D01*
X104331845Y-92077267D01*
X104348972Y-92031247D01*
X104355017Y-92007733D01*
X104354955Y-92006881D01*
X104340246Y-91977292D01*
X104310844Y-91947156D01*
X104309113Y-91945844D01*
X104272976Y-91925418D01*
X104239552Y-91925616D01*
X104227024Y-91929467D01*
X104211759Y-91937789D01*
X104195548Y-91954161D01*
X104176447Y-91981978D01*
X104152511Y-92024636D01*
X104121795Y-92085531D01*
X104082355Y-92168061D01*
X104046788Y-92244243D01*
X104005869Y-92332550D01*
X103969202Y-92411962D01*
X103938692Y-92478332D01*
X103916244Y-92527511D01*
X103903763Y-92555349D01*
X103901943Y-92559704D01*
X103893756Y-92552585D01*
X103874941Y-92522777D01*
X103848000Y-92474632D01*
X103815438Y-92412499D01*
X103802480Y-92386864D01*
X103758586Y-92300301D01*
X103724735Y-92237261D01*
X103698149Y-92194078D01*
X103676051Y-92167088D01*
X103655662Y-92152624D01*
X103634206Y-92147023D01*
X103620223Y-92146390D01*
X103595558Y-92148576D01*
X103573944Y-92157615D01*
X103552468Y-92177233D01*
X103528216Y-92211153D01*
X103498276Y-92263098D01*
X103459733Y-92336794D01*
X103438468Y-92378716D01*
X103403974Y-92445530D01*
X103373890Y-92500937D01*
X103350869Y-92540263D01*
X103337566Y-92558832D01*
X103335757Y-92559605D01*
X103327166Y-92544991D01*
X103307932Y-92507043D01*
X103279981Y-92449732D01*
X103245239Y-92377032D01*
X103205633Y-92292912D01*
X103186150Y-92251130D01*
X103135466Y-92143299D01*
X103094653Y-92060326D01*
X103061592Y-91999502D01*
X103034165Y-91958121D01*
X103010254Y-91933476D01*
X102987738Y-91922860D01*
X102964499Y-91923566D01*
G36*
X102373442Y-91930013D02*
X102341872Y-91949678D01*
X102306390Y-91978409D01*
X102306390Y-92406502D01*
X102306503Y-92531726D01*
X102306987Y-92630383D01*
X102308060Y-92705966D01*
X102309938Y-92761969D01*
X102312840Y-92801883D01*
X102316983Y-92829202D01*
X102322584Y-92847417D01*
X102329861Y-92860022D01*
X102335022Y-92866232D01*
X102376878Y-92893516D01*
X102424541Y-92892403D01*
X102466293Y-92869138D01*
X102501775Y-92840407D01*
X102501775Y-91978409D01*
X102466293Y-91949678D01*
X102432048Y-91928778D01*
X102404083Y-91920946D01*
X102373442Y-91930013D01*
X102373442Y-91930013D01*
G37*
X102373442Y-91930013D02*
X102341872Y-91949678D01*
X102306390Y-91978409D01*
X102306390Y-92406502D01*
X102306503Y-92531726D01*
X102306987Y-92630383D01*
X102308060Y-92705966D01*
X102309938Y-92761969D01*
X102312840Y-92801883D01*
X102316983Y-92829202D01*
X102322584Y-92847417D01*
X102329861Y-92860022D01*
X102335022Y-92866232D01*
X102376878Y-92893516D01*
X102424541Y-92892403D01*
X102466293Y-92869138D01*
X102501775Y-92840407D01*
X102501775Y-91978409D01*
X102466293Y-91949678D01*
X102432048Y-91928778D01*
X102404083Y-91920946D01*
X102373442Y-91930013D01*
G36*
X101342369Y-91921075D02*
X101237581Y-91921579D01*
X101156247Y-91922632D01*
X101095066Y-91924412D01*
X101050735Y-91927093D01*
X101019952Y-91930850D01*
X100999415Y-91935861D01*
X100985821Y-91942299D01*
X100979243Y-91947248D01*
X100945102Y-91990565D01*
X100940972Y-92035539D01*
X100962070Y-92076396D01*
X100975867Y-92092722D01*
X100990714Y-92103854D01*
X101012231Y-92110786D01*
X101046038Y-92114513D01*
X101097754Y-92116030D01*
X101172999Y-92116330D01*
X101187777Y-92116331D01*
X101382071Y-92116331D01*
X101382071Y-92477041D01*
X101382199Y-92590737D01*
X101382780Y-92678221D01*
X101384110Y-92743338D01*
X101386486Y-92789934D01*
X101390202Y-92821855D01*
X101395554Y-92842948D01*
X101402839Y-92857059D01*
X101412130Y-92867810D01*
X101455975Y-92894232D01*
X101501746Y-92892150D01*
X101543256Y-92862005D01*
X101546305Y-92858269D01*
X101556234Y-92844146D01*
X101563798Y-92827622D01*
X101569317Y-92804682D01*
X101573113Y-92771309D01*
X101575504Y-92723491D01*
X101576812Y-92657210D01*
X101577355Y-92568454D01*
X101577455Y-92467499D01*
X101577455Y-92116331D01*
X101762996Y-92116331D01*
X101842619Y-92115792D01*
X101897742Y-92113693D01*
X101933914Y-92109307D01*
X101956684Y-92101912D01*
X101971599Y-92090781D01*
X101973410Y-92088846D01*
X101995188Y-92044593D01*
X101993262Y-91994565D01*
X101968225Y-91951006D01*
X101958542Y-91942556D01*
X101946058Y-91935857D01*
X101927443Y-91930705D01*
X101899369Y-91926897D01*
X101858505Y-91924233D01*
X101801524Y-91922508D01*
X101725094Y-91921520D01*
X101625889Y-91921068D01*
X101500577Y-91920948D01*
X101473913Y-91920946D01*
X101342369Y-91921075D01*
X101342369Y-91921075D01*
G37*
X101342369Y-91921075D02*
X101237581Y-91921579D01*
X101156247Y-91922632D01*
X101095066Y-91924412D01*
X101050735Y-91927093D01*
X101019952Y-91930850D01*
X100999415Y-91935861D01*
X100985821Y-91942299D01*
X100979243Y-91947248D01*
X100945102Y-91990565D01*
X100940972Y-92035539D01*
X100962070Y-92076396D01*
X100975867Y-92092722D01*
X100990714Y-92103854D01*
X101012231Y-92110786D01*
X101046038Y-92114513D01*
X101097754Y-92116030D01*
X101172999Y-92116330D01*
X101187777Y-92116331D01*
X101382071Y-92116331D01*
X101382071Y-92477041D01*
X101382199Y-92590737D01*
X101382780Y-92678221D01*
X101384110Y-92743338D01*
X101386486Y-92789934D01*
X101390202Y-92821855D01*
X101395554Y-92842948D01*
X101402839Y-92857059D01*
X101412130Y-92867810D01*
X101455975Y-92894232D01*
X101501746Y-92892150D01*
X101543256Y-92862005D01*
X101546305Y-92858269D01*
X101556234Y-92844146D01*
X101563798Y-92827622D01*
X101569317Y-92804682D01*
X101573113Y-92771309D01*
X101575504Y-92723491D01*
X101576812Y-92657210D01*
X101577355Y-92568454D01*
X101577455Y-92467499D01*
X101577455Y-92116331D01*
X101762996Y-92116331D01*
X101842619Y-92115792D01*
X101897742Y-92113693D01*
X101933914Y-92109307D01*
X101956684Y-92101912D01*
X101971599Y-92090781D01*
X101973410Y-92088846D01*
X101995188Y-92044593D01*
X101993262Y-91994565D01*
X101968225Y-91951006D01*
X101958542Y-91942556D01*
X101946058Y-91935857D01*
X101927443Y-91930705D01*
X101899369Y-91926897D01*
X101858505Y-91924233D01*
X101801524Y-91922508D01*
X101725094Y-91921520D01*
X101625889Y-91921068D01*
X101500577Y-91920948D01*
X101473913Y-91920946D01*
X101342369Y-91921075D01*
G36*
X99657187Y-91928224D02*
X99615411Y-91957837D01*
X99578521Y-91994728D01*
X99578521Y-92406698D01*
X99578617Y-92529022D01*
X99579074Y-92624934D01*
X99580143Y-92698080D01*
X99582075Y-92752106D01*
X99585123Y-92790659D01*
X99589537Y-92817384D01*
X99595570Y-92835930D01*
X99603472Y-92849941D01*
X99609671Y-92858269D01*
X99650585Y-92890985D01*
X99697564Y-92894536D01*
X99740502Y-92874473D01*
X99754690Y-92862628D01*
X99764174Y-92846894D01*
X99769895Y-92821558D01*
X99772793Y-92780906D01*
X99773808Y-92719224D01*
X99773905Y-92671574D01*
X99773905Y-92492071D01*
X100435207Y-92492071D01*
X100435207Y-92655369D01*
X100435891Y-92730041D01*
X100438627Y-92781360D01*
X100444442Y-92816013D01*
X100454362Y-92840691D01*
X100466357Y-92858269D01*
X100507500Y-92890893D01*
X100554029Y-92894756D01*
X100598573Y-92871568D01*
X100610734Y-92859412D01*
X100619323Y-92843297D01*
X100624988Y-92818196D01*
X100628377Y-92779080D01*
X100630138Y-92720922D01*
X100630918Y-92638694D01*
X100631010Y-92619822D01*
X100631654Y-92464893D01*
X100631986Y-92337210D01*
X100631878Y-92233963D01*
X100631201Y-92152339D01*
X100629828Y-92089528D01*
X100627630Y-92042717D01*
X100624480Y-92009095D01*
X100620248Y-91985851D01*
X100614808Y-91970172D01*
X100608031Y-91959247D01*
X100600532Y-91951006D01*
X100558113Y-91924643D01*
X100513874Y-91928224D01*
X100472098Y-91957837D01*
X100455193Y-91976943D01*
X100444417Y-91998047D01*
X100438405Y-92028104D01*
X100435790Y-92074069D01*
X100435207Y-92142896D01*
X100435207Y-92296686D01*
X99773905Y-92296686D01*
X99773905Y-92138875D01*
X99773230Y-92066172D01*
X99770520Y-92017081D01*
X99764745Y-91985172D01*
X99754877Y-91964014D01*
X99743846Y-91951006D01*
X99701427Y-91924643D01*
X99657187Y-91928224D01*
X99657187Y-91928224D01*
G37*
X99657187Y-91928224D02*
X99615411Y-91957837D01*
X99578521Y-91994728D01*
X99578521Y-92406698D01*
X99578617Y-92529022D01*
X99579074Y-92624934D01*
X99580143Y-92698080D01*
X99582075Y-92752106D01*
X99585123Y-92790659D01*
X99589537Y-92817384D01*
X99595570Y-92835930D01*
X99603472Y-92849941D01*
X99609671Y-92858269D01*
X99650585Y-92890985D01*
X99697564Y-92894536D01*
X99740502Y-92874473D01*
X99754690Y-92862628D01*
X99764174Y-92846894D01*
X99769895Y-92821558D01*
X99772793Y-92780906D01*
X99773808Y-92719224D01*
X99773905Y-92671574D01*
X99773905Y-92492071D01*
X100435207Y-92492071D01*
X100435207Y-92655369D01*
X100435891Y-92730041D01*
X100438627Y-92781360D01*
X100444442Y-92816013D01*
X100454362Y-92840691D01*
X100466357Y-92858269D01*
X100507500Y-92890893D01*
X100554029Y-92894756D01*
X100598573Y-92871568D01*
X100610734Y-92859412D01*
X100619323Y-92843297D01*
X100624988Y-92818196D01*
X100628377Y-92779080D01*
X100630138Y-92720922D01*
X100630918Y-92638694D01*
X100631010Y-92619822D01*
X100631654Y-92464893D01*
X100631986Y-92337210D01*
X100631878Y-92233963D01*
X100631201Y-92152339D01*
X100629828Y-92089528D01*
X100627630Y-92042717D01*
X100624480Y-92009095D01*
X100620248Y-91985851D01*
X100614808Y-91970172D01*
X100608031Y-91959247D01*
X100600532Y-91951006D01*
X100558113Y-91924643D01*
X100513874Y-91928224D01*
X100472098Y-91957837D01*
X100455193Y-91976943D01*
X100444417Y-91998047D01*
X100438405Y-92028104D01*
X100435790Y-92074069D01*
X100435207Y-92142896D01*
X100435207Y-92296686D01*
X99773905Y-92296686D01*
X99773905Y-92138875D01*
X99773230Y-92066172D01*
X99770520Y-92017081D01*
X99764745Y-91985172D01*
X99754877Y-91964014D01*
X99743846Y-91951006D01*
X99701427Y-91924643D01*
X99657187Y-91928224D01*
G36*
X111872722Y-85557024D02*
X111858256Y-85708719D01*
X111816163Y-85852003D01*
X111748393Y-85983807D01*
X111656899Y-86101058D01*
X111543635Y-86200687D01*
X111414510Y-86277729D01*
X111273028Y-86330479D01*
X111130554Y-86355201D01*
X110989896Y-86353684D01*
X110853864Y-86327717D01*
X110725267Y-86279090D01*
X110606914Y-86209593D01*
X110501614Y-86121014D01*
X110412177Y-86015143D01*
X110341412Y-85893770D01*
X110292129Y-85758683D01*
X110267135Y-85611674D01*
X110264556Y-85545244D01*
X110264556Y-85428165D01*
X110195420Y-85428165D01*
X110147081Y-85431953D01*
X110111271Y-85447662D01*
X110075183Y-85479266D01*
X110024083Y-85530367D01*
X110024083Y-88448138D01*
X110024095Y-88797138D01*
X110024138Y-89117332D01*
X110024223Y-89409974D01*
X110024361Y-89676318D01*
X110024562Y-89917617D01*
X110024838Y-90135125D01*
X110025200Y-90330095D01*
X110025658Y-90503780D01*
X110026223Y-90657435D01*
X110026906Y-90792313D01*
X110027717Y-90909668D01*
X110028669Y-91010753D01*
X110029771Y-91096821D01*
X110031035Y-91169127D01*
X110032470Y-91228923D01*
X110034089Y-91277464D01*
X110035902Y-91316003D01*
X110037920Y-91345793D01*
X110040154Y-91368089D01*
X110042614Y-91384143D01*
X110045312Y-91395210D01*
X110048258Y-91402542D01*
X110049699Y-91405005D01*
X110055241Y-91414340D01*
X110059947Y-91422923D01*
X110065045Y-91430784D01*
X110071765Y-91437955D01*
X110081336Y-91444467D01*
X110094986Y-91450353D01*
X110113945Y-91455642D01*
X110139442Y-91460368D01*
X110172705Y-91464560D01*
X110214964Y-91468251D01*
X110267448Y-91471472D01*
X110331386Y-91474254D01*
X110408007Y-91476630D01*
X110498540Y-91478629D01*
X110604214Y-91480284D01*
X110726258Y-91481627D01*
X110865901Y-91482687D01*
X111024372Y-91483498D01*
X111202900Y-91484090D01*
X111402715Y-91484495D01*
X111625045Y-91484744D01*
X111871119Y-91484869D01*
X112142166Y-91484901D01*
X112439416Y-91484871D01*
X112764097Y-91484811D01*
X113117438Y-91484752D01*
X113168541Y-91484746D01*
X113523985Y-91484689D01*
X113850594Y-91484595D01*
X114149592Y-91484455D01*
X114422204Y-91484259D01*
X114669653Y-91483997D01*
X114893164Y-91483660D01*
X115093960Y-91483239D01*
X115273266Y-91482723D01*
X115432307Y-91482104D01*
X115572306Y-91481371D01*
X115694487Y-91480515D01*
X115800075Y-91479526D01*
X115890293Y-91478394D01*
X115966366Y-91477111D01*
X116029519Y-91475666D01*
X116080975Y-91474049D01*
X116121958Y-91472252D01*
X116153692Y-91470265D01*
X116177402Y-91468077D01*
X116194312Y-91465679D01*
X116205646Y-91463063D01*
X116211448Y-91460841D01*
X116222714Y-91456088D01*
X116233058Y-91452578D01*
X116242517Y-91449068D01*
X116251132Y-91444313D01*
X116258942Y-91437069D01*
X116265985Y-91426091D01*
X116272302Y-91410135D01*
X116277931Y-91387955D01*
X116282912Y-91358309D01*
X116287284Y-91319951D01*
X116291086Y-91271637D01*
X116294358Y-91212122D01*
X116297139Y-91140163D01*
X116299467Y-91054513D01*
X116301383Y-90953931D01*
X116302925Y-90837169D01*
X116304134Y-90702985D01*
X116305047Y-90550134D01*
X116305705Y-90377371D01*
X116306146Y-90183452D01*
X116306411Y-89967133D01*
X116306536Y-89727168D01*
X116306564Y-89462314D01*
X116306533Y-89171326D01*
X116306481Y-88852960D01*
X116306449Y-88505970D01*
X116306449Y-88449852D01*
X116306467Y-88099841D01*
X116306501Y-87778636D01*
X116306515Y-87484983D01*
X116306476Y-87217628D01*
X116306351Y-86975317D01*
X116306103Y-86756797D01*
X116305700Y-86560813D01*
X116305107Y-86386113D01*
X116304335Y-86239763D01*
X115901149Y-86239763D01*
X115848174Y-86316775D01*
X115833302Y-86337768D01*
X115819895Y-86356356D01*
X115807876Y-86374120D01*
X115797170Y-86392638D01*
X115787703Y-86413491D01*
X115779397Y-86438257D01*
X115772178Y-86468517D01*
X115765969Y-86505850D01*
X115760696Y-86551835D01*
X115756282Y-86608052D01*
X115752652Y-86676080D01*
X115749730Y-86757500D01*
X115747441Y-86853890D01*
X115745709Y-86966830D01*
X115744458Y-87097899D01*
X115743614Y-87248678D01*
X115743099Y-87420746D01*
X115742839Y-87615681D01*
X115742757Y-87835065D01*
X115742779Y-88080476D01*
X115742828Y-88353494D01*
X115742840Y-88516745D01*
X115742808Y-88805583D01*
X115742763Y-89065943D01*
X115742779Y-89299406D01*
X115742931Y-89507554D01*
X115743294Y-89691969D01*
X115743943Y-89854231D01*
X115744953Y-89995922D01*
X115746399Y-90118624D01*
X115748355Y-90223917D01*
X115750896Y-90313383D01*
X115754097Y-90388603D01*
X115758033Y-90451159D01*
X115762780Y-90502632D01*
X115768410Y-90544603D01*
X115775001Y-90578653D01*
X115782626Y-90606365D01*
X115791360Y-90629318D01*
X115801279Y-90649096D01*
X115812456Y-90667278D01*
X115824967Y-90685446D01*
X115838888Y-90705182D01*
X115846997Y-90717019D01*
X115898618Y-90793728D01*
X115190914Y-90793728D01*
X115026826Y-90793681D01*
X114890367Y-90793481D01*
X114779109Y-90793033D01*
X114690621Y-90792244D01*
X114622476Y-90791020D01*
X114572243Y-90789269D01*
X114537493Y-90786897D01*
X114515798Y-90783810D01*
X114504727Y-90779916D01*
X114501851Y-90775120D01*
X114504741Y-90769330D01*
X114506333Y-90767426D01*
X114539817Y-90718070D01*
X114574296Y-90647773D01*
X114605729Y-90565227D01*
X114616738Y-90530061D01*
X114622884Y-90506175D01*
X114628078Y-90478135D01*
X114632430Y-90443165D01*
X114636048Y-90398489D01*
X114639043Y-90341329D01*
X114641523Y-90268910D01*
X114643598Y-90178455D01*
X114645377Y-90067188D01*
X114646970Y-89932331D01*
X114648486Y-89771109D01*
X114648988Y-89711597D01*
X114650342Y-89544976D01*
X114651352Y-89406026D01*
X114651941Y-89292361D01*
X114652031Y-89201596D01*
X114651544Y-89131344D01*
X114650403Y-89079219D01*
X114648530Y-89042834D01*
X114645847Y-89019804D01*
X114642276Y-89007742D01*
X114637739Y-89004261D01*
X114632159Y-89006976D01*
X114626203Y-89012722D01*
X114612417Y-89029943D01*
X114583050Y-89068651D01*
X114540179Y-89126010D01*
X114485882Y-89199181D01*
X114422237Y-89285326D01*
X114351323Y-89381609D01*
X114275216Y-89485192D01*
X114195995Y-89593237D01*
X114115738Y-89702907D01*
X114036522Y-89811364D01*
X113960426Y-89915770D01*
X113889527Y-90013289D01*
X113825903Y-90101083D01*
X113771633Y-90176314D01*
X113728793Y-90236144D01*
X113699462Y-90277737D01*
X113693380Y-90286567D01*
X113662864Y-90335698D01*
X113627172Y-90399590D01*
X113593357Y-90465542D01*
X113589069Y-90474437D01*
X113560208Y-90538602D01*
X113543452Y-90588610D01*
X113535823Y-90636307D01*
X113534334Y-90692278D01*
X113535178Y-90793728D01*
X111998204Y-90793728D01*
X112119575Y-90668938D01*
X112181879Y-90602510D01*
X112248830Y-90527316D01*
X112310132Y-90455063D01*
X112337325Y-90421310D01*
X112377849Y-90368661D01*
X112431176Y-90297817D01*
X112495747Y-90210947D01*
X112570001Y-90110222D01*
X112652381Y-89997809D01*
X112741326Y-89875879D01*
X112835278Y-89746602D01*
X112932678Y-89612146D01*
X113031965Y-89474681D01*
X113131581Y-89336377D01*
X113229967Y-89199403D01*
X113325564Y-89065929D01*
X113416812Y-88938124D01*
X113502152Y-88818157D01*
X113580025Y-88708199D01*
X113648871Y-88610418D01*
X113707132Y-88526984D01*
X113753249Y-88460066D01*
X113785661Y-88411834D01*
X113802810Y-88384458D01*
X113805150Y-88378996D01*
X113794554Y-88363917D01*
X113766868Y-88327730D01*
X113723909Y-88272701D01*
X113667490Y-88201093D01*
X113599426Y-88115171D01*
X113521533Y-88017198D01*
X113435625Y-87909438D01*
X113343517Y-87794155D01*
X113247023Y-87673614D01*
X113147959Y-87550079D01*
X113068438Y-87451082D01*
X111722426Y-87451082D01*
X111714558Y-87468333D01*
X111695480Y-87497955D01*
X111694086Y-87499928D01*
X111669073Y-87540073D01*
X111642916Y-87589109D01*
X111637725Y-87599941D01*
X111633017Y-87611163D01*
X111628857Y-87624634D01*
X111625203Y-87642210D01*
X111622015Y-87665745D01*
X111619255Y-87697094D01*
X111616881Y-87738112D01*
X111614853Y-87790652D01*
X111613132Y-87856571D01*
X111611676Y-87937723D01*
X111610447Y-88035962D01*
X111609404Y-88153143D01*
X111608506Y-88291121D01*
X111607714Y-88451751D01*
X111606988Y-88636888D01*
X111606287Y-88848386D01*
X111605577Y-89086509D01*
X111604860Y-89332967D01*
X111604282Y-89551229D01*
X111603931Y-89743155D01*
X111603898Y-89910607D01*
X111604272Y-90055449D01*
X111605143Y-90179540D01*
X111606601Y-90284744D01*
X111608736Y-90372922D01*
X111611637Y-90445936D01*
X111615394Y-90505648D01*
X111620097Y-90553920D01*
X111625835Y-90592614D01*
X111632699Y-90623591D01*
X111640778Y-90648714D01*
X111650162Y-90669845D01*
X111660940Y-90688845D01*
X111673203Y-90707576D01*
X111684520Y-90724175D01*
X111707334Y-90759182D01*
X111720843Y-90782593D01*
X111722426Y-90786880D01*
X111707905Y-90788314D01*
X111666375Y-90789646D01*
X111600889Y-90790845D01*
X111514495Y-90791877D01*
X111410246Y-90792712D01*
X111291192Y-90793317D01*
X111160384Y-90793660D01*
X111068639Y-90793728D01*
X110928855Y-90793434D01*
X110799924Y-90792593D01*
X110684758Y-90791263D01*
X110586270Y-90789503D01*
X110507376Y-90787372D01*
X110450988Y-90784928D01*
X110420020Y-90782231D01*
X110414852Y-90780538D01*
X110425100Y-90760697D01*
X110435749Y-90750006D01*
X110453286Y-90727204D01*
X110476237Y-90686929D01*
X110492110Y-90654231D01*
X110527574Y-90575799D01*
X110531668Y-89008964D01*
X110535762Y-87442130D01*
X111129094Y-87442130D01*
X111259323Y-87442349D01*
X111379670Y-87442973D01*
X111486932Y-87443953D01*
X111577907Y-87445243D01*
X111649393Y-87446792D01*
X111698186Y-87448554D01*
X111721085Y-87450479D01*
X111722426Y-87451082D01*
X113068438Y-87451082D01*
X113048140Y-87425813D01*
X112949380Y-87303081D01*
X112853493Y-87184147D01*
X112762296Y-87071274D01*
X112677602Y-86966728D01*
X112601227Y-86872771D01*
X112534984Y-86791668D01*
X112480690Y-86725684D01*
X112457838Y-86698165D01*
X112342952Y-86564149D01*
X112240971Y-86453303D01*
X112149355Y-86363009D01*
X112065566Y-86290651D01*
X112053077Y-86280842D01*
X112000473Y-86240096D01*
X112753864Y-86239930D01*
X113507254Y-86239763D01*
X113500213Y-86303639D01*
X113504610Y-86379984D01*
X113533276Y-86470882D01*
X113586496Y-86577057D01*
X113646817Y-86673292D01*
X113668409Y-86703441D01*
X113705758Y-86753441D01*
X113756637Y-86820442D01*
X113818820Y-86901591D01*
X113890081Y-86994038D01*
X113968192Y-87094933D01*
X114050928Y-87201423D01*
X114136063Y-87310658D01*
X114221369Y-87419787D01*
X114304621Y-87525959D01*
X114383592Y-87626323D01*
X114456055Y-87718027D01*
X114519785Y-87798221D01*
X114572555Y-87864054D01*
X114612138Y-87912674D01*
X114636309Y-87941230D01*
X114640381Y-87945621D01*
X114644188Y-87934962D01*
X114647135Y-87894630D01*
X114649217Y-87825000D01*
X114650429Y-87726447D01*
X114650766Y-87599344D01*
X114650223Y-87444068D01*
X114649013Y-87284319D01*
X114647253Y-87108431D01*
X114645223Y-86959667D01*
X114642593Y-86835092D01*
X114639031Y-86731771D01*
X114634206Y-86646769D01*
X114627787Y-86577152D01*
X114619444Y-86519984D01*
X114608844Y-86472331D01*
X114595657Y-86431257D01*
X114579552Y-86393827D01*
X114560197Y-86357107D01*
X114540650Y-86323771D01*
X114490063Y-86239763D01*
X115901149Y-86239763D01*
X116304335Y-86239763D01*
X116304291Y-86231442D01*
X116303218Y-86095547D01*
X116301853Y-85977174D01*
X116300162Y-85875069D01*
X116298112Y-85787979D01*
X116295668Y-85714650D01*
X116292796Y-85653829D01*
X116289462Y-85604260D01*
X116285633Y-85564692D01*
X116281274Y-85533870D01*
X116276351Y-85510540D01*
X116270830Y-85493448D01*
X116264678Y-85481342D01*
X116257859Y-85472967D01*
X116250340Y-85467070D01*
X116242087Y-85462396D01*
X116233067Y-85457693D01*
X116225084Y-85452942D01*
X116218117Y-85449512D01*
X116207232Y-85446412D01*
X116190972Y-85443625D01*
X116167879Y-85441134D01*
X116136497Y-85438923D01*
X116095368Y-85436976D01*
X116043034Y-85435276D01*
X115978039Y-85433807D01*
X115898925Y-85432552D01*
X115804236Y-85431494D01*
X115692512Y-85430618D01*
X115562299Y-85429907D01*
X115412137Y-85429345D01*
X115240570Y-85428914D01*
X115046141Y-85428599D01*
X114827392Y-85428383D01*
X114582866Y-85428250D01*
X114311105Y-85428183D01*
X114029996Y-85428165D01*
X111872722Y-85428165D01*
X111872722Y-85557024D01*
X111872722Y-85557024D01*
G37*
X111872722Y-85557024D02*
X111858256Y-85708719D01*
X111816163Y-85852003D01*
X111748393Y-85983807D01*
X111656899Y-86101058D01*
X111543635Y-86200687D01*
X111414510Y-86277729D01*
X111273028Y-86330479D01*
X111130554Y-86355201D01*
X110989896Y-86353684D01*
X110853864Y-86327717D01*
X110725267Y-86279090D01*
X110606914Y-86209593D01*
X110501614Y-86121014D01*
X110412177Y-86015143D01*
X110341412Y-85893770D01*
X110292129Y-85758683D01*
X110267135Y-85611674D01*
X110264556Y-85545244D01*
X110264556Y-85428165D01*
X110195420Y-85428165D01*
X110147081Y-85431953D01*
X110111271Y-85447662D01*
X110075183Y-85479266D01*
X110024083Y-85530367D01*
X110024083Y-88448138D01*
X110024095Y-88797138D01*
X110024138Y-89117332D01*
X110024223Y-89409974D01*
X110024361Y-89676318D01*
X110024562Y-89917617D01*
X110024838Y-90135125D01*
X110025200Y-90330095D01*
X110025658Y-90503780D01*
X110026223Y-90657435D01*
X110026906Y-90792313D01*
X110027717Y-90909668D01*
X110028669Y-91010753D01*
X110029771Y-91096821D01*
X110031035Y-91169127D01*
X110032470Y-91228923D01*
X110034089Y-91277464D01*
X110035902Y-91316003D01*
X110037920Y-91345793D01*
X110040154Y-91368089D01*
X110042614Y-91384143D01*
X110045312Y-91395210D01*
X110048258Y-91402542D01*
X110049699Y-91405005D01*
X110055241Y-91414340D01*
X110059947Y-91422923D01*
X110065045Y-91430784D01*
X110071765Y-91437955D01*
X110081336Y-91444467D01*
X110094986Y-91450353D01*
X110113945Y-91455642D01*
X110139442Y-91460368D01*
X110172705Y-91464560D01*
X110214964Y-91468251D01*
X110267448Y-91471472D01*
X110331386Y-91474254D01*
X110408007Y-91476630D01*
X110498540Y-91478629D01*
X110604214Y-91480284D01*
X110726258Y-91481627D01*
X110865901Y-91482687D01*
X111024372Y-91483498D01*
X111202900Y-91484090D01*
X111402715Y-91484495D01*
X111625045Y-91484744D01*
X111871119Y-91484869D01*
X112142166Y-91484901D01*
X112439416Y-91484871D01*
X112764097Y-91484811D01*
X113117438Y-91484752D01*
X113168541Y-91484746D01*
X113523985Y-91484689D01*
X113850594Y-91484595D01*
X114149592Y-91484455D01*
X114422204Y-91484259D01*
X114669653Y-91483997D01*
X114893164Y-91483660D01*
X115093960Y-91483239D01*
X115273266Y-91482723D01*
X115432307Y-91482104D01*
X115572306Y-91481371D01*
X115694487Y-91480515D01*
X115800075Y-91479526D01*
X115890293Y-91478394D01*
X115966366Y-91477111D01*
X116029519Y-91475666D01*
X116080975Y-91474049D01*
X116121958Y-91472252D01*
X116153692Y-91470265D01*
X116177402Y-91468077D01*
X116194312Y-91465679D01*
X116205646Y-91463063D01*
X116211448Y-91460841D01*
X116222714Y-91456088D01*
X116233058Y-91452578D01*
X116242517Y-91449068D01*
X116251132Y-91444313D01*
X116258942Y-91437069D01*
X116265985Y-91426091D01*
X116272302Y-91410135D01*
X116277931Y-91387955D01*
X116282912Y-91358309D01*
X116287284Y-91319951D01*
X116291086Y-91271637D01*
X116294358Y-91212122D01*
X116297139Y-91140163D01*
X116299467Y-91054513D01*
X116301383Y-90953931D01*
X116302925Y-90837169D01*
X116304134Y-90702985D01*
X116305047Y-90550134D01*
X116305705Y-90377371D01*
X116306146Y-90183452D01*
X116306411Y-89967133D01*
X116306536Y-89727168D01*
X116306564Y-89462314D01*
X116306533Y-89171326D01*
X116306481Y-88852960D01*
X116306449Y-88505970D01*
X116306449Y-88449852D01*
X116306467Y-88099841D01*
X116306501Y-87778636D01*
X116306515Y-87484983D01*
X116306476Y-87217628D01*
X116306351Y-86975317D01*
X116306103Y-86756797D01*
X116305700Y-86560813D01*
X116305107Y-86386113D01*
X116304335Y-86239763D01*
X115901149Y-86239763D01*
X115848174Y-86316775D01*
X115833302Y-86337768D01*
X115819895Y-86356356D01*
X115807876Y-86374120D01*
X115797170Y-86392638D01*
X115787703Y-86413491D01*
X115779397Y-86438257D01*
X115772178Y-86468517D01*
X115765969Y-86505850D01*
X115760696Y-86551835D01*
X115756282Y-86608052D01*
X115752652Y-86676080D01*
X115749730Y-86757500D01*
X115747441Y-86853890D01*
X115745709Y-86966830D01*
X115744458Y-87097899D01*
X115743614Y-87248678D01*
X115743099Y-87420746D01*
X115742839Y-87615681D01*
X115742757Y-87835065D01*
X115742779Y-88080476D01*
X115742828Y-88353494D01*
X115742840Y-88516745D01*
X115742808Y-88805583D01*
X115742763Y-89065943D01*
X115742779Y-89299406D01*
X115742931Y-89507554D01*
X115743294Y-89691969D01*
X115743943Y-89854231D01*
X115744953Y-89995922D01*
X115746399Y-90118624D01*
X115748355Y-90223917D01*
X115750896Y-90313383D01*
X115754097Y-90388603D01*
X115758033Y-90451159D01*
X115762780Y-90502632D01*
X115768410Y-90544603D01*
X115775001Y-90578653D01*
X115782626Y-90606365D01*
X115791360Y-90629318D01*
X115801279Y-90649096D01*
X115812456Y-90667278D01*
X115824967Y-90685446D01*
X115838888Y-90705182D01*
X115846997Y-90717019D01*
X115898618Y-90793728D01*
X115190914Y-90793728D01*
X115026826Y-90793681D01*
X114890367Y-90793481D01*
X114779109Y-90793033D01*
X114690621Y-90792244D01*
X114622476Y-90791020D01*
X114572243Y-90789269D01*
X114537493Y-90786897D01*
X114515798Y-90783810D01*
X114504727Y-90779916D01*
X114501851Y-90775120D01*
X114504741Y-90769330D01*
X114506333Y-90767426D01*
X114539817Y-90718070D01*
X114574296Y-90647773D01*
X114605729Y-90565227D01*
X114616738Y-90530061D01*
X114622884Y-90506175D01*
X114628078Y-90478135D01*
X114632430Y-90443165D01*
X114636048Y-90398489D01*
X114639043Y-90341329D01*
X114641523Y-90268910D01*
X114643598Y-90178455D01*
X114645377Y-90067188D01*
X114646970Y-89932331D01*
X114648486Y-89771109D01*
X114648988Y-89711597D01*
X114650342Y-89544976D01*
X114651352Y-89406026D01*
X114651941Y-89292361D01*
X114652031Y-89201596D01*
X114651544Y-89131344D01*
X114650403Y-89079219D01*
X114648530Y-89042834D01*
X114645847Y-89019804D01*
X114642276Y-89007742D01*
X114637739Y-89004261D01*
X114632159Y-89006976D01*
X114626203Y-89012722D01*
X114612417Y-89029943D01*
X114583050Y-89068651D01*
X114540179Y-89126010D01*
X114485882Y-89199181D01*
X114422237Y-89285326D01*
X114351323Y-89381609D01*
X114275216Y-89485192D01*
X114195995Y-89593237D01*
X114115738Y-89702907D01*
X114036522Y-89811364D01*
X113960426Y-89915770D01*
X113889527Y-90013289D01*
X113825903Y-90101083D01*
X113771633Y-90176314D01*
X113728793Y-90236144D01*
X113699462Y-90277737D01*
X113693380Y-90286567D01*
X113662864Y-90335698D01*
X113627172Y-90399590D01*
X113593357Y-90465542D01*
X113589069Y-90474437D01*
X113560208Y-90538602D01*
X113543452Y-90588610D01*
X113535823Y-90636307D01*
X113534334Y-90692278D01*
X113535178Y-90793728D01*
X111998204Y-90793728D01*
X112119575Y-90668938D01*
X112181879Y-90602510D01*
X112248830Y-90527316D01*
X112310132Y-90455063D01*
X112337325Y-90421310D01*
X112377849Y-90368661D01*
X112431176Y-90297817D01*
X112495747Y-90210947D01*
X112570001Y-90110222D01*
X112652381Y-89997809D01*
X112741326Y-89875879D01*
X112835278Y-89746602D01*
X112932678Y-89612146D01*
X113031965Y-89474681D01*
X113131581Y-89336377D01*
X113229967Y-89199403D01*
X113325564Y-89065929D01*
X113416812Y-88938124D01*
X113502152Y-88818157D01*
X113580025Y-88708199D01*
X113648871Y-88610418D01*
X113707132Y-88526984D01*
X113753249Y-88460066D01*
X113785661Y-88411834D01*
X113802810Y-88384458D01*
X113805150Y-88378996D01*
X113794554Y-88363917D01*
X113766868Y-88327730D01*
X113723909Y-88272701D01*
X113667490Y-88201093D01*
X113599426Y-88115171D01*
X113521533Y-88017198D01*
X113435625Y-87909438D01*
X113343517Y-87794155D01*
X113247023Y-87673614D01*
X113147959Y-87550079D01*
X113068438Y-87451082D01*
X111722426Y-87451082D01*
X111714558Y-87468333D01*
X111695480Y-87497955D01*
X111694086Y-87499928D01*
X111669073Y-87540073D01*
X111642916Y-87589109D01*
X111637725Y-87599941D01*
X111633017Y-87611163D01*
X111628857Y-87624634D01*
X111625203Y-87642210D01*
X111622015Y-87665745D01*
X111619255Y-87697094D01*
X111616881Y-87738112D01*
X111614853Y-87790652D01*
X111613132Y-87856571D01*
X111611676Y-87937723D01*
X111610447Y-88035962D01*
X111609404Y-88153143D01*
X111608506Y-88291121D01*
X111607714Y-88451751D01*
X111606988Y-88636888D01*
X111606287Y-88848386D01*
X111605577Y-89086509D01*
X111604860Y-89332967D01*
X111604282Y-89551229D01*
X111603931Y-89743155D01*
X111603898Y-89910607D01*
X111604272Y-90055449D01*
X111605143Y-90179540D01*
X111606601Y-90284744D01*
X111608736Y-90372922D01*
X111611637Y-90445936D01*
X111615394Y-90505648D01*
X111620097Y-90553920D01*
X111625835Y-90592614D01*
X111632699Y-90623591D01*
X111640778Y-90648714D01*
X111650162Y-90669845D01*
X111660940Y-90688845D01*
X111673203Y-90707576D01*
X111684520Y-90724175D01*
X111707334Y-90759182D01*
X111720843Y-90782593D01*
X111722426Y-90786880D01*
X111707905Y-90788314D01*
X111666375Y-90789646D01*
X111600889Y-90790845D01*
X111514495Y-90791877D01*
X111410246Y-90792712D01*
X111291192Y-90793317D01*
X111160384Y-90793660D01*
X111068639Y-90793728D01*
X110928855Y-90793434D01*
X110799924Y-90792593D01*
X110684758Y-90791263D01*
X110586270Y-90789503D01*
X110507376Y-90787372D01*
X110450988Y-90784928D01*
X110420020Y-90782231D01*
X110414852Y-90780538D01*
X110425100Y-90760697D01*
X110435749Y-90750006D01*
X110453286Y-90727204D01*
X110476237Y-90686929D01*
X110492110Y-90654231D01*
X110527574Y-90575799D01*
X110531668Y-89008964D01*
X110535762Y-87442130D01*
X111129094Y-87442130D01*
X111259323Y-87442349D01*
X111379670Y-87442973D01*
X111486932Y-87443953D01*
X111577907Y-87445243D01*
X111649393Y-87446792D01*
X111698186Y-87448554D01*
X111721085Y-87450479D01*
X111722426Y-87451082D01*
X113068438Y-87451082D01*
X113048140Y-87425813D01*
X112949380Y-87303081D01*
X112853493Y-87184147D01*
X112762296Y-87071274D01*
X112677602Y-86966728D01*
X112601227Y-86872771D01*
X112534984Y-86791668D01*
X112480690Y-86725684D01*
X112457838Y-86698165D01*
X112342952Y-86564149D01*
X112240971Y-86453303D01*
X112149355Y-86363009D01*
X112065566Y-86290651D01*
X112053077Y-86280842D01*
X112000473Y-86240096D01*
X112753864Y-86239930D01*
X113507254Y-86239763D01*
X113500213Y-86303639D01*
X113504610Y-86379984D01*
X113533276Y-86470882D01*
X113586496Y-86577057D01*
X113646817Y-86673292D01*
X113668409Y-86703441D01*
X113705758Y-86753441D01*
X113756637Y-86820442D01*
X113818820Y-86901591D01*
X113890081Y-86994038D01*
X113968192Y-87094933D01*
X114050928Y-87201423D01*
X114136063Y-87310658D01*
X114221369Y-87419787D01*
X114304621Y-87525959D01*
X114383592Y-87626323D01*
X114456055Y-87718027D01*
X114519785Y-87798221D01*
X114572555Y-87864054D01*
X114612138Y-87912674D01*
X114636309Y-87941230D01*
X114640381Y-87945621D01*
X114644188Y-87934962D01*
X114647135Y-87894630D01*
X114649217Y-87825000D01*
X114650429Y-87726447D01*
X114650766Y-87599344D01*
X114650223Y-87444068D01*
X114649013Y-87284319D01*
X114647253Y-87108431D01*
X114645223Y-86959667D01*
X114642593Y-86835092D01*
X114639031Y-86731771D01*
X114634206Y-86646769D01*
X114627787Y-86577152D01*
X114619444Y-86519984D01*
X114608844Y-86472331D01*
X114595657Y-86431257D01*
X114579552Y-86393827D01*
X114560197Y-86357107D01*
X114540650Y-86323771D01*
X114490063Y-86239763D01*
X115901149Y-86239763D01*
X116304335Y-86239763D01*
X116304291Y-86231442D01*
X116303218Y-86095547D01*
X116301853Y-85977174D01*
X116300162Y-85875069D01*
X116298112Y-85787979D01*
X116295668Y-85714650D01*
X116292796Y-85653829D01*
X116289462Y-85604260D01*
X116285633Y-85564692D01*
X116281274Y-85533870D01*
X116276351Y-85510540D01*
X116270830Y-85493448D01*
X116264678Y-85481342D01*
X116257859Y-85472967D01*
X116250340Y-85467070D01*
X116242087Y-85462396D01*
X116233067Y-85457693D01*
X116225084Y-85452942D01*
X116218117Y-85449512D01*
X116207232Y-85446412D01*
X116190972Y-85443625D01*
X116167879Y-85441134D01*
X116136497Y-85438923D01*
X116095368Y-85436976D01*
X116043034Y-85435276D01*
X115978039Y-85433807D01*
X115898925Y-85432552D01*
X115804236Y-85431494D01*
X115692512Y-85430618D01*
X115562299Y-85429907D01*
X115412137Y-85429345D01*
X115240570Y-85428914D01*
X115046141Y-85428599D01*
X114827392Y-85428383D01*
X114582866Y-85428250D01*
X114311105Y-85428183D01*
X114029996Y-85428165D01*
X111872722Y-85428165D01*
X111872722Y-85557024D01*
G36*
X107512742Y-86169473D02*
X107299536Y-86197663D01*
X107081273Y-86251103D01*
X106855204Y-86330325D01*
X106618582Y-86435856D01*
X106603580Y-86443238D01*
X106526768Y-86480550D01*
X106458140Y-86512605D01*
X106402703Y-86537166D01*
X106365464Y-86551992D01*
X106352722Y-86555384D01*
X106327137Y-86562051D01*
X106320997Y-86567651D01*
X106327792Y-86581541D01*
X106349147Y-86616540D01*
X106382604Y-86668980D01*
X106425706Y-86735194D01*
X106475992Y-86811514D01*
X106531005Y-86894273D01*
X106588286Y-86979801D01*
X106645377Y-87064433D01*
X106699817Y-87144500D01*
X106749150Y-87216334D01*
X106790917Y-87276268D01*
X106822658Y-87320635D01*
X106841915Y-87345765D01*
X106844558Y-87348680D01*
X106858029Y-87342491D01*
X106887773Y-87319623D01*
X106928473Y-87284314D01*
X106949434Y-87265040D01*
X107077896Y-87164814D01*
X107219966Y-87091002D01*
X107373744Y-87044270D01*
X107537328Y-87025284D01*
X107629725Y-87026843D01*
X107791005Y-87049690D01*
X107936413Y-87097462D01*
X108066384Y-87170508D01*
X108181353Y-87269176D01*
X108281754Y-87393815D01*
X108368022Y-87544776D01*
X108417839Y-87660059D01*
X108476222Y-87840724D01*
X108519252Y-88037078D01*
X108547040Y-88244057D01*
X108559695Y-88456598D01*
X108557330Y-88669638D01*
X108540055Y-88878113D01*
X108507981Y-89076961D01*
X108461218Y-89261118D01*
X108399877Y-89425520D01*
X108378200Y-89471124D01*
X108287340Y-89623014D01*
X108180219Y-89751481D01*
X108058412Y-89855478D01*
X107923490Y-89933958D01*
X107777029Y-89985874D01*
X107620600Y-90010179D01*
X107565392Y-90011967D01*
X107403554Y-89997428D01*
X107243209Y-89953737D01*
X107086390Y-89881798D01*
X106935133Y-89782512D01*
X106813436Y-89678232D01*
X106751488Y-89618945D01*
X106510155Y-90014709D01*
X106450114Y-90113446D01*
X106395211Y-90204262D01*
X106347394Y-90283895D01*
X106308609Y-90349080D01*
X106280806Y-90396554D01*
X106265930Y-90423055D01*
X106263997Y-90427175D01*
X106274953Y-90440009D01*
X106309007Y-90463016D01*
X106361855Y-90494015D01*
X106429189Y-90530829D01*
X106506706Y-90571278D01*
X106590098Y-90613182D01*
X106675060Y-90654363D01*
X106757286Y-90692642D01*
X106832471Y-90725838D01*
X106896309Y-90751775D01*
X106927533Y-90762997D01*
X107105623Y-90813342D01*
X107289209Y-90846630D01*
X107485858Y-90863943D01*
X107654659Y-90867043D01*
X107745133Y-90865585D01*
X107832471Y-90862792D01*
X107908932Y-90859009D01*
X107966770Y-90854578D01*
X107985549Y-90852337D01*
X108170628Y-90813947D01*
X108359051Y-90753877D01*
X108542090Y-90675702D01*
X108711013Y-90583000D01*
X108814201Y-90512864D01*
X108983826Y-90368809D01*
X109141330Y-90200302D01*
X109283795Y-90011508D01*
X109408303Y-89806591D01*
X109511938Y-89589715D01*
X109570324Y-89433550D01*
X109637222Y-89189076D01*
X109681821Y-88930064D01*
X109704135Y-88662119D01*
X109704179Y-88390845D01*
X109681966Y-88121847D01*
X109637509Y-87860729D01*
X109570824Y-87613095D01*
X109565743Y-87597666D01*
X109482022Y-87381915D01*
X109379844Y-87184983D01*
X109255742Y-87001299D01*
X109106250Y-86825288D01*
X109047850Y-86765027D01*
X108866596Y-86600016D01*
X108680263Y-86463495D01*
X108485991Y-86353979D01*
X108280921Y-86269981D01*
X108062190Y-86210015D01*
X107934970Y-86186730D01*
X107723637Y-86166005D01*
X107512742Y-86169473D01*
X107512742Y-86169473D01*
G37*
X107512742Y-86169473D02*
X107299536Y-86197663D01*
X107081273Y-86251103D01*
X106855204Y-86330325D01*
X106618582Y-86435856D01*
X106603580Y-86443238D01*
X106526768Y-86480550D01*
X106458140Y-86512605D01*
X106402703Y-86537166D01*
X106365464Y-86551992D01*
X106352722Y-86555384D01*
X106327137Y-86562051D01*
X106320997Y-86567651D01*
X106327792Y-86581541D01*
X106349147Y-86616540D01*
X106382604Y-86668980D01*
X106425706Y-86735194D01*
X106475992Y-86811514D01*
X106531005Y-86894273D01*
X106588286Y-86979801D01*
X106645377Y-87064433D01*
X106699817Y-87144500D01*
X106749150Y-87216334D01*
X106790917Y-87276268D01*
X106822658Y-87320635D01*
X106841915Y-87345765D01*
X106844558Y-87348680D01*
X106858029Y-87342491D01*
X106887773Y-87319623D01*
X106928473Y-87284314D01*
X106949434Y-87265040D01*
X107077896Y-87164814D01*
X107219966Y-87091002D01*
X107373744Y-87044270D01*
X107537328Y-87025284D01*
X107629725Y-87026843D01*
X107791005Y-87049690D01*
X107936413Y-87097462D01*
X108066384Y-87170508D01*
X108181353Y-87269176D01*
X108281754Y-87393815D01*
X108368022Y-87544776D01*
X108417839Y-87660059D01*
X108476222Y-87840724D01*
X108519252Y-88037078D01*
X108547040Y-88244057D01*
X108559695Y-88456598D01*
X108557330Y-88669638D01*
X108540055Y-88878113D01*
X108507981Y-89076961D01*
X108461218Y-89261118D01*
X108399877Y-89425520D01*
X108378200Y-89471124D01*
X108287340Y-89623014D01*
X108180219Y-89751481D01*
X108058412Y-89855478D01*
X107923490Y-89933958D01*
X107777029Y-89985874D01*
X107620600Y-90010179D01*
X107565392Y-90011967D01*
X107403554Y-89997428D01*
X107243209Y-89953737D01*
X107086390Y-89881798D01*
X106935133Y-89782512D01*
X106813436Y-89678232D01*
X106751488Y-89618945D01*
X106510155Y-90014709D01*
X106450114Y-90113446D01*
X106395211Y-90204262D01*
X106347394Y-90283895D01*
X106308609Y-90349080D01*
X106280806Y-90396554D01*
X106265930Y-90423055D01*
X106263997Y-90427175D01*
X106274953Y-90440009D01*
X106309007Y-90463016D01*
X106361855Y-90494015D01*
X106429189Y-90530829D01*
X106506706Y-90571278D01*
X106590098Y-90613182D01*
X106675060Y-90654363D01*
X106757286Y-90692642D01*
X106832471Y-90725838D01*
X106896309Y-90751775D01*
X106927533Y-90762997D01*
X107105623Y-90813342D01*
X107289209Y-90846630D01*
X107485858Y-90863943D01*
X107654659Y-90867043D01*
X107745133Y-90865585D01*
X107832471Y-90862792D01*
X107908932Y-90859009D01*
X107966770Y-90854578D01*
X107985549Y-90852337D01*
X108170628Y-90813947D01*
X108359051Y-90753877D01*
X108542090Y-90675702D01*
X108711013Y-90583000D01*
X108814201Y-90512864D01*
X108983826Y-90368809D01*
X109141330Y-90200302D01*
X109283795Y-90011508D01*
X109408303Y-89806591D01*
X109511938Y-89589715D01*
X109570324Y-89433550D01*
X109637222Y-89189076D01*
X109681821Y-88930064D01*
X109704135Y-88662119D01*
X109704179Y-88390845D01*
X109681966Y-88121847D01*
X109637509Y-87860729D01*
X109570824Y-87613095D01*
X109565743Y-87597666D01*
X109482022Y-87381915D01*
X109379844Y-87184983D01*
X109255742Y-87001299D01*
X109106250Y-86825288D01*
X109047850Y-86765027D01*
X108866596Y-86600016D01*
X108680263Y-86463495D01*
X108485991Y-86353979D01*
X108280921Y-86269981D01*
X108062190Y-86210015D01*
X107934970Y-86186730D01*
X107723637Y-86166005D01*
X107512742Y-86169473D01*
G36*
X104390508Y-87390971D02*
X104188250Y-87417618D01*
X104008164Y-87462398D01*
X103849089Y-87525669D01*
X103709862Y-87607787D01*
X103606535Y-87692409D01*
X103514884Y-87791108D01*
X103443334Y-87897313D01*
X103386214Y-88020092D01*
X103365612Y-88077433D01*
X103348492Y-88129331D01*
X103333578Y-88177455D01*
X103320698Y-88224246D01*
X103309680Y-88272144D01*
X103300350Y-88323587D01*
X103292537Y-88381016D01*
X103286068Y-88446870D01*
X103280770Y-88523589D01*
X103276470Y-88613612D01*
X103272997Y-88719380D01*
X103270177Y-88843331D01*
X103267838Y-88987906D01*
X103265807Y-89155544D01*
X103263912Y-89348685D01*
X103262245Y-89538757D01*
X103260479Y-89746703D01*
X103258874Y-89926797D01*
X103257263Y-90081244D01*
X103255480Y-90212249D01*
X103253357Y-90322017D01*
X103250728Y-90412753D01*
X103247424Y-90486662D01*
X103243281Y-90545950D01*
X103238130Y-90592822D01*
X103231804Y-90629483D01*
X103224137Y-90658137D01*
X103214962Y-90680990D01*
X103204112Y-90700248D01*
X103191419Y-90718115D01*
X103176717Y-90736796D01*
X103170991Y-90744029D01*
X103149930Y-90774436D01*
X103140562Y-90795142D01*
X103140532Y-90795754D01*
X103155014Y-90798682D01*
X103196267Y-90801378D01*
X103261003Y-90803769D01*
X103345936Y-90805778D01*
X103447777Y-90807329D01*
X103563240Y-90808346D01*
X103689036Y-90808753D01*
X103703557Y-90808757D01*
X104266581Y-90808757D01*
X104270924Y-90680858D01*
X104275266Y-90552958D01*
X104357929Y-90620841D01*
X104487510Y-90710726D01*
X104633828Y-90783541D01*
X104748944Y-90823787D01*
X104840902Y-90843342D01*
X104951874Y-90856647D01*
X105071385Y-90863285D01*
X105188963Y-90862843D01*
X105294133Y-90854905D01*
X105342367Y-90847298D01*
X105528782Y-90796890D01*
X105697100Y-90723874D01*
X105846104Y-90629337D01*
X105974576Y-90514365D01*
X106081301Y-90380046D01*
X106165060Y-90227467D01*
X106224140Y-90059594D01*
X106240562Y-89984261D01*
X106250693Y-89901451D01*
X106255524Y-89801815D01*
X106256183Y-89756686D01*
X106256096Y-89752446D01*
X105244344Y-89752446D01*
X105231971Y-89852367D01*
X105194444Y-89937343D01*
X105129915Y-90011417D01*
X105123182Y-90017292D01*
X105058885Y-90063659D01*
X104990042Y-90093724D01*
X104909186Y-90109595D01*
X104808851Y-90113380D01*
X104784743Y-90112840D01*
X104713091Y-90109309D01*
X104659797Y-90102098D01*
X104613177Y-90088566D01*
X104561548Y-90066072D01*
X104547380Y-90059178D01*
X104466632Y-90011478D01*
X104404299Y-89954719D01*
X104387341Y-89934431D01*
X104327870Y-89859194D01*
X104327870Y-89598413D01*
X104328583Y-89493706D01*
X104330833Y-89416552D01*
X104334785Y-89364478D01*
X104340604Y-89335009D01*
X104346042Y-89326400D01*
X104367245Y-89322188D01*
X104412222Y-89318697D01*
X104474695Y-89316256D01*
X104548381Y-89315194D01*
X104560214Y-89315174D01*
X104721010Y-89322169D01*
X104857701Y-89343693D01*
X104972935Y-89380569D01*
X105069359Y-89433620D01*
X105142491Y-89496127D01*
X105201799Y-89573195D01*
X105234715Y-89657135D01*
X105244344Y-89752446D01*
X106256096Y-89752446D01*
X106253609Y-89631864D01*
X106242499Y-89526821D01*
X106220871Y-89431998D01*
X106186739Y-89337837D01*
X106154791Y-89268111D01*
X106076748Y-89141236D01*
X105972773Y-89024042D01*
X105846030Y-88918662D01*
X105699682Y-88827228D01*
X105536894Y-88751874D01*
X105360829Y-88694732D01*
X105274734Y-88674842D01*
X105093426Y-88645413D01*
X104895792Y-88625997D01*
X104694150Y-88617502D01*
X104525654Y-88619675D01*
X104310125Y-88628700D01*
X104320003Y-88550178D01*
X104345689Y-88418170D01*
X104387139Y-88310702D01*
X104445499Y-88226952D01*
X104521917Y-88166095D01*
X104617539Y-88127308D01*
X104733510Y-88109766D01*
X104870979Y-88112647D01*
X104921538Y-88117974D01*
X105109514Y-88151482D01*
X105291662Y-88206113D01*
X105417515Y-88256706D01*
X105477639Y-88282501D01*
X105528806Y-88303231D01*
X105563889Y-88316071D01*
X105574125Y-88318797D01*
X105587098Y-88306710D01*
X105609357Y-88268142D01*
X105641110Y-88202655D01*
X105682568Y-88109816D01*
X105733939Y-87989187D01*
X105742723Y-87968165D01*
X105782739Y-87871885D01*
X105818659Y-87784885D01*
X105848931Y-87710969D01*
X105872004Y-87653941D01*
X105886326Y-87617607D01*
X105890462Y-87605839D01*
X105877150Y-87599509D01*
X105842167Y-87592483D01*
X105804526Y-87587585D01*
X105764377Y-87581252D01*
X105700754Y-87568677D01*
X105619303Y-87551092D01*
X105525664Y-87529730D01*
X105425480Y-87505825D01*
X105387455Y-87496475D01*
X105247581Y-87462408D01*
X105130869Y-87435698D01*
X105031565Y-87415491D01*
X104943915Y-87400934D01*
X104862164Y-87391173D01*
X104780559Y-87385356D01*
X104693344Y-87382630D01*
X104616102Y-87382100D01*
X104390508Y-87390971D01*
X104390508Y-87390971D01*
G37*
X104390508Y-87390971D02*
X104188250Y-87417618D01*
X104008164Y-87462398D01*
X103849089Y-87525669D01*
X103709862Y-87607787D01*
X103606535Y-87692409D01*
X103514884Y-87791108D01*
X103443334Y-87897313D01*
X103386214Y-88020092D01*
X103365612Y-88077433D01*
X103348492Y-88129331D01*
X103333578Y-88177455D01*
X103320698Y-88224246D01*
X103309680Y-88272144D01*
X103300350Y-88323587D01*
X103292537Y-88381016D01*
X103286068Y-88446870D01*
X103280770Y-88523589D01*
X103276470Y-88613612D01*
X103272997Y-88719380D01*
X103270177Y-88843331D01*
X103267838Y-88987906D01*
X103265807Y-89155544D01*
X103263912Y-89348685D01*
X103262245Y-89538757D01*
X103260479Y-89746703D01*
X103258874Y-89926797D01*
X103257263Y-90081244D01*
X103255480Y-90212249D01*
X103253357Y-90322017D01*
X103250728Y-90412753D01*
X103247424Y-90486662D01*
X103243281Y-90545950D01*
X103238130Y-90592822D01*
X103231804Y-90629483D01*
X103224137Y-90658137D01*
X103214962Y-90680990D01*
X103204112Y-90700248D01*
X103191419Y-90718115D01*
X103176717Y-90736796D01*
X103170991Y-90744029D01*
X103149930Y-90774436D01*
X103140562Y-90795142D01*
X103140532Y-90795754D01*
X103155014Y-90798682D01*
X103196267Y-90801378D01*
X103261003Y-90803769D01*
X103345936Y-90805778D01*
X103447777Y-90807329D01*
X103563240Y-90808346D01*
X103689036Y-90808753D01*
X103703557Y-90808757D01*
X104266581Y-90808757D01*
X104270924Y-90680858D01*
X104275266Y-90552958D01*
X104357929Y-90620841D01*
X104487510Y-90710726D01*
X104633828Y-90783541D01*
X104748944Y-90823787D01*
X104840902Y-90843342D01*
X104951874Y-90856647D01*
X105071385Y-90863285D01*
X105188963Y-90862843D01*
X105294133Y-90854905D01*
X105342367Y-90847298D01*
X105528782Y-90796890D01*
X105697100Y-90723874D01*
X105846104Y-90629337D01*
X105974576Y-90514365D01*
X106081301Y-90380046D01*
X106165060Y-90227467D01*
X106224140Y-90059594D01*
X106240562Y-89984261D01*
X106250693Y-89901451D01*
X106255524Y-89801815D01*
X106256183Y-89756686D01*
X106256096Y-89752446D01*
X105244344Y-89752446D01*
X105231971Y-89852367D01*
X105194444Y-89937343D01*
X105129915Y-90011417D01*
X105123182Y-90017292D01*
X105058885Y-90063659D01*
X104990042Y-90093724D01*
X104909186Y-90109595D01*
X104808851Y-90113380D01*
X104784743Y-90112840D01*
X104713091Y-90109309D01*
X104659797Y-90102098D01*
X104613177Y-90088566D01*
X104561548Y-90066072D01*
X104547380Y-90059178D01*
X104466632Y-90011478D01*
X104404299Y-89954719D01*
X104387341Y-89934431D01*
X104327870Y-89859194D01*
X104327870Y-89598413D01*
X104328583Y-89493706D01*
X104330833Y-89416552D01*
X104334785Y-89364478D01*
X104340604Y-89335009D01*
X104346042Y-89326400D01*
X104367245Y-89322188D01*
X104412222Y-89318697D01*
X104474695Y-89316256D01*
X104548381Y-89315194D01*
X104560214Y-89315174D01*
X104721010Y-89322169D01*
X104857701Y-89343693D01*
X104972935Y-89380569D01*
X105069359Y-89433620D01*
X105142491Y-89496127D01*
X105201799Y-89573195D01*
X105234715Y-89657135D01*
X105244344Y-89752446D01*
X106256096Y-89752446D01*
X106253609Y-89631864D01*
X106242499Y-89526821D01*
X106220871Y-89431998D01*
X106186739Y-89337837D01*
X106154791Y-89268111D01*
X106076748Y-89141236D01*
X105972773Y-89024042D01*
X105846030Y-88918662D01*
X105699682Y-88827228D01*
X105536894Y-88751874D01*
X105360829Y-88694732D01*
X105274734Y-88674842D01*
X105093426Y-88645413D01*
X104895792Y-88625997D01*
X104694150Y-88617502D01*
X104525654Y-88619675D01*
X104310125Y-88628700D01*
X104320003Y-88550178D01*
X104345689Y-88418170D01*
X104387139Y-88310702D01*
X104445499Y-88226952D01*
X104521917Y-88166095D01*
X104617539Y-88127308D01*
X104733510Y-88109766D01*
X104870979Y-88112647D01*
X104921538Y-88117974D01*
X105109514Y-88151482D01*
X105291662Y-88206113D01*
X105417515Y-88256706D01*
X105477639Y-88282501D01*
X105528806Y-88303231D01*
X105563889Y-88316071D01*
X105574125Y-88318797D01*
X105587098Y-88306710D01*
X105609357Y-88268142D01*
X105641110Y-88202655D01*
X105682568Y-88109816D01*
X105733939Y-87989187D01*
X105742723Y-87968165D01*
X105782739Y-87871885D01*
X105818659Y-87784885D01*
X105848931Y-87710969D01*
X105872004Y-87653941D01*
X105886326Y-87617607D01*
X105890462Y-87605839D01*
X105877150Y-87599509D01*
X105842167Y-87592483D01*
X105804526Y-87587585D01*
X105764377Y-87581252D01*
X105700754Y-87568677D01*
X105619303Y-87551092D01*
X105525664Y-87529730D01*
X105425480Y-87505825D01*
X105387455Y-87496475D01*
X105247581Y-87462408D01*
X105130869Y-87435698D01*
X105031565Y-87415491D01*
X104943915Y-87400934D01*
X104862164Y-87391173D01*
X104780559Y-87385356D01*
X104693344Y-87382630D01*
X104616102Y-87382100D01*
X104390508Y-87390971D01*
G36*
X99713526Y-88197367D02*
X99713500Y-88509461D01*
X99713465Y-88792962D01*
X99713369Y-89049336D01*
X99713159Y-89280048D01*
X99712784Y-89486565D01*
X99712191Y-89670351D01*
X99711330Y-89832874D01*
X99710147Y-89975598D01*
X99708592Y-90099990D01*
X99706611Y-90207515D01*
X99704154Y-90299640D01*
X99701167Y-90377830D01*
X99697600Y-90443551D01*
X99693401Y-90498269D01*
X99688516Y-90543449D01*
X99682896Y-90580558D01*
X99676487Y-90611062D01*
X99669237Y-90636426D01*
X99661095Y-90658115D01*
X99652010Y-90677597D01*
X99641927Y-90696337D01*
X99630797Y-90715800D01*
X99623883Y-90727924D01*
X99578264Y-90808757D01*
X100720769Y-90808757D01*
X100720769Y-90681006D01*
X100721743Y-90623273D01*
X100724342Y-90579119D01*
X100728082Y-90555446D01*
X100729735Y-90553254D01*
X100744942Y-90562419D01*
X100775183Y-90586175D01*
X100805405Y-90611969D01*
X100878076Y-90666201D01*
X100970577Y-90720792D01*
X101073161Y-90770725D01*
X101176081Y-90810987D01*
X101217157Y-90823833D01*
X101308351Y-90843225D01*
X101418657Y-90856487D01*
X101537671Y-90863202D01*
X101654995Y-90862953D01*
X101760227Y-90855324D01*
X101810414Y-90847592D01*
X101994270Y-90796918D01*
X102163755Y-90720067D01*
X102317954Y-90617737D01*
X102455956Y-90490628D01*
X102576849Y-90339440D01*
X102665786Y-90191927D01*
X102738835Y-90036483D01*
X102794752Y-89877586D01*
X102834689Y-89709843D01*
X102859793Y-89527861D01*
X102871214Y-89326245D01*
X102872181Y-89223136D01*
X102869393Y-89147545D01*
X101765540Y-89147545D01*
X101765263Y-89271452D01*
X101761385Y-89388199D01*
X101753846Y-89490820D01*
X101742589Y-89572349D01*
X101739149Y-89588779D01*
X101696811Y-89731612D01*
X101641348Y-89847473D01*
X101572297Y-89936654D01*
X101489196Y-89999444D01*
X101391582Y-90036137D01*
X101278990Y-90047021D01*
X101150959Y-90032390D01*
X101066449Y-90011458D01*
X101001022Y-89987241D01*
X100928957Y-89952828D01*
X100874822Y-89921272D01*
X100780887Y-89859540D01*
X100780887Y-88328220D01*
X100870631Y-88270216D01*
X100975177Y-88215733D01*
X101087258Y-88180251D01*
X101200589Y-88164376D01*
X101308883Y-88168712D01*
X101405855Y-88193865D01*
X101448397Y-88214593D01*
X101525515Y-88271838D01*
X101590695Y-88347422D01*
X101645487Y-88444108D01*
X101691439Y-88564658D01*
X101730103Y-88711833D01*
X101731809Y-88719645D01*
X101745350Y-88802527D01*
X101755524Y-88906116D01*
X101762274Y-89023444D01*
X101765540Y-89147545D01*
X102869393Y-89147545D01*
X102861728Y-88939801D01*
X102832512Y-88679073D01*
X102784604Y-88441123D01*
X102718072Y-88226124D01*
X102632985Y-88034250D01*
X102529413Y-87865674D01*
X102407425Y-87720568D01*
X102267089Y-87599105D01*
X102206959Y-87557898D01*
X102072559Y-87483145D01*
X101935043Y-87430409D01*
X101788476Y-87398243D01*
X101626927Y-87385203D01*
X101503769Y-87386595D01*
X101331152Y-87401195D01*
X101181249Y-87430239D01*
X101049722Y-87475063D01*
X100932235Y-87537000D01*
X100867177Y-87582549D01*
X100828080Y-87611725D01*
X100799202Y-87631656D01*
X100788272Y-87637515D01*
X100786122Y-87623097D01*
X100784404Y-87582287D01*
X100783100Y-87518747D01*
X100782195Y-87436140D01*
X100781672Y-87338130D01*
X100781513Y-87228379D01*
X100781702Y-87110551D01*
X100782222Y-86988307D01*
X100783056Y-86865313D01*
X100784188Y-86745230D01*
X100785601Y-86631721D01*
X100787277Y-86528450D01*
X100789200Y-86439080D01*
X100791354Y-86367273D01*
X100793720Y-86316693D01*
X100794375Y-86307396D01*
X100804463Y-86213647D01*
X100819855Y-86140224D01*
X100843472Y-86077489D01*
X100878233Y-86015802D01*
X100886577Y-86003047D01*
X100919105Y-85954201D01*
X99713787Y-85954201D01*
X99713526Y-88197367D01*
X99713526Y-88197367D01*
G37*
X99713526Y-88197367D02*
X99713500Y-88509461D01*
X99713465Y-88792962D01*
X99713369Y-89049336D01*
X99713159Y-89280048D01*
X99712784Y-89486565D01*
X99712191Y-89670351D01*
X99711330Y-89832874D01*
X99710147Y-89975598D01*
X99708592Y-90099990D01*
X99706611Y-90207515D01*
X99704154Y-90299640D01*
X99701167Y-90377830D01*
X99697600Y-90443551D01*
X99693401Y-90498269D01*
X99688516Y-90543449D01*
X99682896Y-90580558D01*
X99676487Y-90611062D01*
X99669237Y-90636426D01*
X99661095Y-90658115D01*
X99652010Y-90677597D01*
X99641927Y-90696337D01*
X99630797Y-90715800D01*
X99623883Y-90727924D01*
X99578264Y-90808757D01*
X100720769Y-90808757D01*
X100720769Y-90681006D01*
X100721743Y-90623273D01*
X100724342Y-90579119D01*
X100728082Y-90555446D01*
X100729735Y-90553254D01*
X100744942Y-90562419D01*
X100775183Y-90586175D01*
X100805405Y-90611969D01*
X100878076Y-90666201D01*
X100970577Y-90720792D01*
X101073161Y-90770725D01*
X101176081Y-90810987D01*
X101217157Y-90823833D01*
X101308351Y-90843225D01*
X101418657Y-90856487D01*
X101537671Y-90863202D01*
X101654995Y-90862953D01*
X101760227Y-90855324D01*
X101810414Y-90847592D01*
X101994270Y-90796918D01*
X102163755Y-90720067D01*
X102317954Y-90617737D01*
X102455956Y-90490628D01*
X102576849Y-90339440D01*
X102665786Y-90191927D01*
X102738835Y-90036483D01*
X102794752Y-89877586D01*
X102834689Y-89709843D01*
X102859793Y-89527861D01*
X102871214Y-89326245D01*
X102872181Y-89223136D01*
X102869393Y-89147545D01*
X101765540Y-89147545D01*
X101765263Y-89271452D01*
X101761385Y-89388199D01*
X101753846Y-89490820D01*
X101742589Y-89572349D01*
X101739149Y-89588779D01*
X101696811Y-89731612D01*
X101641348Y-89847473D01*
X101572297Y-89936654D01*
X101489196Y-89999444D01*
X101391582Y-90036137D01*
X101278990Y-90047021D01*
X101150959Y-90032390D01*
X101066449Y-90011458D01*
X101001022Y-89987241D01*
X100928957Y-89952828D01*
X100874822Y-89921272D01*
X100780887Y-89859540D01*
X100780887Y-88328220D01*
X100870631Y-88270216D01*
X100975177Y-88215733D01*
X101087258Y-88180251D01*
X101200589Y-88164376D01*
X101308883Y-88168712D01*
X101405855Y-88193865D01*
X101448397Y-88214593D01*
X101525515Y-88271838D01*
X101590695Y-88347422D01*
X101645487Y-88444108D01*
X101691439Y-88564658D01*
X101730103Y-88711833D01*
X101731809Y-88719645D01*
X101745350Y-88802527D01*
X101755524Y-88906116D01*
X101762274Y-89023444D01*
X101765540Y-89147545D01*
X102869393Y-89147545D01*
X102861728Y-88939801D01*
X102832512Y-88679073D01*
X102784604Y-88441123D01*
X102718072Y-88226124D01*
X102632985Y-88034250D01*
X102529413Y-87865674D01*
X102407425Y-87720568D01*
X102267089Y-87599105D01*
X102206959Y-87557898D01*
X102072559Y-87483145D01*
X101935043Y-87430409D01*
X101788476Y-87398243D01*
X101626927Y-87385203D01*
X101503769Y-87386595D01*
X101331152Y-87401195D01*
X101181249Y-87430239D01*
X101049722Y-87475063D01*
X100932235Y-87537000D01*
X100867177Y-87582549D01*
X100828080Y-87611725D01*
X100799202Y-87631656D01*
X100788272Y-87637515D01*
X100786122Y-87623097D01*
X100784404Y-87582287D01*
X100783100Y-87518747D01*
X100782195Y-87436140D01*
X100781672Y-87338130D01*
X100781513Y-87228379D01*
X100781702Y-87110551D01*
X100782222Y-86988307D01*
X100783056Y-86865313D01*
X100784188Y-86745230D01*
X100785601Y-86631721D01*
X100787277Y-86528450D01*
X100789200Y-86439080D01*
X100791354Y-86367273D01*
X100793720Y-86316693D01*
X100794375Y-86307396D01*
X100804463Y-86213647D01*
X100819855Y-86140224D01*
X100843472Y-86077489D01*
X100878233Y-86015802D01*
X100886577Y-86003047D01*
X100919105Y-85954201D01*
X99713787Y-85954201D01*
X99713526Y-88197367D01*
G36*
X110976240Y-84941293D02*
X110848063Y-84973562D01*
X110732789Y-85030587D01*
X110633189Y-85110172D01*
X110552035Y-85210125D01*
X110492098Y-85328251D01*
X110457134Y-85456475D01*
X110449344Y-85585969D01*
X110469120Y-85710929D01*
X110513988Y-85827899D01*
X110581472Y-85933422D01*
X110669098Y-86024042D01*
X110774393Y-86096303D01*
X110894882Y-86146748D01*
X110963135Y-86163288D01*
X111022378Y-86173302D01*
X111068046Y-86177259D01*
X111111928Y-86174830D01*
X111165814Y-86165684D01*
X111209877Y-86156398D01*
X111334248Y-86114447D01*
X111445647Y-86046383D01*
X111541565Y-85954269D01*
X111619496Y-85840170D01*
X111638067Y-85803905D01*
X111659951Y-85755487D01*
X111673675Y-85714828D01*
X111681085Y-85672049D01*
X111684027Y-85617272D01*
X111684397Y-85555917D01*
X111678957Y-85443606D01*
X111661096Y-85351371D01*
X111627559Y-85270658D01*
X111575090Y-85192914D01*
X111523769Y-85133982D01*
X111428054Y-85046355D01*
X111328078Y-84985868D01*
X111217907Y-84949653D01*
X111114549Y-84935973D01*
X110976240Y-84941293D01*
X110976240Y-84941293D01*
G37*
X110976240Y-84941293D02*
X110848063Y-84973562D01*
X110732789Y-85030587D01*
X110633189Y-85110172D01*
X110552035Y-85210125D01*
X110492098Y-85328251D01*
X110457134Y-85456475D01*
X110449344Y-85585969D01*
X110469120Y-85710929D01*
X110513988Y-85827899D01*
X110581472Y-85933422D01*
X110669098Y-86024042D01*
X110774393Y-86096303D01*
X110894882Y-86146748D01*
X110963135Y-86163288D01*
X111022378Y-86173302D01*
X111068046Y-86177259D01*
X111111928Y-86174830D01*
X111165814Y-86165684D01*
X111209877Y-86156398D01*
X111334248Y-86114447D01*
X111445647Y-86046383D01*
X111541565Y-85954269D01*
X111619496Y-85840170D01*
X111638067Y-85803905D01*
X111659951Y-85755487D01*
X111673675Y-85714828D01*
X111681085Y-85672049D01*
X111684027Y-85617272D01*
X111684397Y-85555917D01*
X111678957Y-85443606D01*
X111661096Y-85351371D01*
X111627559Y-85270658D01*
X111575090Y-85192914D01*
X111523769Y-85133982D01*
X111428054Y-85046355D01*
X111328078Y-84985868D01*
X111217907Y-84949653D01*
X111114549Y-84935973D01*
X110976240Y-84941293D01*
G36*
X113633182Y-95308416D02*
X113594403Y-95316136D01*
X113070992Y-95486207D01*
X112652722Y-95774650D01*
X112293951Y-96223519D01*
X111983906Y-96800062D01*
X111876239Y-96769590D01*
X111611511Y-96652942D01*
X111251868Y-96477774D01*
X110391101Y-96093368D01*
X109573362Y-95848232D01*
X108703743Y-95720461D01*
X107829048Y-95687719D01*
X106548159Y-95774901D01*
X105386802Y-96035412D01*
X104374621Y-96462253D01*
X104250326Y-96532646D01*
X103907751Y-96727448D01*
X103716544Y-96799559D01*
X103619728Y-96749211D01*
X103560327Y-96576637D01*
X103549939Y-96535509D01*
X103377131Y-96215234D01*
X103052618Y-95871152D01*
X102650731Y-95565632D01*
X102245798Y-95361041D01*
X102103966Y-95322238D01*
X101440042Y-95308691D01*
X100838494Y-95507254D01*
X100326774Y-95890662D01*
X99932331Y-96431656D01*
X99682614Y-97102972D01*
X99604286Y-97804793D01*
X99635603Y-98339277D01*
X99748731Y-98757633D01*
X99909013Y-99074914D01*
X100122169Y-99399576D01*
X100318227Y-99634943D01*
X100390945Y-99694060D01*
X100460036Y-99777730D01*
X100445785Y-99937665D01*
X100335467Y-100216088D01*
X100116352Y-100655221D01*
X100080546Y-100723769D01*
X99575008Y-101936902D01*
X99305818Y-103183399D01*
X99273091Y-104444552D01*
X99476941Y-105701653D01*
X99917484Y-106935993D01*
X100040948Y-107192282D01*
X100657964Y-108169262D01*
X101472174Y-109079113D01*
X102441562Y-109890714D01*
X103524112Y-110572943D01*
X104677808Y-111094678D01*
X105715851Y-111395759D01*
X106401066Y-111495569D01*
X107236090Y-111548916D01*
X108133365Y-111555972D01*
X109005332Y-111516910D01*
X109764435Y-111431900D01*
X110006191Y-111387350D01*
X110975979Y-111091773D01*
X111989834Y-110623779D01*
X112975566Y-110023091D01*
X113860990Y-109329432D01*
X114030220Y-109173007D01*
X114894427Y-108252659D01*
X115539014Y-107335240D01*
X115964310Y-106419098D01*
X112966387Y-106419098D01*
X112911013Y-106850593D01*
X112629374Y-107892543D01*
X112175884Y-108796722D01*
X111608895Y-109527513D01*
X110776240Y-110266594D01*
X109833862Y-110796682D01*
X108806377Y-111109958D01*
X107718403Y-111198604D01*
X106716192Y-111081614D01*
X105785099Y-110772051D01*
X104896159Y-110261679D01*
X104102088Y-109591363D01*
X103455606Y-108801966D01*
X103190556Y-108348723D01*
X102825990Y-107371993D01*
X102672288Y-106334585D01*
X102723898Y-105282224D01*
X102975266Y-104260634D01*
X103420840Y-103315540D01*
X103878325Y-102685355D01*
X104286328Y-102213365D01*
X104062426Y-101846206D01*
X103862748Y-101309537D01*
X103901791Y-100762387D01*
X104113392Y-100319411D01*
X104510807Y-99879450D01*
X104971142Y-99664475D01*
X105444846Y-99649132D01*
X106043797Y-99819690D01*
X106481765Y-100167134D01*
X106691726Y-100520836D01*
X106864675Y-100934762D01*
X108751863Y-100934762D01*
X108954131Y-100510601D01*
X109287165Y-100049709D01*
X109735369Y-99751698D01*
X110243429Y-99626694D01*
X110756030Y-99684821D01*
X111217859Y-99936203D01*
X111356497Y-100070855D01*
X111688439Y-100589983D01*
X111779900Y-101134638D01*
X111630743Y-101703813D01*
X111588818Y-101788925D01*
X111330898Y-102283755D01*
X111848843Y-102859834D01*
X112368176Y-103604669D01*
X112738859Y-104488666D01*
X112943919Y-105448063D01*
X112966387Y-106419098D01*
X115964310Y-106419098D01*
X115982338Y-106380265D01*
X116242756Y-105347250D01*
X116338626Y-104195711D01*
X116339838Y-104079524D01*
X116302994Y-103094025D01*
X116167636Y-102249097D01*
X115912305Y-101456009D01*
X115515544Y-100626027D01*
X115496002Y-100590023D01*
X115077444Y-99821950D01*
X115401131Y-99501451D01*
X115809481Y-98944898D01*
X116019299Y-98270257D01*
X116053810Y-97790000D01*
X115960273Y-97067788D01*
X115700702Y-96426699D01*
X115306651Y-95898477D01*
X114809677Y-95514861D01*
X114241336Y-95307594D01*
X113633182Y-95308416D01*
X113633182Y-95308416D01*
G37*
X113633182Y-95308416D02*
X113594403Y-95316136D01*
X113070992Y-95486207D01*
X112652722Y-95774650D01*
X112293951Y-96223519D01*
X111983906Y-96800062D01*
X111876239Y-96769590D01*
X111611511Y-96652942D01*
X111251868Y-96477774D01*
X110391101Y-96093368D01*
X109573362Y-95848232D01*
X108703743Y-95720461D01*
X107829048Y-95687719D01*
X106548159Y-95774901D01*
X105386802Y-96035412D01*
X104374621Y-96462253D01*
X104250326Y-96532646D01*
X103907751Y-96727448D01*
X103716544Y-96799559D01*
X103619728Y-96749211D01*
X103560327Y-96576637D01*
X103549939Y-96535509D01*
X103377131Y-96215234D01*
X103052618Y-95871152D01*
X102650731Y-95565632D01*
X102245798Y-95361041D01*
X102103966Y-95322238D01*
X101440042Y-95308691D01*
X100838494Y-95507254D01*
X100326774Y-95890662D01*
X99932331Y-96431656D01*
X99682614Y-97102972D01*
X99604286Y-97804793D01*
X99635603Y-98339277D01*
X99748731Y-98757633D01*
X99909013Y-99074914D01*
X100122169Y-99399576D01*
X100318227Y-99634943D01*
X100390945Y-99694060D01*
X100460036Y-99777730D01*
X100445785Y-99937665D01*
X100335467Y-100216088D01*
X100116352Y-100655221D01*
X100080546Y-100723769D01*
X99575008Y-101936902D01*
X99305818Y-103183399D01*
X99273091Y-104444552D01*
X99476941Y-105701653D01*
X99917484Y-106935993D01*
X100040948Y-107192282D01*
X100657964Y-108169262D01*
X101472174Y-109079113D01*
X102441562Y-109890714D01*
X103524112Y-110572943D01*
X104677808Y-111094678D01*
X105715851Y-111395759D01*
X106401066Y-111495569D01*
X107236090Y-111548916D01*
X108133365Y-111555972D01*
X109005332Y-111516910D01*
X109764435Y-111431900D01*
X110006191Y-111387350D01*
X110975979Y-111091773D01*
X111989834Y-110623779D01*
X112975566Y-110023091D01*
X113860990Y-109329432D01*
X114030220Y-109173007D01*
X114894427Y-108252659D01*
X115539014Y-107335240D01*
X115964310Y-106419098D01*
X112966387Y-106419098D01*
X112911013Y-106850593D01*
X112629374Y-107892543D01*
X112175884Y-108796722D01*
X111608895Y-109527513D01*
X110776240Y-110266594D01*
X109833862Y-110796682D01*
X108806377Y-111109958D01*
X107718403Y-111198604D01*
X106716192Y-111081614D01*
X105785099Y-110772051D01*
X104896159Y-110261679D01*
X104102088Y-109591363D01*
X103455606Y-108801966D01*
X103190556Y-108348723D01*
X102825990Y-107371993D01*
X102672288Y-106334585D01*
X102723898Y-105282224D01*
X102975266Y-104260634D01*
X103420840Y-103315540D01*
X103878325Y-102685355D01*
X104286328Y-102213365D01*
X104062426Y-101846206D01*
X103862748Y-101309537D01*
X103901791Y-100762387D01*
X104113392Y-100319411D01*
X104510807Y-99879450D01*
X104971142Y-99664475D01*
X105444846Y-99649132D01*
X106043797Y-99819690D01*
X106481765Y-100167134D01*
X106691726Y-100520836D01*
X106864675Y-100934762D01*
X108751863Y-100934762D01*
X108954131Y-100510601D01*
X109287165Y-100049709D01*
X109735369Y-99751698D01*
X110243429Y-99626694D01*
X110756030Y-99684821D01*
X111217859Y-99936203D01*
X111356497Y-100070855D01*
X111688439Y-100589983D01*
X111779900Y-101134638D01*
X111630743Y-101703813D01*
X111588818Y-101788925D01*
X111330898Y-102283755D01*
X111848843Y-102859834D01*
X112368176Y-103604669D01*
X112738859Y-104488666D01*
X112943919Y-105448063D01*
X112966387Y-106419098D01*
X115964310Y-106419098D01*
X115982338Y-106380265D01*
X116242756Y-105347250D01*
X116338626Y-104195711D01*
X116339838Y-104079524D01*
X116302994Y-103094025D01*
X116167636Y-102249097D01*
X115912305Y-101456009D01*
X115515544Y-100626027D01*
X115496002Y-100590023D01*
X115077444Y-99821950D01*
X115401131Y-99501451D01*
X115809481Y-98944898D01*
X116019299Y-98270257D01*
X116053810Y-97790000D01*
X115960273Y-97067788D01*
X115700702Y-96426699D01*
X115306651Y-95898477D01*
X114809677Y-95514861D01*
X114241336Y-95307594D01*
X113633182Y-95308416D01*
G36*
X106925410Y-103139868D02*
X106192795Y-103287047D01*
X105575657Y-103553336D01*
X105018451Y-103955912D01*
X105004719Y-103967950D01*
X104530268Y-104490784D01*
X104279740Y-105046565D01*
X104235458Y-105680317D01*
X104256856Y-105872641D01*
X104495010Y-106726521D01*
X104930301Y-107478803D01*
X105529272Y-108100989D01*
X106258464Y-108564584D01*
X107084419Y-108841091D01*
X107820763Y-108908070D01*
X108180150Y-108893164D01*
X108439174Y-108866771D01*
X108494286Y-108854109D01*
X108680227Y-108798020D01*
X108997702Y-108711891D01*
X109112382Y-108682119D01*
X109583183Y-108475609D01*
X110090795Y-108117833D01*
X110560662Y-107672269D01*
X110918228Y-107202395D01*
X110979286Y-107092598D01*
X111309286Y-106262923D01*
X111411353Y-105513343D01*
X111285354Y-104842552D01*
X110931156Y-104249246D01*
X110659333Y-103973193D01*
X110102161Y-103565290D01*
X109489011Y-103294531D01*
X108763706Y-103143479D01*
X107870070Y-103094696D01*
X107829048Y-103094626D01*
X106925410Y-103139868D01*
X106925410Y-103139868D01*
G37*
X106925410Y-103139868D02*
X106192795Y-103287047D01*
X105575657Y-103553336D01*
X105018451Y-103955912D01*
X105004719Y-103967950D01*
X104530268Y-104490784D01*
X104279740Y-105046565D01*
X104235458Y-105680317D01*
X104256856Y-105872641D01*
X104495010Y-106726521D01*
X104930301Y-107478803D01*
X105529272Y-108100989D01*
X106258464Y-108564584D01*
X107084419Y-108841091D01*
X107820763Y-108908070D01*
X108180150Y-108893164D01*
X108439174Y-108866771D01*
X108494286Y-108854109D01*
X108680227Y-108798020D01*
X108997702Y-108711891D01*
X109112382Y-108682119D01*
X109583183Y-108475609D01*
X110090795Y-108117833D01*
X110560662Y-107672269D01*
X110918228Y-107202395D01*
X110979286Y-107092598D01*
X111309286Y-106262923D01*
X111411353Y-105513343D01*
X111285354Y-104842552D01*
X110931156Y-104249246D01*
X110659333Y-103973193D01*
X110102161Y-103565290D01*
X109489011Y-103294531D01*
X108763706Y-103143479D01*
X107870070Y-103094696D01*
X107829048Y-103094626D01*
X106925410Y-103139868D01*
G36*
X109952165Y-100331262D02*
X109721721Y-100541876D01*
X109634418Y-100836407D01*
X109730500Y-101169084D01*
X109834442Y-101308315D01*
X110113598Y-101478122D01*
X110474169Y-101535942D01*
X110808960Y-101476376D01*
X110967739Y-101365409D01*
X111090599Y-101050790D01*
X111027585Y-100706038D01*
X110803560Y-100419800D01*
X110681511Y-100344871D01*
X110285509Y-100250337D01*
X109952165Y-100331262D01*
X109952165Y-100331262D01*
G37*
X109952165Y-100331262D02*
X109721721Y-100541876D01*
X109634418Y-100836407D01*
X109730500Y-101169084D01*
X109834442Y-101308315D01*
X110113598Y-101478122D01*
X110474169Y-101535942D01*
X110808960Y-101476376D01*
X110967739Y-101365409D01*
X111090599Y-101050790D01*
X111027585Y-100706038D01*
X110803560Y-100419800D01*
X110681511Y-100344871D01*
X110285509Y-100250337D01*
X109952165Y-100331262D01*
G36*
X104892012Y-100363245D02*
X104644219Y-100603808D01*
X104534285Y-100910800D01*
X104609142Y-101235639D01*
X104639734Y-101283649D01*
X104911906Y-101484823D01*
X105278790Y-101539778D01*
X105640826Y-101446441D01*
X105823653Y-101308315D01*
X105993818Y-100976973D01*
X105972666Y-100635297D01*
X105776375Y-100362744D01*
X105613433Y-100275743D01*
X105230728Y-100237696D01*
X104892012Y-100363245D01*
X104892012Y-100363245D01*
G37*
X104892012Y-100363245D02*
X104644219Y-100603808D01*
X104534285Y-100910800D01*
X104609142Y-101235639D01*
X104639734Y-101283649D01*
X104911906Y-101484823D01*
X105278790Y-101539778D01*
X105640826Y-101446441D01*
X105823653Y-101308315D01*
X105993818Y-100976973D01*
X105972666Y-100635297D01*
X105776375Y-100362744D01*
X105613433Y-100275743D01*
X105230728Y-100237696D01*
X104892012Y-100363245D01*
G36*
X95888759Y-117039184D02*
X95862247Y-117052282D01*
X95829553Y-117075106D01*
X95805725Y-117099996D01*
X95789406Y-117131249D01*
X95779240Y-117173166D01*
X95773872Y-117230044D01*
X95771944Y-117306184D01*
X95771831Y-117338917D01*
X95772161Y-117410656D01*
X95773527Y-117461927D01*
X95776500Y-117497404D01*
X95781649Y-117521763D01*
X95789543Y-117539680D01*
X95797757Y-117551902D01*
X95850187Y-117603905D01*
X95911930Y-117635184D01*
X95978536Y-117644592D01*
X96045558Y-117630980D01*
X96066792Y-117621354D01*
X96117624Y-117594859D01*
X96117624Y-118010052D01*
X96080525Y-117990868D01*
X96031643Y-117976025D01*
X95971561Y-117972222D01*
X95911564Y-117979243D01*
X95866256Y-117995013D01*
X95828675Y-118025047D01*
X95796564Y-118068024D01*
X95794150Y-118072436D01*
X95783967Y-118093221D01*
X95776530Y-118114170D01*
X95771411Y-118139548D01*
X95768181Y-118173618D01*
X95766413Y-118220641D01*
X95765677Y-118284882D01*
X95765544Y-118357176D01*
X95765544Y-118587822D01*
X95903861Y-118587822D01*
X95903861Y-118162533D01*
X95942549Y-118129979D01*
X95982738Y-118103940D01*
X96020797Y-118099205D01*
X96059066Y-118111389D01*
X96079462Y-118123320D01*
X96094642Y-118140313D01*
X96105438Y-118165995D01*
X96112683Y-118203991D01*
X96117208Y-118257926D01*
X96119844Y-118331425D01*
X96120772Y-118380347D01*
X96123911Y-118581535D01*
X96189926Y-118585336D01*
X96255940Y-118589136D01*
X96255940Y-117340650D01*
X96117624Y-117340650D01*
X96114097Y-117410254D01*
X96102215Y-117458569D01*
X96080020Y-117488631D01*
X96045559Y-117503471D01*
X96010742Y-117506436D01*
X95971329Y-117503028D01*
X95945171Y-117489617D01*
X95928814Y-117471896D01*
X95915937Y-117452835D01*
X95908272Y-117431601D01*
X95904861Y-117401849D01*
X95904749Y-117357236D01*
X95905897Y-117319880D01*
X95908532Y-117263604D01*
X95912456Y-117226658D01*
X95919063Y-117203223D01*
X95929749Y-117187480D01*
X95939833Y-117178380D01*
X95981970Y-117158537D01*
X96031840Y-117155332D01*
X96060476Y-117162168D01*
X96088828Y-117186464D01*
X96107609Y-117233728D01*
X96116712Y-117303624D01*
X96117624Y-117340650D01*
X96255940Y-117340650D01*
X96255940Y-117028614D01*
X96186782Y-117028614D01*
X96145260Y-117030256D01*
X96123838Y-117036087D01*
X96117626Y-117047461D01*
X96117624Y-117047798D01*
X96114742Y-117058938D01*
X96102030Y-117057673D01*
X96076757Y-117045433D01*
X96017869Y-117026707D01*
X95951615Y-117024739D01*
X95888759Y-117039184D01*
X95888759Y-117039184D01*
G37*
X95888759Y-117039184D02*
X95862247Y-117052282D01*
X95829553Y-117075106D01*
X95805725Y-117099996D01*
X95789406Y-117131249D01*
X95779240Y-117173166D01*
X95773872Y-117230044D01*
X95771944Y-117306184D01*
X95771831Y-117338917D01*
X95772161Y-117410656D01*
X95773527Y-117461927D01*
X95776500Y-117497404D01*
X95781649Y-117521763D01*
X95789543Y-117539680D01*
X95797757Y-117551902D01*
X95850187Y-117603905D01*
X95911930Y-117635184D01*
X95978536Y-117644592D01*
X96045558Y-117630980D01*
X96066792Y-117621354D01*
X96117624Y-117594859D01*
X96117624Y-118010052D01*
X96080525Y-117990868D01*
X96031643Y-117976025D01*
X95971561Y-117972222D01*
X95911564Y-117979243D01*
X95866256Y-117995013D01*
X95828675Y-118025047D01*
X95796564Y-118068024D01*
X95794150Y-118072436D01*
X95783967Y-118093221D01*
X95776530Y-118114170D01*
X95771411Y-118139548D01*
X95768181Y-118173618D01*
X95766413Y-118220641D01*
X95765677Y-118284882D01*
X95765544Y-118357176D01*
X95765544Y-118587822D01*
X95903861Y-118587822D01*
X95903861Y-118162533D01*
X95942549Y-118129979D01*
X95982738Y-118103940D01*
X96020797Y-118099205D01*
X96059066Y-118111389D01*
X96079462Y-118123320D01*
X96094642Y-118140313D01*
X96105438Y-118165995D01*
X96112683Y-118203991D01*
X96117208Y-118257926D01*
X96119844Y-118331425D01*
X96120772Y-118380347D01*
X96123911Y-118581535D01*
X96189926Y-118585336D01*
X96255940Y-118589136D01*
X96255940Y-117340650D01*
X96117624Y-117340650D01*
X96114097Y-117410254D01*
X96102215Y-117458569D01*
X96080020Y-117488631D01*
X96045559Y-117503471D01*
X96010742Y-117506436D01*
X95971329Y-117503028D01*
X95945171Y-117489617D01*
X95928814Y-117471896D01*
X95915937Y-117452835D01*
X95908272Y-117431601D01*
X95904861Y-117401849D01*
X95904749Y-117357236D01*
X95905897Y-117319880D01*
X95908532Y-117263604D01*
X95912456Y-117226658D01*
X95919063Y-117203223D01*
X95929749Y-117187480D01*
X95939833Y-117178380D01*
X95981970Y-117158537D01*
X96031840Y-117155332D01*
X96060476Y-117162168D01*
X96088828Y-117186464D01*
X96107609Y-117233728D01*
X96116712Y-117303624D01*
X96117624Y-117340650D01*
X96255940Y-117340650D01*
X96255940Y-117028614D01*
X96186782Y-117028614D01*
X96145260Y-117030256D01*
X96123838Y-117036087D01*
X96117626Y-117047461D01*
X96117624Y-117047798D01*
X96114742Y-117058938D01*
X96102030Y-117057673D01*
X96076757Y-117045433D01*
X96017869Y-117026707D01*
X95951615Y-117024739D01*
X95888759Y-117039184D01*
G36*
X95364210Y-117976555D02*
X95305055Y-117992339D01*
X95260023Y-118020948D01*
X95228246Y-118058419D01*
X95218366Y-118074411D01*
X95211073Y-118091163D01*
X95205974Y-118112592D01*
X95202679Y-118142616D01*
X95200797Y-118185154D01*
X95199937Y-118244122D01*
X95199707Y-118323440D01*
X95199703Y-118344484D01*
X95199703Y-118587822D01*
X95260059Y-118587822D01*
X95298557Y-118585126D01*
X95327023Y-118578295D01*
X95334155Y-118574083D01*
X95353652Y-118566813D01*
X95373566Y-118574083D01*
X95406353Y-118583160D01*
X95453978Y-118586813D01*
X95506764Y-118585228D01*
X95555036Y-118578589D01*
X95583218Y-118570072D01*
X95637753Y-118535063D01*
X95671835Y-118486479D01*
X95687157Y-118421882D01*
X95687299Y-118420223D01*
X95685955Y-118391566D01*
X95564356Y-118391566D01*
X95553726Y-118424161D01*
X95536410Y-118442505D01*
X95501652Y-118456379D01*
X95455773Y-118461917D01*
X95408988Y-118459191D01*
X95371514Y-118448274D01*
X95361015Y-118441269D01*
X95342668Y-118408904D01*
X95338020Y-118372111D01*
X95338020Y-118323763D01*
X95407582Y-118323763D01*
X95473667Y-118328850D01*
X95523764Y-118343263D01*
X95554929Y-118365729D01*
X95564356Y-118391566D01*
X95685955Y-118391566D01*
X95683987Y-118349647D01*
X95660710Y-118293845D01*
X95616948Y-118251647D01*
X95610899Y-118247808D01*
X95584907Y-118235309D01*
X95552735Y-118227740D01*
X95507760Y-118224061D01*
X95454331Y-118223216D01*
X95338020Y-118223169D01*
X95338020Y-118174411D01*
X95342953Y-118136581D01*
X95355543Y-118111236D01*
X95357017Y-118109887D01*
X95385034Y-118098800D01*
X95427326Y-118094503D01*
X95474064Y-118096615D01*
X95515418Y-118104756D01*
X95539957Y-118116965D01*
X95553253Y-118126746D01*
X95567294Y-118128613D01*
X95586671Y-118120600D01*
X95615976Y-118100739D01*
X95659803Y-118067063D01*
X95663825Y-118063909D01*
X95661764Y-118052236D01*
X95644568Y-118032822D01*
X95618433Y-118011248D01*
X95589552Y-117993096D01*
X95580478Y-117988809D01*
X95547380Y-117980256D01*
X95498880Y-117974155D01*
X95444695Y-117971708D01*
X95442161Y-117971703D01*
X95364210Y-117976555D01*
X95364210Y-117976555D01*
G37*
X95364210Y-117976555D02*
X95305055Y-117992339D01*
X95260023Y-118020948D01*
X95228246Y-118058419D01*
X95218366Y-118074411D01*
X95211073Y-118091163D01*
X95205974Y-118112592D01*
X95202679Y-118142616D01*
X95200797Y-118185154D01*
X95199937Y-118244122D01*
X95199707Y-118323440D01*
X95199703Y-118344484D01*
X95199703Y-118587822D01*
X95260059Y-118587822D01*
X95298557Y-118585126D01*
X95327023Y-118578295D01*
X95334155Y-118574083D01*
X95353652Y-118566813D01*
X95373566Y-118574083D01*
X95406353Y-118583160D01*
X95453978Y-118586813D01*
X95506764Y-118585228D01*
X95555036Y-118578589D01*
X95583218Y-118570072D01*
X95637753Y-118535063D01*
X95671835Y-118486479D01*
X95687157Y-118421882D01*
X95687299Y-118420223D01*
X95685955Y-118391566D01*
X95564356Y-118391566D01*
X95553726Y-118424161D01*
X95536410Y-118442505D01*
X95501652Y-118456379D01*
X95455773Y-118461917D01*
X95408988Y-118459191D01*
X95371514Y-118448274D01*
X95361015Y-118441269D01*
X95342668Y-118408904D01*
X95338020Y-118372111D01*
X95338020Y-118323763D01*
X95407582Y-118323763D01*
X95473667Y-118328850D01*
X95523764Y-118343263D01*
X95554929Y-118365729D01*
X95564356Y-118391566D01*
X95685955Y-118391566D01*
X95683987Y-118349647D01*
X95660710Y-118293845D01*
X95616948Y-118251647D01*
X95610899Y-118247808D01*
X95584907Y-118235309D01*
X95552735Y-118227740D01*
X95507760Y-118224061D01*
X95454331Y-118223216D01*
X95338020Y-118223169D01*
X95338020Y-118174411D01*
X95342953Y-118136581D01*
X95355543Y-118111236D01*
X95357017Y-118109887D01*
X95385034Y-118098800D01*
X95427326Y-118094503D01*
X95474064Y-118096615D01*
X95515418Y-118104756D01*
X95539957Y-118116965D01*
X95553253Y-118126746D01*
X95567294Y-118128613D01*
X95586671Y-118120600D01*
X95615976Y-118100739D01*
X95659803Y-118067063D01*
X95663825Y-118063909D01*
X95661764Y-118052236D01*
X95644568Y-118032822D01*
X95618433Y-118011248D01*
X95589552Y-117993096D01*
X95580478Y-117988809D01*
X95547380Y-117980256D01*
X95498880Y-117974155D01*
X95444695Y-117971708D01*
X95442161Y-117971703D01*
X95364210Y-117976555D01*
G36*
X94973356Y-117973020D02*
X94954539Y-117978660D01*
X94948473Y-117991053D01*
X94948218Y-117996647D01*
X94947129Y-118012230D01*
X94939632Y-118014676D01*
X94919381Y-118003993D01*
X94907351Y-117996694D01*
X94869400Y-117981063D01*
X94824072Y-117973334D01*
X94776544Y-117972740D01*
X94731995Y-117978513D01*
X94695602Y-117989884D01*
X94672543Y-118006088D01*
X94667996Y-118026355D01*
X94670291Y-118031843D01*
X94687020Y-118054626D01*
X94712963Y-118082647D01*
X94717655Y-118087177D01*
X94742383Y-118108005D01*
X94763718Y-118114735D01*
X94793555Y-118110038D01*
X94805508Y-118106917D01*
X94842705Y-118099421D01*
X94868859Y-118102792D01*
X94890946Y-118114681D01*
X94911178Y-118130635D01*
X94926079Y-118150700D01*
X94936434Y-118178702D01*
X94943029Y-118218467D01*
X94946649Y-118273823D01*
X94948078Y-118348594D01*
X94948218Y-118393740D01*
X94948218Y-118587822D01*
X95073960Y-118587822D01*
X95073960Y-117971683D01*
X95011089Y-117971683D01*
X94973356Y-117973020D01*
X94973356Y-117973020D01*
G37*
X94973356Y-117973020D02*
X94954539Y-117978660D01*
X94948473Y-117991053D01*
X94948218Y-117996647D01*
X94947129Y-118012230D01*
X94939632Y-118014676D01*
X94919381Y-118003993D01*
X94907351Y-117996694D01*
X94869400Y-117981063D01*
X94824072Y-117973334D01*
X94776544Y-117972740D01*
X94731995Y-117978513D01*
X94695602Y-117989884D01*
X94672543Y-118006088D01*
X94667996Y-118026355D01*
X94670291Y-118031843D01*
X94687020Y-118054626D01*
X94712963Y-118082647D01*
X94717655Y-118087177D01*
X94742383Y-118108005D01*
X94763718Y-118114735D01*
X94793555Y-118110038D01*
X94805508Y-118106917D01*
X94842705Y-118099421D01*
X94868859Y-118102792D01*
X94890946Y-118114681D01*
X94911178Y-118130635D01*
X94926079Y-118150700D01*
X94936434Y-118178702D01*
X94943029Y-118218467D01*
X94946649Y-118273823D01*
X94948078Y-118348594D01*
X94948218Y-118393740D01*
X94948218Y-118587822D01*
X95073960Y-118587822D01*
X95073960Y-117971683D01*
X95011089Y-117971683D01*
X94973356Y-117973020D01*
G36*
X94181188Y-118587822D02*
X94250346Y-118587822D01*
X94290488Y-118586645D01*
X94311394Y-118581772D01*
X94318922Y-118571186D01*
X94319505Y-118564029D01*
X94320774Y-118549676D01*
X94328779Y-118546923D01*
X94349815Y-118555771D01*
X94366173Y-118564029D01*
X94428977Y-118583597D01*
X94497248Y-118584729D01*
X94552752Y-118570135D01*
X94604438Y-118534877D01*
X94643838Y-118482835D01*
X94665413Y-118421450D01*
X94665962Y-118418018D01*
X94669167Y-118380571D01*
X94670761Y-118326813D01*
X94670633Y-118286155D01*
X94533279Y-118286155D01*
X94530097Y-118340194D01*
X94522859Y-118384735D01*
X94513060Y-118409888D01*
X94475989Y-118444260D01*
X94431974Y-118456582D01*
X94386584Y-118446618D01*
X94347797Y-118416895D01*
X94333108Y-118396905D01*
X94324519Y-118373050D01*
X94320496Y-118338230D01*
X94319505Y-118285930D01*
X94321278Y-118234139D01*
X94325963Y-118188634D01*
X94332603Y-118158181D01*
X94333710Y-118155452D01*
X94360491Y-118123000D01*
X94399579Y-118105183D01*
X94443315Y-118102306D01*
X94484038Y-118114674D01*
X94514087Y-118142593D01*
X94517204Y-118148148D01*
X94526961Y-118182022D01*
X94532277Y-118230728D01*
X94533279Y-118286155D01*
X94670633Y-118286155D01*
X94670568Y-118265540D01*
X94669664Y-118232563D01*
X94663514Y-118150981D01*
X94650733Y-118089730D01*
X94629471Y-118044449D01*
X94597878Y-118010779D01*
X94567207Y-117991014D01*
X94524354Y-117977120D01*
X94471056Y-117972354D01*
X94416480Y-117976236D01*
X94369792Y-117988282D01*
X94345124Y-118002693D01*
X94319505Y-118025878D01*
X94319505Y-117732773D01*
X94181188Y-117732773D01*
X94181188Y-118587822D01*
X94181188Y-118587822D01*
G37*
X94181188Y-118587822D02*
X94250346Y-118587822D01*
X94290488Y-118586645D01*
X94311394Y-118581772D01*
X94318922Y-118571186D01*
X94319505Y-118564029D01*
X94320774Y-118549676D01*
X94328779Y-118546923D01*
X94349815Y-118555771D01*
X94366173Y-118564029D01*
X94428977Y-118583597D01*
X94497248Y-118584729D01*
X94552752Y-118570135D01*
X94604438Y-118534877D01*
X94643838Y-118482835D01*
X94665413Y-118421450D01*
X94665962Y-118418018D01*
X94669167Y-118380571D01*
X94670761Y-118326813D01*
X94670633Y-118286155D01*
X94533279Y-118286155D01*
X94530097Y-118340194D01*
X94522859Y-118384735D01*
X94513060Y-118409888D01*
X94475989Y-118444260D01*
X94431974Y-118456582D01*
X94386584Y-118446618D01*
X94347797Y-118416895D01*
X94333108Y-118396905D01*
X94324519Y-118373050D01*
X94320496Y-118338230D01*
X94319505Y-118285930D01*
X94321278Y-118234139D01*
X94325963Y-118188634D01*
X94332603Y-118158181D01*
X94333710Y-118155452D01*
X94360491Y-118123000D01*
X94399579Y-118105183D01*
X94443315Y-118102306D01*
X94484038Y-118114674D01*
X94514087Y-118142593D01*
X94517204Y-118148148D01*
X94526961Y-118182022D01*
X94532277Y-118230728D01*
X94533279Y-118286155D01*
X94670633Y-118286155D01*
X94670568Y-118265540D01*
X94669664Y-118232563D01*
X94663514Y-118150981D01*
X94650733Y-118089730D01*
X94629471Y-118044449D01*
X94597878Y-118010779D01*
X94567207Y-117991014D01*
X94524354Y-117977120D01*
X94471056Y-117972354D01*
X94416480Y-117976236D01*
X94369792Y-117988282D01*
X94345124Y-118002693D01*
X94319505Y-118025878D01*
X94319505Y-117732773D01*
X94181188Y-117732773D01*
X94181188Y-118587822D01*
G36*
X93698476Y-117974237D02*
X93648745Y-117977971D01*
X93518709Y-118367773D01*
X93498322Y-118298614D01*
X93486054Y-118255874D01*
X93469915Y-118198115D01*
X93452488Y-118134625D01*
X93443274Y-118100570D01*
X93408612Y-117971683D01*
X93265609Y-117971683D01*
X93308354Y-118106857D01*
X93329404Y-118173342D01*
X93354833Y-118253539D01*
X93381390Y-118337193D01*
X93405098Y-118411782D01*
X93459098Y-118581535D01*
X93517402Y-118585328D01*
X93575705Y-118589122D01*
X93607321Y-118484734D01*
X93626818Y-118419889D01*
X93648096Y-118348400D01*
X93666692Y-118285263D01*
X93667426Y-118282750D01*
X93681316Y-118239969D01*
X93693571Y-118210779D01*
X93702154Y-118199741D01*
X93703918Y-118201018D01*
X93710109Y-118218130D01*
X93721872Y-118254787D01*
X93737775Y-118306378D01*
X93756386Y-118368294D01*
X93766457Y-118402352D01*
X93820993Y-118587822D01*
X93936736Y-118587822D01*
X94029263Y-118295471D01*
X94055256Y-118213462D01*
X94078934Y-118138987D01*
X94099180Y-118075544D01*
X94114874Y-118026632D01*
X94124898Y-117995749D01*
X94127945Y-117986726D01*
X94125533Y-117977487D01*
X94106592Y-117973441D01*
X94067177Y-117973846D01*
X94061007Y-117974152D01*
X93987914Y-117977971D01*
X93940043Y-118154010D01*
X93922447Y-118218211D01*
X93906723Y-118274649D01*
X93894254Y-118318422D01*
X93886426Y-118344630D01*
X93884980Y-118348903D01*
X93878986Y-118343990D01*
X93866899Y-118318532D01*
X93850107Y-118275997D01*
X93829997Y-118219850D01*
X93812997Y-118169130D01*
X93748206Y-117970504D01*
X93698476Y-117974237D01*
X93698476Y-117974237D01*
G37*
X93698476Y-117974237D02*
X93648745Y-117977971D01*
X93518709Y-118367773D01*
X93498322Y-118298614D01*
X93486054Y-118255874D01*
X93469915Y-118198115D01*
X93452488Y-118134625D01*
X93443274Y-118100570D01*
X93408612Y-117971683D01*
X93265609Y-117971683D01*
X93308354Y-118106857D01*
X93329404Y-118173342D01*
X93354833Y-118253539D01*
X93381390Y-118337193D01*
X93405098Y-118411782D01*
X93459098Y-118581535D01*
X93517402Y-118585328D01*
X93575705Y-118589122D01*
X93607321Y-118484734D01*
X93626818Y-118419889D01*
X93648096Y-118348400D01*
X93666692Y-118285263D01*
X93667426Y-118282750D01*
X93681316Y-118239969D01*
X93693571Y-118210779D01*
X93702154Y-118199741D01*
X93703918Y-118201018D01*
X93710109Y-118218130D01*
X93721872Y-118254787D01*
X93737775Y-118306378D01*
X93756386Y-118368294D01*
X93766457Y-118402352D01*
X93820993Y-118587822D01*
X93936736Y-118587822D01*
X94029263Y-118295471D01*
X94055256Y-118213462D01*
X94078934Y-118138987D01*
X94099180Y-118075544D01*
X94114874Y-118026632D01*
X94124898Y-117995749D01*
X94127945Y-117986726D01*
X94125533Y-117977487D01*
X94106592Y-117973441D01*
X94067177Y-117973846D01*
X94061007Y-117974152D01*
X93987914Y-117977971D01*
X93940043Y-118154010D01*
X93922447Y-118218211D01*
X93906723Y-118274649D01*
X93894254Y-118318422D01*
X93886426Y-118344630D01*
X93884980Y-118348903D01*
X93878986Y-118343990D01*
X93866899Y-118318532D01*
X93850107Y-118275997D01*
X93829997Y-118219850D01*
X93812997Y-118169130D01*
X93748206Y-117970504D01*
X93698476Y-117974237D01*
G36*
X92941589Y-117975417D02*
X92888589Y-117988290D01*
X92873269Y-117995110D01*
X92843572Y-118012974D01*
X92820780Y-118033093D01*
X92803917Y-118058962D01*
X92792002Y-118094073D01*
X92784058Y-118141920D01*
X92779106Y-118205996D01*
X92776169Y-118289794D01*
X92775053Y-118345768D01*
X92770948Y-118587822D01*
X92841068Y-118587822D01*
X92883607Y-118586038D01*
X92905524Y-118579942D01*
X92911188Y-118569706D01*
X92914179Y-118558637D01*
X92927549Y-118560754D01*
X92945767Y-118569629D01*
X92991376Y-118583233D01*
X93049993Y-118586899D01*
X93111646Y-118580903D01*
X93166362Y-118565521D01*
X93171270Y-118563386D01*
X93221277Y-118528255D01*
X93254244Y-118479419D01*
X93269413Y-118422333D01*
X93268254Y-118401824D01*
X93144492Y-118401824D01*
X93133587Y-118429425D01*
X93101255Y-118449204D01*
X93049090Y-118459819D01*
X93021213Y-118461228D01*
X92974753Y-118457620D01*
X92943871Y-118443597D01*
X92936336Y-118436931D01*
X92915924Y-118400666D01*
X92911188Y-118367773D01*
X92911188Y-118323763D01*
X92972487Y-118323763D01*
X93043744Y-118327395D01*
X93093724Y-118338818D01*
X93125304Y-118358824D01*
X93132374Y-118367743D01*
X93144492Y-118401824D01*
X93268254Y-118401824D01*
X93266029Y-118362456D01*
X93243337Y-118305244D01*
X93212376Y-118266580D01*
X93193624Y-118249864D01*
X93175267Y-118238878D01*
X93151381Y-118232180D01*
X93116043Y-118228326D01*
X93063331Y-118225873D01*
X93042423Y-118225168D01*
X92911188Y-118220879D01*
X92911380Y-118181158D01*
X92916463Y-118139405D01*
X92934838Y-118114158D01*
X92971961Y-118098030D01*
X92972957Y-118097742D01*
X93025590Y-118091400D01*
X93077094Y-118099684D01*
X93115370Y-118119827D01*
X93130728Y-118129773D01*
X93147270Y-118128397D01*
X93172725Y-118113987D01*
X93187672Y-118103817D01*
X93216909Y-118082088D01*
X93235020Y-118065800D01*
X93237926Y-118061137D01*
X93225960Y-118037005D01*
X93190604Y-118008185D01*
X93175247Y-117998461D01*
X93131099Y-117981714D01*
X93071602Y-117972227D01*
X93005513Y-117970095D01*
X92941589Y-117975417D01*
X92941589Y-117975417D01*
G37*
X92941589Y-117975417D02*
X92888589Y-117988290D01*
X92873269Y-117995110D01*
X92843572Y-118012974D01*
X92820780Y-118033093D01*
X92803917Y-118058962D01*
X92792002Y-118094073D01*
X92784058Y-118141920D01*
X92779106Y-118205996D01*
X92776169Y-118289794D01*
X92775053Y-118345768D01*
X92770948Y-118587822D01*
X92841068Y-118587822D01*
X92883607Y-118586038D01*
X92905524Y-118579942D01*
X92911188Y-118569706D01*
X92914179Y-118558637D01*
X92927549Y-118560754D01*
X92945767Y-118569629D01*
X92991376Y-118583233D01*
X93049993Y-118586899D01*
X93111646Y-118580903D01*
X93166362Y-118565521D01*
X93171270Y-118563386D01*
X93221277Y-118528255D01*
X93254244Y-118479419D01*
X93269413Y-118422333D01*
X93268254Y-118401824D01*
X93144492Y-118401824D01*
X93133587Y-118429425D01*
X93101255Y-118449204D01*
X93049090Y-118459819D01*
X93021213Y-118461228D01*
X92974753Y-118457620D01*
X92943871Y-118443597D01*
X92936336Y-118436931D01*
X92915924Y-118400666D01*
X92911188Y-118367773D01*
X92911188Y-118323763D01*
X92972487Y-118323763D01*
X93043744Y-118327395D01*
X93093724Y-118338818D01*
X93125304Y-118358824D01*
X93132374Y-118367743D01*
X93144492Y-118401824D01*
X93268254Y-118401824D01*
X93266029Y-118362456D01*
X93243337Y-118305244D01*
X93212376Y-118266580D01*
X93193624Y-118249864D01*
X93175267Y-118238878D01*
X93151381Y-118232180D01*
X93116043Y-118228326D01*
X93063331Y-118225873D01*
X93042423Y-118225168D01*
X92911188Y-118220879D01*
X92911380Y-118181158D01*
X92916463Y-118139405D01*
X92934838Y-118114158D01*
X92971961Y-118098030D01*
X92972957Y-118097742D01*
X93025590Y-118091400D01*
X93077094Y-118099684D01*
X93115370Y-118119827D01*
X93130728Y-118129773D01*
X93147270Y-118128397D01*
X93172725Y-118113987D01*
X93187672Y-118103817D01*
X93216909Y-118082088D01*
X93235020Y-118065800D01*
X93237926Y-118061137D01*
X93225960Y-118037005D01*
X93190604Y-118008185D01*
X93175247Y-117998461D01*
X93131099Y-117981714D01*
X93071602Y-117972227D01*
X93005513Y-117970095D01*
X92941589Y-117975417D01*
G36*
X92344745Y-117971486D02*
X92296405Y-117981015D01*
X92268886Y-117995125D01*
X92239936Y-118018568D01*
X92281124Y-118070571D01*
X92306518Y-118102064D01*
X92323762Y-118117428D01*
X92340898Y-118119776D01*
X92365973Y-118112217D01*
X92377743Y-118107941D01*
X92425730Y-118101631D01*
X92469676Y-118115156D01*
X92501940Y-118145710D01*
X92507181Y-118155452D01*
X92512888Y-118181258D01*
X92517294Y-118228817D01*
X92520189Y-118294758D01*
X92521369Y-118375710D01*
X92521386Y-118387226D01*
X92521386Y-118587822D01*
X92659703Y-118587822D01*
X92659703Y-117971683D01*
X92590544Y-117971683D01*
X92550667Y-117972725D01*
X92529893Y-117977358D01*
X92522211Y-117987849D01*
X92521386Y-117997745D01*
X92521386Y-118023806D01*
X92488255Y-117997745D01*
X92450265Y-117979965D01*
X92399230Y-117971174D01*
X92344745Y-117971486D01*
X92344745Y-117971486D01*
G37*
X92344745Y-117971486D02*
X92296405Y-117981015D01*
X92268886Y-117995125D01*
X92239936Y-118018568D01*
X92281124Y-118070571D01*
X92306518Y-118102064D01*
X92323762Y-118117428D01*
X92340898Y-118119776D01*
X92365973Y-118112217D01*
X92377743Y-118107941D01*
X92425730Y-118101631D01*
X92469676Y-118115156D01*
X92501940Y-118145710D01*
X92507181Y-118155452D01*
X92512888Y-118181258D01*
X92517294Y-118228817D01*
X92520189Y-118294758D01*
X92521369Y-118375710D01*
X92521386Y-118387226D01*
X92521386Y-118587822D01*
X92659703Y-118587822D01*
X92659703Y-117971683D01*
X92590544Y-117971683D01*
X92550667Y-117972725D01*
X92529893Y-117977358D01*
X92522211Y-117987849D01*
X92521386Y-117997745D01*
X92521386Y-118023806D01*
X92488255Y-117997745D01*
X92450265Y-117979965D01*
X92399230Y-117971174D01*
X92344745Y-117971486D01*
G36*
X91947419Y-117974970D02*
X91887315Y-117990597D01*
X91836979Y-118022848D01*
X91812607Y-118046940D01*
X91772655Y-118103895D01*
X91749758Y-118169965D01*
X91741892Y-118251182D01*
X91741852Y-118257748D01*
X91741782Y-118323763D01*
X92121736Y-118323763D01*
X92113637Y-118358342D01*
X92099013Y-118389659D01*
X92073419Y-118422291D01*
X92068065Y-118427500D01*
X92022057Y-118455694D01*
X91969590Y-118460475D01*
X91909197Y-118441926D01*
X91898960Y-118436931D01*
X91867561Y-118421745D01*
X91846530Y-118413094D01*
X91842861Y-118412293D01*
X91830052Y-118420063D01*
X91805622Y-118439072D01*
X91793221Y-118449460D01*
X91767524Y-118473321D01*
X91759085Y-118489077D01*
X91764942Y-118503571D01*
X91768072Y-118507534D01*
X91789275Y-118524879D01*
X91824262Y-118545959D01*
X91848663Y-118558265D01*
X91917928Y-118579946D01*
X91994612Y-118586971D01*
X92067235Y-118578647D01*
X92087574Y-118572686D01*
X92150524Y-118538952D01*
X92197185Y-118487045D01*
X92227827Y-118416459D01*
X92242718Y-118326692D01*
X92244353Y-118279753D01*
X92239579Y-118211413D01*
X92119010Y-118211413D01*
X92107348Y-118216465D01*
X92076002Y-118220429D01*
X92030429Y-118222768D01*
X91999554Y-118223169D01*
X91944019Y-118222783D01*
X91908967Y-118220975D01*
X91889738Y-118216773D01*
X91881670Y-118209203D01*
X91880099Y-118198218D01*
X91890879Y-118164381D01*
X91918020Y-118130940D01*
X91953723Y-118105272D01*
X91989440Y-118094772D01*
X92037952Y-118104086D01*
X92079947Y-118131013D01*
X92109064Y-118169827D01*
X92119010Y-118211413D01*
X92239579Y-118211413D01*
X92237401Y-118180236D01*
X92215945Y-118100949D01*
X92179530Y-118041263D01*
X92127703Y-118000549D01*
X92060010Y-117978179D01*
X92023338Y-117973871D01*
X91947419Y-117974970D01*
X91947419Y-117974970D01*
G37*
X91947419Y-117974970D02*
X91887315Y-117990597D01*
X91836979Y-118022848D01*
X91812607Y-118046940D01*
X91772655Y-118103895D01*
X91749758Y-118169965D01*
X91741892Y-118251182D01*
X91741852Y-118257748D01*
X91741782Y-118323763D01*
X92121736Y-118323763D01*
X92113637Y-118358342D01*
X92099013Y-118389659D01*
X92073419Y-118422291D01*
X92068065Y-118427500D01*
X92022057Y-118455694D01*
X91969590Y-118460475D01*
X91909197Y-118441926D01*
X91898960Y-118436931D01*
X91867561Y-118421745D01*
X91846530Y-118413094D01*
X91842861Y-118412293D01*
X91830052Y-118420063D01*
X91805622Y-118439072D01*
X91793221Y-118449460D01*
X91767524Y-118473321D01*
X91759085Y-118489077D01*
X91764942Y-118503571D01*
X91768072Y-118507534D01*
X91789275Y-118524879D01*
X91824262Y-118545959D01*
X91848663Y-118558265D01*
X91917928Y-118579946D01*
X91994612Y-118586971D01*
X92067235Y-118578647D01*
X92087574Y-118572686D01*
X92150524Y-118538952D01*
X92197185Y-118487045D01*
X92227827Y-118416459D01*
X92242718Y-118326692D01*
X92244353Y-118279753D01*
X92239579Y-118211413D01*
X92119010Y-118211413D01*
X92107348Y-118216465D01*
X92076002Y-118220429D01*
X92030429Y-118222768D01*
X91999554Y-118223169D01*
X91944019Y-118222783D01*
X91908967Y-118220975D01*
X91889738Y-118216773D01*
X91881670Y-118209203D01*
X91880099Y-118198218D01*
X91890879Y-118164381D01*
X91918020Y-118130940D01*
X91953723Y-118105272D01*
X91989440Y-118094772D01*
X92037952Y-118104086D01*
X92079947Y-118131013D01*
X92109064Y-118169827D01*
X92119010Y-118211413D01*
X92239579Y-118211413D01*
X92237401Y-118180236D01*
X92215945Y-118100949D01*
X92179530Y-118041263D01*
X92127703Y-118000549D01*
X92060010Y-117978179D01*
X92023338Y-117973871D01*
X91947419Y-117974970D01*
G36*
X96518261Y-117035148D02*
X96452479Y-117064231D01*
X96402540Y-117112793D01*
X96368374Y-117180908D01*
X96349907Y-117268651D01*
X96348583Y-117282351D01*
X96347546Y-117378939D01*
X96360993Y-117463602D01*
X96388108Y-117532221D01*
X96402627Y-117554294D01*
X96453201Y-117601011D01*
X96517609Y-117631268D01*
X96589666Y-117643824D01*
X96663185Y-117637439D01*
X96719072Y-117617772D01*
X96767132Y-117584629D01*
X96806412Y-117541175D01*
X96807092Y-117540158D01*
X96823044Y-117513338D01*
X96833410Y-117486368D01*
X96839688Y-117452332D01*
X96843373Y-117404310D01*
X96844997Y-117364931D01*
X96845672Y-117329219D01*
X96719955Y-117329219D01*
X96718726Y-117364770D01*
X96714266Y-117412094D01*
X96706397Y-117442465D01*
X96692207Y-117464072D01*
X96678917Y-117476694D01*
X96631802Y-117503122D01*
X96582505Y-117506653D01*
X96536593Y-117487639D01*
X96513638Y-117466331D01*
X96497096Y-117444859D01*
X96487421Y-117424313D01*
X96483174Y-117397574D01*
X96482920Y-117357523D01*
X96484228Y-117320638D01*
X96487043Y-117267947D01*
X96491505Y-117233772D01*
X96499548Y-117211480D01*
X96513103Y-117194442D01*
X96523845Y-117184703D01*
X96568777Y-117159123D01*
X96617249Y-117157847D01*
X96657894Y-117172999D01*
X96692567Y-117204642D01*
X96713224Y-117256620D01*
X96719955Y-117329219D01*
X96845672Y-117329219D01*
X96846479Y-117286621D01*
X96843948Y-117228056D01*
X96836362Y-117184007D01*
X96822681Y-117149248D01*
X96801865Y-117118551D01*
X96794147Y-117109436D01*
X96745889Y-117064021D01*
X96694128Y-117037493D01*
X96630828Y-117026379D01*
X96599961Y-117025471D01*
X96518261Y-117035148D01*
X96518261Y-117035148D01*
G37*
X96518261Y-117035148D02*
X96452479Y-117064231D01*
X96402540Y-117112793D01*
X96368374Y-117180908D01*
X96349907Y-117268651D01*
X96348583Y-117282351D01*
X96347546Y-117378939D01*
X96360993Y-117463602D01*
X96388108Y-117532221D01*
X96402627Y-117554294D01*
X96453201Y-117601011D01*
X96517609Y-117631268D01*
X96589666Y-117643824D01*
X96663185Y-117637439D01*
X96719072Y-117617772D01*
X96767132Y-117584629D01*
X96806412Y-117541175D01*
X96807092Y-117540158D01*
X96823044Y-117513338D01*
X96833410Y-117486368D01*
X96839688Y-117452332D01*
X96843373Y-117404310D01*
X96844997Y-117364931D01*
X96845672Y-117329219D01*
X96719955Y-117329219D01*
X96718726Y-117364770D01*
X96714266Y-117412094D01*
X96706397Y-117442465D01*
X96692207Y-117464072D01*
X96678917Y-117476694D01*
X96631802Y-117503122D01*
X96582505Y-117506653D01*
X96536593Y-117487639D01*
X96513638Y-117466331D01*
X96497096Y-117444859D01*
X96487421Y-117424313D01*
X96483174Y-117397574D01*
X96482920Y-117357523D01*
X96484228Y-117320638D01*
X96487043Y-117267947D01*
X96491505Y-117233772D01*
X96499548Y-117211480D01*
X96513103Y-117194442D01*
X96523845Y-117184703D01*
X96568777Y-117159123D01*
X96617249Y-117157847D01*
X96657894Y-117172999D01*
X96692567Y-117204642D01*
X96713224Y-117256620D01*
X96719955Y-117329219D01*
X96845672Y-117329219D01*
X96846479Y-117286621D01*
X96843948Y-117228056D01*
X96836362Y-117184007D01*
X96822681Y-117149248D01*
X96801865Y-117118551D01*
X96794147Y-117109436D01*
X96745889Y-117064021D01*
X96694128Y-117037493D01*
X96630828Y-117026379D01*
X96599961Y-117025471D01*
X96518261Y-117035148D01*
G36*
X95336699Y-117042614D02*
X95324168Y-117048514D01*
X95280799Y-117080283D01*
X95239790Y-117126646D01*
X95209168Y-117177696D01*
X95200459Y-117201166D01*
X95192512Y-117243091D01*
X95187774Y-117293757D01*
X95187199Y-117314679D01*
X95187129Y-117380693D01*
X95567083Y-117380693D01*
X95558983Y-117415273D01*
X95539104Y-117456170D01*
X95504347Y-117491514D01*
X95462998Y-117514282D01*
X95436649Y-117519010D01*
X95400916Y-117513273D01*
X95358282Y-117498882D01*
X95343799Y-117492262D01*
X95290240Y-117465513D01*
X95244533Y-117500376D01*
X95218158Y-117523955D01*
X95204124Y-117543417D01*
X95203414Y-117549129D01*
X95215951Y-117562973D01*
X95243428Y-117584012D01*
X95268366Y-117600425D01*
X95335664Y-117629930D01*
X95411110Y-117643284D01*
X95485888Y-117639812D01*
X95545495Y-117621663D01*
X95606941Y-117582784D01*
X95650608Y-117531595D01*
X95677926Y-117465367D01*
X95690322Y-117381371D01*
X95691421Y-117342936D01*
X95687022Y-117254861D01*
X95686482Y-117252299D01*
X95560582Y-117252299D01*
X95557115Y-117260558D01*
X95542863Y-117265113D01*
X95513470Y-117267065D01*
X95464575Y-117267517D01*
X95445748Y-117267525D01*
X95388467Y-117266843D01*
X95352141Y-117264364D01*
X95332604Y-117259443D01*
X95325690Y-117251434D01*
X95325445Y-117248862D01*
X95333336Y-117228423D01*
X95353085Y-117199789D01*
X95361575Y-117189763D01*
X95393094Y-117161408D01*
X95425949Y-117150259D01*
X95443651Y-117149327D01*
X95491539Y-117160981D01*
X95531699Y-117192285D01*
X95557173Y-117237752D01*
X95557625Y-117239233D01*
X95560582Y-117252299D01*
X95686482Y-117252299D01*
X95672392Y-117185510D01*
X95646038Y-117130025D01*
X95613807Y-117090639D01*
X95554217Y-117047931D01*
X95484168Y-117025109D01*
X95409661Y-117023046D01*
X95336699Y-117042614D01*
X95336699Y-117042614D01*
G37*
X95336699Y-117042614D02*
X95324168Y-117048514D01*
X95280799Y-117080283D01*
X95239790Y-117126646D01*
X95209168Y-117177696D01*
X95200459Y-117201166D01*
X95192512Y-117243091D01*
X95187774Y-117293757D01*
X95187199Y-117314679D01*
X95187129Y-117380693D01*
X95567083Y-117380693D01*
X95558983Y-117415273D01*
X95539104Y-117456170D01*
X95504347Y-117491514D01*
X95462998Y-117514282D01*
X95436649Y-117519010D01*
X95400916Y-117513273D01*
X95358282Y-117498882D01*
X95343799Y-117492262D01*
X95290240Y-117465513D01*
X95244533Y-117500376D01*
X95218158Y-117523955D01*
X95204124Y-117543417D01*
X95203414Y-117549129D01*
X95215951Y-117562973D01*
X95243428Y-117584012D01*
X95268366Y-117600425D01*
X95335664Y-117629930D01*
X95411110Y-117643284D01*
X95485888Y-117639812D01*
X95545495Y-117621663D01*
X95606941Y-117582784D01*
X95650608Y-117531595D01*
X95677926Y-117465367D01*
X95690322Y-117381371D01*
X95691421Y-117342936D01*
X95687022Y-117254861D01*
X95686482Y-117252299D01*
X95560582Y-117252299D01*
X95557115Y-117260558D01*
X95542863Y-117265113D01*
X95513470Y-117267065D01*
X95464575Y-117267517D01*
X95445748Y-117267525D01*
X95388467Y-117266843D01*
X95352141Y-117264364D01*
X95332604Y-117259443D01*
X95325690Y-117251434D01*
X95325445Y-117248862D01*
X95333336Y-117228423D01*
X95353085Y-117199789D01*
X95361575Y-117189763D01*
X95393094Y-117161408D01*
X95425949Y-117150259D01*
X95443651Y-117149327D01*
X95491539Y-117160981D01*
X95531699Y-117192285D01*
X95557173Y-117237752D01*
X95557625Y-117239233D01*
X95560582Y-117252299D01*
X95686482Y-117252299D01*
X95672392Y-117185510D01*
X95646038Y-117130025D01*
X95613807Y-117090639D01*
X95554217Y-117047931D01*
X95484168Y-117025109D01*
X95409661Y-117023046D01*
X95336699Y-117042614D01*
G36*
X93965983Y-117026452D02*
X93918366Y-117035482D01*
X93868966Y-117054370D01*
X93863688Y-117056777D01*
X93826226Y-117076476D01*
X93800283Y-117094781D01*
X93791897Y-117106508D01*
X93799883Y-117125632D01*
X93819280Y-117153850D01*
X93827890Y-117164384D01*
X93863372Y-117205847D01*
X93909115Y-117178858D01*
X93952650Y-117160878D01*
X94002950Y-117151267D01*
X94051188Y-117150660D01*
X94088533Y-117159691D01*
X94097495Y-117165327D01*
X94114563Y-117191171D01*
X94116637Y-117220941D01*
X94103866Y-117244197D01*
X94096312Y-117248708D01*
X94073675Y-117254309D01*
X94033885Y-117260892D01*
X93984834Y-117267183D01*
X93975785Y-117268170D01*
X93897004Y-117281798D01*
X93839864Y-117304946D01*
X93801970Y-117339752D01*
X93780921Y-117388354D01*
X93774365Y-117447718D01*
X93783423Y-117515198D01*
X93812836Y-117568188D01*
X93862722Y-117606783D01*
X93933200Y-117631081D01*
X94011435Y-117640667D01*
X94075234Y-117640552D01*
X94126984Y-117631845D01*
X94162327Y-117619825D01*
X94206983Y-117598880D01*
X94248253Y-117574574D01*
X94262921Y-117563876D01*
X94300643Y-117533084D01*
X94255148Y-117487049D01*
X94209653Y-117441013D01*
X94157928Y-117475243D01*
X94106048Y-117500952D01*
X94050649Y-117514399D01*
X93997395Y-117515818D01*
X93951951Y-117505443D01*
X93919984Y-117483507D01*
X93909662Y-117464998D01*
X93911211Y-117435314D01*
X93936860Y-117412615D01*
X93986540Y-117396940D01*
X94040969Y-117389695D01*
X94124736Y-117375873D01*
X94186967Y-117349796D01*
X94228493Y-117310699D01*
X94250147Y-117257820D01*
X94253147Y-117195126D01*
X94238329Y-117129642D01*
X94204546Y-117080144D01*
X94151495Y-117046408D01*
X94078874Y-117028207D01*
X94025072Y-117024639D01*
X93965983Y-117026452D01*
X93965983Y-117026452D01*
G37*
X93965983Y-117026452D02*
X93918366Y-117035482D01*
X93868966Y-117054370D01*
X93863688Y-117056777D01*
X93826226Y-117076476D01*
X93800283Y-117094781D01*
X93791897Y-117106508D01*
X93799883Y-117125632D01*
X93819280Y-117153850D01*
X93827890Y-117164384D01*
X93863372Y-117205847D01*
X93909115Y-117178858D01*
X93952650Y-117160878D01*
X94002950Y-117151267D01*
X94051188Y-117150660D01*
X94088533Y-117159691D01*
X94097495Y-117165327D01*
X94114563Y-117191171D01*
X94116637Y-117220941D01*
X94103866Y-117244197D01*
X94096312Y-117248708D01*
X94073675Y-117254309D01*
X94033885Y-117260892D01*
X93984834Y-117267183D01*
X93975785Y-117268170D01*
X93897004Y-117281798D01*
X93839864Y-117304946D01*
X93801970Y-117339752D01*
X93780921Y-117388354D01*
X93774365Y-117447718D01*
X93783423Y-117515198D01*
X93812836Y-117568188D01*
X93862722Y-117606783D01*
X93933200Y-117631081D01*
X94011435Y-117640667D01*
X94075234Y-117640552D01*
X94126984Y-117631845D01*
X94162327Y-117619825D01*
X94206983Y-117598880D01*
X94248253Y-117574574D01*
X94262921Y-117563876D01*
X94300643Y-117533084D01*
X94255148Y-117487049D01*
X94209653Y-117441013D01*
X94157928Y-117475243D01*
X94106048Y-117500952D01*
X94050649Y-117514399D01*
X93997395Y-117515818D01*
X93951951Y-117505443D01*
X93919984Y-117483507D01*
X93909662Y-117464998D01*
X93911211Y-117435314D01*
X93936860Y-117412615D01*
X93986540Y-117396940D01*
X94040969Y-117389695D01*
X94124736Y-117375873D01*
X94186967Y-117349796D01*
X94228493Y-117310699D01*
X94250147Y-117257820D01*
X94253147Y-117195126D01*
X94238329Y-117129642D01*
X94204546Y-117080144D01*
X94151495Y-117046408D01*
X94078874Y-117028207D01*
X94025072Y-117024639D01*
X93965983Y-117026452D01*
G36*
X93369238Y-117036055D02*
X93305637Y-117070692D01*
X93255877Y-117125372D01*
X93232432Y-117169842D01*
X93222366Y-117209121D01*
X93215844Y-117265116D01*
X93213049Y-117329621D01*
X93214164Y-117394429D01*
X93219374Y-117451334D01*
X93225459Y-117481727D01*
X93245986Y-117523306D01*
X93281537Y-117567468D01*
X93324381Y-117606087D01*
X93366789Y-117631034D01*
X93367823Y-117631430D01*
X93420447Y-117642331D01*
X93482812Y-117642601D01*
X93542076Y-117632676D01*
X93564960Y-117624722D01*
X93623898Y-117591300D01*
X93666110Y-117547511D01*
X93693844Y-117489538D01*
X93709349Y-117413565D01*
X93712857Y-117373771D01*
X93712410Y-117323766D01*
X93577624Y-117323766D01*
X93573083Y-117396732D01*
X93560014Y-117452334D01*
X93539244Y-117487861D01*
X93524448Y-117498020D01*
X93486536Y-117505104D01*
X93441473Y-117503007D01*
X93402513Y-117492812D01*
X93392296Y-117487204D01*
X93365341Y-117454538D01*
X93347549Y-117404545D01*
X93339976Y-117343705D01*
X93343675Y-117278497D01*
X93351943Y-117239253D01*
X93375680Y-117193805D01*
X93413151Y-117165396D01*
X93458280Y-117155573D01*
X93504989Y-117165887D01*
X93540868Y-117191112D01*
X93559723Y-117211925D01*
X93570728Y-117232439D01*
X93575974Y-117260203D01*
X93577551Y-117302762D01*
X93577624Y-117323766D01*
X93712410Y-117323766D01*
X93711906Y-117267580D01*
X93694612Y-117180501D01*
X93660971Y-117112530D01*
X93610982Y-117063664D01*
X93544644Y-117033899D01*
X93530399Y-117030448D01*
X93444790Y-117022345D01*
X93369238Y-117036055D01*
X93369238Y-117036055D01*
G37*
X93369238Y-117036055D02*
X93305637Y-117070692D01*
X93255877Y-117125372D01*
X93232432Y-117169842D01*
X93222366Y-117209121D01*
X93215844Y-117265116D01*
X93213049Y-117329621D01*
X93214164Y-117394429D01*
X93219374Y-117451334D01*
X93225459Y-117481727D01*
X93245986Y-117523306D01*
X93281537Y-117567468D01*
X93324381Y-117606087D01*
X93366789Y-117631034D01*
X93367823Y-117631430D01*
X93420447Y-117642331D01*
X93482812Y-117642601D01*
X93542076Y-117632676D01*
X93564960Y-117624722D01*
X93623898Y-117591300D01*
X93666110Y-117547511D01*
X93693844Y-117489538D01*
X93709349Y-117413565D01*
X93712857Y-117373771D01*
X93712410Y-117323766D01*
X93577624Y-117323766D01*
X93573083Y-117396732D01*
X93560014Y-117452334D01*
X93539244Y-117487861D01*
X93524448Y-117498020D01*
X93486536Y-117505104D01*
X93441473Y-117503007D01*
X93402513Y-117492812D01*
X93392296Y-117487204D01*
X93365341Y-117454538D01*
X93347549Y-117404545D01*
X93339976Y-117343705D01*
X93343675Y-117278497D01*
X93351943Y-117239253D01*
X93375680Y-117193805D01*
X93413151Y-117165396D01*
X93458280Y-117155573D01*
X93504989Y-117165887D01*
X93540868Y-117191112D01*
X93559723Y-117211925D01*
X93570728Y-117232439D01*
X93575974Y-117260203D01*
X93577551Y-117302762D01*
X93577624Y-117323766D01*
X93712410Y-117323766D01*
X93711906Y-117267580D01*
X93694612Y-117180501D01*
X93660971Y-117112530D01*
X93610982Y-117063664D01*
X93544644Y-117033899D01*
X93530399Y-117030448D01*
X93444790Y-117022345D01*
X93369238Y-117036055D01*
G36*
X92986633Y-117224342D02*
X92985445Y-117316563D01*
X92981103Y-117386610D01*
X92972442Y-117437381D01*
X92958296Y-117471772D01*
X92937500Y-117492679D01*
X92908890Y-117503000D01*
X92873465Y-117505636D01*
X92836364Y-117502682D01*
X92808182Y-117491889D01*
X92787757Y-117470360D01*
X92773921Y-117435199D01*
X92765509Y-117383510D01*
X92761357Y-117312394D01*
X92760297Y-117224342D01*
X92760297Y-117028614D01*
X92621980Y-117028614D01*
X92621980Y-117632179D01*
X92691138Y-117632179D01*
X92732830Y-117630489D01*
X92754299Y-117624556D01*
X92760297Y-117613293D01*
X92763909Y-117603261D01*
X92778286Y-117605383D01*
X92807264Y-117619580D01*
X92873681Y-117641480D01*
X92944125Y-117639928D01*
X93011623Y-117616147D01*
X93043767Y-117597362D01*
X93068285Y-117577022D01*
X93086196Y-117551573D01*
X93098521Y-117517458D01*
X93106277Y-117471121D01*
X93110484Y-117409007D01*
X93112160Y-117327561D01*
X93112376Y-117264578D01*
X93112376Y-117028614D01*
X92986633Y-117028614D01*
X92986633Y-117224342D01*
X92986633Y-117224342D01*
G37*
X92986633Y-117224342D02*
X92985445Y-117316563D01*
X92981103Y-117386610D01*
X92972442Y-117437381D01*
X92958296Y-117471772D01*
X92937500Y-117492679D01*
X92908890Y-117503000D01*
X92873465Y-117505636D01*
X92836364Y-117502682D01*
X92808182Y-117491889D01*
X92787757Y-117470360D01*
X92773921Y-117435199D01*
X92765509Y-117383510D01*
X92761357Y-117312394D01*
X92760297Y-117224342D01*
X92760297Y-117028614D01*
X92621980Y-117028614D01*
X92621980Y-117632179D01*
X92691138Y-117632179D01*
X92732830Y-117630489D01*
X92754299Y-117624556D01*
X92760297Y-117613293D01*
X92763909Y-117603261D01*
X92778286Y-117605383D01*
X92807264Y-117619580D01*
X92873681Y-117641480D01*
X92944125Y-117639928D01*
X93011623Y-117616147D01*
X93043767Y-117597362D01*
X93068285Y-117577022D01*
X93086196Y-117551573D01*
X93098521Y-117517458D01*
X93106277Y-117471121D01*
X93110484Y-117409007D01*
X93112160Y-117327561D01*
X93112376Y-117264578D01*
X93112376Y-117028614D01*
X92986633Y-117028614D01*
X92986633Y-117224342D01*
G36*
X91762774Y-117033880D02*
X91689920Y-117064830D01*
X91666973Y-117079895D01*
X91637646Y-117103048D01*
X91619236Y-117121253D01*
X91616039Y-117127183D01*
X91625065Y-117140340D01*
X91648163Y-117162667D01*
X91666656Y-117178250D01*
X91717272Y-117218926D01*
X91757240Y-117185295D01*
X91788126Y-117163584D01*
X91818241Y-117156090D01*
X91852708Y-117157920D01*
X91907439Y-117171528D01*
X91945114Y-117199772D01*
X91968009Y-117245433D01*
X91978403Y-117311289D01*
X91978405Y-117311331D01*
X91977506Y-117384939D01*
X91963537Y-117438946D01*
X91935672Y-117475716D01*
X91916675Y-117488168D01*
X91866224Y-117503673D01*
X91812337Y-117503683D01*
X91765454Y-117488638D01*
X91754356Y-117481287D01*
X91726524Y-117462511D01*
X91704764Y-117459434D01*
X91681296Y-117473409D01*
X91655351Y-117498510D01*
X91614284Y-117540880D01*
X91659879Y-117578464D01*
X91730326Y-117620882D01*
X91809767Y-117641785D01*
X91892785Y-117640272D01*
X91947306Y-117626411D01*
X92011030Y-117592135D01*
X92061995Y-117538212D01*
X92085149Y-117500149D01*
X92103901Y-117445536D01*
X92113285Y-117376369D01*
X92113357Y-117301407D01*
X92104176Y-117229409D01*
X92085801Y-117169137D01*
X92082907Y-117162958D01*
X92040048Y-117102351D01*
X91982021Y-117058224D01*
X91913409Y-117031493D01*
X91838799Y-117023073D01*
X91762774Y-117033880D01*
X91762774Y-117033880D01*
G37*
X91762774Y-117033880D02*
X91689920Y-117064830D01*
X91666973Y-117079895D01*
X91637646Y-117103048D01*
X91619236Y-117121253D01*
X91616039Y-117127183D01*
X91625065Y-117140340D01*
X91648163Y-117162667D01*
X91666656Y-117178250D01*
X91717272Y-117218926D01*
X91757240Y-117185295D01*
X91788126Y-117163584D01*
X91818241Y-117156090D01*
X91852708Y-117157920D01*
X91907439Y-117171528D01*
X91945114Y-117199772D01*
X91968009Y-117245433D01*
X91978403Y-117311289D01*
X91978405Y-117311331D01*
X91977506Y-117384939D01*
X91963537Y-117438946D01*
X91935672Y-117475716D01*
X91916675Y-117488168D01*
X91866224Y-117503673D01*
X91812337Y-117503683D01*
X91765454Y-117488638D01*
X91754356Y-117481287D01*
X91726524Y-117462511D01*
X91704764Y-117459434D01*
X91681296Y-117473409D01*
X91655351Y-117498510D01*
X91614284Y-117540880D01*
X91659879Y-117578464D01*
X91730326Y-117620882D01*
X91809767Y-117641785D01*
X91892785Y-117640272D01*
X91947306Y-117626411D01*
X92011030Y-117592135D01*
X92061995Y-117538212D01*
X92085149Y-117500149D01*
X92103901Y-117445536D01*
X92113285Y-117376369D01*
X92113357Y-117301407D01*
X92104176Y-117229409D01*
X92085801Y-117169137D01*
X92082907Y-117162958D01*
X92040048Y-117102351D01*
X91982021Y-117058224D01*
X91913409Y-117031493D01*
X91838799Y-117023073D01*
X91762774Y-117033880D01*
G36*
X91302102Y-117026457D02*
X91269904Y-117034279D01*
X91208175Y-117062921D01*
X91155390Y-117106667D01*
X91118859Y-117159117D01*
X91113840Y-117170893D01*
X91106955Y-117201740D01*
X91102136Y-117247371D01*
X91100495Y-117293492D01*
X91100495Y-117380693D01*
X91282822Y-117380693D01*
X91358021Y-117380978D01*
X91410997Y-117382704D01*
X91444675Y-117387181D01*
X91461980Y-117395720D01*
X91465837Y-117409630D01*
X91459171Y-117430222D01*
X91447230Y-117454315D01*
X91413920Y-117494525D01*
X91367632Y-117514558D01*
X91311056Y-117513905D01*
X91246969Y-117492101D01*
X91191583Y-117465193D01*
X91145625Y-117501532D01*
X91099667Y-117537872D01*
X91142904Y-117577819D01*
X91200626Y-117615563D01*
X91271614Y-117638320D01*
X91347971Y-117644688D01*
X91421801Y-117633268D01*
X91433713Y-117629393D01*
X91498601Y-117595506D01*
X91546870Y-117544986D01*
X91579535Y-117476325D01*
X91597615Y-117388014D01*
X91597825Y-117386121D01*
X91599444Y-117289878D01*
X91592900Y-117255542D01*
X91465148Y-117255542D01*
X91453416Y-117260822D01*
X91421562Y-117264867D01*
X91374603Y-117267176D01*
X91344846Y-117267525D01*
X91289352Y-117267306D01*
X91254654Y-117265916D01*
X91236399Y-117262251D01*
X91230234Y-117255210D01*
X91231805Y-117243690D01*
X91233122Y-117239233D01*
X91255618Y-117197355D01*
X91290997Y-117163604D01*
X91322220Y-117148773D01*
X91363699Y-117149668D01*
X91405731Y-117168164D01*
X91440988Y-117198786D01*
X91462146Y-117236062D01*
X91465148Y-117255542D01*
X91592900Y-117255542D01*
X91583310Y-117205229D01*
X91551302Y-117134191D01*
X91505299Y-117078779D01*
X91447179Y-117041009D01*
X91378820Y-117022896D01*
X91302102Y-117026457D01*
X91302102Y-117026457D01*
G37*
X91302102Y-117026457D02*
X91269904Y-117034279D01*
X91208175Y-117062921D01*
X91155390Y-117106667D01*
X91118859Y-117159117D01*
X91113840Y-117170893D01*
X91106955Y-117201740D01*
X91102136Y-117247371D01*
X91100495Y-117293492D01*
X91100495Y-117380693D01*
X91282822Y-117380693D01*
X91358021Y-117380978D01*
X91410997Y-117382704D01*
X91444675Y-117387181D01*
X91461980Y-117395720D01*
X91465837Y-117409630D01*
X91459171Y-117430222D01*
X91447230Y-117454315D01*
X91413920Y-117494525D01*
X91367632Y-117514558D01*
X91311056Y-117513905D01*
X91246969Y-117492101D01*
X91191583Y-117465193D01*
X91145625Y-117501532D01*
X91099667Y-117537872D01*
X91142904Y-117577819D01*
X91200626Y-117615563D01*
X91271614Y-117638320D01*
X91347971Y-117644688D01*
X91421801Y-117633268D01*
X91433713Y-117629393D01*
X91498601Y-117595506D01*
X91546870Y-117544986D01*
X91579535Y-117476325D01*
X91597615Y-117388014D01*
X91597825Y-117386121D01*
X91599444Y-117289878D01*
X91592900Y-117255542D01*
X91465148Y-117255542D01*
X91453416Y-117260822D01*
X91421562Y-117264867D01*
X91374603Y-117267176D01*
X91344846Y-117267525D01*
X91289352Y-117267306D01*
X91254654Y-117265916D01*
X91236399Y-117262251D01*
X91230234Y-117255210D01*
X91231805Y-117243690D01*
X91233122Y-117239233D01*
X91255618Y-117197355D01*
X91290997Y-117163604D01*
X91322220Y-117148773D01*
X91363699Y-117149668D01*
X91405731Y-117168164D01*
X91440988Y-117198786D01*
X91462146Y-117236062D01*
X91465148Y-117255542D01*
X91592900Y-117255542D01*
X91583310Y-117205229D01*
X91551302Y-117134191D01*
X91505299Y-117078779D01*
X91447179Y-117041009D01*
X91378820Y-117022896D01*
X91302102Y-117026457D01*
G36*
X94734012Y-117039002D02*
X94702717Y-117053950D01*
X94672409Y-117075541D01*
X94649318Y-117100391D01*
X94632500Y-117132087D01*
X94621006Y-117174214D01*
X94613891Y-117230358D01*
X94610207Y-117304106D01*
X94609008Y-117399044D01*
X94608989Y-117408985D01*
X94608713Y-117632179D01*
X94747030Y-117632179D01*
X94747030Y-117426418D01*
X94747128Y-117350189D01*
X94747809Y-117294939D01*
X94749651Y-117256501D01*
X94753233Y-117230706D01*
X94759132Y-117213384D01*
X94767927Y-117200368D01*
X94780180Y-117187507D01*
X94823047Y-117159873D01*
X94869843Y-117154745D01*
X94914424Y-117172217D01*
X94929928Y-117185221D01*
X94941310Y-117197447D01*
X94949481Y-117210540D01*
X94954974Y-117228615D01*
X94958320Y-117255787D01*
X94960051Y-117296170D01*
X94960697Y-117353879D01*
X94960792Y-117424132D01*
X94960792Y-117632179D01*
X95099109Y-117632179D01*
X95099109Y-117028614D01*
X95029950Y-117028614D01*
X94988428Y-117030256D01*
X94967006Y-117036087D01*
X94960795Y-117047461D01*
X94960792Y-117047798D01*
X94957910Y-117058938D01*
X94945199Y-117057674D01*
X94919926Y-117045434D01*
X94862605Y-117027424D01*
X94797037Y-117025421D01*
X94734012Y-117039002D01*
X94734012Y-117039002D01*
G37*
X94734012Y-117039002D02*
X94702717Y-117053950D01*
X94672409Y-117075541D01*
X94649318Y-117100391D01*
X94632500Y-117132087D01*
X94621006Y-117174214D01*
X94613891Y-117230358D01*
X94610207Y-117304106D01*
X94609008Y-117399044D01*
X94608989Y-117408985D01*
X94608713Y-117632179D01*
X94747030Y-117632179D01*
X94747030Y-117426418D01*
X94747128Y-117350189D01*
X94747809Y-117294939D01*
X94749651Y-117256501D01*
X94753233Y-117230706D01*
X94759132Y-117213384D01*
X94767927Y-117200368D01*
X94780180Y-117187507D01*
X94823047Y-117159873D01*
X94869843Y-117154745D01*
X94914424Y-117172217D01*
X94929928Y-117185221D01*
X94941310Y-117197447D01*
X94949481Y-117210540D01*
X94954974Y-117228615D01*
X94958320Y-117255787D01*
X94960051Y-117296170D01*
X94960697Y-117353879D01*
X94960792Y-117424132D01*
X94960792Y-117632179D01*
X95099109Y-117632179D01*
X95099109Y-117028614D01*
X95029950Y-117028614D01*
X94988428Y-117030256D01*
X94967006Y-117036087D01*
X94960795Y-117047461D01*
X94960792Y-117047798D01*
X94957910Y-117058938D01*
X94945199Y-117057674D01*
X94919926Y-117045434D01*
X94862605Y-117027424D01*
X94797037Y-117025421D01*
X94734012Y-117039002D01*
G36*
X92180540Y-117028030D02*
X92137289Y-117041245D01*
X92109442Y-117057941D01*
X92100371Y-117071145D01*
X92102868Y-117086797D01*
X92119069Y-117111385D01*
X92132768Y-117128800D01*
X92161008Y-117160283D01*
X92182225Y-117173529D01*
X92200312Y-117172664D01*
X92253965Y-117159010D01*
X92293370Y-117159630D01*
X92325368Y-117175104D01*
X92336110Y-117184161D01*
X92370495Y-117216027D01*
X92370495Y-117632179D01*
X92508812Y-117632179D01*
X92508812Y-117028614D01*
X92439653Y-117028614D01*
X92398131Y-117030256D01*
X92376709Y-117036087D01*
X92370498Y-117047461D01*
X92370495Y-117047798D01*
X92367561Y-117059713D01*
X92354296Y-117058159D01*
X92335916Y-117049563D01*
X92297954Y-117033568D01*
X92267128Y-117023945D01*
X92227464Y-117021478D01*
X92180540Y-117028030D01*
X92180540Y-117028030D01*
G37*
X92180540Y-117028030D02*
X92137289Y-117041245D01*
X92109442Y-117057941D01*
X92100371Y-117071145D01*
X92102868Y-117086797D01*
X92119069Y-117111385D01*
X92132768Y-117128800D01*
X92161008Y-117160283D01*
X92182225Y-117173529D01*
X92200312Y-117172664D01*
X92253965Y-117159010D01*
X92293370Y-117159630D01*
X92325368Y-117175104D01*
X92336110Y-117184161D01*
X92370495Y-117216027D01*
X92370495Y-117632179D01*
X92508812Y-117632179D01*
X92508812Y-117028614D01*
X92439653Y-117028614D01*
X92398131Y-117030256D01*
X92376709Y-117036087D01*
X92370498Y-117047461D01*
X92370495Y-117047798D01*
X92367561Y-117059713D01*
X92354296Y-117058159D01*
X92335916Y-117049563D01*
X92297954Y-117033568D01*
X92267128Y-117023945D01*
X92227464Y-117021478D01*
X92180540Y-117028030D01*
G36*
X93603036Y-112860018D02*
X93546188Y-113161570D01*
X93126662Y-113334512D01*
X92875016Y-113163395D01*
X92804542Y-113115750D01*
X92740837Y-113073210D01*
X92686874Y-113037715D01*
X92645627Y-113011210D01*
X92620066Y-112995636D01*
X92613105Y-112992278D01*
X92600565Y-113000914D01*
X92573769Y-113024792D01*
X92535720Y-113060859D01*
X92489421Y-113106067D01*
X92437877Y-113157364D01*
X92384091Y-113211701D01*
X92331065Y-113266028D01*
X92281805Y-113317295D01*
X92239313Y-113362451D01*
X92206593Y-113398446D01*
X92186649Y-113422230D01*
X92181881Y-113430190D01*
X92188743Y-113444865D01*
X92207980Y-113477014D01*
X92237570Y-113523492D01*
X92275490Y-113581156D01*
X92319718Y-113646860D01*
X92345346Y-113684336D01*
X92392059Y-113752768D01*
X92433568Y-113814520D01*
X92467860Y-113866519D01*
X92492920Y-113905692D01*
X92506736Y-113928965D01*
X92508812Y-113933855D01*
X92504105Y-113947755D01*
X92491277Y-113980150D01*
X92472262Y-114026485D01*
X92448997Y-114082206D01*
X92423416Y-114142758D01*
X92397455Y-114203586D01*
X92373050Y-114260136D01*
X92352137Y-114307852D01*
X92336651Y-114342181D01*
X92328528Y-114358568D01*
X92328048Y-114359212D01*
X92315293Y-114362341D01*
X92281323Y-114369321D01*
X92229660Y-114379467D01*
X92163824Y-114392092D01*
X92087336Y-114406509D01*
X92042710Y-114414823D01*
X91960979Y-114430384D01*
X91887157Y-114445192D01*
X91824979Y-114458436D01*
X91778178Y-114469305D01*
X91750491Y-114476989D01*
X91744926Y-114479427D01*
X91739474Y-114495930D01*
X91735076Y-114533200D01*
X91731728Y-114586880D01*
X91729426Y-114652612D01*
X91728168Y-114726037D01*
X91727952Y-114802796D01*
X91728773Y-114878532D01*
X91730629Y-114948886D01*
X91733518Y-115009500D01*
X91737435Y-115056016D01*
X91742378Y-115084075D01*
X91745343Y-115089916D01*
X91763066Y-115096917D01*
X91800619Y-115106927D01*
X91853036Y-115118769D01*
X91915348Y-115131267D01*
X91937100Y-115135310D01*
X92041976Y-115154520D01*
X92124820Y-115169991D01*
X92188370Y-115182337D01*
X92235363Y-115192173D01*
X92268537Y-115200114D01*
X92290629Y-115206776D01*
X92304376Y-115212773D01*
X92312516Y-115218719D01*
X92313655Y-115219894D01*
X92325023Y-115238826D01*
X92342365Y-115275669D01*
X92363950Y-115325913D01*
X92388046Y-115385046D01*
X92412921Y-115448556D01*
X92436843Y-115511932D01*
X92458081Y-115570662D01*
X92474903Y-115620235D01*
X92485578Y-115656139D01*
X92488373Y-115673862D01*
X92488140Y-115674483D01*
X92478669Y-115688970D01*
X92457182Y-115720844D01*
X92425937Y-115766789D01*
X92387193Y-115823485D01*
X92343207Y-115887617D01*
X92330681Y-115905842D01*
X92286016Y-115971914D01*
X92246712Y-116032200D01*
X92214912Y-116083235D01*
X92192755Y-116121560D01*
X92182383Y-116143711D01*
X92181881Y-116146432D01*
X92190595Y-116160736D01*
X92214675Y-116189072D01*
X92251024Y-116228396D01*
X92296547Y-116275661D01*
X92348148Y-116327823D01*
X92402733Y-116381835D01*
X92457206Y-116434653D01*
X92508471Y-116483231D01*
X92553433Y-116524523D01*
X92588996Y-116555485D01*
X92612065Y-116573070D01*
X92618446Y-116575941D01*
X92633301Y-116569178D01*
X92663714Y-116550939D01*
X92704732Y-116524297D01*
X92736291Y-116502852D01*
X92793475Y-116463503D01*
X92861194Y-116417171D01*
X92929120Y-116370913D01*
X92965639Y-116346155D01*
X93089248Y-116262547D01*
X93193009Y-116318650D01*
X93240280Y-116343228D01*
X93280477Y-116362331D01*
X93307674Y-116373227D01*
X93314598Y-116374743D01*
X93322923Y-116363549D01*
X93339346Y-116331917D01*
X93362643Y-116282765D01*
X93391586Y-116219010D01*
X93424950Y-116143571D01*
X93461509Y-116059364D01*
X93500036Y-115969308D01*
X93539306Y-115876321D01*
X93578092Y-115783320D01*
X93615170Y-115693223D01*
X93649311Y-115608948D01*
X93679292Y-115533413D01*
X93703884Y-115469534D01*
X93721864Y-115420231D01*
X93732003Y-115388421D01*
X93733634Y-115377496D01*
X93720709Y-115363561D01*
X93692411Y-115340940D01*
X93654654Y-115314333D01*
X93651485Y-115312228D01*
X93553900Y-115234114D01*
X93475214Y-115142982D01*
X93416109Y-115041745D01*
X93377268Y-114933318D01*
X93359372Y-114820614D01*
X93363103Y-114706548D01*
X93389143Y-114594034D01*
X93438175Y-114485985D01*
X93452600Y-114462345D01*
X93527631Y-114366887D01*
X93616270Y-114290232D01*
X93715451Y-114232780D01*
X93822105Y-114194929D01*
X93933164Y-114177078D01*
X94045561Y-114179625D01*
X94156227Y-114202970D01*
X94262094Y-114247510D01*
X94360095Y-114313645D01*
X94390410Y-114340487D01*
X94467562Y-114424512D01*
X94523782Y-114512966D01*
X94562347Y-114612115D01*
X94583826Y-114710303D01*
X94589128Y-114820697D01*
X94571448Y-114931640D01*
X94532581Y-115039381D01*
X94474323Y-115140169D01*
X94398469Y-115230256D01*
X94306817Y-115305892D01*
X94294772Y-115313864D01*
X94256611Y-115339974D01*
X94227601Y-115362595D01*
X94213732Y-115377039D01*
X94213531Y-115377496D01*
X94216508Y-115393121D01*
X94228311Y-115428582D01*
X94247714Y-115480962D01*
X94273488Y-115547345D01*
X94304409Y-115624814D01*
X94339249Y-115710450D01*
X94376783Y-115801337D01*
X94415783Y-115894559D01*
X94455023Y-115987197D01*
X94493276Y-116076335D01*
X94529317Y-116159055D01*
X94561917Y-116232441D01*
X94589852Y-116293575D01*
X94611895Y-116339541D01*
X94626818Y-116367421D01*
X94632828Y-116374743D01*
X94651191Y-116369041D01*
X94685552Y-116353749D01*
X94729984Y-116331599D01*
X94754417Y-116318650D01*
X94858178Y-116262547D01*
X94981787Y-116346155D01*
X95044886Y-116388987D01*
X95113970Y-116436122D01*
X95178707Y-116480503D01*
X95211134Y-116502852D01*
X95256741Y-116533477D01*
X95295360Y-116557747D01*
X95321952Y-116572587D01*
X95330590Y-116575724D01*
X95343161Y-116567261D01*
X95370984Y-116543636D01*
X95411361Y-116507302D01*
X95461595Y-116460711D01*
X95518988Y-116406317D01*
X95555286Y-116371392D01*
X95618790Y-116308996D01*
X95673673Y-116253188D01*
X95717714Y-116206354D01*
X95748695Y-116170882D01*
X95764398Y-116149161D01*
X95765905Y-116144752D01*
X95758914Y-116127985D01*
X95739594Y-116094082D01*
X95710091Y-116046476D01*
X95672545Y-115988599D01*
X95629100Y-115923884D01*
X95616745Y-115905842D01*
X95571727Y-115840267D01*
X95531340Y-115781228D01*
X95497840Y-115732042D01*
X95473486Y-115696028D01*
X95460536Y-115676502D01*
X95459285Y-115674483D01*
X95461156Y-115658922D01*
X95471087Y-115624709D01*
X95487347Y-115576355D01*
X95508205Y-115518371D01*
X95531927Y-115455270D01*
X95556784Y-115391563D01*
X95581042Y-115331761D01*
X95602971Y-115280376D01*
X95620838Y-115241919D01*
X95632913Y-115220902D01*
X95633771Y-115219894D01*
X95641154Y-115213888D01*
X95653625Y-115207948D01*
X95673920Y-115201460D01*
X95704778Y-115193809D01*
X95748934Y-115184380D01*
X95809126Y-115172559D01*
X95888093Y-115157729D01*
X95988570Y-115139277D01*
X96010325Y-115135310D01*
X96074802Y-115122853D01*
X96131011Y-115110666D01*
X96173987Y-115099926D01*
X96198760Y-115091809D01*
X96202082Y-115089916D01*
X96207556Y-115073138D01*
X96212006Y-115035645D01*
X96215428Y-114981794D01*
X96217819Y-114915944D01*
X96219177Y-114842453D01*
X96219499Y-114765680D01*
X96218781Y-114689983D01*
X96217021Y-114619720D01*
X96214216Y-114559250D01*
X96210362Y-114512930D01*
X96205457Y-114485119D01*
X96202500Y-114479427D01*
X96186037Y-114473686D01*
X96148551Y-114464345D01*
X96093775Y-114452215D01*
X96025445Y-114438107D01*
X95947294Y-114422830D01*
X95904716Y-114414823D01*
X95823929Y-114399721D01*
X95751887Y-114386040D01*
X95692111Y-114374467D01*
X95648121Y-114365687D01*
X95623439Y-114360387D01*
X95619377Y-114359212D01*
X95612511Y-114345965D01*
X95597998Y-114314057D01*
X95577771Y-114268047D01*
X95553766Y-114212492D01*
X95527918Y-114151953D01*
X95502160Y-114090986D01*
X95478427Y-114034151D01*
X95458654Y-113986006D01*
X95444776Y-113951110D01*
X95438726Y-113934021D01*
X95438614Y-113933274D01*
X95445472Y-113919793D01*
X95464698Y-113888770D01*
X95494272Y-113843289D01*
X95532173Y-113786432D01*
X95576380Y-113721283D01*
X95602079Y-113683862D01*
X95648907Y-113615247D01*
X95690499Y-113552952D01*
X95724825Y-113500129D01*
X95749857Y-113459927D01*
X95763565Y-113435500D01*
X95765544Y-113430024D01*
X95757034Y-113417278D01*
X95733507Y-113390063D01*
X95697968Y-113351428D01*
X95653423Y-113304423D01*
X95602877Y-113252095D01*
X95549336Y-113197495D01*
X95495805Y-113143670D01*
X95445289Y-113093670D01*
X95400794Y-113050543D01*
X95365325Y-113017339D01*
X95341887Y-112997106D01*
X95334046Y-112992278D01*
X95321280Y-112999067D01*
X95290744Y-113018142D01*
X95245410Y-113047561D01*
X95188244Y-113085381D01*
X95122216Y-113129661D01*
X95072410Y-113163395D01*
X94820764Y-113334512D01*
X94611001Y-113248041D01*
X94401237Y-113161570D01*
X94344389Y-112860018D01*
X94287540Y-112558466D01*
X93659885Y-112558466D01*
X93603036Y-112860018D01*
X93603036Y-112860018D01*
G37*
X93603036Y-112860018D02*
X93546188Y-113161570D01*
X93126662Y-113334512D01*
X92875016Y-113163395D01*
X92804542Y-113115750D01*
X92740837Y-113073210D01*
X92686874Y-113037715D01*
X92645627Y-113011210D01*
X92620066Y-112995636D01*
X92613105Y-112992278D01*
X92600565Y-113000914D01*
X92573769Y-113024792D01*
X92535720Y-113060859D01*
X92489421Y-113106067D01*
X92437877Y-113157364D01*
X92384091Y-113211701D01*
X92331065Y-113266028D01*
X92281805Y-113317295D01*
X92239313Y-113362451D01*
X92206593Y-113398446D01*
X92186649Y-113422230D01*
X92181881Y-113430190D01*
X92188743Y-113444865D01*
X92207980Y-113477014D01*
X92237570Y-113523492D01*
X92275490Y-113581156D01*
X92319718Y-113646860D01*
X92345346Y-113684336D01*
X92392059Y-113752768D01*
X92433568Y-113814520D01*
X92467860Y-113866519D01*
X92492920Y-113905692D01*
X92506736Y-113928965D01*
X92508812Y-113933855D01*
X92504105Y-113947755D01*
X92491277Y-113980150D01*
X92472262Y-114026485D01*
X92448997Y-114082206D01*
X92423416Y-114142758D01*
X92397455Y-114203586D01*
X92373050Y-114260136D01*
X92352137Y-114307852D01*
X92336651Y-114342181D01*
X92328528Y-114358568D01*
X92328048Y-114359212D01*
X92315293Y-114362341D01*
X92281323Y-114369321D01*
X92229660Y-114379467D01*
X92163824Y-114392092D01*
X92087336Y-114406509D01*
X92042710Y-114414823D01*
X91960979Y-114430384D01*
X91887157Y-114445192D01*
X91824979Y-114458436D01*
X91778178Y-114469305D01*
X91750491Y-114476989D01*
X91744926Y-114479427D01*
X91739474Y-114495930D01*
X91735076Y-114533200D01*
X91731728Y-114586880D01*
X91729426Y-114652612D01*
X91728168Y-114726037D01*
X91727952Y-114802796D01*
X91728773Y-114878532D01*
X91730629Y-114948886D01*
X91733518Y-115009500D01*
X91737435Y-115056016D01*
X91742378Y-115084075D01*
X91745343Y-115089916D01*
X91763066Y-115096917D01*
X91800619Y-115106927D01*
X91853036Y-115118769D01*
X91915348Y-115131267D01*
X91937100Y-115135310D01*
X92041976Y-115154520D01*
X92124820Y-115169991D01*
X92188370Y-115182337D01*
X92235363Y-115192173D01*
X92268537Y-115200114D01*
X92290629Y-115206776D01*
X92304376Y-115212773D01*
X92312516Y-115218719D01*
X92313655Y-115219894D01*
X92325023Y-115238826D01*
X92342365Y-115275669D01*
X92363950Y-115325913D01*
X92388046Y-115385046D01*
X92412921Y-115448556D01*
X92436843Y-115511932D01*
X92458081Y-115570662D01*
X92474903Y-115620235D01*
X92485578Y-115656139D01*
X92488373Y-115673862D01*
X92488140Y-115674483D01*
X92478669Y-115688970D01*
X92457182Y-115720844D01*
X92425937Y-115766789D01*
X92387193Y-115823485D01*
X92343207Y-115887617D01*
X92330681Y-115905842D01*
X92286016Y-115971914D01*
X92246712Y-116032200D01*
X92214912Y-116083235D01*
X92192755Y-116121560D01*
X92182383Y-116143711D01*
X92181881Y-116146432D01*
X92190595Y-116160736D01*
X92214675Y-116189072D01*
X92251024Y-116228396D01*
X92296547Y-116275661D01*
X92348148Y-116327823D01*
X92402733Y-116381835D01*
X92457206Y-116434653D01*
X92508471Y-116483231D01*
X92553433Y-116524523D01*
X92588996Y-116555485D01*
X92612065Y-116573070D01*
X92618446Y-116575941D01*
X92633301Y-116569178D01*
X92663714Y-116550939D01*
X92704732Y-116524297D01*
X92736291Y-116502852D01*
X92793475Y-116463503D01*
X92861194Y-116417171D01*
X92929120Y-116370913D01*
X92965639Y-116346155D01*
X93089248Y-116262547D01*
X93193009Y-116318650D01*
X93240280Y-116343228D01*
X93280477Y-116362331D01*
X93307674Y-116373227D01*
X93314598Y-116374743D01*
X93322923Y-116363549D01*
X93339346Y-116331917D01*
X93362643Y-116282765D01*
X93391586Y-116219010D01*
X93424950Y-116143571D01*
X93461509Y-116059364D01*
X93500036Y-115969308D01*
X93539306Y-115876321D01*
X93578092Y-115783320D01*
X93615170Y-115693223D01*
X93649311Y-115608948D01*
X93679292Y-115533413D01*
X93703884Y-115469534D01*
X93721864Y-115420231D01*
X93732003Y-115388421D01*
X93733634Y-115377496D01*
X93720709Y-115363561D01*
X93692411Y-115340940D01*
X93654654Y-115314333D01*
X93651485Y-115312228D01*
X93553900Y-115234114D01*
X93475214Y-115142982D01*
X93416109Y-115041745D01*
X93377268Y-114933318D01*
X93359372Y-114820614D01*
X93363103Y-114706548D01*
X93389143Y-114594034D01*
X93438175Y-114485985D01*
X93452600Y-114462345D01*
X93527631Y-114366887D01*
X93616270Y-114290232D01*
X93715451Y-114232780D01*
X93822105Y-114194929D01*
X93933164Y-114177078D01*
X94045561Y-114179625D01*
X94156227Y-114202970D01*
X94262094Y-114247510D01*
X94360095Y-114313645D01*
X94390410Y-114340487D01*
X94467562Y-114424512D01*
X94523782Y-114512966D01*
X94562347Y-114612115D01*
X94583826Y-114710303D01*
X94589128Y-114820697D01*
X94571448Y-114931640D01*
X94532581Y-115039381D01*
X94474323Y-115140169D01*
X94398469Y-115230256D01*
X94306817Y-115305892D01*
X94294772Y-115313864D01*
X94256611Y-115339974D01*
X94227601Y-115362595D01*
X94213732Y-115377039D01*
X94213531Y-115377496D01*
X94216508Y-115393121D01*
X94228311Y-115428582D01*
X94247714Y-115480962D01*
X94273488Y-115547345D01*
X94304409Y-115624814D01*
X94339249Y-115710450D01*
X94376783Y-115801337D01*
X94415783Y-115894559D01*
X94455023Y-115987197D01*
X94493276Y-116076335D01*
X94529317Y-116159055D01*
X94561917Y-116232441D01*
X94589852Y-116293575D01*
X94611895Y-116339541D01*
X94626818Y-116367421D01*
X94632828Y-116374743D01*
X94651191Y-116369041D01*
X94685552Y-116353749D01*
X94729984Y-116331599D01*
X94754417Y-116318650D01*
X94858178Y-116262547D01*
X94981787Y-116346155D01*
X95044886Y-116388987D01*
X95113970Y-116436122D01*
X95178707Y-116480503D01*
X95211134Y-116502852D01*
X95256741Y-116533477D01*
X95295360Y-116557747D01*
X95321952Y-116572587D01*
X95330590Y-116575724D01*
X95343161Y-116567261D01*
X95370984Y-116543636D01*
X95411361Y-116507302D01*
X95461595Y-116460711D01*
X95518988Y-116406317D01*
X95555286Y-116371392D01*
X95618790Y-116308996D01*
X95673673Y-116253188D01*
X95717714Y-116206354D01*
X95748695Y-116170882D01*
X95764398Y-116149161D01*
X95765905Y-116144752D01*
X95758914Y-116127985D01*
X95739594Y-116094082D01*
X95710091Y-116046476D01*
X95672545Y-115988599D01*
X95629100Y-115923884D01*
X95616745Y-115905842D01*
X95571727Y-115840267D01*
X95531340Y-115781228D01*
X95497840Y-115732042D01*
X95473486Y-115696028D01*
X95460536Y-115676502D01*
X95459285Y-115674483D01*
X95461156Y-115658922D01*
X95471087Y-115624709D01*
X95487347Y-115576355D01*
X95508205Y-115518371D01*
X95531927Y-115455270D01*
X95556784Y-115391563D01*
X95581042Y-115331761D01*
X95602971Y-115280376D01*
X95620838Y-115241919D01*
X95632913Y-115220902D01*
X95633771Y-115219894D01*
X95641154Y-115213888D01*
X95653625Y-115207948D01*
X95673920Y-115201460D01*
X95704778Y-115193809D01*
X95748934Y-115184380D01*
X95809126Y-115172559D01*
X95888093Y-115157729D01*
X95988570Y-115139277D01*
X96010325Y-115135310D01*
X96074802Y-115122853D01*
X96131011Y-115110666D01*
X96173987Y-115099926D01*
X96198760Y-115091809D01*
X96202082Y-115089916D01*
X96207556Y-115073138D01*
X96212006Y-115035645D01*
X96215428Y-114981794D01*
X96217819Y-114915944D01*
X96219177Y-114842453D01*
X96219499Y-114765680D01*
X96218781Y-114689983D01*
X96217021Y-114619720D01*
X96214216Y-114559250D01*
X96210362Y-114512930D01*
X96205457Y-114485119D01*
X96202500Y-114479427D01*
X96186037Y-114473686D01*
X96148551Y-114464345D01*
X96093775Y-114452215D01*
X96025445Y-114438107D01*
X95947294Y-114422830D01*
X95904716Y-114414823D01*
X95823929Y-114399721D01*
X95751887Y-114386040D01*
X95692111Y-114374467D01*
X95648121Y-114365687D01*
X95623439Y-114360387D01*
X95619377Y-114359212D01*
X95612511Y-114345965D01*
X95597998Y-114314057D01*
X95577771Y-114268047D01*
X95553766Y-114212492D01*
X95527918Y-114151953D01*
X95502160Y-114090986D01*
X95478427Y-114034151D01*
X95458654Y-113986006D01*
X95444776Y-113951110D01*
X95438726Y-113934021D01*
X95438614Y-113933274D01*
X95445472Y-113919793D01*
X95464698Y-113888770D01*
X95494272Y-113843289D01*
X95532173Y-113786432D01*
X95576380Y-113721283D01*
X95602079Y-113683862D01*
X95648907Y-113615247D01*
X95690499Y-113552952D01*
X95724825Y-113500129D01*
X95749857Y-113459927D01*
X95763565Y-113435500D01*
X95765544Y-113430024D01*
X95757034Y-113417278D01*
X95733507Y-113390063D01*
X95697968Y-113351428D01*
X95653423Y-113304423D01*
X95602877Y-113252095D01*
X95549336Y-113197495D01*
X95495805Y-113143670D01*
X95445289Y-113093670D01*
X95400794Y-113050543D01*
X95365325Y-113017339D01*
X95341887Y-112997106D01*
X95334046Y-112992278D01*
X95321280Y-112999067D01*
X95290744Y-113018142D01*
X95245410Y-113047561D01*
X95188244Y-113085381D01*
X95122216Y-113129661D01*
X95072410Y-113163395D01*
X94820764Y-113334512D01*
X94611001Y-113248041D01*
X94401237Y-113161570D01*
X94344389Y-112860018D01*
X94287540Y-112558466D01*
X93659885Y-112558466D01*
X93603036Y-112860018D01*
M02*
