M48
;DRILL file {KiCad 4.0.4-stable} date 10/24/16 21:05:11
;FORMAT={-:-/ absolute / inch / decimal}
FMAT,2
INCH,TZ
T1C0.010
T2C0.016
T3C0.020
T4C0.022
T5C0.030
T6C0.039
%
G90
G05
M72
T1
X3.49Y-3.33
X3.49Y-3.38
X3.49Y-3.43
X3.49Y-3.48
X3.49Y-3.53
X3.54Y-3.33
X3.54Y-3.38
X3.54Y-3.43
X3.54Y-3.48
X3.54Y-3.53
T2
X3.545Y-3.905
X3.575Y-3.715
X3.575Y-4.425
X3.58Y-4.35
X3.585Y-4.305
X3.66Y-3.42
X3.73Y-4.225
X3.735Y-4.12
X3.75Y-3.35
X3.785Y-3.7
X3.79Y-4.205
X3.795Y-4.295
X3.815Y-3.75
X3.8199Y-3.8969
X3.82Y-3.28
X3.8206Y-3.9324
X3.825Y-3.475
X3.8264Y-3.8435
X3.84Y-4.12
X3.92Y-3.43
X3.935Y-3.845
X3.96Y-3.69
X3.975Y-4.05
X4.Y-4.025
X4.015Y-4.375
X4.075Y-3.4624
X4.12Y-3.83
X4.15Y-4.05
X4.2Y-4.
X4.25Y-4.
X4.25Y-4.075
X4.25Y-4.275
X4.265Y-3.885
X4.325Y-4.3
X4.38Y-4.52
X4.45Y-4.025
X4.455Y-3.68
X4.46Y-3.305
X4.48Y-4.5
X4.52Y-4.32
X4.585Y-3.28
X4.67Y-3.17
X4.725Y-3.475
X4.8Y-4.1
X4.82Y-3.54
X4.88Y-4.38
X5.Y-4.05
T5
X3.94Y-4.635
X4.04Y-4.635
X4.14Y-4.635
X4.24Y-4.635
X4.34Y-4.635
X4.44Y-4.635
X4.54Y-4.635
X4.64Y-4.635
T6
X3.715Y-3.21
X3.835Y-3.21
T3
X3.3472Y-3.7144G85X3.3728Y-3.7144
G05
X3.3472Y-3.99G85X3.3728Y-3.99
G05
T4
X3.4663Y-3.7479G85X3.4663Y-3.7597
G05
X3.4663Y-3.9447G85X3.4663Y-3.9565
G05
T0
M30
