G04 #@! TF.FileFunction,Copper,L1,Top,Signal*
%FSLAX46Y46*%
G04 Gerber Fmt 4.6, Leading zero omitted, Abs format (unit mm)*
G04 Created by KiCad (PCBNEW 4.0.4-stable) date 10/24/16 21:05:07*
%MOMM*%
%LPD*%
G01*
G04 APERTURE LIST*
%ADD10C,0.100000*%
%ADD11C,1.524000*%
%ADD12R,1.800000X0.600000*%
%ADD13R,2.800000X1.000000*%
%ADD14R,1.200000X0.750000*%
%ADD15R,1.800860X1.549400*%
%ADD16R,0.750000X1.200000*%
%ADD17R,0.797560X0.797560*%
%ADD18R,0.600000X0.800000*%
%ADD19R,1.350000X0.400000*%
%ADD20O,0.950000X1.250000*%
%ADD21O,1.550000X1.000000*%
%ADD22R,0.800100X1.800860*%
%ADD23R,0.900000X1.200000*%
%ADD24R,1.200000X0.900000*%
%ADD25R,1.000000X0.800000*%
%ADD26C,1.200000*%
%ADD27R,0.700000X1.500000*%
%ADD28R,0.600000X1.000000*%
%ADD29C,1.000000*%
%ADD30R,1.000000X0.600000*%
%ADD31R,1.060000X0.650000*%
%ADD32R,1.450000X0.450000*%
%ADD33R,2.400000X2.000000*%
%ADD34C,0.600000*%
%ADD35C,0.250000*%
%ADD36C,0.280000*%
%ADD37C,0.254000*%
G04 APERTURE END LIST*
D10*
D11*
X100076000Y-117729000D03*
X102616000Y-117729000D03*
X105156000Y-117729000D03*
X107696000Y-117729000D03*
X110236000Y-117729000D03*
X112776000Y-117729000D03*
X115316000Y-117729000D03*
X117856000Y-117729000D03*
D12*
X89051000Y-109621000D03*
X89051000Y-110871000D03*
X89051000Y-112121000D03*
D13*
X85701000Y-113871000D03*
X85701000Y-107871000D03*
D14*
X127955000Y-102870000D03*
X129855000Y-102870000D03*
X114239000Y-82169000D03*
X116139000Y-82169000D03*
D15*
X105537000Y-85725000D03*
X105537000Y-88077040D03*
D16*
X86360000Y-84333000D03*
X86360000Y-86233000D03*
X100584000Y-101600000D03*
X100584000Y-99700000D03*
D14*
X119446000Y-106299000D03*
X121346000Y-106299000D03*
X119446000Y-102235000D03*
X121346000Y-102235000D03*
D15*
X114935000Y-85564980D03*
X114935000Y-87917020D03*
D14*
X115316000Y-98171000D03*
X117216000Y-98171000D03*
D15*
X98425000Y-102141020D03*
X98425000Y-99788980D03*
D14*
X120208000Y-98425000D03*
X122108000Y-98425000D03*
D16*
X118618000Y-85791000D03*
X118618000Y-87691000D03*
X101981000Y-86045000D03*
X101981000Y-87945000D03*
D17*
X128778000Y-87109300D03*
X128778000Y-85610700D03*
X90195400Y-92964000D03*
X91694000Y-92964000D03*
X87223600Y-104394000D03*
X85725000Y-104394000D03*
D18*
X94996000Y-94615000D03*
X93296000Y-94615000D03*
D19*
X88044000Y-96546000D03*
X88044000Y-97196000D03*
X88044000Y-97846000D03*
X88044000Y-98496000D03*
X88044000Y-99146000D03*
D20*
X88044000Y-95346000D03*
X88044000Y-100346000D03*
D21*
X85344000Y-94346000D03*
X85344000Y-101346000D03*
D22*
X122550000Y-111760000D03*
X120650000Y-111760000D03*
X121600000Y-114762280D03*
X94300000Y-114300000D03*
X96200000Y-114300000D03*
X95250000Y-111297720D03*
D23*
X122555000Y-87757000D03*
X122555000Y-85557000D03*
D24*
X103040000Y-90805000D03*
X105240000Y-90805000D03*
D23*
X118237000Y-111252000D03*
X118237000Y-113452000D03*
X115824000Y-111211000D03*
X115824000Y-113411000D03*
D24*
X119296000Y-108585000D03*
X121496000Y-108585000D03*
X98214000Y-106299000D03*
X100414000Y-106299000D03*
X98087000Y-108839000D03*
X100287000Y-108839000D03*
X100668000Y-111506000D03*
X98468000Y-111506000D03*
X98511000Y-113919000D03*
X100711000Y-113919000D03*
X93642000Y-89154000D03*
X95842000Y-89154000D03*
X93642000Y-91440000D03*
X95842000Y-91440000D03*
X93642000Y-100711000D03*
X95842000Y-100711000D03*
D23*
X98679000Y-97790000D03*
X98679000Y-95590000D03*
D24*
X93558000Y-96647000D03*
X95758000Y-96647000D03*
X93472000Y-98425000D03*
X95672000Y-98425000D03*
X95799000Y-102997000D03*
X93599000Y-102997000D03*
D25*
X92329000Y-80518000D03*
X92329000Y-82550000D03*
X99441000Y-82550000D03*
D26*
X97409000Y-81534000D03*
X94361000Y-81534000D03*
D27*
X95123000Y-83312000D03*
X93599000Y-83312000D03*
X98171000Y-83312000D03*
D25*
X99441000Y-80518000D03*
D28*
X130048000Y-100330000D03*
X128397000Y-100330000D03*
X130048000Y-94234000D03*
X128397000Y-94234000D03*
D29*
X130556000Y-97282000D03*
X127889000Y-97282000D03*
D30*
X125730000Y-80518000D03*
X125730000Y-82169000D03*
X119634000Y-80518000D03*
X119634000Y-82169000D03*
D29*
X122682000Y-80010000D03*
X122682000Y-82677000D03*
D31*
X109263000Y-85537000D03*
X109263000Y-86487000D03*
X109263000Y-87437000D03*
X111463000Y-87437000D03*
X111463000Y-85537000D03*
D32*
X109884000Y-104652000D03*
X109884000Y-104002000D03*
X109884000Y-103352000D03*
X109884000Y-102702000D03*
X109884000Y-102052000D03*
X109884000Y-101402000D03*
X109884000Y-100752000D03*
X109884000Y-100102000D03*
X109884000Y-99452000D03*
X109884000Y-98802000D03*
X103984000Y-98802000D03*
X103984000Y-99452000D03*
X103984000Y-100102000D03*
X103984000Y-100752000D03*
X103984000Y-101402000D03*
X103984000Y-102052000D03*
X103984000Y-102702000D03*
X103984000Y-103352000D03*
X103984000Y-104002000D03*
X103984000Y-104652000D03*
D33*
X115951000Y-105682000D03*
X115951000Y-101582000D03*
D34*
X88646000Y-84582000D03*
X89916000Y-84582000D03*
X88646000Y-85852000D03*
X89916000Y-85852000D03*
X88646000Y-87122000D03*
X89916000Y-87122000D03*
X88646000Y-88392000D03*
X89916000Y-88392000D03*
X88646000Y-89662000D03*
X89916000Y-89662000D03*
X127000000Y-102870000D03*
X113030000Y-102235000D03*
X97536000Y-104648000D03*
X123952000Y-111252000D03*
X97028000Y-83312000D03*
X92964000Y-86868000D03*
X111252000Y-114808000D03*
X113792000Y-114300000D03*
X114808000Y-109728000D03*
X122428000Y-89916000D03*
X121920000Y-104140000D03*
X90805000Y-112395000D03*
X103505000Y-87945000D03*
X120015000Y-88265000D03*
X97042972Y-99883171D03*
X118618000Y-80518000D03*
X116459000Y-83312000D03*
X90043000Y-99187000D03*
X113284000Y-83947000D03*
X113157000Y-93472000D03*
X99568000Y-87122000D03*
X96139000Y-93980000D03*
X99949000Y-97663000D03*
X90805000Y-94361000D03*
X96901000Y-95250000D03*
X91059000Y-109347000D03*
X96266000Y-106807000D03*
X96393000Y-109093000D03*
X90932000Y-110490000D03*
X94742000Y-107315000D03*
X94869000Y-104648000D03*
X95250000Y-85090000D03*
X97155000Y-88265000D03*
X107950000Y-108585000D03*
X105410000Y-102870000D03*
X101981000Y-111125000D03*
X108331000Y-98679000D03*
X100584000Y-93726000D03*
X104648000Y-97282000D03*
X97190220Y-97625763D03*
X101600000Y-102235000D03*
X97025607Y-98981920D03*
X100965000Y-102870000D03*
X107950000Y-101600000D03*
X107950000Y-103505000D03*
X109855000Y-109220000D03*
X106680000Y-101600000D03*
D35*
X127955000Y-102870000D02*
X127955000Y-100772000D01*
X127955000Y-100772000D02*
X128397000Y-100330000D01*
X127000000Y-102870000D02*
X127955000Y-102870000D01*
X128397000Y-100330000D02*
X128397000Y-99580000D01*
X128397000Y-99580000D02*
X128714001Y-99262999D01*
X128714001Y-99262999D02*
X128714001Y-95301001D01*
X128714001Y-95301001D02*
X128397000Y-94984000D01*
X128397000Y-94984000D02*
X128397000Y-94234000D01*
X111999246Y-102702000D02*
X112563000Y-102702000D01*
X112563000Y-102702000D02*
X113030000Y-102235000D01*
X109884000Y-102702000D02*
X111999246Y-102702000D01*
X128143000Y-93980000D02*
X128397000Y-94234000D01*
X105156000Y-117729000D02*
X102616000Y-117729000D01*
X97028000Y-83312000D02*
X98171000Y-83312000D01*
X89916000Y-85852000D02*
X91948000Y-85852000D01*
X91948000Y-85852000D02*
X92964000Y-86868000D01*
X121920000Y-104140000D02*
X121920000Y-90424000D01*
X121920000Y-90424000D02*
X122428000Y-89916000D01*
X121346000Y-106299000D02*
X121346000Y-104714000D01*
X121346000Y-104714000D02*
X121920000Y-104140000D01*
X89051000Y-112121000D02*
X90531000Y-112121000D01*
X90531000Y-112121000D02*
X90805000Y-112395000D01*
X130048000Y-100330000D02*
X130048000Y-100130000D01*
X130048000Y-100130000D02*
X129498000Y-99580000D01*
X129498000Y-99580000D02*
X129498000Y-94984000D01*
X129498000Y-94984000D02*
X130048000Y-94434000D01*
X130048000Y-94434000D02*
X130048000Y-94234000D01*
X103505000Y-87945000D02*
X105404960Y-87945000D01*
X101981000Y-87945000D02*
X103505000Y-87945000D01*
X105404960Y-87945000D02*
X105537000Y-88077040D01*
X114935000Y-87917020D02*
X113784570Y-87917020D01*
X113784570Y-87917020D02*
X112354550Y-86487000D01*
X112354550Y-86487000D02*
X110043000Y-86487000D01*
X110043000Y-86487000D02*
X109263000Y-86487000D01*
X118618000Y-87691000D02*
X119441000Y-87691000D01*
X119441000Y-87691000D02*
X120015000Y-88265000D01*
X118618000Y-87691000D02*
X115161020Y-87691000D01*
X115161020Y-87691000D02*
X114935000Y-87917020D01*
X97137163Y-99788980D02*
X97042972Y-99883171D01*
X98425000Y-99788980D02*
X97137163Y-99788980D01*
X100584000Y-99700000D02*
X98513980Y-99700000D01*
X98513980Y-99700000D02*
X98425000Y-99788980D01*
X101209000Y-99700000D02*
X100584000Y-99700000D01*
X101293411Y-99700000D02*
X101209000Y-99700000D01*
X102995411Y-101402000D02*
X101293411Y-99700000D01*
X103984000Y-101402000D02*
X102995411Y-101402000D01*
X118618000Y-80518000D02*
X119634000Y-80518000D01*
X116139000Y-82169000D02*
X116139000Y-82992000D01*
X116139000Y-82992000D02*
X116459000Y-83312000D01*
X109263000Y-86487000D02*
X108483000Y-86487000D01*
X108483000Y-86487000D02*
X106892960Y-88077040D01*
X106892960Y-88077040D02*
X105537000Y-88077040D01*
X90043000Y-85852000D02*
X89916000Y-85852000D01*
X88646000Y-85852000D02*
X90043000Y-85852000D01*
X86360000Y-86233000D02*
X88265000Y-86233000D01*
X88265000Y-86233000D02*
X88646000Y-85852000D01*
X88044000Y-99146000D02*
X90002000Y-99146000D01*
X90002000Y-99146000D02*
X90043000Y-99187000D01*
X119634000Y-82169000D02*
X118884000Y-82169000D01*
X118884000Y-82169000D02*
X118183999Y-81468999D01*
X114464000Y-82169000D02*
X114239000Y-82169000D01*
X118183999Y-81468999D02*
X115164001Y-81468999D01*
X115164001Y-81468999D02*
X114464000Y-82169000D01*
X125730000Y-82169000D02*
X125530000Y-82169000D01*
X125530000Y-82169000D02*
X124980000Y-81619000D01*
X124980000Y-81619000D02*
X120384000Y-81619000D01*
X120384000Y-81619000D02*
X119834000Y-82169000D01*
X119834000Y-82169000D02*
X119634000Y-82169000D01*
X109884000Y-101402000D02*
X110859000Y-101402000D01*
X110859000Y-101402000D02*
X113157000Y-99104000D01*
X113157000Y-99104000D02*
X113157000Y-93896264D01*
X113157000Y-93896264D02*
X113157000Y-93472000D01*
X124279999Y-81468999D02*
X124980000Y-82169000D01*
X124980000Y-82169000D02*
X125730000Y-82169000D01*
X113284000Y-83947000D02*
X113284000Y-83124000D01*
X113284000Y-83124000D02*
X114239000Y-82169000D01*
D36*
X86360000Y-84333000D02*
X88397000Y-84333000D01*
X88397000Y-84333000D02*
X88646000Y-84582000D01*
X89916000Y-84582000D02*
X88646000Y-84582000D01*
X91948000Y-85344000D02*
X91186000Y-84582000D01*
X91186000Y-84582000D02*
X89916000Y-84582000D01*
X93599000Y-85344000D02*
X91948000Y-85344000D01*
X95377000Y-87122000D02*
X93599000Y-85344000D01*
X93599000Y-85344000D02*
X93599000Y-83312000D01*
X99568000Y-87122000D02*
X95377000Y-87122000D01*
X105537000Y-85725000D02*
X109075000Y-85725000D01*
X109075000Y-85725000D02*
X109263000Y-85537000D01*
X101981000Y-86045000D02*
X105217000Y-86045000D01*
X105217000Y-86045000D02*
X105537000Y-85725000D01*
X99568000Y-87122000D02*
X100645000Y-86045000D01*
X100645000Y-86045000D02*
X101981000Y-86045000D01*
X101981000Y-86270000D02*
X101981000Y-86045000D01*
X94996000Y-94615000D02*
X95504000Y-94615000D01*
X95504000Y-94615000D02*
X96139000Y-93980000D01*
D35*
X125857000Y-91209000D02*
X125857000Y-105410000D01*
X125857000Y-105410000D02*
X125857000Y-106553000D01*
X120650000Y-111760000D02*
X120650000Y-111259620D01*
X120650000Y-111259620D02*
X125857000Y-106052620D01*
X125857000Y-106052620D02*
X125857000Y-105410000D01*
X120142000Y-111252000D02*
X120650000Y-111760000D01*
X118237000Y-111252000D02*
X120142000Y-111252000D01*
X92710000Y-107730290D02*
X92710000Y-114595482D01*
X92710000Y-114595482D02*
X97367518Y-119253000D01*
X97367518Y-119253000D02*
X102362000Y-119253000D01*
X98299270Y-102141020D02*
X92710000Y-107730290D01*
X96200000Y-114300000D02*
X96200000Y-115450430D01*
X96200000Y-115450430D02*
X98478570Y-117729000D01*
X98478570Y-117729000D02*
X98998370Y-117729000D01*
X98998370Y-117729000D02*
X100076000Y-117729000D01*
X109884000Y-102052000D02*
X112060000Y-102052000D01*
X112060000Y-102052000D02*
X115316000Y-98796000D01*
X115316000Y-98796000D02*
X115316000Y-98171000D01*
X100584000Y-101600000D02*
X98966020Y-101600000D01*
X98966020Y-101600000D02*
X98425000Y-102141020D01*
X103984000Y-102052000D02*
X103009000Y-102052000D01*
X103009000Y-102052000D02*
X102557000Y-101600000D01*
X101209000Y-101600000D02*
X100584000Y-101600000D01*
X102557000Y-101600000D02*
X101209000Y-101600000D01*
X98425000Y-102141020D02*
X98550730Y-102141020D01*
X98299270Y-102141020D02*
X98425000Y-102141020D01*
X109884000Y-102052000D02*
X110650585Y-102052000D01*
X125857000Y-106553000D02*
X125857000Y-113665000D01*
X125857000Y-107302570D02*
X125857000Y-106553000D01*
X115316000Y-94296000D02*
X118553000Y-91059000D01*
X118553000Y-91059000D02*
X121855000Y-87757000D01*
X120208000Y-98425000D02*
X120208000Y-97800000D01*
X120208000Y-97800000D02*
X118553000Y-96145000D01*
X118553000Y-96145000D02*
X118553000Y-91059000D01*
X115316000Y-98171000D02*
X115316000Y-94296000D01*
X121855000Y-87757000D02*
X122555000Y-87757000D01*
X98679000Y-97790000D02*
X99822000Y-97790000D01*
X99822000Y-97790000D02*
X99949000Y-97663000D01*
X103984000Y-102052000D02*
X103434000Y-102052000D01*
X103434000Y-102052000D02*
X103334001Y-102151999D01*
X100076000Y-117729000D02*
X100076000Y-114554000D01*
X100076000Y-114554000D02*
X100711000Y-113919000D01*
X100246000Y-117559000D02*
X100076000Y-117729000D01*
X104267000Y-119253000D02*
X102362000Y-119253000D01*
X100076000Y-117729000D02*
X101600000Y-119253000D01*
X101600000Y-119253000D02*
X102362000Y-119253000D01*
X120269000Y-119253000D02*
X104267000Y-119253000D01*
X102531238Y-119253000D02*
X104267000Y-119253000D01*
X122555000Y-87757000D02*
X122555000Y-87907000D01*
X122555000Y-87907000D02*
X125857000Y-91209000D01*
X118618000Y-85791000D02*
X120739000Y-85791000D01*
X120739000Y-85791000D02*
X122555000Y-87607000D01*
X122555000Y-87607000D02*
X122555000Y-87757000D01*
X125857000Y-113665000D02*
X120269000Y-119253000D01*
X114935000Y-85564980D02*
X118391980Y-85564980D01*
X118391980Y-85564980D02*
X118618000Y-85791000D01*
X111463000Y-85537000D02*
X114907020Y-85537000D01*
X114907020Y-85537000D02*
X114935000Y-85564980D01*
X114501000Y-105682000D02*
X115951000Y-105682000D01*
X112371352Y-105682000D02*
X114501000Y-105682000D01*
X110691352Y-104002000D02*
X112371352Y-105682000D01*
X109884000Y-104002000D02*
X110691352Y-104002000D01*
X115951000Y-105682000D02*
X118829000Y-105682000D01*
X118829000Y-105682000D02*
X119446000Y-106299000D01*
X115951000Y-101582000D02*
X118568000Y-101582000D01*
X118568000Y-101582000D02*
X119221000Y-102235000D01*
X119221000Y-102235000D02*
X119446000Y-102235000D01*
X109884000Y-103352000D02*
X113981000Y-103352000D01*
X113981000Y-103352000D02*
X115751000Y-101582000D01*
X115751000Y-101582000D02*
X115951000Y-101582000D01*
X128778000Y-87109300D02*
X123957300Y-87109300D01*
X123957300Y-87109300D02*
X122555000Y-85707000D01*
X122555000Y-85707000D02*
X122555000Y-85557000D01*
X90195400Y-92964000D02*
X90195400Y-93751400D01*
X90195400Y-93751400D02*
X90805000Y-94361000D01*
X98679000Y-95590000D02*
X97241000Y-95590000D01*
X97241000Y-95590000D02*
X96901000Y-95250000D01*
X105156000Y-96647000D02*
X107961000Y-99452000D01*
X107961000Y-99452000D02*
X109884000Y-99452000D01*
X101899000Y-96647000D02*
X105156000Y-96647000D01*
X95842000Y-91440000D02*
X96692000Y-91440000D01*
X96692000Y-91440000D02*
X101899000Y-96647000D01*
X91694000Y-92964000D02*
X95018000Y-92964000D01*
X95018000Y-92964000D02*
X95842000Y-92140000D01*
X95842000Y-92140000D02*
X95842000Y-91440000D01*
X91059000Y-102997000D02*
X89662000Y-104394000D01*
X89662000Y-104394000D02*
X87223600Y-104394000D01*
X93599000Y-102997000D02*
X91059000Y-102997000D01*
D36*
X90144000Y-96546000D02*
X92075000Y-94615000D01*
X92075000Y-94615000D02*
X93296000Y-94615000D01*
X88044000Y-96546000D02*
X90144000Y-96546000D01*
D35*
X89281000Y-109347000D02*
X89281000Y-109391000D01*
X89281000Y-109391000D02*
X89051000Y-109621000D01*
X91059000Y-109347000D02*
X89281000Y-109347000D01*
X98214000Y-106299000D02*
X96774000Y-106299000D01*
X96774000Y-106299000D02*
X96266000Y-106807000D01*
X96393000Y-109093000D02*
X97833000Y-109093000D01*
X97833000Y-109093000D02*
X98087000Y-108839000D01*
X89051000Y-110871000D02*
X90551000Y-110871000D01*
X90551000Y-110871000D02*
X90932000Y-110490000D01*
X88044000Y-97196000D02*
X93009000Y-97196000D01*
X93009000Y-97196000D02*
X93558000Y-96647000D01*
X93472000Y-98425000D02*
X92622000Y-98425000D01*
X92622000Y-98425000D02*
X92043000Y-97846000D01*
X92043000Y-97846000D02*
X88969000Y-97846000D01*
X88969000Y-97846000D02*
X88044000Y-97846000D01*
X93642000Y-100711000D02*
X93642000Y-98595000D01*
X93642000Y-98595000D02*
X93472000Y-98425000D01*
X121600000Y-114762280D02*
X120822720Y-114762280D01*
X120822720Y-114762280D02*
X117856000Y-117729000D01*
X95250000Y-111297720D02*
X95250000Y-107823000D01*
X95250000Y-107823000D02*
X94742000Y-107315000D01*
X95799000Y-102997000D02*
X95799000Y-100754000D01*
X95799000Y-100754000D02*
X95842000Y-100711000D01*
X95799000Y-102997000D02*
X95799000Y-103718000D01*
X95799000Y-103718000D02*
X94869000Y-104648000D01*
X95250000Y-85090000D02*
X95250000Y-83439000D01*
X95250000Y-83439000D02*
X95123000Y-83312000D01*
X103040000Y-90805000D02*
X99695000Y-90805000D01*
X99695000Y-90805000D02*
X97155000Y-88265000D01*
X109263000Y-87437000D02*
X109263000Y-88012000D01*
X109263000Y-88012000D02*
X106470000Y-90805000D01*
X106470000Y-90805000D02*
X106090000Y-90805000D01*
X106090000Y-90805000D02*
X105240000Y-90805000D01*
X115824000Y-111211000D02*
X110576000Y-111211000D01*
X110576000Y-111211000D02*
X107950000Y-108585000D01*
X103984000Y-100752000D02*
X104959000Y-100752000D01*
X105034001Y-100827001D02*
X105034001Y-102494001D01*
X104959000Y-100752000D02*
X105034001Y-100827001D01*
X105034001Y-102494001D02*
X105410000Y-102870000D01*
X115738000Y-111125000D02*
X115824000Y-111211000D01*
X109884000Y-104652000D02*
X109884000Y-105127000D01*
X109884000Y-105127000D02*
X113342000Y-108585000D01*
X113342000Y-108585000D02*
X118446000Y-108585000D01*
X118446000Y-108585000D02*
X119296000Y-108585000D01*
X101865000Y-104002000D02*
X100414000Y-105453000D01*
X100414000Y-105453000D02*
X100414000Y-106299000D01*
X103984000Y-104002000D02*
X101865000Y-104002000D01*
X100414000Y-106299000D02*
X100564000Y-106299000D01*
X101981000Y-105410000D02*
X102739000Y-104652000D01*
X102739000Y-104652000D02*
X103984000Y-104652000D01*
X101981000Y-106445000D02*
X101981000Y-105410000D01*
X103484000Y-104652000D02*
X103984000Y-104652000D01*
X100287000Y-108839000D02*
X100287000Y-108139000D01*
X100287000Y-108139000D02*
X101981000Y-106445000D01*
X100287000Y-108839000D02*
X100437000Y-108839000D01*
X109884000Y-98802000D02*
X108454000Y-98802000D01*
X108454000Y-98802000D02*
X108331000Y-98679000D01*
X100668000Y-111506000D02*
X101600000Y-111506000D01*
X101600000Y-111506000D02*
X101981000Y-111125000D01*
X93642000Y-89154000D02*
X92792000Y-89154000D01*
X92792000Y-89154000D02*
X91404999Y-87766999D01*
X91404999Y-87766999D02*
X89271001Y-87766999D01*
X89271001Y-87766999D02*
X88945999Y-88092001D01*
X88945999Y-88092001D02*
X88646000Y-88392000D01*
X104648000Y-97282000D02*
X107468000Y-100102000D01*
X107468000Y-100102000D02*
X109884000Y-100102000D01*
X100584000Y-93726000D02*
X96012000Y-89154000D01*
X96012000Y-89154000D02*
X95842000Y-89154000D01*
X93642000Y-91440000D02*
X90424000Y-91440000D01*
X90424000Y-91440000D02*
X88646000Y-89662000D01*
X103984000Y-102702000D02*
X102067000Y-102702000D01*
X102067000Y-102702000D02*
X101600000Y-102235000D01*
X95908000Y-96647000D02*
X96886763Y-97625763D01*
X95758000Y-96647000D02*
X95908000Y-96647000D01*
X96886763Y-97625763D02*
X97190220Y-97625763D01*
X103984000Y-103352000D02*
X103984000Y-103252001D01*
X97025607Y-98981920D02*
X96228920Y-98981920D01*
X96228920Y-98981920D02*
X95672000Y-98425000D01*
X103984000Y-103352000D02*
X101447000Y-103352000D01*
X101447000Y-103352000D02*
X100965000Y-102870000D01*
X108798000Y-100752000D02*
X107950000Y-101600000D01*
X109884000Y-100752000D02*
X108798000Y-100752000D01*
X109855000Y-109220000D02*
X107950000Y-107315000D01*
X107950000Y-107315000D02*
X107950000Y-103505000D01*
X103984000Y-99452000D02*
X104959000Y-99452000D01*
X104959000Y-99452000D02*
X106680000Y-101173000D01*
X106680000Y-101173000D02*
X106680000Y-101600000D01*
X112014001Y-116967001D02*
X112776000Y-117729000D01*
X106874988Y-111827988D02*
X112014001Y-116967001D01*
X106874988Y-102774984D02*
X106874988Y-111827988D01*
X105484012Y-101384008D02*
X106874988Y-102774984D01*
X105484012Y-100627012D02*
X105484012Y-101384008D01*
X104959000Y-100102000D02*
X105484012Y-100627012D01*
X103984000Y-100102000D02*
X104959000Y-100102000D01*
X107324998Y-101167998D02*
X107324998Y-109737998D01*
X104959000Y-98802000D02*
X107324998Y-101167998D01*
X114554001Y-116967001D02*
X115316000Y-117729000D01*
X107324998Y-109737998D02*
X114554001Y-116967001D01*
X103984000Y-98802000D02*
X104959000Y-98802000D01*
X122550000Y-111760000D02*
X122550000Y-112910430D01*
X122550000Y-112910430D02*
X122008430Y-113452000D01*
X122008430Y-113452000D02*
X118937000Y-113452000D01*
X118937000Y-113452000D02*
X118237000Y-113452000D01*
X118237000Y-113452000D02*
X115865000Y-113452000D01*
X115865000Y-113452000D02*
X115824000Y-113411000D01*
X118237000Y-113302000D02*
X118237000Y-113452000D01*
X98468000Y-111506000D02*
X97094000Y-111506000D01*
X97094000Y-111506000D02*
X95450430Y-113149570D01*
X95450430Y-113149570D02*
X94950050Y-113149570D01*
X94950050Y-113149570D02*
X94300000Y-113799620D01*
X94300000Y-113799620D02*
X94300000Y-114300000D01*
X98511000Y-113919000D02*
X98511000Y-111549000D01*
X98511000Y-111549000D02*
X98468000Y-111506000D01*
X98107140Y-113515140D02*
X98511000Y-113919000D01*
D37*
G36*
X91181560Y-80918000D02*
X91225838Y-81153317D01*
X91364910Y-81369441D01*
X91577110Y-81514431D01*
X91668045Y-81532846D01*
X91593683Y-81546838D01*
X91377559Y-81685910D01*
X91232569Y-81898110D01*
X91181560Y-82150000D01*
X91181560Y-82950000D01*
X91225838Y-83185317D01*
X91364910Y-83401441D01*
X91577110Y-83546431D01*
X91829000Y-83597440D01*
X92601560Y-83597440D01*
X92601560Y-84062000D01*
X92645838Y-84297317D01*
X92784910Y-84513441D01*
X92824000Y-84540150D01*
X92824000Y-84569000D01*
X92269016Y-84569000D01*
X91734008Y-84033992D01*
X91482580Y-83865993D01*
X91186000Y-83807000D01*
X90463489Y-83807000D01*
X90446327Y-83789808D01*
X90102799Y-83647162D01*
X89730833Y-83646838D01*
X89387057Y-83788883D01*
X89368908Y-83807000D01*
X89193489Y-83807000D01*
X89176327Y-83789808D01*
X88832799Y-83647162D01*
X88738608Y-83647080D01*
X88693580Y-83616993D01*
X88397000Y-83558000D01*
X87349511Y-83558000D01*
X87338162Y-83497683D01*
X87199090Y-83281559D01*
X86986890Y-83136569D01*
X86735000Y-83085560D01*
X85985000Y-83085560D01*
X85749683Y-83129838D01*
X85533559Y-83268910D01*
X85388569Y-83481110D01*
X85337560Y-83733000D01*
X85337560Y-84933000D01*
X85381838Y-85168317D01*
X85448329Y-85271646D01*
X85446673Y-85273302D01*
X85350000Y-85506691D01*
X85350000Y-85947250D01*
X85508750Y-86106000D01*
X86233000Y-86106000D01*
X86233000Y-86086000D01*
X86487000Y-86086000D01*
X86487000Y-86106000D01*
X87211250Y-86106000D01*
X87370000Y-85947250D01*
X87370000Y-85506691D01*
X87273327Y-85273302D01*
X87271957Y-85271932D01*
X87331431Y-85184890D01*
X87347002Y-85108000D01*
X87851667Y-85108000D01*
X87852883Y-85110943D01*
X87947549Y-85205775D01*
X87883858Y-85269466D01*
X88001573Y-85387181D01*
X87806975Y-85399393D01*
X87697637Y-85754927D01*
X87732678Y-86125239D01*
X87806975Y-86304607D01*
X88001573Y-86316819D01*
X87883858Y-86434534D01*
X87947484Y-86498160D01*
X87853808Y-86591673D01*
X87711162Y-86935201D01*
X87710838Y-87307167D01*
X87852883Y-87650943D01*
X87958710Y-87756954D01*
X87853808Y-87861673D01*
X87711162Y-88205201D01*
X87710838Y-88577167D01*
X87852883Y-88920943D01*
X87958710Y-89026954D01*
X87853808Y-89131673D01*
X87711162Y-89475201D01*
X87710838Y-89847167D01*
X87852883Y-90190943D01*
X88115673Y-90454192D01*
X88459201Y-90596838D01*
X88506077Y-90596879D01*
X89826978Y-91917780D01*
X89796620Y-91917780D01*
X89561303Y-91962058D01*
X89345179Y-92101130D01*
X89200189Y-92313330D01*
X89149180Y-92565220D01*
X89149180Y-93362780D01*
X89193458Y-93598097D01*
X89332530Y-93814221D01*
X89466042Y-93905446D01*
X89493252Y-94042239D01*
X89657999Y-94288801D01*
X89869878Y-94500680D01*
X89869838Y-94546167D01*
X90011883Y-94889943D01*
X90274673Y-95153192D01*
X90392052Y-95201932D01*
X89822984Y-95771000D01*
X89104209Y-95771000D01*
X89154000Y-95520685D01*
X89154000Y-95171315D01*
X89069506Y-94746536D01*
X88828889Y-94386426D01*
X88468779Y-94145809D01*
X88044000Y-94061315D01*
X87619221Y-94145809D01*
X87259111Y-94386426D01*
X87018494Y-94746536D01*
X86934000Y-95171315D01*
X86934000Y-95520685D01*
X86995833Y-95831542D01*
X86917559Y-95881910D01*
X86772569Y-96094110D01*
X86721560Y-96346000D01*
X86721560Y-96746000D01*
X86745944Y-96875589D01*
X86721560Y-96996000D01*
X86721560Y-97396000D01*
X86745944Y-97525589D01*
X86721560Y-97646000D01*
X86721560Y-98046000D01*
X86745944Y-98175589D01*
X86721560Y-98296000D01*
X86721560Y-98696000D01*
X86741450Y-98801705D01*
X86734000Y-98819690D01*
X86734000Y-98887250D01*
X86763004Y-98916254D01*
X86765838Y-98931317D01*
X86904910Y-99147441D01*
X87049156Y-99246000D01*
X86892750Y-99246000D01*
X86734000Y-99404750D01*
X86734000Y-99472310D01*
X86830673Y-99705699D01*
X86994108Y-99869133D01*
X86934000Y-100171315D01*
X86934000Y-100520685D01*
X87018494Y-100945464D01*
X87259111Y-101305574D01*
X87619221Y-101546191D01*
X88044000Y-101630685D01*
X88468779Y-101546191D01*
X88828889Y-101305574D01*
X89069506Y-100945464D01*
X89154000Y-100520685D01*
X89154000Y-100171315D01*
X89093892Y-99869133D01*
X89257327Y-99705699D01*
X89354000Y-99472310D01*
X89354000Y-99404750D01*
X89195250Y-99246000D01*
X89036933Y-99246000D01*
X89170441Y-99160090D01*
X89315431Y-98947890D01*
X89321035Y-98920215D01*
X89354000Y-98887250D01*
X89354000Y-98819690D01*
X89345532Y-98799247D01*
X89366440Y-98696000D01*
X89366440Y-98606000D01*
X91728198Y-98606000D01*
X92084599Y-98962401D01*
X92263498Y-99081937D01*
X92268838Y-99110317D01*
X92407910Y-99326441D01*
X92620110Y-99471431D01*
X92872000Y-99522440D01*
X92882000Y-99522440D01*
X92882000Y-99643666D01*
X92806683Y-99657838D01*
X92590559Y-99796910D01*
X92445569Y-100009110D01*
X92394560Y-100261000D01*
X92394560Y-101161000D01*
X92438838Y-101396317D01*
X92577910Y-101612441D01*
X92790110Y-101757431D01*
X93042000Y-101808440D01*
X94242000Y-101808440D01*
X94477317Y-101764162D01*
X94693441Y-101625090D01*
X94741134Y-101555289D01*
X94777910Y-101612441D01*
X94990110Y-101757431D01*
X95039000Y-101767331D01*
X95039000Y-101929666D01*
X94963683Y-101943838D01*
X94747559Y-102082910D01*
X94699866Y-102152711D01*
X94663090Y-102095559D01*
X94450890Y-101950569D01*
X94199000Y-101899560D01*
X92999000Y-101899560D01*
X92763683Y-101943838D01*
X92547559Y-102082910D01*
X92442274Y-102237000D01*
X91059000Y-102237000D01*
X90768160Y-102294852D01*
X90521599Y-102459599D01*
X89347198Y-103634000D01*
X88144526Y-103634000D01*
X88086470Y-103543779D01*
X87874270Y-103398789D01*
X87622380Y-103347780D01*
X86824820Y-103347780D01*
X86589503Y-103392058D01*
X86485541Y-103458956D01*
X86483478Y-103456893D01*
X86250089Y-103360220D01*
X86010750Y-103360220D01*
X85852000Y-103518970D01*
X85852000Y-104267000D01*
X85872000Y-104267000D01*
X85872000Y-104521000D01*
X85852000Y-104521000D01*
X85852000Y-105269030D01*
X86010750Y-105427780D01*
X86250089Y-105427780D01*
X86483478Y-105331107D01*
X86485270Y-105329315D01*
X86572930Y-105389211D01*
X86824820Y-105440220D01*
X87622380Y-105440220D01*
X87857697Y-105395942D01*
X88073821Y-105256870D01*
X88144109Y-105154000D01*
X89662000Y-105154000D01*
X89952839Y-105096148D01*
X90199401Y-104931401D01*
X91373802Y-103757000D01*
X92443895Y-103757000D01*
X92534910Y-103898441D01*
X92747110Y-104043431D01*
X92999000Y-104094440D01*
X94100082Y-104094440D01*
X94076808Y-104117673D01*
X93934162Y-104461201D01*
X93933838Y-104833167D01*
X94075883Y-105176943D01*
X94132165Y-105233323D01*
X92172599Y-107192889D01*
X92007852Y-107439451D01*
X91950000Y-107730290D01*
X91950000Y-109054953D01*
X91852117Y-108818057D01*
X91589327Y-108554808D01*
X91245799Y-108412162D01*
X90873833Y-108411838D01*
X90530057Y-108553883D01*
X90496882Y-108587000D01*
X89281000Y-108587000D01*
X88990161Y-108644852D01*
X88947196Y-108673560D01*
X88151000Y-108673560D01*
X87915683Y-108717838D01*
X87699559Y-108856910D01*
X87554569Y-109069110D01*
X87503560Y-109321000D01*
X87503560Y-109921000D01*
X87547838Y-110156317D01*
X87605051Y-110245228D01*
X87554569Y-110319110D01*
X87503560Y-110571000D01*
X87503560Y-111171000D01*
X87547838Y-111406317D01*
X87601139Y-111489148D01*
X87516000Y-111694691D01*
X87516000Y-111835250D01*
X87674750Y-111994000D01*
X88924000Y-111994000D01*
X88924000Y-111974000D01*
X89178000Y-111974000D01*
X89178000Y-111994000D01*
X90427250Y-111994000D01*
X90586000Y-111835250D01*
X90586000Y-111694691D01*
X90558962Y-111629416D01*
X90841839Y-111573148D01*
X91063386Y-111425115D01*
X91117167Y-111425162D01*
X91460943Y-111283117D01*
X91724192Y-111020327D01*
X91866838Y-110676799D01*
X91867162Y-110304833D01*
X91737440Y-109990881D01*
X91851192Y-109877327D01*
X91950000Y-109639372D01*
X91950000Y-114595482D01*
X92007852Y-114886321D01*
X92172599Y-115132883D01*
X96292716Y-119253000D01*
X87670808Y-119253000D01*
X87830004Y-119094082D01*
X88094699Y-118456627D01*
X88095301Y-117766401D01*
X87831719Y-117128485D01*
X87344082Y-116639996D01*
X86706627Y-116375301D01*
X86016401Y-116374699D01*
X85378485Y-116638281D01*
X85217000Y-116799484D01*
X85217000Y-115018440D01*
X87101000Y-115018440D01*
X87336317Y-114974162D01*
X87552441Y-114835090D01*
X87697431Y-114622890D01*
X87748440Y-114371000D01*
X87748440Y-113371000D01*
X87704162Y-113135683D01*
X87565090Y-112919559D01*
X87352890Y-112774569D01*
X87101000Y-112723560D01*
X85217000Y-112723560D01*
X85217000Y-112406750D01*
X87516000Y-112406750D01*
X87516000Y-112547309D01*
X87612673Y-112780698D01*
X87791301Y-112959327D01*
X88024690Y-113056000D01*
X88765250Y-113056000D01*
X88924000Y-112897250D01*
X88924000Y-112248000D01*
X89178000Y-112248000D01*
X89178000Y-112897250D01*
X89336750Y-113056000D01*
X90077310Y-113056000D01*
X90310699Y-112959327D01*
X90489327Y-112780698D01*
X90586000Y-112547309D01*
X90586000Y-112406750D01*
X90427250Y-112248000D01*
X89178000Y-112248000D01*
X88924000Y-112248000D01*
X87674750Y-112248000D01*
X87516000Y-112406750D01*
X85217000Y-112406750D01*
X85217000Y-109018440D01*
X87101000Y-109018440D01*
X87336317Y-108974162D01*
X87552441Y-108835090D01*
X87697431Y-108622890D01*
X87748440Y-108371000D01*
X87748440Y-107371000D01*
X87704162Y-107135683D01*
X87565090Y-106919559D01*
X87352890Y-106774569D01*
X87101000Y-106723560D01*
X85217000Y-106723560D01*
X85217000Y-105427780D01*
X85439250Y-105427780D01*
X85598000Y-105269030D01*
X85598000Y-104521000D01*
X85578000Y-104521000D01*
X85578000Y-104267000D01*
X85598000Y-104267000D01*
X85598000Y-103518970D01*
X85439250Y-103360220D01*
X85217000Y-103360220D01*
X85217000Y-102481000D01*
X85646624Y-102481000D01*
X86080970Y-102394603D01*
X86449190Y-102148566D01*
X86695227Y-101780346D01*
X86781624Y-101346000D01*
X86695227Y-100911654D01*
X86449190Y-100543434D01*
X86080970Y-100297397D01*
X85646624Y-100211000D01*
X85217000Y-100211000D01*
X85217000Y-95481000D01*
X85646624Y-95481000D01*
X86080970Y-95394603D01*
X86449190Y-95148566D01*
X86695227Y-94780346D01*
X86781624Y-94346000D01*
X86695227Y-93911654D01*
X86449190Y-93543434D01*
X86080970Y-93297397D01*
X85646624Y-93211000D01*
X85217000Y-93211000D01*
X85217000Y-86518750D01*
X85350000Y-86518750D01*
X85350000Y-86959309D01*
X85446673Y-87192698D01*
X85625301Y-87371327D01*
X85858690Y-87468000D01*
X86074250Y-87468000D01*
X86233000Y-87309250D01*
X86233000Y-86360000D01*
X86487000Y-86360000D01*
X86487000Y-87309250D01*
X86645750Y-87468000D01*
X86861310Y-87468000D01*
X87094699Y-87371327D01*
X87273327Y-87192698D01*
X87370000Y-86959309D01*
X87370000Y-86518750D01*
X87211250Y-86360000D01*
X86487000Y-86360000D01*
X86233000Y-86360000D01*
X85508750Y-86360000D01*
X85350000Y-86518750D01*
X85217000Y-86518750D01*
X85217000Y-82590808D01*
X85375918Y-82750004D01*
X86013373Y-83014699D01*
X86703599Y-83015301D01*
X87341515Y-82751719D01*
X87830004Y-82264082D01*
X88094699Y-81626627D01*
X88095301Y-80936401D01*
X87831719Y-80298485D01*
X87670516Y-80137000D01*
X91181560Y-80137000D01*
X91181560Y-80918000D01*
X91181560Y-80918000D01*
G37*
X91181560Y-80918000D02*
X91225838Y-81153317D01*
X91364910Y-81369441D01*
X91577110Y-81514431D01*
X91668045Y-81532846D01*
X91593683Y-81546838D01*
X91377559Y-81685910D01*
X91232569Y-81898110D01*
X91181560Y-82150000D01*
X91181560Y-82950000D01*
X91225838Y-83185317D01*
X91364910Y-83401441D01*
X91577110Y-83546431D01*
X91829000Y-83597440D01*
X92601560Y-83597440D01*
X92601560Y-84062000D01*
X92645838Y-84297317D01*
X92784910Y-84513441D01*
X92824000Y-84540150D01*
X92824000Y-84569000D01*
X92269016Y-84569000D01*
X91734008Y-84033992D01*
X91482580Y-83865993D01*
X91186000Y-83807000D01*
X90463489Y-83807000D01*
X90446327Y-83789808D01*
X90102799Y-83647162D01*
X89730833Y-83646838D01*
X89387057Y-83788883D01*
X89368908Y-83807000D01*
X89193489Y-83807000D01*
X89176327Y-83789808D01*
X88832799Y-83647162D01*
X88738608Y-83647080D01*
X88693580Y-83616993D01*
X88397000Y-83558000D01*
X87349511Y-83558000D01*
X87338162Y-83497683D01*
X87199090Y-83281559D01*
X86986890Y-83136569D01*
X86735000Y-83085560D01*
X85985000Y-83085560D01*
X85749683Y-83129838D01*
X85533559Y-83268910D01*
X85388569Y-83481110D01*
X85337560Y-83733000D01*
X85337560Y-84933000D01*
X85381838Y-85168317D01*
X85448329Y-85271646D01*
X85446673Y-85273302D01*
X85350000Y-85506691D01*
X85350000Y-85947250D01*
X85508750Y-86106000D01*
X86233000Y-86106000D01*
X86233000Y-86086000D01*
X86487000Y-86086000D01*
X86487000Y-86106000D01*
X87211250Y-86106000D01*
X87370000Y-85947250D01*
X87370000Y-85506691D01*
X87273327Y-85273302D01*
X87271957Y-85271932D01*
X87331431Y-85184890D01*
X87347002Y-85108000D01*
X87851667Y-85108000D01*
X87852883Y-85110943D01*
X87947549Y-85205775D01*
X87883858Y-85269466D01*
X88001573Y-85387181D01*
X87806975Y-85399393D01*
X87697637Y-85754927D01*
X87732678Y-86125239D01*
X87806975Y-86304607D01*
X88001573Y-86316819D01*
X87883858Y-86434534D01*
X87947484Y-86498160D01*
X87853808Y-86591673D01*
X87711162Y-86935201D01*
X87710838Y-87307167D01*
X87852883Y-87650943D01*
X87958710Y-87756954D01*
X87853808Y-87861673D01*
X87711162Y-88205201D01*
X87710838Y-88577167D01*
X87852883Y-88920943D01*
X87958710Y-89026954D01*
X87853808Y-89131673D01*
X87711162Y-89475201D01*
X87710838Y-89847167D01*
X87852883Y-90190943D01*
X88115673Y-90454192D01*
X88459201Y-90596838D01*
X88506077Y-90596879D01*
X89826978Y-91917780D01*
X89796620Y-91917780D01*
X89561303Y-91962058D01*
X89345179Y-92101130D01*
X89200189Y-92313330D01*
X89149180Y-92565220D01*
X89149180Y-93362780D01*
X89193458Y-93598097D01*
X89332530Y-93814221D01*
X89466042Y-93905446D01*
X89493252Y-94042239D01*
X89657999Y-94288801D01*
X89869878Y-94500680D01*
X89869838Y-94546167D01*
X90011883Y-94889943D01*
X90274673Y-95153192D01*
X90392052Y-95201932D01*
X89822984Y-95771000D01*
X89104209Y-95771000D01*
X89154000Y-95520685D01*
X89154000Y-95171315D01*
X89069506Y-94746536D01*
X88828889Y-94386426D01*
X88468779Y-94145809D01*
X88044000Y-94061315D01*
X87619221Y-94145809D01*
X87259111Y-94386426D01*
X87018494Y-94746536D01*
X86934000Y-95171315D01*
X86934000Y-95520685D01*
X86995833Y-95831542D01*
X86917559Y-95881910D01*
X86772569Y-96094110D01*
X86721560Y-96346000D01*
X86721560Y-96746000D01*
X86745944Y-96875589D01*
X86721560Y-96996000D01*
X86721560Y-97396000D01*
X86745944Y-97525589D01*
X86721560Y-97646000D01*
X86721560Y-98046000D01*
X86745944Y-98175589D01*
X86721560Y-98296000D01*
X86721560Y-98696000D01*
X86741450Y-98801705D01*
X86734000Y-98819690D01*
X86734000Y-98887250D01*
X86763004Y-98916254D01*
X86765838Y-98931317D01*
X86904910Y-99147441D01*
X87049156Y-99246000D01*
X86892750Y-99246000D01*
X86734000Y-99404750D01*
X86734000Y-99472310D01*
X86830673Y-99705699D01*
X86994108Y-99869133D01*
X86934000Y-100171315D01*
X86934000Y-100520685D01*
X87018494Y-100945464D01*
X87259111Y-101305574D01*
X87619221Y-101546191D01*
X88044000Y-101630685D01*
X88468779Y-101546191D01*
X88828889Y-101305574D01*
X89069506Y-100945464D01*
X89154000Y-100520685D01*
X89154000Y-100171315D01*
X89093892Y-99869133D01*
X89257327Y-99705699D01*
X89354000Y-99472310D01*
X89354000Y-99404750D01*
X89195250Y-99246000D01*
X89036933Y-99246000D01*
X89170441Y-99160090D01*
X89315431Y-98947890D01*
X89321035Y-98920215D01*
X89354000Y-98887250D01*
X89354000Y-98819690D01*
X89345532Y-98799247D01*
X89366440Y-98696000D01*
X89366440Y-98606000D01*
X91728198Y-98606000D01*
X92084599Y-98962401D01*
X92263498Y-99081937D01*
X92268838Y-99110317D01*
X92407910Y-99326441D01*
X92620110Y-99471431D01*
X92872000Y-99522440D01*
X92882000Y-99522440D01*
X92882000Y-99643666D01*
X92806683Y-99657838D01*
X92590559Y-99796910D01*
X92445569Y-100009110D01*
X92394560Y-100261000D01*
X92394560Y-101161000D01*
X92438838Y-101396317D01*
X92577910Y-101612441D01*
X92790110Y-101757431D01*
X93042000Y-101808440D01*
X94242000Y-101808440D01*
X94477317Y-101764162D01*
X94693441Y-101625090D01*
X94741134Y-101555289D01*
X94777910Y-101612441D01*
X94990110Y-101757431D01*
X95039000Y-101767331D01*
X95039000Y-101929666D01*
X94963683Y-101943838D01*
X94747559Y-102082910D01*
X94699866Y-102152711D01*
X94663090Y-102095559D01*
X94450890Y-101950569D01*
X94199000Y-101899560D01*
X92999000Y-101899560D01*
X92763683Y-101943838D01*
X92547559Y-102082910D01*
X92442274Y-102237000D01*
X91059000Y-102237000D01*
X90768160Y-102294852D01*
X90521599Y-102459599D01*
X89347198Y-103634000D01*
X88144526Y-103634000D01*
X88086470Y-103543779D01*
X87874270Y-103398789D01*
X87622380Y-103347780D01*
X86824820Y-103347780D01*
X86589503Y-103392058D01*
X86485541Y-103458956D01*
X86483478Y-103456893D01*
X86250089Y-103360220D01*
X86010750Y-103360220D01*
X85852000Y-103518970D01*
X85852000Y-104267000D01*
X85872000Y-104267000D01*
X85872000Y-104521000D01*
X85852000Y-104521000D01*
X85852000Y-105269030D01*
X86010750Y-105427780D01*
X86250089Y-105427780D01*
X86483478Y-105331107D01*
X86485270Y-105329315D01*
X86572930Y-105389211D01*
X86824820Y-105440220D01*
X87622380Y-105440220D01*
X87857697Y-105395942D01*
X88073821Y-105256870D01*
X88144109Y-105154000D01*
X89662000Y-105154000D01*
X89952839Y-105096148D01*
X90199401Y-104931401D01*
X91373802Y-103757000D01*
X92443895Y-103757000D01*
X92534910Y-103898441D01*
X92747110Y-104043431D01*
X92999000Y-104094440D01*
X94100082Y-104094440D01*
X94076808Y-104117673D01*
X93934162Y-104461201D01*
X93933838Y-104833167D01*
X94075883Y-105176943D01*
X94132165Y-105233323D01*
X92172599Y-107192889D01*
X92007852Y-107439451D01*
X91950000Y-107730290D01*
X91950000Y-109054953D01*
X91852117Y-108818057D01*
X91589327Y-108554808D01*
X91245799Y-108412162D01*
X90873833Y-108411838D01*
X90530057Y-108553883D01*
X90496882Y-108587000D01*
X89281000Y-108587000D01*
X88990161Y-108644852D01*
X88947196Y-108673560D01*
X88151000Y-108673560D01*
X87915683Y-108717838D01*
X87699559Y-108856910D01*
X87554569Y-109069110D01*
X87503560Y-109321000D01*
X87503560Y-109921000D01*
X87547838Y-110156317D01*
X87605051Y-110245228D01*
X87554569Y-110319110D01*
X87503560Y-110571000D01*
X87503560Y-111171000D01*
X87547838Y-111406317D01*
X87601139Y-111489148D01*
X87516000Y-111694691D01*
X87516000Y-111835250D01*
X87674750Y-111994000D01*
X88924000Y-111994000D01*
X88924000Y-111974000D01*
X89178000Y-111974000D01*
X89178000Y-111994000D01*
X90427250Y-111994000D01*
X90586000Y-111835250D01*
X90586000Y-111694691D01*
X90558962Y-111629416D01*
X90841839Y-111573148D01*
X91063386Y-111425115D01*
X91117167Y-111425162D01*
X91460943Y-111283117D01*
X91724192Y-111020327D01*
X91866838Y-110676799D01*
X91867162Y-110304833D01*
X91737440Y-109990881D01*
X91851192Y-109877327D01*
X91950000Y-109639372D01*
X91950000Y-114595482D01*
X92007852Y-114886321D01*
X92172599Y-115132883D01*
X96292716Y-119253000D01*
X87670808Y-119253000D01*
X87830004Y-119094082D01*
X88094699Y-118456627D01*
X88095301Y-117766401D01*
X87831719Y-117128485D01*
X87344082Y-116639996D01*
X86706627Y-116375301D01*
X86016401Y-116374699D01*
X85378485Y-116638281D01*
X85217000Y-116799484D01*
X85217000Y-115018440D01*
X87101000Y-115018440D01*
X87336317Y-114974162D01*
X87552441Y-114835090D01*
X87697431Y-114622890D01*
X87748440Y-114371000D01*
X87748440Y-113371000D01*
X87704162Y-113135683D01*
X87565090Y-112919559D01*
X87352890Y-112774569D01*
X87101000Y-112723560D01*
X85217000Y-112723560D01*
X85217000Y-112406750D01*
X87516000Y-112406750D01*
X87516000Y-112547309D01*
X87612673Y-112780698D01*
X87791301Y-112959327D01*
X88024690Y-113056000D01*
X88765250Y-113056000D01*
X88924000Y-112897250D01*
X88924000Y-112248000D01*
X89178000Y-112248000D01*
X89178000Y-112897250D01*
X89336750Y-113056000D01*
X90077310Y-113056000D01*
X90310699Y-112959327D01*
X90489327Y-112780698D01*
X90586000Y-112547309D01*
X90586000Y-112406750D01*
X90427250Y-112248000D01*
X89178000Y-112248000D01*
X88924000Y-112248000D01*
X87674750Y-112248000D01*
X87516000Y-112406750D01*
X85217000Y-112406750D01*
X85217000Y-109018440D01*
X87101000Y-109018440D01*
X87336317Y-108974162D01*
X87552441Y-108835090D01*
X87697431Y-108622890D01*
X87748440Y-108371000D01*
X87748440Y-107371000D01*
X87704162Y-107135683D01*
X87565090Y-106919559D01*
X87352890Y-106774569D01*
X87101000Y-106723560D01*
X85217000Y-106723560D01*
X85217000Y-105427780D01*
X85439250Y-105427780D01*
X85598000Y-105269030D01*
X85598000Y-104521000D01*
X85578000Y-104521000D01*
X85578000Y-104267000D01*
X85598000Y-104267000D01*
X85598000Y-103518970D01*
X85439250Y-103360220D01*
X85217000Y-103360220D01*
X85217000Y-102481000D01*
X85646624Y-102481000D01*
X86080970Y-102394603D01*
X86449190Y-102148566D01*
X86695227Y-101780346D01*
X86781624Y-101346000D01*
X86695227Y-100911654D01*
X86449190Y-100543434D01*
X86080970Y-100297397D01*
X85646624Y-100211000D01*
X85217000Y-100211000D01*
X85217000Y-95481000D01*
X85646624Y-95481000D01*
X86080970Y-95394603D01*
X86449190Y-95148566D01*
X86695227Y-94780346D01*
X86781624Y-94346000D01*
X86695227Y-93911654D01*
X86449190Y-93543434D01*
X86080970Y-93297397D01*
X85646624Y-93211000D01*
X85217000Y-93211000D01*
X85217000Y-86518750D01*
X85350000Y-86518750D01*
X85350000Y-86959309D01*
X85446673Y-87192698D01*
X85625301Y-87371327D01*
X85858690Y-87468000D01*
X86074250Y-87468000D01*
X86233000Y-87309250D01*
X86233000Y-86360000D01*
X86487000Y-86360000D01*
X86487000Y-87309250D01*
X86645750Y-87468000D01*
X86861310Y-87468000D01*
X87094699Y-87371327D01*
X87273327Y-87192698D01*
X87370000Y-86959309D01*
X87370000Y-86518750D01*
X87211250Y-86360000D01*
X86487000Y-86360000D01*
X86233000Y-86360000D01*
X85508750Y-86360000D01*
X85350000Y-86518750D01*
X85217000Y-86518750D01*
X85217000Y-82590808D01*
X85375918Y-82750004D01*
X86013373Y-83014699D01*
X86703599Y-83015301D01*
X87341515Y-82751719D01*
X87830004Y-82264082D01*
X88094699Y-81626627D01*
X88095301Y-80936401D01*
X87831719Y-80298485D01*
X87670516Y-80137000D01*
X91181560Y-80137000D01*
X91181560Y-80918000D01*
G36*
X129593233Y-97924086D02*
X129912235Y-98243645D01*
X130329244Y-98416803D01*
X130683000Y-98417112D01*
X130683000Y-99281442D01*
X130474310Y-99195000D01*
X130333750Y-99195000D01*
X130175000Y-99353750D01*
X130175000Y-100203000D01*
X130195000Y-100203000D01*
X130195000Y-100457000D01*
X130175000Y-100457000D01*
X130175000Y-101306250D01*
X130333750Y-101465000D01*
X130474310Y-101465000D01*
X130683000Y-101378558D01*
X130683000Y-101902122D01*
X130581309Y-101860000D01*
X130140750Y-101860000D01*
X129982000Y-102018750D01*
X129982000Y-102743000D01*
X130002000Y-102743000D01*
X130002000Y-102997000D01*
X129982000Y-102997000D01*
X129982000Y-103721250D01*
X130140750Y-103880000D01*
X130581309Y-103880000D01*
X130683000Y-103837878D01*
X130683000Y-116926414D01*
X130397082Y-116639996D01*
X129759627Y-116375301D01*
X129069401Y-116374699D01*
X128431485Y-116638281D01*
X127942996Y-117125918D01*
X127678301Y-117763373D01*
X127677699Y-118453599D01*
X127941281Y-119091515D01*
X128102484Y-119253000D01*
X121343802Y-119253000D01*
X126394401Y-114202401D01*
X126559148Y-113955840D01*
X126617000Y-113665000D01*
X126617000Y-103723368D01*
X126813201Y-103804838D01*
X127049856Y-103805044D01*
X127103110Y-103841431D01*
X127355000Y-103892440D01*
X128555000Y-103892440D01*
X128790317Y-103848162D01*
X128893646Y-103781671D01*
X128895302Y-103783327D01*
X129128691Y-103880000D01*
X129569250Y-103880000D01*
X129728000Y-103721250D01*
X129728000Y-102997000D01*
X129708000Y-102997000D01*
X129708000Y-102743000D01*
X129728000Y-102743000D01*
X129728000Y-102018750D01*
X129569250Y-101860000D01*
X129128691Y-101860000D01*
X128895302Y-101956673D01*
X128893932Y-101958043D01*
X128806890Y-101898569D01*
X128715000Y-101879961D01*
X128715000Y-101474053D01*
X128932317Y-101433162D01*
X129148441Y-101294090D01*
X129215671Y-101195696D01*
X129388301Y-101368327D01*
X129621690Y-101465000D01*
X129762250Y-101465000D01*
X129921000Y-101306250D01*
X129921000Y-100457000D01*
X129901000Y-100457000D01*
X129901000Y-100203000D01*
X129921000Y-100203000D01*
X129921000Y-99353750D01*
X129762250Y-99195000D01*
X129621690Y-99195000D01*
X129474001Y-99256175D01*
X129474001Y-97635524D01*
X129593233Y-97924086D01*
X129593233Y-97924086D01*
G37*
X129593233Y-97924086D02*
X129912235Y-98243645D01*
X130329244Y-98416803D01*
X130683000Y-98417112D01*
X130683000Y-99281442D01*
X130474310Y-99195000D01*
X130333750Y-99195000D01*
X130175000Y-99353750D01*
X130175000Y-100203000D01*
X130195000Y-100203000D01*
X130195000Y-100457000D01*
X130175000Y-100457000D01*
X130175000Y-101306250D01*
X130333750Y-101465000D01*
X130474310Y-101465000D01*
X130683000Y-101378558D01*
X130683000Y-101902122D01*
X130581309Y-101860000D01*
X130140750Y-101860000D01*
X129982000Y-102018750D01*
X129982000Y-102743000D01*
X130002000Y-102743000D01*
X130002000Y-102997000D01*
X129982000Y-102997000D01*
X129982000Y-103721250D01*
X130140750Y-103880000D01*
X130581309Y-103880000D01*
X130683000Y-103837878D01*
X130683000Y-116926414D01*
X130397082Y-116639996D01*
X129759627Y-116375301D01*
X129069401Y-116374699D01*
X128431485Y-116638281D01*
X127942996Y-117125918D01*
X127678301Y-117763373D01*
X127677699Y-118453599D01*
X127941281Y-119091515D01*
X128102484Y-119253000D01*
X121343802Y-119253000D01*
X126394401Y-114202401D01*
X126559148Y-113955840D01*
X126617000Y-113665000D01*
X126617000Y-103723368D01*
X126813201Y-103804838D01*
X127049856Y-103805044D01*
X127103110Y-103841431D01*
X127355000Y-103892440D01*
X128555000Y-103892440D01*
X128790317Y-103848162D01*
X128893646Y-103781671D01*
X128895302Y-103783327D01*
X129128691Y-103880000D01*
X129569250Y-103880000D01*
X129728000Y-103721250D01*
X129728000Y-102997000D01*
X129708000Y-102997000D01*
X129708000Y-102743000D01*
X129728000Y-102743000D01*
X129728000Y-102018750D01*
X129569250Y-101860000D01*
X129128691Y-101860000D01*
X128895302Y-101956673D01*
X128893932Y-101958043D01*
X128806890Y-101898569D01*
X128715000Y-101879961D01*
X128715000Y-101474053D01*
X128932317Y-101433162D01*
X129148441Y-101294090D01*
X129215671Y-101195696D01*
X129388301Y-101368327D01*
X129621690Y-101465000D01*
X129762250Y-101465000D01*
X129921000Y-101306250D01*
X129921000Y-100457000D01*
X129901000Y-100457000D01*
X129901000Y-100203000D01*
X129921000Y-100203000D01*
X129921000Y-99353750D01*
X129762250Y-99195000D01*
X129621690Y-99195000D01*
X129474001Y-99256175D01*
X129474001Y-97635524D01*
X129593233Y-97924086D01*
G36*
X106114988Y-111827988D02*
X106172840Y-112118827D01*
X106337587Y-112365389D01*
X110304257Y-116332059D01*
X109959339Y-116331758D01*
X109445697Y-116543990D01*
X109052371Y-116936630D01*
X108966051Y-117144512D01*
X108881010Y-116938697D01*
X108488370Y-116545371D01*
X107975100Y-116332243D01*
X107419339Y-116331758D01*
X106905697Y-116543990D01*
X106512371Y-116936630D01*
X106432605Y-117128727D01*
X106378397Y-116997857D01*
X106136213Y-116928392D01*
X105335605Y-117729000D01*
X105349748Y-117743143D01*
X105170143Y-117922748D01*
X105156000Y-117908605D01*
X105141858Y-117922748D01*
X104962253Y-117743143D01*
X104976395Y-117729000D01*
X104175787Y-116928392D01*
X103933603Y-116997857D01*
X103889547Y-117121344D01*
X103838397Y-116997857D01*
X103596213Y-116928392D01*
X102795605Y-117729000D01*
X102809748Y-117743143D01*
X102630143Y-117922748D01*
X102616000Y-117908605D01*
X102601858Y-117922748D01*
X102422253Y-117743143D01*
X102436395Y-117729000D01*
X101635787Y-116928392D01*
X101393603Y-116997857D01*
X101343491Y-117138318D01*
X101261010Y-116938697D01*
X101071432Y-116748787D01*
X101815392Y-116748787D01*
X102616000Y-117549395D01*
X103416608Y-116748787D01*
X104355392Y-116748787D01*
X105156000Y-117549395D01*
X105956608Y-116748787D01*
X105887143Y-116506603D01*
X105363698Y-116319856D01*
X104808632Y-116347638D01*
X104424857Y-116506603D01*
X104355392Y-116748787D01*
X103416608Y-116748787D01*
X103347143Y-116506603D01*
X102823698Y-116319856D01*
X102268632Y-116347638D01*
X101884857Y-116506603D01*
X101815392Y-116748787D01*
X101071432Y-116748787D01*
X100868370Y-116545371D01*
X100836000Y-116531930D01*
X100836000Y-115016440D01*
X101311000Y-115016440D01*
X101546317Y-114972162D01*
X101762441Y-114833090D01*
X101907431Y-114620890D01*
X101958440Y-114369000D01*
X101958440Y-113469000D01*
X101914162Y-113233683D01*
X101775090Y-113017559D01*
X101562890Y-112872569D01*
X101311000Y-112821560D01*
X100111000Y-112821560D01*
X99875683Y-112865838D01*
X99659559Y-113004910D01*
X99611866Y-113074711D01*
X99575090Y-113017559D01*
X99362890Y-112872569D01*
X99271000Y-112853961D01*
X99271000Y-112565243D01*
X99303317Y-112559162D01*
X99519441Y-112420090D01*
X99567134Y-112350289D01*
X99603910Y-112407441D01*
X99816110Y-112552431D01*
X100068000Y-112603440D01*
X101268000Y-112603440D01*
X101503317Y-112559162D01*
X101719441Y-112420090D01*
X101860073Y-112214268D01*
X101890839Y-112208148D01*
X102112386Y-112060115D01*
X102166167Y-112060162D01*
X102509943Y-111918117D01*
X102773192Y-111655327D01*
X102915838Y-111311799D01*
X102916162Y-110939833D01*
X102774117Y-110596057D01*
X102511327Y-110332808D01*
X102167799Y-110190162D01*
X101795833Y-110189838D01*
X101452057Y-110331883D01*
X101357159Y-110426615D01*
X101268000Y-110408560D01*
X100068000Y-110408560D01*
X99832683Y-110452838D01*
X99616559Y-110591910D01*
X99568866Y-110661711D01*
X99532090Y-110604559D01*
X99319890Y-110459569D01*
X99068000Y-110408560D01*
X97868000Y-110408560D01*
X97632683Y-110452838D01*
X97416559Y-110591910D01*
X97311274Y-110746000D01*
X97094000Y-110746000D01*
X96803161Y-110803852D01*
X96556599Y-110968599D01*
X96297490Y-111227708D01*
X96297490Y-110397290D01*
X96253212Y-110161973D01*
X96152568Y-110005567D01*
X96206201Y-110027838D01*
X96578167Y-110028162D01*
X96921943Y-109886117D01*
X96955118Y-109853000D01*
X97187646Y-109853000D01*
X97235110Y-109885431D01*
X97487000Y-109936440D01*
X98687000Y-109936440D01*
X98922317Y-109892162D01*
X99138441Y-109753090D01*
X99186134Y-109683289D01*
X99222910Y-109740441D01*
X99435110Y-109885431D01*
X99687000Y-109936440D01*
X100887000Y-109936440D01*
X101122317Y-109892162D01*
X101338441Y-109753090D01*
X101483431Y-109540890D01*
X101534440Y-109289000D01*
X101534440Y-108389000D01*
X101490162Y-108153683D01*
X101434156Y-108066646D01*
X102518401Y-106982401D01*
X102683148Y-106735839D01*
X102741000Y-106445000D01*
X102741000Y-105724802D01*
X102998354Y-105467448D01*
X103007110Y-105473431D01*
X103259000Y-105524440D01*
X104709000Y-105524440D01*
X104944317Y-105480162D01*
X105160441Y-105341090D01*
X105305431Y-105128890D01*
X105356440Y-104877000D01*
X105356440Y-104427000D01*
X105336933Y-104323329D01*
X105356440Y-104227000D01*
X105356440Y-103804954D01*
X105595167Y-103805162D01*
X105938943Y-103663117D01*
X106114988Y-103487379D01*
X106114988Y-111827988D01*
X106114988Y-111827988D01*
G37*
X106114988Y-111827988D02*
X106172840Y-112118827D01*
X106337587Y-112365389D01*
X110304257Y-116332059D01*
X109959339Y-116331758D01*
X109445697Y-116543990D01*
X109052371Y-116936630D01*
X108966051Y-117144512D01*
X108881010Y-116938697D01*
X108488370Y-116545371D01*
X107975100Y-116332243D01*
X107419339Y-116331758D01*
X106905697Y-116543990D01*
X106512371Y-116936630D01*
X106432605Y-117128727D01*
X106378397Y-116997857D01*
X106136213Y-116928392D01*
X105335605Y-117729000D01*
X105349748Y-117743143D01*
X105170143Y-117922748D01*
X105156000Y-117908605D01*
X105141858Y-117922748D01*
X104962253Y-117743143D01*
X104976395Y-117729000D01*
X104175787Y-116928392D01*
X103933603Y-116997857D01*
X103889547Y-117121344D01*
X103838397Y-116997857D01*
X103596213Y-116928392D01*
X102795605Y-117729000D01*
X102809748Y-117743143D01*
X102630143Y-117922748D01*
X102616000Y-117908605D01*
X102601858Y-117922748D01*
X102422253Y-117743143D01*
X102436395Y-117729000D01*
X101635787Y-116928392D01*
X101393603Y-116997857D01*
X101343491Y-117138318D01*
X101261010Y-116938697D01*
X101071432Y-116748787D01*
X101815392Y-116748787D01*
X102616000Y-117549395D01*
X103416608Y-116748787D01*
X104355392Y-116748787D01*
X105156000Y-117549395D01*
X105956608Y-116748787D01*
X105887143Y-116506603D01*
X105363698Y-116319856D01*
X104808632Y-116347638D01*
X104424857Y-116506603D01*
X104355392Y-116748787D01*
X103416608Y-116748787D01*
X103347143Y-116506603D01*
X102823698Y-116319856D01*
X102268632Y-116347638D01*
X101884857Y-116506603D01*
X101815392Y-116748787D01*
X101071432Y-116748787D01*
X100868370Y-116545371D01*
X100836000Y-116531930D01*
X100836000Y-115016440D01*
X101311000Y-115016440D01*
X101546317Y-114972162D01*
X101762441Y-114833090D01*
X101907431Y-114620890D01*
X101958440Y-114369000D01*
X101958440Y-113469000D01*
X101914162Y-113233683D01*
X101775090Y-113017559D01*
X101562890Y-112872569D01*
X101311000Y-112821560D01*
X100111000Y-112821560D01*
X99875683Y-112865838D01*
X99659559Y-113004910D01*
X99611866Y-113074711D01*
X99575090Y-113017559D01*
X99362890Y-112872569D01*
X99271000Y-112853961D01*
X99271000Y-112565243D01*
X99303317Y-112559162D01*
X99519441Y-112420090D01*
X99567134Y-112350289D01*
X99603910Y-112407441D01*
X99816110Y-112552431D01*
X100068000Y-112603440D01*
X101268000Y-112603440D01*
X101503317Y-112559162D01*
X101719441Y-112420090D01*
X101860073Y-112214268D01*
X101890839Y-112208148D01*
X102112386Y-112060115D01*
X102166167Y-112060162D01*
X102509943Y-111918117D01*
X102773192Y-111655327D01*
X102915838Y-111311799D01*
X102916162Y-110939833D01*
X102774117Y-110596057D01*
X102511327Y-110332808D01*
X102167799Y-110190162D01*
X101795833Y-110189838D01*
X101452057Y-110331883D01*
X101357159Y-110426615D01*
X101268000Y-110408560D01*
X100068000Y-110408560D01*
X99832683Y-110452838D01*
X99616559Y-110591910D01*
X99568866Y-110661711D01*
X99532090Y-110604559D01*
X99319890Y-110459569D01*
X99068000Y-110408560D01*
X97868000Y-110408560D01*
X97632683Y-110452838D01*
X97416559Y-110591910D01*
X97311274Y-110746000D01*
X97094000Y-110746000D01*
X96803161Y-110803852D01*
X96556599Y-110968599D01*
X96297490Y-111227708D01*
X96297490Y-110397290D01*
X96253212Y-110161973D01*
X96152568Y-110005567D01*
X96206201Y-110027838D01*
X96578167Y-110028162D01*
X96921943Y-109886117D01*
X96955118Y-109853000D01*
X97187646Y-109853000D01*
X97235110Y-109885431D01*
X97487000Y-109936440D01*
X98687000Y-109936440D01*
X98922317Y-109892162D01*
X99138441Y-109753090D01*
X99186134Y-109683289D01*
X99222910Y-109740441D01*
X99435110Y-109885431D01*
X99687000Y-109936440D01*
X100887000Y-109936440D01*
X101122317Y-109892162D01*
X101338441Y-109753090D01*
X101483431Y-109540890D01*
X101534440Y-109289000D01*
X101534440Y-108389000D01*
X101490162Y-108153683D01*
X101434156Y-108066646D01*
X102518401Y-106982401D01*
X102683148Y-106735839D01*
X102741000Y-106445000D01*
X102741000Y-105724802D01*
X102998354Y-105467448D01*
X103007110Y-105473431D01*
X103259000Y-105524440D01*
X104709000Y-105524440D01*
X104944317Y-105480162D01*
X105160441Y-105341090D01*
X105305431Y-105128890D01*
X105356440Y-104877000D01*
X105356440Y-104427000D01*
X105336933Y-104323329D01*
X105356440Y-104227000D01*
X105356440Y-103804954D01*
X105595167Y-103805162D01*
X105938943Y-103663117D01*
X106114988Y-103487379D01*
X106114988Y-111827988D01*
G36*
X114770838Y-112046317D02*
X114909910Y-112262441D01*
X114979711Y-112310134D01*
X114922559Y-112346910D01*
X114777569Y-112559110D01*
X114726560Y-112811000D01*
X114726560Y-114011000D01*
X114770838Y-114246317D01*
X114909910Y-114462441D01*
X115122110Y-114607431D01*
X115374000Y-114658440D01*
X116274000Y-114658440D01*
X116509317Y-114614162D01*
X116725441Y-114475090D01*
X116870431Y-114262890D01*
X116880736Y-114212000D01*
X117169666Y-114212000D01*
X117183838Y-114287317D01*
X117322910Y-114503441D01*
X117535110Y-114648431D01*
X117787000Y-114699440D01*
X118687000Y-114699440D01*
X118922317Y-114655162D01*
X119138441Y-114516090D01*
X119283431Y-114303890D01*
X119302039Y-114212000D01*
X120304594Y-114212000D01*
X120285319Y-114224879D01*
X118165381Y-116344817D01*
X118135100Y-116332243D01*
X117579339Y-116331758D01*
X117065697Y-116543990D01*
X116672371Y-116936630D01*
X116586051Y-117144512D01*
X116501010Y-116938697D01*
X116108370Y-116545371D01*
X115595100Y-116332243D01*
X115039339Y-116331758D01*
X115006945Y-116345143D01*
X110632802Y-111971000D01*
X114756666Y-111971000D01*
X114770838Y-112046317D01*
X114770838Y-112046317D01*
G37*
X114770838Y-112046317D02*
X114909910Y-112262441D01*
X114979711Y-112310134D01*
X114922559Y-112346910D01*
X114777569Y-112559110D01*
X114726560Y-112811000D01*
X114726560Y-114011000D01*
X114770838Y-114246317D01*
X114909910Y-114462441D01*
X115122110Y-114607431D01*
X115374000Y-114658440D01*
X116274000Y-114658440D01*
X116509317Y-114614162D01*
X116725441Y-114475090D01*
X116870431Y-114262890D01*
X116880736Y-114212000D01*
X117169666Y-114212000D01*
X117183838Y-114287317D01*
X117322910Y-114503441D01*
X117535110Y-114648431D01*
X117787000Y-114699440D01*
X118687000Y-114699440D01*
X118922317Y-114655162D01*
X119138441Y-114516090D01*
X119283431Y-114303890D01*
X119302039Y-114212000D01*
X120304594Y-114212000D01*
X120285319Y-114224879D01*
X118165381Y-116344817D01*
X118135100Y-116332243D01*
X117579339Y-116331758D01*
X117065697Y-116543990D01*
X116672371Y-116936630D01*
X116586051Y-117144512D01*
X116501010Y-116938697D01*
X116108370Y-116545371D01*
X115595100Y-116332243D01*
X115039339Y-116331758D01*
X115006945Y-116345143D01*
X110632802Y-111971000D01*
X114756666Y-111971000D01*
X114770838Y-112046317D01*
G36*
X112844257Y-116332059D02*
X112499339Y-116331758D01*
X112466945Y-116345143D01*
X107634988Y-111513186D01*
X107634988Y-111122790D01*
X112844257Y-116332059D01*
X112844257Y-116332059D01*
G37*
X112844257Y-116332059D02*
X112499339Y-116331758D01*
X112466945Y-116345143D01*
X107634988Y-111513186D01*
X107634988Y-111122790D01*
X112844257Y-116332059D01*
G36*
X125097000Y-113350198D02*
X122612703Y-115834495D01*
X122647490Y-115662710D01*
X122647490Y-113887742D01*
X123087401Y-113447831D01*
X123229466Y-113235215D01*
X123401491Y-113124520D01*
X123546481Y-112912320D01*
X123597490Y-112660430D01*
X123597490Y-110859570D01*
X123553212Y-110624253D01*
X123414140Y-110408129D01*
X123201940Y-110263139D01*
X122950050Y-110212130D01*
X122772292Y-110212130D01*
X125097000Y-107887422D01*
X125097000Y-113350198D01*
X125097000Y-113350198D01*
G37*
X125097000Y-113350198D02*
X122612703Y-115834495D01*
X122647490Y-115662710D01*
X122647490Y-113887742D01*
X123087401Y-113447831D01*
X123229466Y-113235215D01*
X123401491Y-113124520D01*
X123546481Y-112912320D01*
X123597490Y-112660430D01*
X123597490Y-110859570D01*
X123553212Y-110624253D01*
X123414140Y-110408129D01*
X123201940Y-110263139D01*
X122950050Y-110212130D01*
X122772292Y-110212130D01*
X125097000Y-107887422D01*
X125097000Y-113350198D01*
G36*
X108907110Y-105473431D02*
X109159000Y-105524440D01*
X109253080Y-105524440D01*
X109346599Y-105664401D01*
X112804598Y-109122401D01*
X112863613Y-109161833D01*
X113051161Y-109287148D01*
X113342000Y-109345000D01*
X118140895Y-109345000D01*
X118231910Y-109486441D01*
X118444110Y-109631431D01*
X118696000Y-109682440D01*
X119896000Y-109682440D01*
X120131317Y-109638162D01*
X120347441Y-109499090D01*
X120393969Y-109430994D01*
X120536302Y-109573327D01*
X120769691Y-109670000D01*
X121164818Y-109670000D01*
X120622688Y-110212130D01*
X120249950Y-110212130D01*
X120014633Y-110256408D01*
X119798509Y-110395480D01*
X119732560Y-110492000D01*
X119304334Y-110492000D01*
X119290162Y-110416683D01*
X119151090Y-110200559D01*
X118938890Y-110055569D01*
X118687000Y-110004560D01*
X117787000Y-110004560D01*
X117551683Y-110048838D01*
X117335559Y-110187910D01*
X117190569Y-110400110D01*
X117139560Y-110652000D01*
X117139560Y-111852000D01*
X117183838Y-112087317D01*
X117322910Y-112303441D01*
X117392711Y-112351134D01*
X117335559Y-112387910D01*
X117190569Y-112600110D01*
X117171961Y-112692000D01*
X116899049Y-112692000D01*
X116877162Y-112575683D01*
X116738090Y-112359559D01*
X116668289Y-112311866D01*
X116725441Y-112275090D01*
X116870431Y-112062890D01*
X116921440Y-111811000D01*
X116921440Y-110611000D01*
X116877162Y-110375683D01*
X116738090Y-110159559D01*
X116525890Y-110014569D01*
X116274000Y-109963560D01*
X115374000Y-109963560D01*
X115138683Y-110007838D01*
X114922559Y-110146910D01*
X114777569Y-110359110D01*
X114758961Y-110451000D01*
X110890802Y-110451000D01*
X110418461Y-109978659D01*
X110647192Y-109750327D01*
X110789838Y-109406799D01*
X110790162Y-109034833D01*
X110648117Y-108691057D01*
X110385327Y-108427808D01*
X110041799Y-108285162D01*
X109994923Y-108285121D01*
X108710000Y-107000198D01*
X108710000Y-105338752D01*
X108907110Y-105473431D01*
X108907110Y-105473431D01*
G37*
X108907110Y-105473431D02*
X109159000Y-105524440D01*
X109253080Y-105524440D01*
X109346599Y-105664401D01*
X112804598Y-109122401D01*
X112863613Y-109161833D01*
X113051161Y-109287148D01*
X113342000Y-109345000D01*
X118140895Y-109345000D01*
X118231910Y-109486441D01*
X118444110Y-109631431D01*
X118696000Y-109682440D01*
X119896000Y-109682440D01*
X120131317Y-109638162D01*
X120347441Y-109499090D01*
X120393969Y-109430994D01*
X120536302Y-109573327D01*
X120769691Y-109670000D01*
X121164818Y-109670000D01*
X120622688Y-110212130D01*
X120249950Y-110212130D01*
X120014633Y-110256408D01*
X119798509Y-110395480D01*
X119732560Y-110492000D01*
X119304334Y-110492000D01*
X119290162Y-110416683D01*
X119151090Y-110200559D01*
X118938890Y-110055569D01*
X118687000Y-110004560D01*
X117787000Y-110004560D01*
X117551683Y-110048838D01*
X117335559Y-110187910D01*
X117190569Y-110400110D01*
X117139560Y-110652000D01*
X117139560Y-111852000D01*
X117183838Y-112087317D01*
X117322910Y-112303441D01*
X117392711Y-112351134D01*
X117335559Y-112387910D01*
X117190569Y-112600110D01*
X117171961Y-112692000D01*
X116899049Y-112692000D01*
X116877162Y-112575683D01*
X116738090Y-112359559D01*
X116668289Y-112311866D01*
X116725441Y-112275090D01*
X116870431Y-112062890D01*
X116921440Y-111811000D01*
X116921440Y-110611000D01*
X116877162Y-110375683D01*
X116738090Y-110159559D01*
X116525890Y-110014569D01*
X116274000Y-109963560D01*
X115374000Y-109963560D01*
X115138683Y-110007838D01*
X114922559Y-110146910D01*
X114777569Y-110359110D01*
X114758961Y-110451000D01*
X110890802Y-110451000D01*
X110418461Y-109978659D01*
X110647192Y-109750327D01*
X110789838Y-109406799D01*
X110790162Y-109034833D01*
X110648117Y-108691057D01*
X110385327Y-108427808D01*
X110041799Y-108285162D01*
X109994923Y-108285121D01*
X108710000Y-107000198D01*
X108710000Y-105338752D01*
X108907110Y-105473431D01*
G36*
X121853110Y-88953431D02*
X122105000Y-89004440D01*
X122577638Y-89004440D01*
X125097000Y-91523802D01*
X125097000Y-105737818D01*
X122731000Y-108103818D01*
X122731000Y-108008690D01*
X122634327Y-107775301D01*
X122455698Y-107596673D01*
X122222309Y-107500000D01*
X121781750Y-107500000D01*
X121623000Y-107658750D01*
X121623000Y-108458000D01*
X121643000Y-108458000D01*
X121643000Y-108712000D01*
X121623000Y-108712000D01*
X121623000Y-108732000D01*
X121369000Y-108732000D01*
X121369000Y-108712000D01*
X121349000Y-108712000D01*
X121349000Y-108458000D01*
X121369000Y-108458000D01*
X121369000Y-107658750D01*
X121210250Y-107500000D01*
X120769691Y-107500000D01*
X120536302Y-107596673D01*
X120395064Y-107737910D01*
X120360090Y-107683559D01*
X120147890Y-107538569D01*
X119896000Y-107487560D01*
X118696000Y-107487560D01*
X118460683Y-107531838D01*
X118244559Y-107670910D01*
X118139274Y-107825000D01*
X113656803Y-107825000D01*
X112249580Y-106417778D01*
X112371352Y-106442000D01*
X114103560Y-106442000D01*
X114103560Y-106682000D01*
X114147838Y-106917317D01*
X114286910Y-107133441D01*
X114499110Y-107278431D01*
X114751000Y-107329440D01*
X117151000Y-107329440D01*
X117386317Y-107285162D01*
X117602441Y-107146090D01*
X117747431Y-106933890D01*
X117798440Y-106682000D01*
X117798440Y-106442000D01*
X118198560Y-106442000D01*
X118198560Y-106674000D01*
X118242838Y-106909317D01*
X118381910Y-107125441D01*
X118594110Y-107270431D01*
X118846000Y-107321440D01*
X120046000Y-107321440D01*
X120281317Y-107277162D01*
X120384646Y-107210671D01*
X120386302Y-107212327D01*
X120619691Y-107309000D01*
X121060250Y-107309000D01*
X121219000Y-107150250D01*
X121219000Y-106426000D01*
X121473000Y-106426000D01*
X121473000Y-107150250D01*
X121631750Y-107309000D01*
X122072309Y-107309000D01*
X122305698Y-107212327D01*
X122484327Y-107033699D01*
X122581000Y-106800310D01*
X122581000Y-106584750D01*
X122422250Y-106426000D01*
X121473000Y-106426000D01*
X121219000Y-106426000D01*
X121199000Y-106426000D01*
X121199000Y-106172000D01*
X121219000Y-106172000D01*
X121219000Y-105447750D01*
X121473000Y-105447750D01*
X121473000Y-106172000D01*
X122422250Y-106172000D01*
X122581000Y-106013250D01*
X122581000Y-105797690D01*
X122484327Y-105564301D01*
X122305698Y-105385673D01*
X122072309Y-105289000D01*
X121631750Y-105289000D01*
X121473000Y-105447750D01*
X121219000Y-105447750D01*
X121060250Y-105289000D01*
X120619691Y-105289000D01*
X120386302Y-105385673D01*
X120384932Y-105387043D01*
X120297890Y-105327569D01*
X120046000Y-105276560D01*
X119498362Y-105276560D01*
X119366401Y-105144599D01*
X119119839Y-104979852D01*
X118829000Y-104922000D01*
X117798440Y-104922000D01*
X117798440Y-104682000D01*
X117754162Y-104446683D01*
X117615090Y-104230559D01*
X117402890Y-104085569D01*
X117151000Y-104034560D01*
X114751000Y-104034560D01*
X114515683Y-104078838D01*
X114299559Y-104217910D01*
X114154569Y-104430110D01*
X114103560Y-104682000D01*
X114103560Y-104922000D01*
X112686154Y-104922000D01*
X111876154Y-104112000D01*
X113981000Y-104112000D01*
X114271839Y-104054148D01*
X114518401Y-103889401D01*
X115178362Y-103229440D01*
X117151000Y-103229440D01*
X117386317Y-103185162D01*
X117602441Y-103046090D01*
X117747431Y-102833890D01*
X117798440Y-102582000D01*
X117798440Y-102342000D01*
X118198560Y-102342000D01*
X118198560Y-102610000D01*
X118242838Y-102845317D01*
X118381910Y-103061441D01*
X118594110Y-103206431D01*
X118846000Y-103257440D01*
X120046000Y-103257440D01*
X120281317Y-103213162D01*
X120384646Y-103146671D01*
X120386302Y-103148327D01*
X120619691Y-103245000D01*
X121060250Y-103245000D01*
X121219000Y-103086250D01*
X121219000Y-102362000D01*
X121473000Y-102362000D01*
X121473000Y-103086250D01*
X121631750Y-103245000D01*
X122072309Y-103245000D01*
X122305698Y-103148327D01*
X122484327Y-102969699D01*
X122581000Y-102736310D01*
X122581000Y-102520750D01*
X122422250Y-102362000D01*
X121473000Y-102362000D01*
X121219000Y-102362000D01*
X121199000Y-102362000D01*
X121199000Y-102108000D01*
X121219000Y-102108000D01*
X121219000Y-101383750D01*
X121473000Y-101383750D01*
X121473000Y-102108000D01*
X122422250Y-102108000D01*
X122581000Y-101949250D01*
X122581000Y-101733690D01*
X122484327Y-101500301D01*
X122305698Y-101321673D01*
X122072309Y-101225000D01*
X121631750Y-101225000D01*
X121473000Y-101383750D01*
X121219000Y-101383750D01*
X121060250Y-101225000D01*
X120619691Y-101225000D01*
X120386302Y-101321673D01*
X120384932Y-101323043D01*
X120297890Y-101263569D01*
X120046000Y-101212560D01*
X119273362Y-101212560D01*
X119105401Y-101044599D01*
X118858839Y-100879852D01*
X118568000Y-100822000D01*
X117798440Y-100822000D01*
X117798440Y-100582000D01*
X117754162Y-100346683D01*
X117615090Y-100130559D01*
X117402890Y-99985569D01*
X117151000Y-99934560D01*
X115252242Y-99934560D01*
X115853401Y-99333401D01*
X115951367Y-99186785D01*
X116151317Y-99149162D01*
X116254646Y-99082671D01*
X116256302Y-99084327D01*
X116489691Y-99181000D01*
X116930250Y-99181000D01*
X117089000Y-99022250D01*
X117089000Y-98298000D01*
X117343000Y-98298000D01*
X117343000Y-99022250D01*
X117501750Y-99181000D01*
X117942309Y-99181000D01*
X118175698Y-99084327D01*
X118354327Y-98905699D01*
X118451000Y-98672310D01*
X118451000Y-98456750D01*
X118292250Y-98298000D01*
X117343000Y-98298000D01*
X117089000Y-98298000D01*
X117069000Y-98298000D01*
X117069000Y-98044000D01*
X117089000Y-98044000D01*
X117089000Y-97319750D01*
X117343000Y-97319750D01*
X117343000Y-98044000D01*
X118292250Y-98044000D01*
X118451000Y-97885250D01*
X118451000Y-97669690D01*
X118354327Y-97436301D01*
X118175698Y-97257673D01*
X117942309Y-97161000D01*
X117501750Y-97161000D01*
X117343000Y-97319750D01*
X117089000Y-97319750D01*
X116930250Y-97161000D01*
X116489691Y-97161000D01*
X116256302Y-97257673D01*
X116254932Y-97259043D01*
X116167890Y-97199569D01*
X116076000Y-97180961D01*
X116076000Y-94610802D01*
X117793000Y-92893802D01*
X117793000Y-96145000D01*
X117850852Y-96435839D01*
X118015599Y-96682401D01*
X119060173Y-97726975D01*
X119011569Y-97798110D01*
X118960560Y-98050000D01*
X118960560Y-98800000D01*
X119004838Y-99035317D01*
X119143910Y-99251441D01*
X119356110Y-99396431D01*
X119608000Y-99447440D01*
X120808000Y-99447440D01*
X121043317Y-99403162D01*
X121146646Y-99336671D01*
X121148302Y-99338327D01*
X121381691Y-99435000D01*
X121822250Y-99435000D01*
X121981000Y-99276250D01*
X121981000Y-98552000D01*
X122235000Y-98552000D01*
X122235000Y-99276250D01*
X122393750Y-99435000D01*
X122834309Y-99435000D01*
X123067698Y-99338327D01*
X123246327Y-99159699D01*
X123343000Y-98926310D01*
X123343000Y-98710750D01*
X123184250Y-98552000D01*
X122235000Y-98552000D01*
X121981000Y-98552000D01*
X121961000Y-98552000D01*
X121961000Y-98298000D01*
X121981000Y-98298000D01*
X121981000Y-97573750D01*
X122235000Y-97573750D01*
X122235000Y-98298000D01*
X123184250Y-98298000D01*
X123343000Y-98139250D01*
X123343000Y-97923690D01*
X123246327Y-97690301D01*
X123067698Y-97511673D01*
X122834309Y-97415000D01*
X122393750Y-97415000D01*
X122235000Y-97573750D01*
X121981000Y-97573750D01*
X121822250Y-97415000D01*
X121381691Y-97415000D01*
X121148302Y-97511673D01*
X121146932Y-97513043D01*
X121059890Y-97453569D01*
X120843759Y-97409801D01*
X120745401Y-97262599D01*
X119313000Y-95830198D01*
X119313000Y-91373802D01*
X121781975Y-88904827D01*
X121853110Y-88953431D01*
X121853110Y-88953431D01*
G37*
X121853110Y-88953431D02*
X122105000Y-89004440D01*
X122577638Y-89004440D01*
X125097000Y-91523802D01*
X125097000Y-105737818D01*
X122731000Y-108103818D01*
X122731000Y-108008690D01*
X122634327Y-107775301D01*
X122455698Y-107596673D01*
X122222309Y-107500000D01*
X121781750Y-107500000D01*
X121623000Y-107658750D01*
X121623000Y-108458000D01*
X121643000Y-108458000D01*
X121643000Y-108712000D01*
X121623000Y-108712000D01*
X121623000Y-108732000D01*
X121369000Y-108732000D01*
X121369000Y-108712000D01*
X121349000Y-108712000D01*
X121349000Y-108458000D01*
X121369000Y-108458000D01*
X121369000Y-107658750D01*
X121210250Y-107500000D01*
X120769691Y-107500000D01*
X120536302Y-107596673D01*
X120395064Y-107737910D01*
X120360090Y-107683559D01*
X120147890Y-107538569D01*
X119896000Y-107487560D01*
X118696000Y-107487560D01*
X118460683Y-107531838D01*
X118244559Y-107670910D01*
X118139274Y-107825000D01*
X113656803Y-107825000D01*
X112249580Y-106417778D01*
X112371352Y-106442000D01*
X114103560Y-106442000D01*
X114103560Y-106682000D01*
X114147838Y-106917317D01*
X114286910Y-107133441D01*
X114499110Y-107278431D01*
X114751000Y-107329440D01*
X117151000Y-107329440D01*
X117386317Y-107285162D01*
X117602441Y-107146090D01*
X117747431Y-106933890D01*
X117798440Y-106682000D01*
X117798440Y-106442000D01*
X118198560Y-106442000D01*
X118198560Y-106674000D01*
X118242838Y-106909317D01*
X118381910Y-107125441D01*
X118594110Y-107270431D01*
X118846000Y-107321440D01*
X120046000Y-107321440D01*
X120281317Y-107277162D01*
X120384646Y-107210671D01*
X120386302Y-107212327D01*
X120619691Y-107309000D01*
X121060250Y-107309000D01*
X121219000Y-107150250D01*
X121219000Y-106426000D01*
X121473000Y-106426000D01*
X121473000Y-107150250D01*
X121631750Y-107309000D01*
X122072309Y-107309000D01*
X122305698Y-107212327D01*
X122484327Y-107033699D01*
X122581000Y-106800310D01*
X122581000Y-106584750D01*
X122422250Y-106426000D01*
X121473000Y-106426000D01*
X121219000Y-106426000D01*
X121199000Y-106426000D01*
X121199000Y-106172000D01*
X121219000Y-106172000D01*
X121219000Y-105447750D01*
X121473000Y-105447750D01*
X121473000Y-106172000D01*
X122422250Y-106172000D01*
X122581000Y-106013250D01*
X122581000Y-105797690D01*
X122484327Y-105564301D01*
X122305698Y-105385673D01*
X122072309Y-105289000D01*
X121631750Y-105289000D01*
X121473000Y-105447750D01*
X121219000Y-105447750D01*
X121060250Y-105289000D01*
X120619691Y-105289000D01*
X120386302Y-105385673D01*
X120384932Y-105387043D01*
X120297890Y-105327569D01*
X120046000Y-105276560D01*
X119498362Y-105276560D01*
X119366401Y-105144599D01*
X119119839Y-104979852D01*
X118829000Y-104922000D01*
X117798440Y-104922000D01*
X117798440Y-104682000D01*
X117754162Y-104446683D01*
X117615090Y-104230559D01*
X117402890Y-104085569D01*
X117151000Y-104034560D01*
X114751000Y-104034560D01*
X114515683Y-104078838D01*
X114299559Y-104217910D01*
X114154569Y-104430110D01*
X114103560Y-104682000D01*
X114103560Y-104922000D01*
X112686154Y-104922000D01*
X111876154Y-104112000D01*
X113981000Y-104112000D01*
X114271839Y-104054148D01*
X114518401Y-103889401D01*
X115178362Y-103229440D01*
X117151000Y-103229440D01*
X117386317Y-103185162D01*
X117602441Y-103046090D01*
X117747431Y-102833890D01*
X117798440Y-102582000D01*
X117798440Y-102342000D01*
X118198560Y-102342000D01*
X118198560Y-102610000D01*
X118242838Y-102845317D01*
X118381910Y-103061441D01*
X118594110Y-103206431D01*
X118846000Y-103257440D01*
X120046000Y-103257440D01*
X120281317Y-103213162D01*
X120384646Y-103146671D01*
X120386302Y-103148327D01*
X120619691Y-103245000D01*
X121060250Y-103245000D01*
X121219000Y-103086250D01*
X121219000Y-102362000D01*
X121473000Y-102362000D01*
X121473000Y-103086250D01*
X121631750Y-103245000D01*
X122072309Y-103245000D01*
X122305698Y-103148327D01*
X122484327Y-102969699D01*
X122581000Y-102736310D01*
X122581000Y-102520750D01*
X122422250Y-102362000D01*
X121473000Y-102362000D01*
X121219000Y-102362000D01*
X121199000Y-102362000D01*
X121199000Y-102108000D01*
X121219000Y-102108000D01*
X121219000Y-101383750D01*
X121473000Y-101383750D01*
X121473000Y-102108000D01*
X122422250Y-102108000D01*
X122581000Y-101949250D01*
X122581000Y-101733690D01*
X122484327Y-101500301D01*
X122305698Y-101321673D01*
X122072309Y-101225000D01*
X121631750Y-101225000D01*
X121473000Y-101383750D01*
X121219000Y-101383750D01*
X121060250Y-101225000D01*
X120619691Y-101225000D01*
X120386302Y-101321673D01*
X120384932Y-101323043D01*
X120297890Y-101263569D01*
X120046000Y-101212560D01*
X119273362Y-101212560D01*
X119105401Y-101044599D01*
X118858839Y-100879852D01*
X118568000Y-100822000D01*
X117798440Y-100822000D01*
X117798440Y-100582000D01*
X117754162Y-100346683D01*
X117615090Y-100130559D01*
X117402890Y-99985569D01*
X117151000Y-99934560D01*
X115252242Y-99934560D01*
X115853401Y-99333401D01*
X115951367Y-99186785D01*
X116151317Y-99149162D01*
X116254646Y-99082671D01*
X116256302Y-99084327D01*
X116489691Y-99181000D01*
X116930250Y-99181000D01*
X117089000Y-99022250D01*
X117089000Y-98298000D01*
X117343000Y-98298000D01*
X117343000Y-99022250D01*
X117501750Y-99181000D01*
X117942309Y-99181000D01*
X118175698Y-99084327D01*
X118354327Y-98905699D01*
X118451000Y-98672310D01*
X118451000Y-98456750D01*
X118292250Y-98298000D01*
X117343000Y-98298000D01*
X117089000Y-98298000D01*
X117069000Y-98298000D01*
X117069000Y-98044000D01*
X117089000Y-98044000D01*
X117089000Y-97319750D01*
X117343000Y-97319750D01*
X117343000Y-98044000D01*
X118292250Y-98044000D01*
X118451000Y-97885250D01*
X118451000Y-97669690D01*
X118354327Y-97436301D01*
X118175698Y-97257673D01*
X117942309Y-97161000D01*
X117501750Y-97161000D01*
X117343000Y-97319750D01*
X117089000Y-97319750D01*
X116930250Y-97161000D01*
X116489691Y-97161000D01*
X116256302Y-97257673D01*
X116254932Y-97259043D01*
X116167890Y-97199569D01*
X116076000Y-97180961D01*
X116076000Y-94610802D01*
X117793000Y-92893802D01*
X117793000Y-96145000D01*
X117850852Y-96435839D01*
X118015599Y-96682401D01*
X119060173Y-97726975D01*
X119011569Y-97798110D01*
X118960560Y-98050000D01*
X118960560Y-98800000D01*
X119004838Y-99035317D01*
X119143910Y-99251441D01*
X119356110Y-99396431D01*
X119608000Y-99447440D01*
X120808000Y-99447440D01*
X121043317Y-99403162D01*
X121146646Y-99336671D01*
X121148302Y-99338327D01*
X121381691Y-99435000D01*
X121822250Y-99435000D01*
X121981000Y-99276250D01*
X121981000Y-98552000D01*
X122235000Y-98552000D01*
X122235000Y-99276250D01*
X122393750Y-99435000D01*
X122834309Y-99435000D01*
X123067698Y-99338327D01*
X123246327Y-99159699D01*
X123343000Y-98926310D01*
X123343000Y-98710750D01*
X123184250Y-98552000D01*
X122235000Y-98552000D01*
X121981000Y-98552000D01*
X121961000Y-98552000D01*
X121961000Y-98298000D01*
X121981000Y-98298000D01*
X121981000Y-97573750D01*
X122235000Y-97573750D01*
X122235000Y-98298000D01*
X123184250Y-98298000D01*
X123343000Y-98139250D01*
X123343000Y-97923690D01*
X123246327Y-97690301D01*
X123067698Y-97511673D01*
X122834309Y-97415000D01*
X122393750Y-97415000D01*
X122235000Y-97573750D01*
X121981000Y-97573750D01*
X121822250Y-97415000D01*
X121381691Y-97415000D01*
X121148302Y-97511673D01*
X121146932Y-97513043D01*
X121059890Y-97453569D01*
X120843759Y-97409801D01*
X120745401Y-97262599D01*
X119313000Y-95830198D01*
X119313000Y-91373802D01*
X121781975Y-88904827D01*
X121853110Y-88953431D01*
G36*
X100030051Y-102811202D02*
X100029838Y-103055167D01*
X100171883Y-103398943D01*
X100434673Y-103662192D01*
X100778201Y-103804838D01*
X100825077Y-103804879D01*
X100906198Y-103886000D01*
X99876599Y-104915599D01*
X99711852Y-105162161D01*
X99699738Y-105223060D01*
X99578683Y-105245838D01*
X99362559Y-105384910D01*
X99314866Y-105454711D01*
X99278090Y-105397559D01*
X99065890Y-105252569D01*
X98814000Y-105201560D01*
X97614000Y-105201560D01*
X97378683Y-105245838D01*
X97162559Y-105384910D01*
X97057274Y-105539000D01*
X96774000Y-105539000D01*
X96483161Y-105596852D01*
X96370529Y-105672110D01*
X96236599Y-105761599D01*
X96126320Y-105871878D01*
X96080833Y-105871838D01*
X95737057Y-106013883D01*
X95473808Y-106276673D01*
X95342439Y-106593043D01*
X95272327Y-106522808D01*
X95074450Y-106440642D01*
X97951932Y-103563160D01*
X99325430Y-103563160D01*
X99560747Y-103518882D01*
X99776871Y-103379810D01*
X99921861Y-103167610D01*
X99972870Y-102915720D01*
X99972870Y-102799622D01*
X100030051Y-102811202D01*
X100030051Y-102811202D01*
G37*
X100030051Y-102811202D02*
X100029838Y-103055167D01*
X100171883Y-103398943D01*
X100434673Y-103662192D01*
X100778201Y-103804838D01*
X100825077Y-103804879D01*
X100906198Y-103886000D01*
X99876599Y-104915599D01*
X99711852Y-105162161D01*
X99699738Y-105223060D01*
X99578683Y-105245838D01*
X99362559Y-105384910D01*
X99314866Y-105454711D01*
X99278090Y-105397559D01*
X99065890Y-105252569D01*
X98814000Y-105201560D01*
X97614000Y-105201560D01*
X97378683Y-105245838D01*
X97162559Y-105384910D01*
X97057274Y-105539000D01*
X96774000Y-105539000D01*
X96483161Y-105596852D01*
X96370529Y-105672110D01*
X96236599Y-105761599D01*
X96126320Y-105871878D01*
X96080833Y-105871838D01*
X95737057Y-106013883D01*
X95473808Y-106276673D01*
X95342439Y-106593043D01*
X95272327Y-106522808D01*
X95074450Y-106440642D01*
X97951932Y-103563160D01*
X99325430Y-103563160D01*
X99560747Y-103518882D01*
X99776871Y-103379810D01*
X99921861Y-103167610D01*
X99972870Y-102915720D01*
X99972870Y-102799622D01*
X100030051Y-102811202D01*
G36*
X124595000Y-80232250D02*
X124753750Y-80391000D01*
X125603000Y-80391000D01*
X125603000Y-80371000D01*
X125857000Y-80371000D01*
X125857000Y-80391000D01*
X126706250Y-80391000D01*
X126865000Y-80232250D01*
X126865000Y-80137000D01*
X128229192Y-80137000D01*
X128069996Y-80295918D01*
X127805301Y-80933373D01*
X127804699Y-81623599D01*
X128068281Y-82261515D01*
X128555918Y-82750004D01*
X129193373Y-83014699D01*
X129883599Y-83015301D01*
X130521515Y-82751719D01*
X130683000Y-82590516D01*
X130683000Y-93185442D01*
X130474310Y-93099000D01*
X130333750Y-93099000D01*
X130175000Y-93257750D01*
X130175000Y-94107000D01*
X130195000Y-94107000D01*
X130195000Y-94361000D01*
X130175000Y-94361000D01*
X130175000Y-95210250D01*
X130333750Y-95369000D01*
X130474310Y-95369000D01*
X130683000Y-95282558D01*
X130683000Y-96147110D01*
X130331225Y-96146803D01*
X129913914Y-96319233D01*
X129594355Y-96638235D01*
X129474001Y-96928078D01*
X129474001Y-95307825D01*
X129621690Y-95369000D01*
X129762250Y-95369000D01*
X129921000Y-95210250D01*
X129921000Y-94361000D01*
X129901000Y-94361000D01*
X129901000Y-94107000D01*
X129921000Y-94107000D01*
X129921000Y-93257750D01*
X129762250Y-93099000D01*
X129621690Y-93099000D01*
X129388301Y-93195673D01*
X129216033Y-93367942D01*
X129161090Y-93282559D01*
X128948890Y-93137569D01*
X128697000Y-93086560D01*
X128097000Y-93086560D01*
X127861683Y-93130838D01*
X127645559Y-93269910D01*
X127500569Y-93482110D01*
X127466376Y-93650962D01*
X127440852Y-93689161D01*
X127383000Y-93980000D01*
X127440852Y-94270839D01*
X127449560Y-94283871D01*
X127449560Y-94734000D01*
X127493838Y-94969317D01*
X127632910Y-95185441D01*
X127684015Y-95220360D01*
X127694852Y-95274839D01*
X127859599Y-95521401D01*
X127954001Y-95615803D01*
X127954001Y-96147056D01*
X127664225Y-96146803D01*
X127246914Y-96319233D01*
X126927355Y-96638235D01*
X126754197Y-97055244D01*
X126753803Y-97506775D01*
X126926233Y-97924086D01*
X127245235Y-98243645D01*
X127662244Y-98416803D01*
X127954001Y-98417058D01*
X127954001Y-98948197D01*
X127859599Y-99042599D01*
X127694852Y-99289161D01*
X127684580Y-99340801D01*
X127645559Y-99365910D01*
X127500569Y-99578110D01*
X127449560Y-99830000D01*
X127449560Y-100202638D01*
X127417599Y-100234599D01*
X127252852Y-100481161D01*
X127195000Y-100772000D01*
X127195000Y-101877666D01*
X127119683Y-101891838D01*
X127052537Y-101935045D01*
X126814833Y-101934838D01*
X126617000Y-102016581D01*
X126617000Y-91209000D01*
X126559148Y-90918161D01*
X126559148Y-90918160D01*
X126394401Y-90671599D01*
X123652440Y-87929638D01*
X123652440Y-87802079D01*
X123666461Y-87811448D01*
X123957300Y-87869300D01*
X127857074Y-87869300D01*
X127915130Y-87959521D01*
X128127330Y-88104511D01*
X128379220Y-88155520D01*
X129176780Y-88155520D01*
X129412097Y-88111242D01*
X129628221Y-87972170D01*
X129773211Y-87759970D01*
X129824220Y-87508080D01*
X129824220Y-86710520D01*
X129779942Y-86475203D01*
X129713044Y-86371241D01*
X129715107Y-86369178D01*
X129811780Y-86135789D01*
X129811780Y-85896450D01*
X129653030Y-85737700D01*
X128905000Y-85737700D01*
X128905000Y-85757700D01*
X128651000Y-85757700D01*
X128651000Y-85737700D01*
X127902970Y-85737700D01*
X127744220Y-85896450D01*
X127744220Y-86135789D01*
X127832659Y-86349300D01*
X124272102Y-86349300D01*
X123652440Y-85729638D01*
X123652440Y-85085611D01*
X127744220Y-85085611D01*
X127744220Y-85324950D01*
X127902970Y-85483700D01*
X128651000Y-85483700D01*
X128651000Y-84735670D01*
X128905000Y-84735670D01*
X128905000Y-85483700D01*
X129653030Y-85483700D01*
X129811780Y-85324950D01*
X129811780Y-85085611D01*
X129715107Y-84852222D01*
X129536479Y-84673593D01*
X129303090Y-84576920D01*
X129063750Y-84576920D01*
X128905000Y-84735670D01*
X128651000Y-84735670D01*
X128492250Y-84576920D01*
X128252910Y-84576920D01*
X128019521Y-84673593D01*
X127840893Y-84852222D01*
X127744220Y-85085611D01*
X123652440Y-85085611D01*
X123652440Y-84957000D01*
X123608162Y-84721683D01*
X123469090Y-84505559D01*
X123256890Y-84360569D01*
X123005000Y-84309560D01*
X122105000Y-84309560D01*
X121869683Y-84353838D01*
X121653559Y-84492910D01*
X121508569Y-84705110D01*
X121457560Y-84957000D01*
X121457560Y-85434758D01*
X121276401Y-85253599D01*
X121029839Y-85088852D01*
X120739000Y-85031000D01*
X119610334Y-85031000D01*
X119596162Y-84955683D01*
X119457090Y-84739559D01*
X119244890Y-84594569D01*
X118993000Y-84543560D01*
X118243000Y-84543560D01*
X118007683Y-84587838D01*
X117791559Y-84726910D01*
X117738216Y-84804980D01*
X116482870Y-84804980D01*
X116482870Y-84790280D01*
X116438592Y-84554963D01*
X116299520Y-84338839D01*
X116087320Y-84193849D01*
X115835430Y-84142840D01*
X114215084Y-84142840D01*
X114218838Y-84133799D01*
X114219162Y-83761833D01*
X114077117Y-83418057D01*
X114070936Y-83411866D01*
X114291362Y-83191440D01*
X114839000Y-83191440D01*
X115074317Y-83147162D01*
X115177646Y-83080671D01*
X115179302Y-83082327D01*
X115412691Y-83179000D01*
X115853250Y-83179000D01*
X116012000Y-83020250D01*
X116012000Y-82296000D01*
X115992000Y-82296000D01*
X115992000Y-82228999D01*
X116286000Y-82228999D01*
X116286000Y-82296000D01*
X116266000Y-82296000D01*
X116266000Y-83020250D01*
X116424750Y-83179000D01*
X116865309Y-83179000D01*
X117098698Y-83082327D01*
X117277327Y-82903699D01*
X117374000Y-82670310D01*
X117374000Y-82454750D01*
X117215252Y-82296002D01*
X117374000Y-82296002D01*
X117374000Y-82228999D01*
X117869197Y-82228999D01*
X118346599Y-82706401D01*
X118593161Y-82871148D01*
X118644801Y-82881420D01*
X118669910Y-82920441D01*
X118882110Y-83065431D01*
X119134000Y-83116440D01*
X120134000Y-83116440D01*
X120369317Y-83072162D01*
X120585441Y-82933090D01*
X120730431Y-82720890D01*
X120781440Y-82469000D01*
X120781440Y-82379000D01*
X121576780Y-82379000D01*
X121547197Y-82450244D01*
X121546803Y-82901775D01*
X121719233Y-83319086D01*
X122038235Y-83638645D01*
X122455244Y-83811803D01*
X122906775Y-83812197D01*
X123324086Y-83639767D01*
X123643645Y-83320765D01*
X123816803Y-82903756D01*
X123817197Y-82452225D01*
X123786941Y-82379000D01*
X124115198Y-82379000D01*
X124442599Y-82706401D01*
X124689161Y-82871148D01*
X124740801Y-82881420D01*
X124765910Y-82920441D01*
X124978110Y-83065431D01*
X125230000Y-83116440D01*
X126230000Y-83116440D01*
X126465317Y-83072162D01*
X126681441Y-82933090D01*
X126826431Y-82720890D01*
X126877440Y-82469000D01*
X126877440Y-81869000D01*
X126833162Y-81633683D01*
X126694090Y-81417559D01*
X126595696Y-81350329D01*
X126768327Y-81177699D01*
X126865000Y-80944310D01*
X126865000Y-80803750D01*
X126706250Y-80645000D01*
X125857000Y-80645000D01*
X125857000Y-80665000D01*
X125603000Y-80665000D01*
X125603000Y-80645000D01*
X124753750Y-80645000D01*
X124607441Y-80791309D01*
X124570838Y-80766851D01*
X124279999Y-80708999D01*
X123989160Y-80766851D01*
X123851249Y-80859000D01*
X123438052Y-80859000D01*
X123643645Y-80653765D01*
X123816803Y-80236756D01*
X123816890Y-80137000D01*
X124595000Y-80137000D01*
X124595000Y-80232250D01*
X124595000Y-80232250D01*
G37*
X124595000Y-80232250D02*
X124753750Y-80391000D01*
X125603000Y-80391000D01*
X125603000Y-80371000D01*
X125857000Y-80371000D01*
X125857000Y-80391000D01*
X126706250Y-80391000D01*
X126865000Y-80232250D01*
X126865000Y-80137000D01*
X128229192Y-80137000D01*
X128069996Y-80295918D01*
X127805301Y-80933373D01*
X127804699Y-81623599D01*
X128068281Y-82261515D01*
X128555918Y-82750004D01*
X129193373Y-83014699D01*
X129883599Y-83015301D01*
X130521515Y-82751719D01*
X130683000Y-82590516D01*
X130683000Y-93185442D01*
X130474310Y-93099000D01*
X130333750Y-93099000D01*
X130175000Y-93257750D01*
X130175000Y-94107000D01*
X130195000Y-94107000D01*
X130195000Y-94361000D01*
X130175000Y-94361000D01*
X130175000Y-95210250D01*
X130333750Y-95369000D01*
X130474310Y-95369000D01*
X130683000Y-95282558D01*
X130683000Y-96147110D01*
X130331225Y-96146803D01*
X129913914Y-96319233D01*
X129594355Y-96638235D01*
X129474001Y-96928078D01*
X129474001Y-95307825D01*
X129621690Y-95369000D01*
X129762250Y-95369000D01*
X129921000Y-95210250D01*
X129921000Y-94361000D01*
X129901000Y-94361000D01*
X129901000Y-94107000D01*
X129921000Y-94107000D01*
X129921000Y-93257750D01*
X129762250Y-93099000D01*
X129621690Y-93099000D01*
X129388301Y-93195673D01*
X129216033Y-93367942D01*
X129161090Y-93282559D01*
X128948890Y-93137569D01*
X128697000Y-93086560D01*
X128097000Y-93086560D01*
X127861683Y-93130838D01*
X127645559Y-93269910D01*
X127500569Y-93482110D01*
X127466376Y-93650962D01*
X127440852Y-93689161D01*
X127383000Y-93980000D01*
X127440852Y-94270839D01*
X127449560Y-94283871D01*
X127449560Y-94734000D01*
X127493838Y-94969317D01*
X127632910Y-95185441D01*
X127684015Y-95220360D01*
X127694852Y-95274839D01*
X127859599Y-95521401D01*
X127954001Y-95615803D01*
X127954001Y-96147056D01*
X127664225Y-96146803D01*
X127246914Y-96319233D01*
X126927355Y-96638235D01*
X126754197Y-97055244D01*
X126753803Y-97506775D01*
X126926233Y-97924086D01*
X127245235Y-98243645D01*
X127662244Y-98416803D01*
X127954001Y-98417058D01*
X127954001Y-98948197D01*
X127859599Y-99042599D01*
X127694852Y-99289161D01*
X127684580Y-99340801D01*
X127645559Y-99365910D01*
X127500569Y-99578110D01*
X127449560Y-99830000D01*
X127449560Y-100202638D01*
X127417599Y-100234599D01*
X127252852Y-100481161D01*
X127195000Y-100772000D01*
X127195000Y-101877666D01*
X127119683Y-101891838D01*
X127052537Y-101935045D01*
X126814833Y-101934838D01*
X126617000Y-102016581D01*
X126617000Y-91209000D01*
X126559148Y-90918161D01*
X126559148Y-90918160D01*
X126394401Y-90671599D01*
X123652440Y-87929638D01*
X123652440Y-87802079D01*
X123666461Y-87811448D01*
X123957300Y-87869300D01*
X127857074Y-87869300D01*
X127915130Y-87959521D01*
X128127330Y-88104511D01*
X128379220Y-88155520D01*
X129176780Y-88155520D01*
X129412097Y-88111242D01*
X129628221Y-87972170D01*
X129773211Y-87759970D01*
X129824220Y-87508080D01*
X129824220Y-86710520D01*
X129779942Y-86475203D01*
X129713044Y-86371241D01*
X129715107Y-86369178D01*
X129811780Y-86135789D01*
X129811780Y-85896450D01*
X129653030Y-85737700D01*
X128905000Y-85737700D01*
X128905000Y-85757700D01*
X128651000Y-85757700D01*
X128651000Y-85737700D01*
X127902970Y-85737700D01*
X127744220Y-85896450D01*
X127744220Y-86135789D01*
X127832659Y-86349300D01*
X124272102Y-86349300D01*
X123652440Y-85729638D01*
X123652440Y-85085611D01*
X127744220Y-85085611D01*
X127744220Y-85324950D01*
X127902970Y-85483700D01*
X128651000Y-85483700D01*
X128651000Y-84735670D01*
X128905000Y-84735670D01*
X128905000Y-85483700D01*
X129653030Y-85483700D01*
X129811780Y-85324950D01*
X129811780Y-85085611D01*
X129715107Y-84852222D01*
X129536479Y-84673593D01*
X129303090Y-84576920D01*
X129063750Y-84576920D01*
X128905000Y-84735670D01*
X128651000Y-84735670D01*
X128492250Y-84576920D01*
X128252910Y-84576920D01*
X128019521Y-84673593D01*
X127840893Y-84852222D01*
X127744220Y-85085611D01*
X123652440Y-85085611D01*
X123652440Y-84957000D01*
X123608162Y-84721683D01*
X123469090Y-84505559D01*
X123256890Y-84360569D01*
X123005000Y-84309560D01*
X122105000Y-84309560D01*
X121869683Y-84353838D01*
X121653559Y-84492910D01*
X121508569Y-84705110D01*
X121457560Y-84957000D01*
X121457560Y-85434758D01*
X121276401Y-85253599D01*
X121029839Y-85088852D01*
X120739000Y-85031000D01*
X119610334Y-85031000D01*
X119596162Y-84955683D01*
X119457090Y-84739559D01*
X119244890Y-84594569D01*
X118993000Y-84543560D01*
X118243000Y-84543560D01*
X118007683Y-84587838D01*
X117791559Y-84726910D01*
X117738216Y-84804980D01*
X116482870Y-84804980D01*
X116482870Y-84790280D01*
X116438592Y-84554963D01*
X116299520Y-84338839D01*
X116087320Y-84193849D01*
X115835430Y-84142840D01*
X114215084Y-84142840D01*
X114218838Y-84133799D01*
X114219162Y-83761833D01*
X114077117Y-83418057D01*
X114070936Y-83411866D01*
X114291362Y-83191440D01*
X114839000Y-83191440D01*
X115074317Y-83147162D01*
X115177646Y-83080671D01*
X115179302Y-83082327D01*
X115412691Y-83179000D01*
X115853250Y-83179000D01*
X116012000Y-83020250D01*
X116012000Y-82296000D01*
X115992000Y-82296000D01*
X115992000Y-82228999D01*
X116286000Y-82228999D01*
X116286000Y-82296000D01*
X116266000Y-82296000D01*
X116266000Y-83020250D01*
X116424750Y-83179000D01*
X116865309Y-83179000D01*
X117098698Y-83082327D01*
X117277327Y-82903699D01*
X117374000Y-82670310D01*
X117374000Y-82454750D01*
X117215252Y-82296002D01*
X117374000Y-82296002D01*
X117374000Y-82228999D01*
X117869197Y-82228999D01*
X118346599Y-82706401D01*
X118593161Y-82871148D01*
X118644801Y-82881420D01*
X118669910Y-82920441D01*
X118882110Y-83065431D01*
X119134000Y-83116440D01*
X120134000Y-83116440D01*
X120369317Y-83072162D01*
X120585441Y-82933090D01*
X120730431Y-82720890D01*
X120781440Y-82469000D01*
X120781440Y-82379000D01*
X121576780Y-82379000D01*
X121547197Y-82450244D01*
X121546803Y-82901775D01*
X121719233Y-83319086D01*
X122038235Y-83638645D01*
X122455244Y-83811803D01*
X122906775Y-83812197D01*
X123324086Y-83639767D01*
X123643645Y-83320765D01*
X123816803Y-82903756D01*
X123817197Y-82452225D01*
X123786941Y-82379000D01*
X124115198Y-82379000D01*
X124442599Y-82706401D01*
X124689161Y-82871148D01*
X124740801Y-82881420D01*
X124765910Y-82920441D01*
X124978110Y-83065431D01*
X125230000Y-83116440D01*
X126230000Y-83116440D01*
X126465317Y-83072162D01*
X126681441Y-82933090D01*
X126826431Y-82720890D01*
X126877440Y-82469000D01*
X126877440Y-81869000D01*
X126833162Y-81633683D01*
X126694090Y-81417559D01*
X126595696Y-81350329D01*
X126768327Y-81177699D01*
X126865000Y-80944310D01*
X126865000Y-80803750D01*
X126706250Y-80645000D01*
X125857000Y-80645000D01*
X125857000Y-80665000D01*
X125603000Y-80665000D01*
X125603000Y-80645000D01*
X124753750Y-80645000D01*
X124607441Y-80791309D01*
X124570838Y-80766851D01*
X124279999Y-80708999D01*
X123989160Y-80766851D01*
X123851249Y-80859000D01*
X123438052Y-80859000D01*
X123643645Y-80653765D01*
X123816803Y-80236756D01*
X123816890Y-80137000D01*
X124595000Y-80137000D01*
X124595000Y-80232250D01*
G36*
X101361599Y-97184401D02*
X101608161Y-97349148D01*
X101899000Y-97407000D01*
X103712890Y-97407000D01*
X103712838Y-97467167D01*
X103854883Y-97810943D01*
X103973293Y-97929560D01*
X103259000Y-97929560D01*
X103023683Y-97973838D01*
X102807559Y-98112910D01*
X102662569Y-98325110D01*
X102611560Y-98577000D01*
X102611560Y-99027000D01*
X102631067Y-99130671D01*
X102611560Y-99227000D01*
X102611560Y-99677000D01*
X102631067Y-99780671D01*
X102611560Y-99877000D01*
X102611560Y-100327000D01*
X102631067Y-100430671D01*
X102611560Y-100527000D01*
X102611560Y-100850853D01*
X102557000Y-100840000D01*
X101576334Y-100840000D01*
X101562162Y-100764683D01*
X101495671Y-100661354D01*
X101497327Y-100659698D01*
X101594000Y-100426309D01*
X101594000Y-99985750D01*
X101435250Y-99827000D01*
X100711000Y-99827000D01*
X100711000Y-99847000D01*
X100457000Y-99847000D01*
X100457000Y-99827000D01*
X99732750Y-99827000D01*
X99643770Y-99915980D01*
X98552000Y-99915980D01*
X98552000Y-99935980D01*
X98298000Y-99935980D01*
X98298000Y-99915980D01*
X98278000Y-99915980D01*
X98278000Y-99661980D01*
X98298000Y-99661980D01*
X98298000Y-99641980D01*
X98552000Y-99641980D01*
X98552000Y-99661980D01*
X99801680Y-99661980D01*
X99890660Y-99573000D01*
X100457000Y-99573000D01*
X100457000Y-98623750D01*
X100711000Y-98623750D01*
X100711000Y-99573000D01*
X101435250Y-99573000D01*
X101594000Y-99414250D01*
X101594000Y-98973691D01*
X101497327Y-98740302D01*
X101318699Y-98561673D01*
X101085310Y-98465000D01*
X100869750Y-98465000D01*
X100711000Y-98623750D01*
X100457000Y-98623750D01*
X100344503Y-98511253D01*
X100477943Y-98456117D01*
X100741192Y-98193327D01*
X100883838Y-97849799D01*
X100884162Y-97477833D01*
X100742117Y-97134057D01*
X100479327Y-96870808D01*
X100135799Y-96728162D01*
X99763833Y-96727838D01*
X99623502Y-96785821D01*
X99593090Y-96738559D01*
X99523289Y-96690866D01*
X99580441Y-96654090D01*
X99725431Y-96441890D01*
X99776440Y-96190000D01*
X99776440Y-95599242D01*
X101361599Y-97184401D01*
X101361599Y-97184401D01*
G37*
X101361599Y-97184401D02*
X101608161Y-97349148D01*
X101899000Y-97407000D01*
X103712890Y-97407000D01*
X103712838Y-97467167D01*
X103854883Y-97810943D01*
X103973293Y-97929560D01*
X103259000Y-97929560D01*
X103023683Y-97973838D01*
X102807559Y-98112910D01*
X102662569Y-98325110D01*
X102611560Y-98577000D01*
X102611560Y-99027000D01*
X102631067Y-99130671D01*
X102611560Y-99227000D01*
X102611560Y-99677000D01*
X102631067Y-99780671D01*
X102611560Y-99877000D01*
X102611560Y-100327000D01*
X102631067Y-100430671D01*
X102611560Y-100527000D01*
X102611560Y-100850853D01*
X102557000Y-100840000D01*
X101576334Y-100840000D01*
X101562162Y-100764683D01*
X101495671Y-100661354D01*
X101497327Y-100659698D01*
X101594000Y-100426309D01*
X101594000Y-99985750D01*
X101435250Y-99827000D01*
X100711000Y-99827000D01*
X100711000Y-99847000D01*
X100457000Y-99847000D01*
X100457000Y-99827000D01*
X99732750Y-99827000D01*
X99643770Y-99915980D01*
X98552000Y-99915980D01*
X98552000Y-99935980D01*
X98298000Y-99935980D01*
X98298000Y-99915980D01*
X98278000Y-99915980D01*
X98278000Y-99661980D01*
X98298000Y-99661980D01*
X98298000Y-99641980D01*
X98552000Y-99641980D01*
X98552000Y-99661980D01*
X99801680Y-99661980D01*
X99890660Y-99573000D01*
X100457000Y-99573000D01*
X100457000Y-98623750D01*
X100711000Y-98623750D01*
X100711000Y-99573000D01*
X101435250Y-99573000D01*
X101594000Y-99414250D01*
X101594000Y-98973691D01*
X101497327Y-98740302D01*
X101318699Y-98561673D01*
X101085310Y-98465000D01*
X100869750Y-98465000D01*
X100711000Y-98623750D01*
X100457000Y-98623750D01*
X100344503Y-98511253D01*
X100477943Y-98456117D01*
X100741192Y-98193327D01*
X100883838Y-97849799D01*
X100884162Y-97477833D01*
X100742117Y-97134057D01*
X100479327Y-96870808D01*
X100135799Y-96728162D01*
X99763833Y-96727838D01*
X99623502Y-96785821D01*
X99593090Y-96738559D01*
X99523289Y-96690866D01*
X99580441Y-96654090D01*
X99725431Y-96441890D01*
X99776440Y-96190000D01*
X99776440Y-95599242D01*
X101361599Y-97184401D01*
G36*
X113387130Y-86339680D02*
X113431408Y-86574997D01*
X113538086Y-86740779D01*
X113496243Y-86782622D01*
X113399570Y-87016011D01*
X113399570Y-87631270D01*
X113558320Y-87790020D01*
X114808000Y-87790020D01*
X114808000Y-87770020D01*
X115062000Y-87770020D01*
X115062000Y-87790020D01*
X116311680Y-87790020D01*
X116470430Y-87631270D01*
X116470430Y-87016011D01*
X116373757Y-86782622D01*
X116330724Y-86739589D01*
X116431861Y-86591570D01*
X116482870Y-86339680D01*
X116482870Y-86324980D01*
X117595560Y-86324980D01*
X117595560Y-86391000D01*
X117639838Y-86626317D01*
X117706329Y-86729646D01*
X117704673Y-86731302D01*
X117608000Y-86964691D01*
X117608000Y-87405250D01*
X117766750Y-87564000D01*
X118491000Y-87564000D01*
X118491000Y-87544000D01*
X118745000Y-87544000D01*
X118745000Y-87564000D01*
X119469250Y-87564000D01*
X119628000Y-87405250D01*
X119628000Y-86964691D01*
X119531327Y-86731302D01*
X119529957Y-86729932D01*
X119589431Y-86642890D01*
X119608039Y-86551000D01*
X120424198Y-86551000D01*
X121205198Y-87332000D01*
X114778599Y-93758599D01*
X114613852Y-94005161D01*
X114556000Y-94296000D01*
X114556000Y-97178666D01*
X114480683Y-97192838D01*
X114264559Y-97331910D01*
X114119569Y-97544110D01*
X114068560Y-97796000D01*
X114068560Y-98546000D01*
X114112838Y-98781317D01*
X114168844Y-98868354D01*
X113912978Y-99124220D01*
X113917000Y-99104000D01*
X113917000Y-94034463D01*
X113949192Y-94002327D01*
X114091838Y-93658799D01*
X114092162Y-93286833D01*
X113950117Y-92943057D01*
X113687327Y-92679808D01*
X113343799Y-92537162D01*
X112971833Y-92536838D01*
X112628057Y-92678883D01*
X112364808Y-92941673D01*
X112222162Y-93285201D01*
X112221838Y-93657167D01*
X112363883Y-94000943D01*
X112397000Y-94034118D01*
X112397000Y-98789198D01*
X111256440Y-99929758D01*
X111256440Y-99877000D01*
X111236933Y-99773329D01*
X111256440Y-99677000D01*
X111256440Y-99227000D01*
X111236933Y-99123329D01*
X111256440Y-99027000D01*
X111256440Y-98577000D01*
X111212162Y-98341683D01*
X111073090Y-98125559D01*
X110860890Y-97980569D01*
X110609000Y-97929560D01*
X109159000Y-97929560D01*
X108944327Y-97969953D01*
X108861327Y-97886808D01*
X108517799Y-97744162D01*
X108145833Y-97743838D01*
X107802057Y-97885883D01*
X107635726Y-98051924D01*
X105693401Y-96109599D01*
X105446839Y-95944852D01*
X105156000Y-95887000D01*
X102213802Y-95887000D01*
X100923992Y-94597190D01*
X101112943Y-94519117D01*
X101376192Y-94256327D01*
X101518838Y-93912799D01*
X101519162Y-93540833D01*
X101377117Y-93197057D01*
X101114327Y-92933808D01*
X100770799Y-92791162D01*
X100723923Y-92791121D01*
X99448837Y-91516035D01*
X99452414Y-91516746D01*
X99695000Y-91565000D01*
X101884895Y-91565000D01*
X101975910Y-91706441D01*
X102188110Y-91851431D01*
X102440000Y-91902440D01*
X103640000Y-91902440D01*
X103875317Y-91858162D01*
X104091441Y-91719090D01*
X104139134Y-91649289D01*
X104175910Y-91706441D01*
X104388110Y-91851431D01*
X104640000Y-91902440D01*
X105840000Y-91902440D01*
X106075317Y-91858162D01*
X106291441Y-91719090D01*
X106396726Y-91565000D01*
X106470000Y-91565000D01*
X106760839Y-91507148D01*
X107007401Y-91342401D01*
X109800401Y-88549401D01*
X109908433Y-88387720D01*
X110028317Y-88365162D01*
X110244441Y-88226090D01*
X110364233Y-88050768D01*
X110468910Y-88213441D01*
X110681110Y-88358431D01*
X110933000Y-88409440D01*
X111993000Y-88409440D01*
X112228317Y-88365162D01*
X112444441Y-88226090D01*
X112460374Y-88202770D01*
X113399570Y-88202770D01*
X113399570Y-88818029D01*
X113496243Y-89051418D01*
X113674871Y-89230047D01*
X113908260Y-89326720D01*
X114649250Y-89326720D01*
X114808000Y-89167970D01*
X114808000Y-88044020D01*
X115062000Y-88044020D01*
X115062000Y-89167970D01*
X115220750Y-89326720D01*
X115961740Y-89326720D01*
X116195129Y-89230047D01*
X116373757Y-89051418D01*
X116470430Y-88818029D01*
X116470430Y-88202770D01*
X116311680Y-88044020D01*
X115062000Y-88044020D01*
X114808000Y-88044020D01*
X113558320Y-88044020D01*
X113399570Y-88202770D01*
X112460374Y-88202770D01*
X112589431Y-88013890D01*
X112596952Y-87976750D01*
X117608000Y-87976750D01*
X117608000Y-88417309D01*
X117704673Y-88650698D01*
X117883301Y-88829327D01*
X118116690Y-88926000D01*
X118332250Y-88926000D01*
X118491000Y-88767250D01*
X118491000Y-87818000D01*
X118745000Y-87818000D01*
X118745000Y-88767250D01*
X118903750Y-88926000D01*
X119119310Y-88926000D01*
X119352699Y-88829327D01*
X119531327Y-88650698D01*
X119628000Y-88417309D01*
X119628000Y-87976750D01*
X119469250Y-87818000D01*
X118745000Y-87818000D01*
X118491000Y-87818000D01*
X117766750Y-87818000D01*
X117608000Y-87976750D01*
X112596952Y-87976750D01*
X112640440Y-87762000D01*
X112640440Y-87112000D01*
X112596162Y-86876683D01*
X112457090Y-86660559D01*
X112244890Y-86515569D01*
X112107880Y-86487824D01*
X112228317Y-86465162D01*
X112444441Y-86326090D01*
X112464317Y-86297000D01*
X113387130Y-86297000D01*
X113387130Y-86339680D01*
X113387130Y-86339680D01*
G37*
X113387130Y-86339680D02*
X113431408Y-86574997D01*
X113538086Y-86740779D01*
X113496243Y-86782622D01*
X113399570Y-87016011D01*
X113399570Y-87631270D01*
X113558320Y-87790020D01*
X114808000Y-87790020D01*
X114808000Y-87770020D01*
X115062000Y-87770020D01*
X115062000Y-87790020D01*
X116311680Y-87790020D01*
X116470430Y-87631270D01*
X116470430Y-87016011D01*
X116373757Y-86782622D01*
X116330724Y-86739589D01*
X116431861Y-86591570D01*
X116482870Y-86339680D01*
X116482870Y-86324980D01*
X117595560Y-86324980D01*
X117595560Y-86391000D01*
X117639838Y-86626317D01*
X117706329Y-86729646D01*
X117704673Y-86731302D01*
X117608000Y-86964691D01*
X117608000Y-87405250D01*
X117766750Y-87564000D01*
X118491000Y-87564000D01*
X118491000Y-87544000D01*
X118745000Y-87544000D01*
X118745000Y-87564000D01*
X119469250Y-87564000D01*
X119628000Y-87405250D01*
X119628000Y-86964691D01*
X119531327Y-86731302D01*
X119529957Y-86729932D01*
X119589431Y-86642890D01*
X119608039Y-86551000D01*
X120424198Y-86551000D01*
X121205198Y-87332000D01*
X114778599Y-93758599D01*
X114613852Y-94005161D01*
X114556000Y-94296000D01*
X114556000Y-97178666D01*
X114480683Y-97192838D01*
X114264559Y-97331910D01*
X114119569Y-97544110D01*
X114068560Y-97796000D01*
X114068560Y-98546000D01*
X114112838Y-98781317D01*
X114168844Y-98868354D01*
X113912978Y-99124220D01*
X113917000Y-99104000D01*
X113917000Y-94034463D01*
X113949192Y-94002327D01*
X114091838Y-93658799D01*
X114092162Y-93286833D01*
X113950117Y-92943057D01*
X113687327Y-92679808D01*
X113343799Y-92537162D01*
X112971833Y-92536838D01*
X112628057Y-92678883D01*
X112364808Y-92941673D01*
X112222162Y-93285201D01*
X112221838Y-93657167D01*
X112363883Y-94000943D01*
X112397000Y-94034118D01*
X112397000Y-98789198D01*
X111256440Y-99929758D01*
X111256440Y-99877000D01*
X111236933Y-99773329D01*
X111256440Y-99677000D01*
X111256440Y-99227000D01*
X111236933Y-99123329D01*
X111256440Y-99027000D01*
X111256440Y-98577000D01*
X111212162Y-98341683D01*
X111073090Y-98125559D01*
X110860890Y-97980569D01*
X110609000Y-97929560D01*
X109159000Y-97929560D01*
X108944327Y-97969953D01*
X108861327Y-97886808D01*
X108517799Y-97744162D01*
X108145833Y-97743838D01*
X107802057Y-97885883D01*
X107635726Y-98051924D01*
X105693401Y-96109599D01*
X105446839Y-95944852D01*
X105156000Y-95887000D01*
X102213802Y-95887000D01*
X100923992Y-94597190D01*
X101112943Y-94519117D01*
X101376192Y-94256327D01*
X101518838Y-93912799D01*
X101519162Y-93540833D01*
X101377117Y-93197057D01*
X101114327Y-92933808D01*
X100770799Y-92791162D01*
X100723923Y-92791121D01*
X99448837Y-91516035D01*
X99452414Y-91516746D01*
X99695000Y-91565000D01*
X101884895Y-91565000D01*
X101975910Y-91706441D01*
X102188110Y-91851431D01*
X102440000Y-91902440D01*
X103640000Y-91902440D01*
X103875317Y-91858162D01*
X104091441Y-91719090D01*
X104139134Y-91649289D01*
X104175910Y-91706441D01*
X104388110Y-91851431D01*
X104640000Y-91902440D01*
X105840000Y-91902440D01*
X106075317Y-91858162D01*
X106291441Y-91719090D01*
X106396726Y-91565000D01*
X106470000Y-91565000D01*
X106760839Y-91507148D01*
X107007401Y-91342401D01*
X109800401Y-88549401D01*
X109908433Y-88387720D01*
X110028317Y-88365162D01*
X110244441Y-88226090D01*
X110364233Y-88050768D01*
X110468910Y-88213441D01*
X110681110Y-88358431D01*
X110933000Y-88409440D01*
X111993000Y-88409440D01*
X112228317Y-88365162D01*
X112444441Y-88226090D01*
X112460374Y-88202770D01*
X113399570Y-88202770D01*
X113399570Y-88818029D01*
X113496243Y-89051418D01*
X113674871Y-89230047D01*
X113908260Y-89326720D01*
X114649250Y-89326720D01*
X114808000Y-89167970D01*
X114808000Y-88044020D01*
X115062000Y-88044020D01*
X115062000Y-89167970D01*
X115220750Y-89326720D01*
X115961740Y-89326720D01*
X116195129Y-89230047D01*
X116373757Y-89051418D01*
X116470430Y-88818029D01*
X116470430Y-88202770D01*
X116311680Y-88044020D01*
X115062000Y-88044020D01*
X114808000Y-88044020D01*
X113558320Y-88044020D01*
X113399570Y-88202770D01*
X112460374Y-88202770D01*
X112589431Y-88013890D01*
X112596952Y-87976750D01*
X117608000Y-87976750D01*
X117608000Y-88417309D01*
X117704673Y-88650698D01*
X117883301Y-88829327D01*
X118116690Y-88926000D01*
X118332250Y-88926000D01*
X118491000Y-88767250D01*
X118491000Y-87818000D01*
X118745000Y-87818000D01*
X118745000Y-88767250D01*
X118903750Y-88926000D01*
X119119310Y-88926000D01*
X119352699Y-88829327D01*
X119531327Y-88650698D01*
X119628000Y-88417309D01*
X119628000Y-87976750D01*
X119469250Y-87818000D01*
X118745000Y-87818000D01*
X118491000Y-87818000D01*
X117766750Y-87818000D01*
X117608000Y-87976750D01*
X112596952Y-87976750D01*
X112640440Y-87762000D01*
X112640440Y-87112000D01*
X112596162Y-86876683D01*
X112457090Y-86660559D01*
X112244890Y-86515569D01*
X112107880Y-86487824D01*
X112228317Y-86465162D01*
X112444441Y-86326090D01*
X112464317Y-86297000D01*
X113387130Y-86297000D01*
X113387130Y-86339680D01*
G36*
X108098000Y-86614002D02*
X108256748Y-86614002D01*
X108098000Y-86772750D01*
X108098000Y-86938310D01*
X108113268Y-86975171D01*
X108085560Y-87112000D01*
X108085560Y-87762000D01*
X108129838Y-87997317D01*
X108158437Y-88041761D01*
X106299663Y-89900535D01*
X106091890Y-89758569D01*
X105840000Y-89707560D01*
X104640000Y-89707560D01*
X104404683Y-89751838D01*
X104188559Y-89890910D01*
X104140866Y-89960711D01*
X104104090Y-89903559D01*
X103891890Y-89758569D01*
X103640000Y-89707560D01*
X102440000Y-89707560D01*
X102204683Y-89751838D01*
X101988559Y-89890910D01*
X101883274Y-90045000D01*
X100009802Y-90045000D01*
X98195552Y-88230750D01*
X100971000Y-88230750D01*
X100971000Y-88671309D01*
X101067673Y-88904698D01*
X101246301Y-89083327D01*
X101479690Y-89180000D01*
X101695250Y-89180000D01*
X101854000Y-89021250D01*
X101854000Y-88072000D01*
X102108000Y-88072000D01*
X102108000Y-89021250D01*
X102266750Y-89180000D01*
X102482310Y-89180000D01*
X102715699Y-89083327D01*
X102894327Y-88904698D01*
X102991000Y-88671309D01*
X102991000Y-88362790D01*
X104001570Y-88362790D01*
X104001570Y-88978049D01*
X104098243Y-89211438D01*
X104276871Y-89390067D01*
X104510260Y-89486740D01*
X105251250Y-89486740D01*
X105410000Y-89327990D01*
X105410000Y-88204040D01*
X105664000Y-88204040D01*
X105664000Y-89327990D01*
X105822750Y-89486740D01*
X106563740Y-89486740D01*
X106797129Y-89390067D01*
X106975757Y-89211438D01*
X107072430Y-88978049D01*
X107072430Y-88362790D01*
X106913680Y-88204040D01*
X105664000Y-88204040D01*
X105410000Y-88204040D01*
X104160320Y-88204040D01*
X104001570Y-88362790D01*
X102991000Y-88362790D01*
X102991000Y-88230750D01*
X102832250Y-88072000D01*
X102108000Y-88072000D01*
X101854000Y-88072000D01*
X101129750Y-88072000D01*
X100971000Y-88230750D01*
X98195552Y-88230750D01*
X98090122Y-88125320D01*
X98090162Y-88079833D01*
X98014617Y-87897000D01*
X99020511Y-87897000D01*
X99037673Y-87914192D01*
X99381201Y-88056838D01*
X99753167Y-88057162D01*
X100096943Y-87915117D01*
X100360192Y-87652327D01*
X100502838Y-87308799D01*
X100502860Y-87283156D01*
X100966016Y-86820000D01*
X100991489Y-86820000D01*
X101002838Y-86880317D01*
X101069329Y-86983646D01*
X101067673Y-86985302D01*
X100971000Y-87218691D01*
X100971000Y-87659250D01*
X101129750Y-87818000D01*
X101854000Y-87818000D01*
X101854000Y-87798000D01*
X102108000Y-87798000D01*
X102108000Y-87818000D01*
X102832250Y-87818000D01*
X102991000Y-87659250D01*
X102991000Y-87218691D01*
X102894327Y-86985302D01*
X102892957Y-86983932D01*
X102952431Y-86896890D01*
X102968002Y-86820000D01*
X104088093Y-86820000D01*
X104140086Y-86900799D01*
X104098243Y-86942642D01*
X104001570Y-87176031D01*
X104001570Y-87791290D01*
X104160320Y-87950040D01*
X105410000Y-87950040D01*
X105410000Y-87930040D01*
X105664000Y-87930040D01*
X105664000Y-87950040D01*
X106913680Y-87950040D01*
X107072430Y-87791290D01*
X107072430Y-87176031D01*
X106975757Y-86942642D01*
X106932724Y-86899609D01*
X107033861Y-86751590D01*
X107084809Y-86500000D01*
X108098000Y-86500000D01*
X108098000Y-86614002D01*
X108098000Y-86614002D01*
G37*
X108098000Y-86614002D02*
X108256748Y-86614002D01*
X108098000Y-86772750D01*
X108098000Y-86938310D01*
X108113268Y-86975171D01*
X108085560Y-87112000D01*
X108085560Y-87762000D01*
X108129838Y-87997317D01*
X108158437Y-88041761D01*
X106299663Y-89900535D01*
X106091890Y-89758569D01*
X105840000Y-89707560D01*
X104640000Y-89707560D01*
X104404683Y-89751838D01*
X104188559Y-89890910D01*
X104140866Y-89960711D01*
X104104090Y-89903559D01*
X103891890Y-89758569D01*
X103640000Y-89707560D01*
X102440000Y-89707560D01*
X102204683Y-89751838D01*
X101988559Y-89890910D01*
X101883274Y-90045000D01*
X100009802Y-90045000D01*
X98195552Y-88230750D01*
X100971000Y-88230750D01*
X100971000Y-88671309D01*
X101067673Y-88904698D01*
X101246301Y-89083327D01*
X101479690Y-89180000D01*
X101695250Y-89180000D01*
X101854000Y-89021250D01*
X101854000Y-88072000D01*
X102108000Y-88072000D01*
X102108000Y-89021250D01*
X102266750Y-89180000D01*
X102482310Y-89180000D01*
X102715699Y-89083327D01*
X102894327Y-88904698D01*
X102991000Y-88671309D01*
X102991000Y-88362790D01*
X104001570Y-88362790D01*
X104001570Y-88978049D01*
X104098243Y-89211438D01*
X104276871Y-89390067D01*
X104510260Y-89486740D01*
X105251250Y-89486740D01*
X105410000Y-89327990D01*
X105410000Y-88204040D01*
X105664000Y-88204040D01*
X105664000Y-89327990D01*
X105822750Y-89486740D01*
X106563740Y-89486740D01*
X106797129Y-89390067D01*
X106975757Y-89211438D01*
X107072430Y-88978049D01*
X107072430Y-88362790D01*
X106913680Y-88204040D01*
X105664000Y-88204040D01*
X105410000Y-88204040D01*
X104160320Y-88204040D01*
X104001570Y-88362790D01*
X102991000Y-88362790D01*
X102991000Y-88230750D01*
X102832250Y-88072000D01*
X102108000Y-88072000D01*
X101854000Y-88072000D01*
X101129750Y-88072000D01*
X100971000Y-88230750D01*
X98195552Y-88230750D01*
X98090122Y-88125320D01*
X98090162Y-88079833D01*
X98014617Y-87897000D01*
X99020511Y-87897000D01*
X99037673Y-87914192D01*
X99381201Y-88056838D01*
X99753167Y-88057162D01*
X100096943Y-87915117D01*
X100360192Y-87652327D01*
X100502838Y-87308799D01*
X100502860Y-87283156D01*
X100966016Y-86820000D01*
X100991489Y-86820000D01*
X101002838Y-86880317D01*
X101069329Y-86983646D01*
X101067673Y-86985302D01*
X100971000Y-87218691D01*
X100971000Y-87659250D01*
X101129750Y-87818000D01*
X101854000Y-87818000D01*
X101854000Y-87798000D01*
X102108000Y-87798000D01*
X102108000Y-87818000D01*
X102832250Y-87818000D01*
X102991000Y-87659250D01*
X102991000Y-87218691D01*
X102894327Y-86985302D01*
X102892957Y-86983932D01*
X102952431Y-86896890D01*
X102968002Y-86820000D01*
X104088093Y-86820000D01*
X104140086Y-86900799D01*
X104098243Y-86942642D01*
X104001570Y-87176031D01*
X104001570Y-87791290D01*
X104160320Y-87950040D01*
X105410000Y-87950040D01*
X105410000Y-87930040D01*
X105664000Y-87930040D01*
X105664000Y-87950040D01*
X106913680Y-87950040D01*
X107072430Y-87791290D01*
X107072430Y-87176031D01*
X106975757Y-86942642D01*
X106932724Y-86899609D01*
X107033861Y-86751590D01*
X107084809Y-86500000D01*
X108098000Y-86500000D01*
X108098000Y-86614002D01*
G36*
X91399992Y-85892008D02*
X91651420Y-86060007D01*
X91700626Y-86069795D01*
X91948000Y-86119001D01*
X91948005Y-86119000D01*
X93277984Y-86119000D01*
X94828992Y-87670008D01*
X95080420Y-87838007D01*
X95129626Y-87847795D01*
X95377000Y-87897001D01*
X95377005Y-87897000D01*
X96295404Y-87897000D01*
X96229148Y-88056560D01*
X95242000Y-88056560D01*
X95006683Y-88100838D01*
X94790559Y-88239910D01*
X94742866Y-88309711D01*
X94706090Y-88252559D01*
X94493890Y-88107569D01*
X94242000Y-88056560D01*
X93042000Y-88056560D01*
X92812538Y-88099736D01*
X91942400Y-87229598D01*
X91695838Y-87064851D01*
X91404999Y-87006999D01*
X90851101Y-87006999D01*
X90851162Y-86936833D01*
X90709117Y-86593057D01*
X90614451Y-86498225D01*
X90678142Y-86434534D01*
X90560427Y-86316819D01*
X90755025Y-86304607D01*
X90864363Y-85949073D01*
X90829322Y-85578761D01*
X90755025Y-85399393D01*
X90560427Y-85387181D01*
X90590608Y-85357000D01*
X90864984Y-85357000D01*
X91399992Y-85892008D01*
X91399992Y-85892008D01*
G37*
X91399992Y-85892008D02*
X91651420Y-86060007D01*
X91700626Y-86069795D01*
X91948000Y-86119001D01*
X91948005Y-86119000D01*
X93277984Y-86119000D01*
X94828992Y-87670008D01*
X95080420Y-87838007D01*
X95129626Y-87847795D01*
X95377000Y-87897001D01*
X95377005Y-87897000D01*
X96295404Y-87897000D01*
X96229148Y-88056560D01*
X95242000Y-88056560D01*
X95006683Y-88100838D01*
X94790559Y-88239910D01*
X94742866Y-88309711D01*
X94706090Y-88252559D01*
X94493890Y-88107569D01*
X94242000Y-88056560D01*
X93042000Y-88056560D01*
X92812538Y-88099736D01*
X91942400Y-87229598D01*
X91695838Y-87064851D01*
X91404999Y-87006999D01*
X90851101Y-87006999D01*
X90851162Y-86936833D01*
X90709117Y-86593057D01*
X90614451Y-86498225D01*
X90678142Y-86434534D01*
X90560427Y-86316819D01*
X90755025Y-86304607D01*
X90864363Y-85949073D01*
X90829322Y-85578761D01*
X90755025Y-85399393D01*
X90560427Y-85387181D01*
X90590608Y-85357000D01*
X90864984Y-85357000D01*
X91399992Y-85892008D01*
G36*
X110468910Y-86313441D02*
X110681110Y-86458431D01*
X110818120Y-86486176D01*
X110697683Y-86508838D01*
X110481559Y-86647910D01*
X110409144Y-86753894D01*
X110269250Y-86614000D01*
X110188949Y-86614000D01*
X110044890Y-86515569D01*
X109907880Y-86487824D01*
X110028317Y-86465162D01*
X110191743Y-86360000D01*
X110269250Y-86360000D01*
X110408965Y-86220285D01*
X110468910Y-86313441D01*
X110468910Y-86313441D01*
G37*
X110468910Y-86313441D02*
X110681110Y-86458431D01*
X110818120Y-86486176D01*
X110697683Y-86508838D01*
X110481559Y-86647910D01*
X110409144Y-86753894D01*
X110269250Y-86614000D01*
X110188949Y-86614000D01*
X110044890Y-86515569D01*
X109907880Y-86487824D01*
X110028317Y-86465162D01*
X110191743Y-86360000D01*
X110269250Y-86360000D01*
X110408965Y-86220285D01*
X110468910Y-86313441D01*
G36*
X98293560Y-80672026D02*
X98109485Y-80487629D01*
X97655734Y-80299215D01*
X97164421Y-80298786D01*
X96710343Y-80486408D01*
X96362629Y-80833515D01*
X96174215Y-81287266D01*
X96173786Y-81778579D01*
X96361408Y-82232657D01*
X96708515Y-82580371D01*
X97162266Y-82768785D01*
X97186000Y-82768806D01*
X97186000Y-83026250D01*
X97344750Y-83185000D01*
X98044000Y-83185000D01*
X98044000Y-83165000D01*
X98298000Y-83165000D01*
X98298000Y-83185000D01*
X98318000Y-83185000D01*
X98318000Y-83439000D01*
X98298000Y-83439000D01*
X98298000Y-84538250D01*
X98456750Y-84697000D01*
X98647309Y-84697000D01*
X98880698Y-84600327D01*
X99059327Y-84421699D01*
X99156000Y-84188310D01*
X99156000Y-83597750D01*
X99155690Y-83597440D01*
X99941000Y-83597440D01*
X100176317Y-83553162D01*
X100392441Y-83414090D01*
X100537431Y-83201890D01*
X100588440Y-82950000D01*
X100588440Y-82150000D01*
X100544162Y-81914683D01*
X100405090Y-81698559D01*
X100192890Y-81553569D01*
X100101955Y-81535154D01*
X100176317Y-81521162D01*
X100392441Y-81382090D01*
X100537431Y-81169890D01*
X100588440Y-80918000D01*
X100588440Y-80137000D01*
X118499000Y-80137000D01*
X118499000Y-80232250D01*
X118657750Y-80391000D01*
X119507000Y-80391000D01*
X119507000Y-80371000D01*
X119761000Y-80371000D01*
X119761000Y-80391000D01*
X120610250Y-80391000D01*
X120769000Y-80232250D01*
X120769000Y-80137000D01*
X121546888Y-80137000D01*
X121546803Y-80234775D01*
X121719233Y-80652086D01*
X121925786Y-80859000D01*
X120769000Y-80859000D01*
X120769000Y-80803750D01*
X120610250Y-80645000D01*
X119761000Y-80645000D01*
X119761000Y-80665000D01*
X119507000Y-80665000D01*
X119507000Y-80645000D01*
X118657750Y-80645000D01*
X118511441Y-80791309D01*
X118474838Y-80766851D01*
X118183999Y-80708999D01*
X115164001Y-80708999D01*
X114873162Y-80766851D01*
X114626600Y-80931598D01*
X114411638Y-81146560D01*
X113639000Y-81146560D01*
X113403683Y-81190838D01*
X113187559Y-81329910D01*
X113042569Y-81542110D01*
X112991560Y-81794000D01*
X112991560Y-82341638D01*
X112746599Y-82586599D01*
X112581852Y-82833161D01*
X112524000Y-83124000D01*
X112524000Y-83384537D01*
X112491808Y-83416673D01*
X112349162Y-83760201D01*
X112348838Y-84132167D01*
X112490883Y-84475943D01*
X112753673Y-84739192D01*
X112844724Y-84777000D01*
X112467669Y-84777000D01*
X112457090Y-84760559D01*
X112244890Y-84615569D01*
X111993000Y-84564560D01*
X110933000Y-84564560D01*
X110697683Y-84608838D01*
X110481559Y-84747910D01*
X110361767Y-84923232D01*
X110257090Y-84760559D01*
X110044890Y-84615569D01*
X109793000Y-84564560D01*
X108733000Y-84564560D01*
X108497683Y-84608838D01*
X108281559Y-84747910D01*
X108143477Y-84950000D01*
X107084814Y-84950000D01*
X107040592Y-84714983D01*
X106901520Y-84498859D01*
X106689320Y-84353869D01*
X106437430Y-84302860D01*
X104636570Y-84302860D01*
X104401253Y-84347138D01*
X104185129Y-84486210D01*
X104040139Y-84698410D01*
X103989130Y-84950300D01*
X103989130Y-85270000D01*
X102970511Y-85270000D01*
X102959162Y-85209683D01*
X102820090Y-84993559D01*
X102607890Y-84848569D01*
X102356000Y-84797560D01*
X101606000Y-84797560D01*
X101370683Y-84841838D01*
X101154559Y-84980910D01*
X101009569Y-85193110D01*
X100993998Y-85270000D01*
X100645000Y-85270000D01*
X100348420Y-85328993D01*
X100096992Y-85496992D01*
X99407125Y-86186859D01*
X99382833Y-86186838D01*
X99039057Y-86328883D01*
X99020908Y-86347000D01*
X95698016Y-86347000D01*
X95376127Y-86025111D01*
X95435167Y-86025162D01*
X95778943Y-85883117D01*
X96042192Y-85620327D01*
X96184838Y-85276799D01*
X96185162Y-84904833D01*
X96043117Y-84561057D01*
X96010000Y-84527882D01*
X96010000Y-84400870D01*
X96069431Y-84313890D01*
X96120440Y-84062000D01*
X96120440Y-83597750D01*
X97186000Y-83597750D01*
X97186000Y-84188310D01*
X97282673Y-84421699D01*
X97461302Y-84600327D01*
X97694691Y-84697000D01*
X97885250Y-84697000D01*
X98044000Y-84538250D01*
X98044000Y-83439000D01*
X97344750Y-83439000D01*
X97186000Y-83597750D01*
X96120440Y-83597750D01*
X96120440Y-82562000D01*
X96076162Y-82326683D01*
X95937090Y-82110559D01*
X95724890Y-81965569D01*
X95535002Y-81927116D01*
X95595785Y-81780734D01*
X95596214Y-81289421D01*
X95408592Y-80835343D01*
X95061485Y-80487629D01*
X94607734Y-80299215D01*
X94116421Y-80298786D01*
X93662343Y-80486408D01*
X93476440Y-80671986D01*
X93476440Y-80137000D01*
X98293560Y-80137000D01*
X98293560Y-80672026D01*
X98293560Y-80672026D01*
G37*
X98293560Y-80672026D02*
X98109485Y-80487629D01*
X97655734Y-80299215D01*
X97164421Y-80298786D01*
X96710343Y-80486408D01*
X96362629Y-80833515D01*
X96174215Y-81287266D01*
X96173786Y-81778579D01*
X96361408Y-82232657D01*
X96708515Y-82580371D01*
X97162266Y-82768785D01*
X97186000Y-82768806D01*
X97186000Y-83026250D01*
X97344750Y-83185000D01*
X98044000Y-83185000D01*
X98044000Y-83165000D01*
X98298000Y-83165000D01*
X98298000Y-83185000D01*
X98318000Y-83185000D01*
X98318000Y-83439000D01*
X98298000Y-83439000D01*
X98298000Y-84538250D01*
X98456750Y-84697000D01*
X98647309Y-84697000D01*
X98880698Y-84600327D01*
X99059327Y-84421699D01*
X99156000Y-84188310D01*
X99156000Y-83597750D01*
X99155690Y-83597440D01*
X99941000Y-83597440D01*
X100176317Y-83553162D01*
X100392441Y-83414090D01*
X100537431Y-83201890D01*
X100588440Y-82950000D01*
X100588440Y-82150000D01*
X100544162Y-81914683D01*
X100405090Y-81698559D01*
X100192890Y-81553569D01*
X100101955Y-81535154D01*
X100176317Y-81521162D01*
X100392441Y-81382090D01*
X100537431Y-81169890D01*
X100588440Y-80918000D01*
X100588440Y-80137000D01*
X118499000Y-80137000D01*
X118499000Y-80232250D01*
X118657750Y-80391000D01*
X119507000Y-80391000D01*
X119507000Y-80371000D01*
X119761000Y-80371000D01*
X119761000Y-80391000D01*
X120610250Y-80391000D01*
X120769000Y-80232250D01*
X120769000Y-80137000D01*
X121546888Y-80137000D01*
X121546803Y-80234775D01*
X121719233Y-80652086D01*
X121925786Y-80859000D01*
X120769000Y-80859000D01*
X120769000Y-80803750D01*
X120610250Y-80645000D01*
X119761000Y-80645000D01*
X119761000Y-80665000D01*
X119507000Y-80665000D01*
X119507000Y-80645000D01*
X118657750Y-80645000D01*
X118511441Y-80791309D01*
X118474838Y-80766851D01*
X118183999Y-80708999D01*
X115164001Y-80708999D01*
X114873162Y-80766851D01*
X114626600Y-80931598D01*
X114411638Y-81146560D01*
X113639000Y-81146560D01*
X113403683Y-81190838D01*
X113187559Y-81329910D01*
X113042569Y-81542110D01*
X112991560Y-81794000D01*
X112991560Y-82341638D01*
X112746599Y-82586599D01*
X112581852Y-82833161D01*
X112524000Y-83124000D01*
X112524000Y-83384537D01*
X112491808Y-83416673D01*
X112349162Y-83760201D01*
X112348838Y-84132167D01*
X112490883Y-84475943D01*
X112753673Y-84739192D01*
X112844724Y-84777000D01*
X112467669Y-84777000D01*
X112457090Y-84760559D01*
X112244890Y-84615569D01*
X111993000Y-84564560D01*
X110933000Y-84564560D01*
X110697683Y-84608838D01*
X110481559Y-84747910D01*
X110361767Y-84923232D01*
X110257090Y-84760559D01*
X110044890Y-84615569D01*
X109793000Y-84564560D01*
X108733000Y-84564560D01*
X108497683Y-84608838D01*
X108281559Y-84747910D01*
X108143477Y-84950000D01*
X107084814Y-84950000D01*
X107040592Y-84714983D01*
X106901520Y-84498859D01*
X106689320Y-84353869D01*
X106437430Y-84302860D01*
X104636570Y-84302860D01*
X104401253Y-84347138D01*
X104185129Y-84486210D01*
X104040139Y-84698410D01*
X103989130Y-84950300D01*
X103989130Y-85270000D01*
X102970511Y-85270000D01*
X102959162Y-85209683D01*
X102820090Y-84993559D01*
X102607890Y-84848569D01*
X102356000Y-84797560D01*
X101606000Y-84797560D01*
X101370683Y-84841838D01*
X101154559Y-84980910D01*
X101009569Y-85193110D01*
X100993998Y-85270000D01*
X100645000Y-85270000D01*
X100348420Y-85328993D01*
X100096992Y-85496992D01*
X99407125Y-86186859D01*
X99382833Y-86186838D01*
X99039057Y-86328883D01*
X99020908Y-86347000D01*
X95698016Y-86347000D01*
X95376127Y-86025111D01*
X95435167Y-86025162D01*
X95778943Y-85883117D01*
X96042192Y-85620327D01*
X96184838Y-85276799D01*
X96185162Y-84904833D01*
X96043117Y-84561057D01*
X96010000Y-84527882D01*
X96010000Y-84400870D01*
X96069431Y-84313890D01*
X96120440Y-84062000D01*
X96120440Y-83597750D01*
X97186000Y-83597750D01*
X97186000Y-84188310D01*
X97282673Y-84421699D01*
X97461302Y-84600327D01*
X97694691Y-84697000D01*
X97885250Y-84697000D01*
X98044000Y-84538250D01*
X98044000Y-83439000D01*
X97344750Y-83439000D01*
X97186000Y-83597750D01*
X96120440Y-83597750D01*
X96120440Y-82562000D01*
X96076162Y-82326683D01*
X95937090Y-82110559D01*
X95724890Y-81965569D01*
X95535002Y-81927116D01*
X95595785Y-81780734D01*
X95596214Y-81289421D01*
X95408592Y-80835343D01*
X95061485Y-80487629D01*
X94607734Y-80299215D01*
X94116421Y-80298786D01*
X93662343Y-80486408D01*
X93476440Y-80671986D01*
X93476440Y-80137000D01*
X98293560Y-80137000D01*
X98293560Y-80672026D01*
G36*
X90109748Y-85837858D02*
X90095605Y-85852000D01*
X90109748Y-85866143D01*
X89930143Y-86045748D01*
X89916000Y-86031605D01*
X89901858Y-86045748D01*
X89722253Y-85866143D01*
X89736395Y-85852000D01*
X89722253Y-85837858D01*
X89901858Y-85658253D01*
X89916000Y-85672395D01*
X89930143Y-85658253D01*
X90109748Y-85837858D01*
X90109748Y-85837858D01*
G37*
X90109748Y-85837858D02*
X90095605Y-85852000D01*
X90109748Y-85866143D01*
X89930143Y-86045748D01*
X89916000Y-86031605D01*
X89901858Y-86045748D01*
X89722253Y-85866143D01*
X89736395Y-85852000D01*
X89722253Y-85837858D01*
X89901858Y-85658253D01*
X89916000Y-85672395D01*
X89930143Y-85658253D01*
X90109748Y-85837858D01*
G36*
X88839748Y-85837858D02*
X88825605Y-85852000D01*
X88839748Y-85866143D01*
X88660143Y-86045748D01*
X88646000Y-86031605D01*
X88631858Y-86045748D01*
X88452253Y-85866143D01*
X88466395Y-85852000D01*
X88452253Y-85837858D01*
X88631858Y-85658253D01*
X88646000Y-85672395D01*
X88660143Y-85658253D01*
X88839748Y-85837858D01*
X88839748Y-85837858D01*
G37*
X88839748Y-85837858D02*
X88825605Y-85852000D01*
X88839748Y-85866143D01*
X88660143Y-86045748D01*
X88646000Y-86031605D01*
X88631858Y-86045748D01*
X88452253Y-85866143D01*
X88466395Y-85852000D01*
X88452253Y-85837858D01*
X88631858Y-85658253D01*
X88646000Y-85672395D01*
X88660143Y-85658253D01*
X88839748Y-85837858D01*
M02*
