G04 #@! TF.FileFunction,Copper,L2,Bot,Signal*
%FSLAX46Y46*%
G04 Gerber Fmt 4.6, Leading zero omitted, Abs format (unit mm)*
G04 Created by KiCad (PCBNEW 4.0.4-stable) date 10/24/16 21:05:07*
%MOMM*%
%LPD*%
G01*
G04 APERTURE LIST*
%ADD10C,0.100000*%
%ADD11C,1.524000*%
%ADD12O,0.950000X1.250000*%
%ADD13O,1.550000X1.000000*%
%ADD14C,1.200000*%
%ADD15C,1.000000*%
%ADD16C,0.600000*%
%ADD17C,0.250000*%
%ADD18C,0.280000*%
%ADD19C,0.254000*%
G04 APERTURE END LIST*
D10*
D11*
X100076000Y-117729000D03*
X102616000Y-117729000D03*
X105156000Y-117729000D03*
X107696000Y-117729000D03*
X110236000Y-117729000D03*
X112776000Y-117729000D03*
X115316000Y-117729000D03*
X117856000Y-117729000D03*
D12*
X88044000Y-95346000D03*
X88044000Y-100346000D03*
D13*
X85344000Y-94346000D03*
X85344000Y-101346000D03*
D14*
X97409000Y-81534000D03*
X94361000Y-81534000D03*
D15*
X130556000Y-97282000D03*
X127889000Y-97282000D03*
X122682000Y-80010000D03*
X122682000Y-82677000D03*
D16*
X88646000Y-84582000D03*
X89916000Y-84582000D03*
X88646000Y-85852000D03*
X89916000Y-85852000D03*
X88646000Y-87122000D03*
X89916000Y-87122000D03*
X88646000Y-88392000D03*
X89916000Y-88392000D03*
X88646000Y-89662000D03*
X89916000Y-89662000D03*
X127000000Y-102870000D03*
X113030000Y-102235000D03*
X97536000Y-104648000D03*
X123952000Y-111252000D03*
X97028000Y-83312000D03*
X92964000Y-86868000D03*
X111252000Y-114808000D03*
X113792000Y-114300000D03*
X114808000Y-109728000D03*
X122428000Y-89916000D03*
X121920000Y-104140000D03*
X90805000Y-112395000D03*
X103505000Y-87945000D03*
X120015000Y-88265000D03*
X97042972Y-99883171D03*
X118618000Y-80518000D03*
X116459000Y-83312000D03*
X90043000Y-99187000D03*
X113284000Y-83947000D03*
X113157000Y-93472000D03*
X99568000Y-87122000D03*
X96139000Y-93980000D03*
X99949000Y-97663000D03*
X90805000Y-94361000D03*
X96901000Y-95250000D03*
X91059000Y-109347000D03*
X96266000Y-106807000D03*
X96393000Y-109093000D03*
X90932000Y-110490000D03*
X94742000Y-107315000D03*
X94869000Y-104648000D03*
X95250000Y-85090000D03*
X97155000Y-88265000D03*
X107950000Y-108585000D03*
X105410000Y-102870000D03*
X101981000Y-111125000D03*
X108331000Y-98679000D03*
X100584000Y-93726000D03*
X104648000Y-97282000D03*
X97190220Y-97625763D03*
X101600000Y-102235000D03*
X97025607Y-98981920D03*
X100965000Y-102870000D03*
X107950000Y-101600000D03*
X107950000Y-103505000D03*
X109855000Y-109220000D03*
X106680000Y-101600000D03*
D17*
X113030000Y-102235000D02*
X126365000Y-102235000D01*
X126365000Y-102235000D02*
X127000000Y-102870000D01*
X90043000Y-99187000D02*
X92075000Y-99187000D01*
X92075000Y-99187000D02*
X97536000Y-104648000D01*
X121920000Y-104140000D02*
X121920000Y-109220000D01*
X121920000Y-109220000D02*
X123952000Y-111252000D01*
X92964000Y-86868000D02*
X92964000Y-86079988D01*
X92964000Y-86079988D02*
X95731988Y-83312000D01*
X95731988Y-83312000D02*
X97028000Y-83312000D01*
X113792000Y-114300000D02*
X111760000Y-114300000D01*
X111760000Y-114300000D02*
X111252000Y-114808000D01*
X114808000Y-109728000D02*
X114808000Y-113284000D01*
X114808000Y-113284000D02*
X113792000Y-114300000D01*
X121920000Y-104140000D02*
X120396000Y-104140000D01*
X120396000Y-104140000D02*
X114808000Y-109728000D01*
X122428000Y-89916000D02*
X120777000Y-88265000D01*
X120777000Y-88265000D02*
X120015000Y-88265000D01*
X90043000Y-99187000D02*
X96346801Y-99187000D01*
X96346801Y-99187000D02*
X97042972Y-99883171D01*
X116459000Y-83312000D02*
X118618000Y-81153000D01*
X118618000Y-81153000D02*
X118618000Y-80518000D01*
X113157000Y-93472000D02*
X113157000Y-84074000D01*
X113157000Y-84074000D02*
X113284000Y-83947000D01*
D18*
X96139000Y-93980000D02*
X96139000Y-90551000D01*
X96139000Y-90551000D02*
X99568000Y-87122000D01*
D17*
X100076000Y-116651370D02*
X100076000Y-117729000D01*
X100076000Y-104684004D02*
X100076000Y-116651370D01*
X102225002Y-102535002D02*
X100076000Y-104684004D01*
X102225002Y-99939002D02*
X102225002Y-102535002D01*
X99949000Y-97663000D02*
X102225002Y-99939002D01*
X96901000Y-95250000D02*
X92202000Y-95250000D01*
X92202000Y-95250000D02*
X91313000Y-94361000D01*
X91313000Y-94361000D02*
X90805000Y-94361000D01*
X96266000Y-106807000D02*
X93726000Y-109347000D01*
X93726000Y-109347000D02*
X91059000Y-109347000D01*
X90932000Y-110490000D02*
X94996000Y-110490000D01*
X94996000Y-110490000D02*
X96393000Y-109093000D01*
X85344000Y-94346000D02*
X85344000Y-95096000D01*
X85344000Y-95096000D02*
X85594000Y-95346000D01*
X85594000Y-95346000D02*
X87319000Y-95346000D01*
X87319000Y-95346000D02*
X88044000Y-95346000D01*
X85344000Y-101346000D02*
X85344000Y-94346000D01*
X88044000Y-100346000D02*
X85594000Y-100346000D01*
X85594000Y-100346000D02*
X85344000Y-100596000D01*
X85344000Y-100596000D02*
X85344000Y-101346000D01*
X94869000Y-104648000D02*
X94869000Y-107188000D01*
X94869000Y-107188000D02*
X94742000Y-107315000D01*
X97155000Y-88265000D02*
X95250000Y-86360000D01*
X95250000Y-86360000D02*
X95250000Y-85090000D01*
X107950000Y-105410000D02*
X107950000Y-108585000D01*
X105410000Y-102870000D02*
X107950000Y-105410000D01*
X108331000Y-98679000D02*
X101981000Y-105029000D01*
X101981000Y-105029000D02*
X101981000Y-111125000D01*
X104648000Y-97282000D02*
X101092000Y-93726000D01*
X101092000Y-93726000D02*
X100584000Y-93726000D01*
X97280767Y-97625763D02*
X97190220Y-97625763D01*
X97415027Y-97625763D02*
X97280767Y-97625763D01*
X101600000Y-101810736D02*
X97415027Y-97625763D01*
X101600000Y-102235000D02*
X101600000Y-101810736D01*
X97076920Y-98981920D02*
X97025607Y-98981920D01*
X100965000Y-102870000D02*
X97076920Y-98981920D01*
X109025013Y-116399987D02*
X108457999Y-116967001D01*
X108457999Y-116967001D02*
X107696000Y-117729000D01*
X109025013Y-102675013D02*
X109025013Y-116399987D01*
X107950000Y-101600000D02*
X109025013Y-102675013D01*
X107950000Y-103505000D02*
X107950000Y-102870000D01*
X107950000Y-102870000D02*
X106680000Y-101600000D01*
X110236000Y-117729000D02*
X110236000Y-109601000D01*
X110236000Y-109601000D02*
X109855000Y-109220000D01*
D19*
G36*
X121546803Y-80234775D02*
X121719233Y-80652086D01*
X122038235Y-80971645D01*
X122455244Y-81144803D01*
X122906775Y-81145197D01*
X123324086Y-80972767D01*
X123643645Y-80653765D01*
X123816803Y-80236756D01*
X123816890Y-80137000D01*
X128229192Y-80137000D01*
X128069996Y-80295918D01*
X127805301Y-80933373D01*
X127804699Y-81623599D01*
X128068281Y-82261515D01*
X128555918Y-82750004D01*
X129193373Y-83014699D01*
X129883599Y-83015301D01*
X130521515Y-82751719D01*
X130670267Y-82603226D01*
X130670267Y-96147099D01*
X130331225Y-96146803D01*
X129913914Y-96319233D01*
X129594355Y-96638235D01*
X129421197Y-97055244D01*
X129420803Y-97506775D01*
X129593233Y-97924086D01*
X129912235Y-98243645D01*
X130329244Y-98416803D01*
X130670267Y-98417101D01*
X130670267Y-116913658D01*
X130397082Y-116639996D01*
X129759627Y-116375301D01*
X129069401Y-116374699D01*
X128431485Y-116638281D01*
X127942996Y-117125918D01*
X127678301Y-117763373D01*
X127677699Y-118453599D01*
X127941281Y-119091515D01*
X128102484Y-119253000D01*
X87670808Y-119253000D01*
X87830004Y-119094082D01*
X88094699Y-118456627D01*
X88095301Y-117766401D01*
X87831719Y-117128485D01*
X87344082Y-116639996D01*
X86706627Y-116375301D01*
X86016401Y-116374699D01*
X85378485Y-116638281D01*
X85204267Y-116812195D01*
X85204267Y-110675167D01*
X89996838Y-110675167D01*
X90138883Y-111018943D01*
X90401673Y-111282192D01*
X90745201Y-111424838D01*
X91117167Y-111425162D01*
X91460943Y-111283117D01*
X91494118Y-111250000D01*
X94996000Y-111250000D01*
X95286839Y-111192148D01*
X95533401Y-111027401D01*
X96532680Y-110028122D01*
X96578167Y-110028162D01*
X96921943Y-109886117D01*
X97185192Y-109623327D01*
X97327838Y-109279799D01*
X97328162Y-108907833D01*
X97186117Y-108564057D01*
X96923327Y-108300808D01*
X96579799Y-108158162D01*
X96207833Y-108157838D01*
X95864057Y-108299883D01*
X95600808Y-108562673D01*
X95458162Y-108906201D01*
X95458121Y-108953077D01*
X94681198Y-109730000D01*
X94417802Y-109730000D01*
X96405680Y-107742122D01*
X96451167Y-107742162D01*
X96794943Y-107600117D01*
X97058192Y-107337327D01*
X97200838Y-106993799D01*
X97201162Y-106621833D01*
X97059117Y-106278057D01*
X96796327Y-106014808D01*
X96452799Y-105872162D01*
X96080833Y-105871838D01*
X95737057Y-106013883D01*
X95629000Y-106121752D01*
X95629000Y-105210463D01*
X95661192Y-105178327D01*
X95803838Y-104834799D01*
X95804162Y-104462833D01*
X95662117Y-104119057D01*
X95399327Y-103855808D01*
X95055799Y-103713162D01*
X94683833Y-103712838D01*
X94340057Y-103854883D01*
X94076808Y-104117673D01*
X93934162Y-104461201D01*
X93933838Y-104833167D01*
X94075883Y-105176943D01*
X94109000Y-105210118D01*
X94109000Y-106625759D01*
X93949808Y-106784673D01*
X93807162Y-107128201D01*
X93806838Y-107500167D01*
X93948883Y-107843943D01*
X94051479Y-107946719D01*
X93411198Y-108587000D01*
X91621463Y-108587000D01*
X91589327Y-108554808D01*
X91245799Y-108412162D01*
X90873833Y-108411838D01*
X90530057Y-108553883D01*
X90266808Y-108816673D01*
X90124162Y-109160201D01*
X90123838Y-109532167D01*
X90253560Y-109846119D01*
X90139808Y-109959673D01*
X89997162Y-110303201D01*
X89996838Y-110675167D01*
X85204267Y-110675167D01*
X85204267Y-102481000D01*
X85646624Y-102481000D01*
X86080970Y-102394603D01*
X86449190Y-102148566D01*
X86695227Y-101780346D01*
X86781624Y-101346000D01*
X86733885Y-101106000D01*
X87125760Y-101106000D01*
X87259111Y-101305574D01*
X87619221Y-101546191D01*
X88044000Y-101630685D01*
X88468779Y-101546191D01*
X88828889Y-101305574D01*
X89069506Y-100945464D01*
X89154000Y-100520685D01*
X89154000Y-100171315D01*
X89069506Y-99746536D01*
X88828889Y-99386426D01*
X88500624Y-99167087D01*
X96090445Y-99167087D01*
X96232490Y-99510863D01*
X96495280Y-99774112D01*
X96838808Y-99916758D01*
X96937042Y-99916844D01*
X100029878Y-103009680D01*
X100029838Y-103055167D01*
X100171883Y-103398943D01*
X100229021Y-103456181D01*
X99538599Y-104146603D01*
X99373852Y-104393165D01*
X99316000Y-104684004D01*
X99316000Y-116531469D01*
X99285697Y-116543990D01*
X98892371Y-116936630D01*
X98679243Y-117449900D01*
X98678758Y-118005661D01*
X98890990Y-118519303D01*
X99283630Y-118912629D01*
X99796900Y-119125757D01*
X100352661Y-119126242D01*
X100866303Y-118914010D01*
X101071457Y-118709213D01*
X101815392Y-118709213D01*
X101884857Y-118951397D01*
X102408302Y-119138144D01*
X102963368Y-119110362D01*
X103347143Y-118951397D01*
X103416608Y-118709213D01*
X104355392Y-118709213D01*
X104424857Y-118951397D01*
X104948302Y-119138144D01*
X105503368Y-119110362D01*
X105887143Y-118951397D01*
X105956608Y-118709213D01*
X105156000Y-117908605D01*
X104355392Y-118709213D01*
X103416608Y-118709213D01*
X102616000Y-117908605D01*
X101815392Y-118709213D01*
X101071457Y-118709213D01*
X101259629Y-118521370D01*
X101339395Y-118329273D01*
X101393603Y-118460143D01*
X101635787Y-118529608D01*
X102436395Y-117729000D01*
X102795605Y-117729000D01*
X103596213Y-118529608D01*
X103838397Y-118460143D01*
X103882453Y-118336656D01*
X103933603Y-118460143D01*
X104175787Y-118529608D01*
X104976395Y-117729000D01*
X104175787Y-116928392D01*
X103933603Y-116997857D01*
X103889547Y-117121344D01*
X103838397Y-116997857D01*
X103596213Y-116928392D01*
X102795605Y-117729000D01*
X102436395Y-117729000D01*
X101635787Y-116928392D01*
X101393603Y-116997857D01*
X101343491Y-117138318D01*
X101261010Y-116938697D01*
X101071432Y-116748787D01*
X101815392Y-116748787D01*
X102616000Y-117549395D01*
X103416608Y-116748787D01*
X104355392Y-116748787D01*
X105156000Y-117549395D01*
X105956608Y-116748787D01*
X105887143Y-116506603D01*
X105363698Y-116319856D01*
X104808632Y-116347638D01*
X104424857Y-116506603D01*
X104355392Y-116748787D01*
X103416608Y-116748787D01*
X103347143Y-116506603D01*
X102823698Y-116319856D01*
X102268632Y-116347638D01*
X101884857Y-116506603D01*
X101815392Y-116748787D01*
X101071432Y-116748787D01*
X100868370Y-116545371D01*
X100836000Y-116531930D01*
X100836000Y-111310167D01*
X101045838Y-111310167D01*
X101187883Y-111653943D01*
X101450673Y-111917192D01*
X101794201Y-112059838D01*
X102166167Y-112060162D01*
X102509943Y-111918117D01*
X102773192Y-111655327D01*
X102915838Y-111311799D01*
X102916162Y-110939833D01*
X102774117Y-110596057D01*
X102741000Y-110562882D01*
X102741000Y-105343802D01*
X104651341Y-103433461D01*
X104879673Y-103662192D01*
X105223201Y-103804838D01*
X105270077Y-103804879D01*
X107190000Y-105724802D01*
X107190000Y-108022537D01*
X107157808Y-108054673D01*
X107015162Y-108398201D01*
X107014838Y-108770167D01*
X107156883Y-109113943D01*
X107419673Y-109377192D01*
X107763201Y-109519838D01*
X108135167Y-109520162D01*
X108265013Y-109466511D01*
X108265013Y-116085185D01*
X108005381Y-116344817D01*
X107975100Y-116332243D01*
X107419339Y-116331758D01*
X106905697Y-116543990D01*
X106512371Y-116936630D01*
X106432605Y-117128727D01*
X106378397Y-116997857D01*
X106136213Y-116928392D01*
X105335605Y-117729000D01*
X106136213Y-118529608D01*
X106378397Y-118460143D01*
X106428509Y-118319682D01*
X106510990Y-118519303D01*
X106903630Y-118912629D01*
X107416900Y-119125757D01*
X107972661Y-119126242D01*
X108486303Y-118914010D01*
X108879629Y-118521370D01*
X108965949Y-118313488D01*
X109050990Y-118519303D01*
X109443630Y-118912629D01*
X109956900Y-119125757D01*
X110512661Y-119126242D01*
X111026303Y-118914010D01*
X111419629Y-118521370D01*
X111505949Y-118313488D01*
X111590990Y-118519303D01*
X111983630Y-118912629D01*
X112496900Y-119125757D01*
X113052661Y-119126242D01*
X113566303Y-118914010D01*
X113959629Y-118521370D01*
X114045949Y-118313488D01*
X114130990Y-118519303D01*
X114523630Y-118912629D01*
X115036900Y-119125757D01*
X115592661Y-119126242D01*
X116106303Y-118914010D01*
X116499629Y-118521370D01*
X116585949Y-118313488D01*
X116670990Y-118519303D01*
X117063630Y-118912629D01*
X117576900Y-119125757D01*
X118132661Y-119126242D01*
X118646303Y-118914010D01*
X119039629Y-118521370D01*
X119252757Y-118008100D01*
X119253242Y-117452339D01*
X119041010Y-116938697D01*
X118648370Y-116545371D01*
X118135100Y-116332243D01*
X117579339Y-116331758D01*
X117065697Y-116543990D01*
X116672371Y-116936630D01*
X116586051Y-117144512D01*
X116501010Y-116938697D01*
X116108370Y-116545371D01*
X115595100Y-116332243D01*
X115039339Y-116331758D01*
X114525697Y-116543990D01*
X114132371Y-116936630D01*
X114046051Y-117144512D01*
X113961010Y-116938697D01*
X113568370Y-116545371D01*
X113055100Y-116332243D01*
X112499339Y-116331758D01*
X111985697Y-116543990D01*
X111592371Y-116936630D01*
X111506051Y-117144512D01*
X111421010Y-116938697D01*
X111028370Y-116545371D01*
X110996000Y-116531930D01*
X110996000Y-109601000D01*
X110952804Y-109383840D01*
X110938148Y-109310160D01*
X110790115Y-109088613D01*
X110790162Y-109034833D01*
X110648117Y-108691057D01*
X110385327Y-108427808D01*
X110041799Y-108285162D01*
X109785013Y-108284938D01*
X109785013Y-102675013D01*
X109734321Y-102420167D01*
X112094838Y-102420167D01*
X112236883Y-102763943D01*
X112499673Y-103027192D01*
X112843201Y-103169838D01*
X113215167Y-103170162D01*
X113558943Y-103028117D01*
X113592118Y-102995000D01*
X126050198Y-102995000D01*
X126064878Y-103009680D01*
X126064838Y-103055167D01*
X126206883Y-103398943D01*
X126469673Y-103662192D01*
X126813201Y-103804838D01*
X127185167Y-103805162D01*
X127528943Y-103663117D01*
X127792192Y-103400327D01*
X127934838Y-103056799D01*
X127935162Y-102684833D01*
X127793117Y-102341057D01*
X127530327Y-102077808D01*
X127186799Y-101935162D01*
X127139923Y-101935121D01*
X126902401Y-101697599D01*
X126655839Y-101532852D01*
X126365000Y-101475000D01*
X113592463Y-101475000D01*
X113560327Y-101442808D01*
X113216799Y-101300162D01*
X112844833Y-101299838D01*
X112501057Y-101441883D01*
X112237808Y-101704673D01*
X112095162Y-102048201D01*
X112094838Y-102420167D01*
X109734321Y-102420167D01*
X109727161Y-102384174D01*
X109562414Y-102137612D01*
X108885122Y-101460320D01*
X108885162Y-101414833D01*
X108743117Y-101071057D01*
X108480327Y-100807808D01*
X108136799Y-100665162D01*
X107764833Y-100664838D01*
X107421057Y-100806883D01*
X107315046Y-100912710D01*
X107243631Y-100841171D01*
X108470680Y-99614122D01*
X108516167Y-99614162D01*
X108859943Y-99472117D01*
X109123192Y-99209327D01*
X109265838Y-98865799D01*
X109266162Y-98493833D01*
X109124117Y-98150057D01*
X108861327Y-97886808D01*
X108517799Y-97744162D01*
X108145833Y-97743838D01*
X107802057Y-97885883D01*
X107538808Y-98148673D01*
X107396162Y-98492201D01*
X107396121Y-98539077D01*
X101443599Y-104491599D01*
X101278852Y-104738161D01*
X101221000Y-105029000D01*
X101221000Y-110562537D01*
X101188808Y-110594673D01*
X101046162Y-110938201D01*
X101045838Y-111310167D01*
X100836000Y-111310167D01*
X100836000Y-104998806D01*
X102762403Y-103072403D01*
X102927150Y-102825841D01*
X102985002Y-102535002D01*
X102985002Y-99939002D01*
X102927150Y-99648163D01*
X102762403Y-99401601D01*
X100884122Y-97523320D01*
X100884162Y-97477833D01*
X100742117Y-97134057D01*
X100479327Y-96870808D01*
X100135799Y-96728162D01*
X99763833Y-96727838D01*
X99420057Y-96869883D01*
X99156808Y-97132673D01*
X99014162Y-97476201D01*
X99013838Y-97848167D01*
X99155883Y-98191943D01*
X99418673Y-98455192D01*
X99762201Y-98597838D01*
X99809077Y-98597879D01*
X101465002Y-100253804D01*
X101465002Y-100600936D01*
X97999145Y-97135079D01*
X97983337Y-97096820D01*
X97720547Y-96833571D01*
X97377019Y-96690925D01*
X97005053Y-96690601D01*
X96661277Y-96832646D01*
X96398028Y-97095436D01*
X96255382Y-97438964D01*
X96255058Y-97810930D01*
X96397103Y-98154706D01*
X96463845Y-98221565D01*
X96233415Y-98451593D01*
X96090769Y-98795121D01*
X96090445Y-99167087D01*
X88500624Y-99167087D01*
X88468779Y-99145809D01*
X88044000Y-99061315D01*
X87619221Y-99145809D01*
X87259111Y-99386426D01*
X87125760Y-99586000D01*
X86104000Y-99586000D01*
X86104000Y-96106000D01*
X87125760Y-96106000D01*
X87259111Y-96305574D01*
X87619221Y-96546191D01*
X88044000Y-96630685D01*
X88468779Y-96546191D01*
X88828889Y-96305574D01*
X89069506Y-95945464D01*
X89154000Y-95520685D01*
X89154000Y-95171315D01*
X89069506Y-94746536D01*
X88935625Y-94546167D01*
X89869838Y-94546167D01*
X90011883Y-94889943D01*
X90274673Y-95153192D01*
X90618201Y-95295838D01*
X90990167Y-95296162D01*
X91119798Y-95242600D01*
X91664599Y-95787401D01*
X91911161Y-95952148D01*
X92202000Y-96010000D01*
X96338537Y-96010000D01*
X96370673Y-96042192D01*
X96714201Y-96184838D01*
X97086167Y-96185162D01*
X97429943Y-96043117D01*
X97693192Y-95780327D01*
X97835838Y-95436799D01*
X97836162Y-95064833D01*
X97694117Y-94721057D01*
X97431327Y-94457808D01*
X97087799Y-94315162D01*
X97012259Y-94315096D01*
X97073838Y-94166799D01*
X97074060Y-93911167D01*
X99648838Y-93911167D01*
X99790883Y-94254943D01*
X100053673Y-94518192D01*
X100397201Y-94660838D01*
X100769167Y-94661162D01*
X100898798Y-94607600D01*
X103712878Y-97421680D01*
X103712838Y-97467167D01*
X103854883Y-97810943D01*
X104117673Y-98074192D01*
X104461201Y-98216838D01*
X104833167Y-98217162D01*
X105176943Y-98075117D01*
X105440192Y-97812327D01*
X105567068Y-97506775D01*
X126753803Y-97506775D01*
X126926233Y-97924086D01*
X127245235Y-98243645D01*
X127662244Y-98416803D01*
X128113775Y-98417197D01*
X128531086Y-98244767D01*
X128850645Y-97925765D01*
X129023803Y-97508756D01*
X129024197Y-97057225D01*
X128851767Y-96639914D01*
X128532765Y-96320355D01*
X128115756Y-96147197D01*
X127664225Y-96146803D01*
X127246914Y-96319233D01*
X126927355Y-96638235D01*
X126754197Y-97055244D01*
X126753803Y-97506775D01*
X105567068Y-97506775D01*
X105582838Y-97468799D01*
X105583162Y-97096833D01*
X105441117Y-96753057D01*
X105178327Y-96489808D01*
X104834799Y-96347162D01*
X104787923Y-96347121D01*
X102097969Y-93657167D01*
X112221838Y-93657167D01*
X112363883Y-94000943D01*
X112626673Y-94264192D01*
X112970201Y-94406838D01*
X113342167Y-94407162D01*
X113685943Y-94265117D01*
X113949192Y-94002327D01*
X114091838Y-93658799D01*
X114092162Y-93286833D01*
X113950117Y-92943057D01*
X113917000Y-92909882D01*
X113917000Y-84636241D01*
X114076192Y-84477327D01*
X114218838Y-84133799D01*
X114219162Y-83761833D01*
X114077117Y-83418057D01*
X113814327Y-83154808D01*
X113470799Y-83012162D01*
X113098833Y-83011838D01*
X112755057Y-83153883D01*
X112491808Y-83416673D01*
X112349162Y-83760201D01*
X112348838Y-84132167D01*
X112397000Y-84248728D01*
X112397000Y-92909537D01*
X112364808Y-92941673D01*
X112222162Y-93285201D01*
X112221838Y-93657167D01*
X102097969Y-93657167D01*
X101629401Y-93188599D01*
X101382839Y-93023852D01*
X101159957Y-92979518D01*
X101114327Y-92933808D01*
X100770799Y-92791162D01*
X100398833Y-92790838D01*
X100055057Y-92932883D01*
X99791808Y-93195673D01*
X99649162Y-93539201D01*
X99648838Y-93911167D01*
X97074060Y-93911167D01*
X97074162Y-93794833D01*
X96932117Y-93451057D01*
X96914000Y-93432908D01*
X96914000Y-90872016D01*
X99728875Y-88057141D01*
X99753167Y-88057162D01*
X100096943Y-87915117D01*
X100360192Y-87652327D01*
X100502838Y-87308799D01*
X100503162Y-86936833D01*
X100361117Y-86593057D01*
X100098327Y-86329808D01*
X99754799Y-86187162D01*
X99382833Y-86186838D01*
X99039057Y-86328883D01*
X98775808Y-86591673D01*
X98633162Y-86935201D01*
X98633140Y-86960844D01*
X97903061Y-87690923D01*
X97685327Y-87472808D01*
X97341799Y-87330162D01*
X97294923Y-87330121D01*
X96010000Y-86045198D01*
X96010000Y-85652463D01*
X96042192Y-85620327D01*
X96184838Y-85276799D01*
X96185162Y-84904833D01*
X96043117Y-84561057D01*
X95780327Y-84297808D01*
X95436799Y-84155162D01*
X95064833Y-84154838D01*
X94721057Y-84296883D01*
X94457808Y-84559673D01*
X94315162Y-84903201D01*
X94314838Y-85275167D01*
X94456883Y-85618943D01*
X94490000Y-85652118D01*
X94490000Y-86360000D01*
X94547852Y-86650839D01*
X94712599Y-86897401D01*
X96219878Y-88404680D01*
X96219838Y-88450167D01*
X96361883Y-88793943D01*
X96580771Y-89013213D01*
X95590992Y-90002992D01*
X95422993Y-90254420D01*
X95364000Y-90551000D01*
X95364000Y-93432511D01*
X95346808Y-93449673D01*
X95204162Y-93793201D01*
X95203838Y-94165167D01*
X95338056Y-94490000D01*
X92516802Y-94490000D01*
X91850401Y-93823599D01*
X91603839Y-93658852D01*
X91380957Y-93614518D01*
X91335327Y-93568808D01*
X90991799Y-93426162D01*
X90619833Y-93425838D01*
X90276057Y-93567883D01*
X90012808Y-93830673D01*
X89870162Y-94174201D01*
X89869838Y-94546167D01*
X88935625Y-94546167D01*
X88828889Y-94386426D01*
X88468779Y-94145809D01*
X88044000Y-94061315D01*
X87619221Y-94145809D01*
X87259111Y-94386426D01*
X87125760Y-94586000D01*
X86733885Y-94586000D01*
X86781624Y-94346000D01*
X86695227Y-93911654D01*
X86449190Y-93543434D01*
X86080970Y-93297397D01*
X85646624Y-93211000D01*
X85204267Y-93211000D01*
X85204267Y-85754927D01*
X87697637Y-85754927D01*
X87732678Y-86125239D01*
X87806975Y-86304607D01*
X88001573Y-86316819D01*
X87883858Y-86434534D01*
X87947484Y-86498160D01*
X87853808Y-86591673D01*
X87711162Y-86935201D01*
X87710838Y-87307167D01*
X87852883Y-87650943D01*
X87958710Y-87756954D01*
X87853808Y-87861673D01*
X87711162Y-88205201D01*
X87710838Y-88577167D01*
X87852883Y-88920943D01*
X87958710Y-89026954D01*
X87853808Y-89131673D01*
X87711162Y-89475201D01*
X87710838Y-89847167D01*
X87852883Y-90190943D01*
X88115673Y-90454192D01*
X88459201Y-90596838D01*
X88831167Y-90597162D01*
X89174943Y-90455117D01*
X89280954Y-90349290D01*
X89385673Y-90454192D01*
X89729201Y-90596838D01*
X90101167Y-90597162D01*
X90444943Y-90455117D01*
X90708192Y-90192327D01*
X90850838Y-89848799D01*
X90851162Y-89476833D01*
X90709117Y-89133057D01*
X90603290Y-89027046D01*
X90708192Y-88922327D01*
X90850838Y-88578799D01*
X90851162Y-88206833D01*
X90709117Y-87863057D01*
X90603290Y-87757046D01*
X90708192Y-87652327D01*
X90850838Y-87308799D01*
X90851162Y-86936833D01*
X90709117Y-86593057D01*
X90614451Y-86498225D01*
X90678142Y-86434534D01*
X90560427Y-86316819D01*
X90755025Y-86304607D01*
X90864363Y-85949073D01*
X90829322Y-85578761D01*
X90755025Y-85399393D01*
X90560427Y-85387181D01*
X90678142Y-85269466D01*
X90614516Y-85205840D01*
X90708192Y-85112327D01*
X90850838Y-84768799D01*
X90851162Y-84396833D01*
X90709117Y-84053057D01*
X90446327Y-83789808D01*
X90102799Y-83647162D01*
X89730833Y-83646838D01*
X89387057Y-83788883D01*
X89281046Y-83894710D01*
X89176327Y-83789808D01*
X88832799Y-83647162D01*
X88460833Y-83646838D01*
X88117057Y-83788883D01*
X87853808Y-84051673D01*
X87711162Y-84395201D01*
X87710838Y-84767167D01*
X87852883Y-85110943D01*
X87947549Y-85205775D01*
X87883858Y-85269466D01*
X88001573Y-85387181D01*
X87806975Y-85399393D01*
X87697637Y-85754927D01*
X85204267Y-85754927D01*
X85204267Y-82578053D01*
X85375918Y-82750004D01*
X86013373Y-83014699D01*
X86703599Y-83015301D01*
X86978352Y-82901775D01*
X121546803Y-82901775D01*
X121719233Y-83319086D01*
X122038235Y-83638645D01*
X122455244Y-83811803D01*
X122906775Y-83812197D01*
X123324086Y-83639767D01*
X123643645Y-83320765D01*
X123816803Y-82903756D01*
X123817197Y-82452225D01*
X123644767Y-82034914D01*
X123325765Y-81715355D01*
X122908756Y-81542197D01*
X122457225Y-81541803D01*
X122039914Y-81714233D01*
X121720355Y-82033235D01*
X121547197Y-82450244D01*
X121546803Y-82901775D01*
X86978352Y-82901775D01*
X87341515Y-82751719D01*
X87830004Y-82264082D01*
X88031602Y-81778579D01*
X93125786Y-81778579D01*
X93313408Y-82232657D01*
X93660515Y-82580371D01*
X94114266Y-82768785D01*
X94605579Y-82769214D01*
X95059657Y-82581592D01*
X95407371Y-82234485D01*
X95595785Y-81780734D01*
X95595786Y-81778579D01*
X96173786Y-81778579D01*
X96361408Y-82232657D01*
X96708515Y-82580371D01*
X97162266Y-82768785D01*
X97653579Y-82769214D01*
X98107657Y-82581592D01*
X98455371Y-82234485D01*
X98643785Y-81780734D01*
X98644214Y-81289421D01*
X98456592Y-80835343D01*
X98109485Y-80487629D01*
X97655734Y-80299215D01*
X97164421Y-80298786D01*
X96710343Y-80486408D01*
X96362629Y-80833515D01*
X96174215Y-81287266D01*
X96173786Y-81778579D01*
X95595786Y-81778579D01*
X95596214Y-81289421D01*
X95408592Y-80835343D01*
X95061485Y-80487629D01*
X94607734Y-80299215D01*
X94116421Y-80298786D01*
X93662343Y-80486408D01*
X93314629Y-80833515D01*
X93126215Y-81287266D01*
X93125786Y-81778579D01*
X88031602Y-81778579D01*
X88094699Y-81626627D01*
X88095301Y-80936401D01*
X87831719Y-80298485D01*
X87670516Y-80137000D01*
X121546888Y-80137000D01*
X121546803Y-80234775D01*
X121546803Y-80234775D01*
G37*
X121546803Y-80234775D02*
X121719233Y-80652086D01*
X122038235Y-80971645D01*
X122455244Y-81144803D01*
X122906775Y-81145197D01*
X123324086Y-80972767D01*
X123643645Y-80653765D01*
X123816803Y-80236756D01*
X123816890Y-80137000D01*
X128229192Y-80137000D01*
X128069996Y-80295918D01*
X127805301Y-80933373D01*
X127804699Y-81623599D01*
X128068281Y-82261515D01*
X128555918Y-82750004D01*
X129193373Y-83014699D01*
X129883599Y-83015301D01*
X130521515Y-82751719D01*
X130670267Y-82603226D01*
X130670267Y-96147099D01*
X130331225Y-96146803D01*
X129913914Y-96319233D01*
X129594355Y-96638235D01*
X129421197Y-97055244D01*
X129420803Y-97506775D01*
X129593233Y-97924086D01*
X129912235Y-98243645D01*
X130329244Y-98416803D01*
X130670267Y-98417101D01*
X130670267Y-116913658D01*
X130397082Y-116639996D01*
X129759627Y-116375301D01*
X129069401Y-116374699D01*
X128431485Y-116638281D01*
X127942996Y-117125918D01*
X127678301Y-117763373D01*
X127677699Y-118453599D01*
X127941281Y-119091515D01*
X128102484Y-119253000D01*
X87670808Y-119253000D01*
X87830004Y-119094082D01*
X88094699Y-118456627D01*
X88095301Y-117766401D01*
X87831719Y-117128485D01*
X87344082Y-116639996D01*
X86706627Y-116375301D01*
X86016401Y-116374699D01*
X85378485Y-116638281D01*
X85204267Y-116812195D01*
X85204267Y-110675167D01*
X89996838Y-110675167D01*
X90138883Y-111018943D01*
X90401673Y-111282192D01*
X90745201Y-111424838D01*
X91117167Y-111425162D01*
X91460943Y-111283117D01*
X91494118Y-111250000D01*
X94996000Y-111250000D01*
X95286839Y-111192148D01*
X95533401Y-111027401D01*
X96532680Y-110028122D01*
X96578167Y-110028162D01*
X96921943Y-109886117D01*
X97185192Y-109623327D01*
X97327838Y-109279799D01*
X97328162Y-108907833D01*
X97186117Y-108564057D01*
X96923327Y-108300808D01*
X96579799Y-108158162D01*
X96207833Y-108157838D01*
X95864057Y-108299883D01*
X95600808Y-108562673D01*
X95458162Y-108906201D01*
X95458121Y-108953077D01*
X94681198Y-109730000D01*
X94417802Y-109730000D01*
X96405680Y-107742122D01*
X96451167Y-107742162D01*
X96794943Y-107600117D01*
X97058192Y-107337327D01*
X97200838Y-106993799D01*
X97201162Y-106621833D01*
X97059117Y-106278057D01*
X96796327Y-106014808D01*
X96452799Y-105872162D01*
X96080833Y-105871838D01*
X95737057Y-106013883D01*
X95629000Y-106121752D01*
X95629000Y-105210463D01*
X95661192Y-105178327D01*
X95803838Y-104834799D01*
X95804162Y-104462833D01*
X95662117Y-104119057D01*
X95399327Y-103855808D01*
X95055799Y-103713162D01*
X94683833Y-103712838D01*
X94340057Y-103854883D01*
X94076808Y-104117673D01*
X93934162Y-104461201D01*
X93933838Y-104833167D01*
X94075883Y-105176943D01*
X94109000Y-105210118D01*
X94109000Y-106625759D01*
X93949808Y-106784673D01*
X93807162Y-107128201D01*
X93806838Y-107500167D01*
X93948883Y-107843943D01*
X94051479Y-107946719D01*
X93411198Y-108587000D01*
X91621463Y-108587000D01*
X91589327Y-108554808D01*
X91245799Y-108412162D01*
X90873833Y-108411838D01*
X90530057Y-108553883D01*
X90266808Y-108816673D01*
X90124162Y-109160201D01*
X90123838Y-109532167D01*
X90253560Y-109846119D01*
X90139808Y-109959673D01*
X89997162Y-110303201D01*
X89996838Y-110675167D01*
X85204267Y-110675167D01*
X85204267Y-102481000D01*
X85646624Y-102481000D01*
X86080970Y-102394603D01*
X86449190Y-102148566D01*
X86695227Y-101780346D01*
X86781624Y-101346000D01*
X86733885Y-101106000D01*
X87125760Y-101106000D01*
X87259111Y-101305574D01*
X87619221Y-101546191D01*
X88044000Y-101630685D01*
X88468779Y-101546191D01*
X88828889Y-101305574D01*
X89069506Y-100945464D01*
X89154000Y-100520685D01*
X89154000Y-100171315D01*
X89069506Y-99746536D01*
X88828889Y-99386426D01*
X88500624Y-99167087D01*
X96090445Y-99167087D01*
X96232490Y-99510863D01*
X96495280Y-99774112D01*
X96838808Y-99916758D01*
X96937042Y-99916844D01*
X100029878Y-103009680D01*
X100029838Y-103055167D01*
X100171883Y-103398943D01*
X100229021Y-103456181D01*
X99538599Y-104146603D01*
X99373852Y-104393165D01*
X99316000Y-104684004D01*
X99316000Y-116531469D01*
X99285697Y-116543990D01*
X98892371Y-116936630D01*
X98679243Y-117449900D01*
X98678758Y-118005661D01*
X98890990Y-118519303D01*
X99283630Y-118912629D01*
X99796900Y-119125757D01*
X100352661Y-119126242D01*
X100866303Y-118914010D01*
X101071457Y-118709213D01*
X101815392Y-118709213D01*
X101884857Y-118951397D01*
X102408302Y-119138144D01*
X102963368Y-119110362D01*
X103347143Y-118951397D01*
X103416608Y-118709213D01*
X104355392Y-118709213D01*
X104424857Y-118951397D01*
X104948302Y-119138144D01*
X105503368Y-119110362D01*
X105887143Y-118951397D01*
X105956608Y-118709213D01*
X105156000Y-117908605D01*
X104355392Y-118709213D01*
X103416608Y-118709213D01*
X102616000Y-117908605D01*
X101815392Y-118709213D01*
X101071457Y-118709213D01*
X101259629Y-118521370D01*
X101339395Y-118329273D01*
X101393603Y-118460143D01*
X101635787Y-118529608D01*
X102436395Y-117729000D01*
X102795605Y-117729000D01*
X103596213Y-118529608D01*
X103838397Y-118460143D01*
X103882453Y-118336656D01*
X103933603Y-118460143D01*
X104175787Y-118529608D01*
X104976395Y-117729000D01*
X104175787Y-116928392D01*
X103933603Y-116997857D01*
X103889547Y-117121344D01*
X103838397Y-116997857D01*
X103596213Y-116928392D01*
X102795605Y-117729000D01*
X102436395Y-117729000D01*
X101635787Y-116928392D01*
X101393603Y-116997857D01*
X101343491Y-117138318D01*
X101261010Y-116938697D01*
X101071432Y-116748787D01*
X101815392Y-116748787D01*
X102616000Y-117549395D01*
X103416608Y-116748787D01*
X104355392Y-116748787D01*
X105156000Y-117549395D01*
X105956608Y-116748787D01*
X105887143Y-116506603D01*
X105363698Y-116319856D01*
X104808632Y-116347638D01*
X104424857Y-116506603D01*
X104355392Y-116748787D01*
X103416608Y-116748787D01*
X103347143Y-116506603D01*
X102823698Y-116319856D01*
X102268632Y-116347638D01*
X101884857Y-116506603D01*
X101815392Y-116748787D01*
X101071432Y-116748787D01*
X100868370Y-116545371D01*
X100836000Y-116531930D01*
X100836000Y-111310167D01*
X101045838Y-111310167D01*
X101187883Y-111653943D01*
X101450673Y-111917192D01*
X101794201Y-112059838D01*
X102166167Y-112060162D01*
X102509943Y-111918117D01*
X102773192Y-111655327D01*
X102915838Y-111311799D01*
X102916162Y-110939833D01*
X102774117Y-110596057D01*
X102741000Y-110562882D01*
X102741000Y-105343802D01*
X104651341Y-103433461D01*
X104879673Y-103662192D01*
X105223201Y-103804838D01*
X105270077Y-103804879D01*
X107190000Y-105724802D01*
X107190000Y-108022537D01*
X107157808Y-108054673D01*
X107015162Y-108398201D01*
X107014838Y-108770167D01*
X107156883Y-109113943D01*
X107419673Y-109377192D01*
X107763201Y-109519838D01*
X108135167Y-109520162D01*
X108265013Y-109466511D01*
X108265013Y-116085185D01*
X108005381Y-116344817D01*
X107975100Y-116332243D01*
X107419339Y-116331758D01*
X106905697Y-116543990D01*
X106512371Y-116936630D01*
X106432605Y-117128727D01*
X106378397Y-116997857D01*
X106136213Y-116928392D01*
X105335605Y-117729000D01*
X106136213Y-118529608D01*
X106378397Y-118460143D01*
X106428509Y-118319682D01*
X106510990Y-118519303D01*
X106903630Y-118912629D01*
X107416900Y-119125757D01*
X107972661Y-119126242D01*
X108486303Y-118914010D01*
X108879629Y-118521370D01*
X108965949Y-118313488D01*
X109050990Y-118519303D01*
X109443630Y-118912629D01*
X109956900Y-119125757D01*
X110512661Y-119126242D01*
X111026303Y-118914010D01*
X111419629Y-118521370D01*
X111505949Y-118313488D01*
X111590990Y-118519303D01*
X111983630Y-118912629D01*
X112496900Y-119125757D01*
X113052661Y-119126242D01*
X113566303Y-118914010D01*
X113959629Y-118521370D01*
X114045949Y-118313488D01*
X114130990Y-118519303D01*
X114523630Y-118912629D01*
X115036900Y-119125757D01*
X115592661Y-119126242D01*
X116106303Y-118914010D01*
X116499629Y-118521370D01*
X116585949Y-118313488D01*
X116670990Y-118519303D01*
X117063630Y-118912629D01*
X117576900Y-119125757D01*
X118132661Y-119126242D01*
X118646303Y-118914010D01*
X119039629Y-118521370D01*
X119252757Y-118008100D01*
X119253242Y-117452339D01*
X119041010Y-116938697D01*
X118648370Y-116545371D01*
X118135100Y-116332243D01*
X117579339Y-116331758D01*
X117065697Y-116543990D01*
X116672371Y-116936630D01*
X116586051Y-117144512D01*
X116501010Y-116938697D01*
X116108370Y-116545371D01*
X115595100Y-116332243D01*
X115039339Y-116331758D01*
X114525697Y-116543990D01*
X114132371Y-116936630D01*
X114046051Y-117144512D01*
X113961010Y-116938697D01*
X113568370Y-116545371D01*
X113055100Y-116332243D01*
X112499339Y-116331758D01*
X111985697Y-116543990D01*
X111592371Y-116936630D01*
X111506051Y-117144512D01*
X111421010Y-116938697D01*
X111028370Y-116545371D01*
X110996000Y-116531930D01*
X110996000Y-109601000D01*
X110952804Y-109383840D01*
X110938148Y-109310160D01*
X110790115Y-109088613D01*
X110790162Y-109034833D01*
X110648117Y-108691057D01*
X110385327Y-108427808D01*
X110041799Y-108285162D01*
X109785013Y-108284938D01*
X109785013Y-102675013D01*
X109734321Y-102420167D01*
X112094838Y-102420167D01*
X112236883Y-102763943D01*
X112499673Y-103027192D01*
X112843201Y-103169838D01*
X113215167Y-103170162D01*
X113558943Y-103028117D01*
X113592118Y-102995000D01*
X126050198Y-102995000D01*
X126064878Y-103009680D01*
X126064838Y-103055167D01*
X126206883Y-103398943D01*
X126469673Y-103662192D01*
X126813201Y-103804838D01*
X127185167Y-103805162D01*
X127528943Y-103663117D01*
X127792192Y-103400327D01*
X127934838Y-103056799D01*
X127935162Y-102684833D01*
X127793117Y-102341057D01*
X127530327Y-102077808D01*
X127186799Y-101935162D01*
X127139923Y-101935121D01*
X126902401Y-101697599D01*
X126655839Y-101532852D01*
X126365000Y-101475000D01*
X113592463Y-101475000D01*
X113560327Y-101442808D01*
X113216799Y-101300162D01*
X112844833Y-101299838D01*
X112501057Y-101441883D01*
X112237808Y-101704673D01*
X112095162Y-102048201D01*
X112094838Y-102420167D01*
X109734321Y-102420167D01*
X109727161Y-102384174D01*
X109562414Y-102137612D01*
X108885122Y-101460320D01*
X108885162Y-101414833D01*
X108743117Y-101071057D01*
X108480327Y-100807808D01*
X108136799Y-100665162D01*
X107764833Y-100664838D01*
X107421057Y-100806883D01*
X107315046Y-100912710D01*
X107243631Y-100841171D01*
X108470680Y-99614122D01*
X108516167Y-99614162D01*
X108859943Y-99472117D01*
X109123192Y-99209327D01*
X109265838Y-98865799D01*
X109266162Y-98493833D01*
X109124117Y-98150057D01*
X108861327Y-97886808D01*
X108517799Y-97744162D01*
X108145833Y-97743838D01*
X107802057Y-97885883D01*
X107538808Y-98148673D01*
X107396162Y-98492201D01*
X107396121Y-98539077D01*
X101443599Y-104491599D01*
X101278852Y-104738161D01*
X101221000Y-105029000D01*
X101221000Y-110562537D01*
X101188808Y-110594673D01*
X101046162Y-110938201D01*
X101045838Y-111310167D01*
X100836000Y-111310167D01*
X100836000Y-104998806D01*
X102762403Y-103072403D01*
X102927150Y-102825841D01*
X102985002Y-102535002D01*
X102985002Y-99939002D01*
X102927150Y-99648163D01*
X102762403Y-99401601D01*
X100884122Y-97523320D01*
X100884162Y-97477833D01*
X100742117Y-97134057D01*
X100479327Y-96870808D01*
X100135799Y-96728162D01*
X99763833Y-96727838D01*
X99420057Y-96869883D01*
X99156808Y-97132673D01*
X99014162Y-97476201D01*
X99013838Y-97848167D01*
X99155883Y-98191943D01*
X99418673Y-98455192D01*
X99762201Y-98597838D01*
X99809077Y-98597879D01*
X101465002Y-100253804D01*
X101465002Y-100600936D01*
X97999145Y-97135079D01*
X97983337Y-97096820D01*
X97720547Y-96833571D01*
X97377019Y-96690925D01*
X97005053Y-96690601D01*
X96661277Y-96832646D01*
X96398028Y-97095436D01*
X96255382Y-97438964D01*
X96255058Y-97810930D01*
X96397103Y-98154706D01*
X96463845Y-98221565D01*
X96233415Y-98451593D01*
X96090769Y-98795121D01*
X96090445Y-99167087D01*
X88500624Y-99167087D01*
X88468779Y-99145809D01*
X88044000Y-99061315D01*
X87619221Y-99145809D01*
X87259111Y-99386426D01*
X87125760Y-99586000D01*
X86104000Y-99586000D01*
X86104000Y-96106000D01*
X87125760Y-96106000D01*
X87259111Y-96305574D01*
X87619221Y-96546191D01*
X88044000Y-96630685D01*
X88468779Y-96546191D01*
X88828889Y-96305574D01*
X89069506Y-95945464D01*
X89154000Y-95520685D01*
X89154000Y-95171315D01*
X89069506Y-94746536D01*
X88935625Y-94546167D01*
X89869838Y-94546167D01*
X90011883Y-94889943D01*
X90274673Y-95153192D01*
X90618201Y-95295838D01*
X90990167Y-95296162D01*
X91119798Y-95242600D01*
X91664599Y-95787401D01*
X91911161Y-95952148D01*
X92202000Y-96010000D01*
X96338537Y-96010000D01*
X96370673Y-96042192D01*
X96714201Y-96184838D01*
X97086167Y-96185162D01*
X97429943Y-96043117D01*
X97693192Y-95780327D01*
X97835838Y-95436799D01*
X97836162Y-95064833D01*
X97694117Y-94721057D01*
X97431327Y-94457808D01*
X97087799Y-94315162D01*
X97012259Y-94315096D01*
X97073838Y-94166799D01*
X97074060Y-93911167D01*
X99648838Y-93911167D01*
X99790883Y-94254943D01*
X100053673Y-94518192D01*
X100397201Y-94660838D01*
X100769167Y-94661162D01*
X100898798Y-94607600D01*
X103712878Y-97421680D01*
X103712838Y-97467167D01*
X103854883Y-97810943D01*
X104117673Y-98074192D01*
X104461201Y-98216838D01*
X104833167Y-98217162D01*
X105176943Y-98075117D01*
X105440192Y-97812327D01*
X105567068Y-97506775D01*
X126753803Y-97506775D01*
X126926233Y-97924086D01*
X127245235Y-98243645D01*
X127662244Y-98416803D01*
X128113775Y-98417197D01*
X128531086Y-98244767D01*
X128850645Y-97925765D01*
X129023803Y-97508756D01*
X129024197Y-97057225D01*
X128851767Y-96639914D01*
X128532765Y-96320355D01*
X128115756Y-96147197D01*
X127664225Y-96146803D01*
X127246914Y-96319233D01*
X126927355Y-96638235D01*
X126754197Y-97055244D01*
X126753803Y-97506775D01*
X105567068Y-97506775D01*
X105582838Y-97468799D01*
X105583162Y-97096833D01*
X105441117Y-96753057D01*
X105178327Y-96489808D01*
X104834799Y-96347162D01*
X104787923Y-96347121D01*
X102097969Y-93657167D01*
X112221838Y-93657167D01*
X112363883Y-94000943D01*
X112626673Y-94264192D01*
X112970201Y-94406838D01*
X113342167Y-94407162D01*
X113685943Y-94265117D01*
X113949192Y-94002327D01*
X114091838Y-93658799D01*
X114092162Y-93286833D01*
X113950117Y-92943057D01*
X113917000Y-92909882D01*
X113917000Y-84636241D01*
X114076192Y-84477327D01*
X114218838Y-84133799D01*
X114219162Y-83761833D01*
X114077117Y-83418057D01*
X113814327Y-83154808D01*
X113470799Y-83012162D01*
X113098833Y-83011838D01*
X112755057Y-83153883D01*
X112491808Y-83416673D01*
X112349162Y-83760201D01*
X112348838Y-84132167D01*
X112397000Y-84248728D01*
X112397000Y-92909537D01*
X112364808Y-92941673D01*
X112222162Y-93285201D01*
X112221838Y-93657167D01*
X102097969Y-93657167D01*
X101629401Y-93188599D01*
X101382839Y-93023852D01*
X101159957Y-92979518D01*
X101114327Y-92933808D01*
X100770799Y-92791162D01*
X100398833Y-92790838D01*
X100055057Y-92932883D01*
X99791808Y-93195673D01*
X99649162Y-93539201D01*
X99648838Y-93911167D01*
X97074060Y-93911167D01*
X97074162Y-93794833D01*
X96932117Y-93451057D01*
X96914000Y-93432908D01*
X96914000Y-90872016D01*
X99728875Y-88057141D01*
X99753167Y-88057162D01*
X100096943Y-87915117D01*
X100360192Y-87652327D01*
X100502838Y-87308799D01*
X100503162Y-86936833D01*
X100361117Y-86593057D01*
X100098327Y-86329808D01*
X99754799Y-86187162D01*
X99382833Y-86186838D01*
X99039057Y-86328883D01*
X98775808Y-86591673D01*
X98633162Y-86935201D01*
X98633140Y-86960844D01*
X97903061Y-87690923D01*
X97685327Y-87472808D01*
X97341799Y-87330162D01*
X97294923Y-87330121D01*
X96010000Y-86045198D01*
X96010000Y-85652463D01*
X96042192Y-85620327D01*
X96184838Y-85276799D01*
X96185162Y-84904833D01*
X96043117Y-84561057D01*
X95780327Y-84297808D01*
X95436799Y-84155162D01*
X95064833Y-84154838D01*
X94721057Y-84296883D01*
X94457808Y-84559673D01*
X94315162Y-84903201D01*
X94314838Y-85275167D01*
X94456883Y-85618943D01*
X94490000Y-85652118D01*
X94490000Y-86360000D01*
X94547852Y-86650839D01*
X94712599Y-86897401D01*
X96219878Y-88404680D01*
X96219838Y-88450167D01*
X96361883Y-88793943D01*
X96580771Y-89013213D01*
X95590992Y-90002992D01*
X95422993Y-90254420D01*
X95364000Y-90551000D01*
X95364000Y-93432511D01*
X95346808Y-93449673D01*
X95204162Y-93793201D01*
X95203838Y-94165167D01*
X95338056Y-94490000D01*
X92516802Y-94490000D01*
X91850401Y-93823599D01*
X91603839Y-93658852D01*
X91380957Y-93614518D01*
X91335327Y-93568808D01*
X90991799Y-93426162D01*
X90619833Y-93425838D01*
X90276057Y-93567883D01*
X90012808Y-93830673D01*
X89870162Y-94174201D01*
X89869838Y-94546167D01*
X88935625Y-94546167D01*
X88828889Y-94386426D01*
X88468779Y-94145809D01*
X88044000Y-94061315D01*
X87619221Y-94145809D01*
X87259111Y-94386426D01*
X87125760Y-94586000D01*
X86733885Y-94586000D01*
X86781624Y-94346000D01*
X86695227Y-93911654D01*
X86449190Y-93543434D01*
X86080970Y-93297397D01*
X85646624Y-93211000D01*
X85204267Y-93211000D01*
X85204267Y-85754927D01*
X87697637Y-85754927D01*
X87732678Y-86125239D01*
X87806975Y-86304607D01*
X88001573Y-86316819D01*
X87883858Y-86434534D01*
X87947484Y-86498160D01*
X87853808Y-86591673D01*
X87711162Y-86935201D01*
X87710838Y-87307167D01*
X87852883Y-87650943D01*
X87958710Y-87756954D01*
X87853808Y-87861673D01*
X87711162Y-88205201D01*
X87710838Y-88577167D01*
X87852883Y-88920943D01*
X87958710Y-89026954D01*
X87853808Y-89131673D01*
X87711162Y-89475201D01*
X87710838Y-89847167D01*
X87852883Y-90190943D01*
X88115673Y-90454192D01*
X88459201Y-90596838D01*
X88831167Y-90597162D01*
X89174943Y-90455117D01*
X89280954Y-90349290D01*
X89385673Y-90454192D01*
X89729201Y-90596838D01*
X90101167Y-90597162D01*
X90444943Y-90455117D01*
X90708192Y-90192327D01*
X90850838Y-89848799D01*
X90851162Y-89476833D01*
X90709117Y-89133057D01*
X90603290Y-89027046D01*
X90708192Y-88922327D01*
X90850838Y-88578799D01*
X90851162Y-88206833D01*
X90709117Y-87863057D01*
X90603290Y-87757046D01*
X90708192Y-87652327D01*
X90850838Y-87308799D01*
X90851162Y-86936833D01*
X90709117Y-86593057D01*
X90614451Y-86498225D01*
X90678142Y-86434534D01*
X90560427Y-86316819D01*
X90755025Y-86304607D01*
X90864363Y-85949073D01*
X90829322Y-85578761D01*
X90755025Y-85399393D01*
X90560427Y-85387181D01*
X90678142Y-85269466D01*
X90614516Y-85205840D01*
X90708192Y-85112327D01*
X90850838Y-84768799D01*
X90851162Y-84396833D01*
X90709117Y-84053057D01*
X90446327Y-83789808D01*
X90102799Y-83647162D01*
X89730833Y-83646838D01*
X89387057Y-83788883D01*
X89281046Y-83894710D01*
X89176327Y-83789808D01*
X88832799Y-83647162D01*
X88460833Y-83646838D01*
X88117057Y-83788883D01*
X87853808Y-84051673D01*
X87711162Y-84395201D01*
X87710838Y-84767167D01*
X87852883Y-85110943D01*
X87947549Y-85205775D01*
X87883858Y-85269466D01*
X88001573Y-85387181D01*
X87806975Y-85399393D01*
X87697637Y-85754927D01*
X85204267Y-85754927D01*
X85204267Y-82578053D01*
X85375918Y-82750004D01*
X86013373Y-83014699D01*
X86703599Y-83015301D01*
X86978352Y-82901775D01*
X121546803Y-82901775D01*
X121719233Y-83319086D01*
X122038235Y-83638645D01*
X122455244Y-83811803D01*
X122906775Y-83812197D01*
X123324086Y-83639767D01*
X123643645Y-83320765D01*
X123816803Y-82903756D01*
X123817197Y-82452225D01*
X123644767Y-82034914D01*
X123325765Y-81715355D01*
X122908756Y-81542197D01*
X122457225Y-81541803D01*
X122039914Y-81714233D01*
X121720355Y-82033235D01*
X121547197Y-82450244D01*
X121546803Y-82901775D01*
X86978352Y-82901775D01*
X87341515Y-82751719D01*
X87830004Y-82264082D01*
X88031602Y-81778579D01*
X93125786Y-81778579D01*
X93313408Y-82232657D01*
X93660515Y-82580371D01*
X94114266Y-82768785D01*
X94605579Y-82769214D01*
X95059657Y-82581592D01*
X95407371Y-82234485D01*
X95595785Y-81780734D01*
X95595786Y-81778579D01*
X96173786Y-81778579D01*
X96361408Y-82232657D01*
X96708515Y-82580371D01*
X97162266Y-82768785D01*
X97653579Y-82769214D01*
X98107657Y-82581592D01*
X98455371Y-82234485D01*
X98643785Y-81780734D01*
X98644214Y-81289421D01*
X98456592Y-80835343D01*
X98109485Y-80487629D01*
X97655734Y-80299215D01*
X97164421Y-80298786D01*
X96710343Y-80486408D01*
X96362629Y-80833515D01*
X96174215Y-81287266D01*
X96173786Y-81778579D01*
X95595786Y-81778579D01*
X95596214Y-81289421D01*
X95408592Y-80835343D01*
X95061485Y-80487629D01*
X94607734Y-80299215D01*
X94116421Y-80298786D01*
X93662343Y-80486408D01*
X93314629Y-80833515D01*
X93126215Y-81287266D01*
X93125786Y-81778579D01*
X88031602Y-81778579D01*
X88094699Y-81626627D01*
X88095301Y-80936401D01*
X87831719Y-80298485D01*
X87670516Y-80137000D01*
X121546888Y-80137000D01*
X121546803Y-80234775D01*
G36*
X90109748Y-85837858D02*
X90095605Y-85852000D01*
X90109748Y-85866143D01*
X89930143Y-86045748D01*
X89916000Y-86031605D01*
X89901858Y-86045748D01*
X89722253Y-85866143D01*
X89736395Y-85852000D01*
X89722253Y-85837858D01*
X89901858Y-85658253D01*
X89916000Y-85672395D01*
X89930143Y-85658253D01*
X90109748Y-85837858D01*
X90109748Y-85837858D01*
G37*
X90109748Y-85837858D02*
X90095605Y-85852000D01*
X90109748Y-85866143D01*
X89930143Y-86045748D01*
X89916000Y-86031605D01*
X89901858Y-86045748D01*
X89722253Y-85866143D01*
X89736395Y-85852000D01*
X89722253Y-85837858D01*
X89901858Y-85658253D01*
X89916000Y-85672395D01*
X89930143Y-85658253D01*
X90109748Y-85837858D01*
G36*
X88839748Y-85837858D02*
X88825605Y-85852000D01*
X88839748Y-85866143D01*
X88660143Y-86045748D01*
X88646000Y-86031605D01*
X88631858Y-86045748D01*
X88452253Y-85866143D01*
X88466395Y-85852000D01*
X88452253Y-85837858D01*
X88631858Y-85658253D01*
X88646000Y-85672395D01*
X88660143Y-85658253D01*
X88839748Y-85837858D01*
X88839748Y-85837858D01*
G37*
X88839748Y-85837858D02*
X88825605Y-85852000D01*
X88839748Y-85866143D01*
X88660143Y-86045748D01*
X88646000Y-86031605D01*
X88631858Y-86045748D01*
X88452253Y-85866143D01*
X88466395Y-85852000D01*
X88452253Y-85837858D01*
X88631858Y-85658253D01*
X88646000Y-85672395D01*
X88660143Y-85658253D01*
X88839748Y-85837858D01*
M02*
