G04 #@! TF.FileFunction,Legend,Top*
%FSLAX46Y46*%
G04 Gerber Fmt 4.6, Leading zero omitted, Abs format (unit mm)*
G04 Created by KiCad (PCBNEW 4.0.4-stable) date 10/24/16 21:05:07*
%MOMM*%
%LPD*%
G01*
G04 APERTURE LIST*
%ADD10C,0.100000*%
%ADD11C,0.200000*%
%ADD12C,0.150000*%
G04 APERTURE END LIST*
D10*
D11*
X89922428Y-108619857D02*
X89922428Y-107419857D01*
X90722429Y-107419857D02*
X90951000Y-107419857D01*
X91065286Y-107477000D01*
X91179572Y-107591286D01*
X91236714Y-107819857D01*
X91236714Y-108219857D01*
X91179572Y-108448429D01*
X91065286Y-108562714D01*
X90951000Y-108619857D01*
X90722429Y-108619857D01*
X90608143Y-108562714D01*
X90493857Y-108448429D01*
X90436714Y-108219857D01*
X90436714Y-107819857D01*
X90493857Y-107591286D01*
X90608143Y-107477000D01*
X90722429Y-107419857D01*
X91360715Y-111426571D02*
X91303572Y-111483714D01*
X91132143Y-111540857D01*
X91017857Y-111540857D01*
X90846429Y-111483714D01*
X90732143Y-111369429D01*
X90675000Y-111255143D01*
X90617857Y-111026571D01*
X90617857Y-110855143D01*
X90675000Y-110626571D01*
X90732143Y-110512286D01*
X90846429Y-110398000D01*
X91017857Y-110340857D01*
X91132143Y-110340857D01*
X91303572Y-110398000D01*
X91360715Y-110455143D01*
X92446429Y-111540857D02*
X91875000Y-111540857D01*
X91875000Y-110340857D01*
X92846429Y-111540857D02*
X92846429Y-110340857D01*
X93532144Y-111540857D02*
X93017858Y-110855143D01*
X93532144Y-110340857D02*
X92846429Y-111026571D01*
X91500286Y-112176000D02*
X91386000Y-112118857D01*
X91214571Y-112118857D01*
X91043143Y-112176000D01*
X90928857Y-112290286D01*
X90871714Y-112404571D01*
X90814571Y-112633143D01*
X90814571Y-112804571D01*
X90871714Y-113033143D01*
X90928857Y-113147429D01*
X91043143Y-113261714D01*
X91214571Y-113318857D01*
X91328857Y-113318857D01*
X91500286Y-113261714D01*
X91557429Y-113204571D01*
X91557429Y-112804571D01*
X91328857Y-112804571D01*
D10*
X98806000Y-116713000D02*
X119126000Y-116713000D01*
X98806000Y-119253000D02*
X98806000Y-116713000D01*
X119126000Y-119253000D02*
X98806000Y-119253000D01*
X119126000Y-116713000D02*
X119126000Y-119253000D01*
X92726000Y-120253000D02*
X125126000Y-120253000D01*
X92726000Y-78753000D02*
X92726000Y-120253000D01*
X100736000Y-117753000D02*
G75*
G03X100736000Y-117753000I-700000J0D01*
G01*
X105816000Y-117753000D02*
G75*
G03X105816000Y-117753000I-700000J0D01*
G01*
X108356000Y-117753000D02*
G75*
G03X108356000Y-117753000I-700000J0D01*
G01*
X110896000Y-117753000D02*
G75*
G03X110896000Y-117753000I-700000J0D01*
G01*
X113436000Y-117753000D02*
G75*
G03X113436000Y-117753000I-700000J0D01*
G01*
X125126000Y-78753000D02*
X92726000Y-78753000D01*
X103276000Y-117753000D02*
G75*
G03X103276000Y-117753000I-700000J0D01*
G01*
X125126000Y-120253000D02*
X125126000Y-78753000D01*
X118516000Y-117753000D02*
G75*
G03X118516000Y-117753000I-700000J0D01*
G01*
X115976000Y-117753000D02*
G75*
G03X115976000Y-117753000I-700000J0D01*
G01*
D12*
X84401000Y-108971000D02*
X84401000Y-112771000D01*
X84401000Y-112771000D02*
X84901000Y-112771000D01*
X84901000Y-112771000D02*
X84901000Y-108971000D01*
X84901000Y-108971000D02*
X84401000Y-108971000D01*
X87601000Y-107271000D02*
X88701000Y-107271000D01*
X88701000Y-107271000D02*
X88701000Y-108921000D01*
X88701000Y-108921000D02*
X88201000Y-108921000D01*
X88201000Y-108921000D02*
X88201000Y-107771000D01*
X88201000Y-107771000D02*
X87601000Y-107771000D01*
X87601000Y-107771000D02*
X87601000Y-107271000D01*
X87601000Y-114471000D02*
X88701000Y-114471000D01*
X88701000Y-114471000D02*
X88701000Y-112821000D01*
X88701000Y-112821000D02*
X88201000Y-112821000D01*
X88201000Y-112821000D02*
X88201000Y-113971000D01*
X88201000Y-113971000D02*
X87601000Y-113971000D01*
X87601000Y-113971000D02*
X87601000Y-114471000D01*
X90551000Y-109621000D02*
X91051000Y-109371000D01*
X91051000Y-109371000D02*
X91051000Y-109871000D01*
X91051000Y-109871000D02*
X90551000Y-109621000D01*
X87051000Y-109371000D02*
X86551000Y-109371000D01*
X86551000Y-109371000D02*
X86551000Y-109871000D01*
X86551000Y-109871000D02*
X87051000Y-109871000D01*
X87051000Y-109871000D02*
X87051000Y-109371000D01*
X87051000Y-110621000D02*
X86551000Y-110621000D01*
X86551000Y-110621000D02*
X86551000Y-111121000D01*
X86551000Y-111121000D02*
X87051000Y-111121000D01*
X87051000Y-111121000D02*
X87051000Y-110621000D01*
X87051000Y-111871000D02*
X86551000Y-111871000D01*
X86551000Y-111871000D02*
X86551000Y-112371000D01*
X86551000Y-112371000D02*
X87051000Y-112371000D01*
X87051000Y-112371000D02*
X87051000Y-111871000D01*
X128555000Y-102270000D02*
X129255000Y-102270000D01*
X129255000Y-103470000D02*
X128555000Y-103470000D01*
X114839000Y-81569000D02*
X115539000Y-81569000D01*
X115539000Y-82769000D02*
X114839000Y-82769000D01*
X104902000Y-86266020D02*
X106172000Y-86266020D01*
X104902000Y-87917020D02*
X106172000Y-87917020D01*
X106172000Y-87917020D02*
X106172000Y-85885020D01*
X106172000Y-85885020D02*
X104902000Y-85885020D01*
X104902000Y-85885020D02*
X104902000Y-87917020D01*
X86960000Y-84933000D02*
X86960000Y-85633000D01*
X85760000Y-85633000D02*
X85760000Y-84933000D01*
X99984000Y-101000000D02*
X99984000Y-100300000D01*
X101184000Y-100300000D02*
X101184000Y-101000000D01*
X120046000Y-105699000D02*
X120746000Y-105699000D01*
X120746000Y-106899000D02*
X120046000Y-106899000D01*
X120046000Y-101635000D02*
X120746000Y-101635000D01*
X120746000Y-102835000D02*
X120046000Y-102835000D01*
X114300000Y-86106000D02*
X115570000Y-86106000D01*
X114300000Y-87757000D02*
X115570000Y-87757000D01*
X115570000Y-87757000D02*
X115570000Y-85725000D01*
X115570000Y-85725000D02*
X114300000Y-85725000D01*
X114300000Y-85725000D02*
X114300000Y-87757000D01*
X115916000Y-97571000D02*
X116616000Y-97571000D01*
X116616000Y-98771000D02*
X115916000Y-98771000D01*
X99060000Y-101600000D02*
X97790000Y-101600000D01*
X99060000Y-99949000D02*
X97790000Y-99949000D01*
X97790000Y-99949000D02*
X97790000Y-101981000D01*
X97790000Y-101981000D02*
X99060000Y-101981000D01*
X99060000Y-101981000D02*
X99060000Y-99949000D01*
X120808000Y-97825000D02*
X121508000Y-97825000D01*
X121508000Y-99025000D02*
X120808000Y-99025000D01*
X119218000Y-86391000D02*
X119218000Y-87091000D01*
X118018000Y-87091000D02*
X118018000Y-86391000D01*
X102581000Y-86645000D02*
X102581000Y-87345000D01*
X101381000Y-87345000D02*
X101381000Y-86645000D01*
X128228000Y-85260000D02*
X128228000Y-87160000D01*
X129328000Y-85260000D02*
X129328000Y-87160000D01*
X128778000Y-86160000D02*
X128778000Y-86610000D01*
X129028000Y-86110000D02*
X128528000Y-86110000D01*
X128778000Y-86110000D02*
X129028000Y-86360000D01*
X129028000Y-86360000D02*
X128528000Y-86360000D01*
X128528000Y-86360000D02*
X128778000Y-86110000D01*
X92044700Y-92414000D02*
X90144700Y-92414000D01*
X92044700Y-93514000D02*
X90144700Y-93514000D01*
X91144700Y-92964000D02*
X90694700Y-92964000D01*
X91194700Y-93214000D02*
X91194700Y-92714000D01*
X91194700Y-92964000D02*
X90944700Y-93214000D01*
X90944700Y-93214000D02*
X90944700Y-92714000D01*
X90944700Y-92714000D02*
X91194700Y-92964000D01*
X85374300Y-104944000D02*
X87274300Y-104944000D01*
X85374300Y-103844000D02*
X87274300Y-103844000D01*
X86274300Y-104394000D02*
X86724300Y-104394000D01*
X86224300Y-104144000D02*
X86224300Y-104644000D01*
X86224300Y-104394000D02*
X86474300Y-104144000D01*
X86474300Y-104144000D02*
X86474300Y-104644000D01*
X86474300Y-104644000D02*
X86224300Y-104394000D01*
X95246000Y-94015000D02*
X93446000Y-94015000D01*
X95246000Y-95215000D02*
X93446000Y-95215000D01*
X82664000Y-93496000D02*
X82664000Y-102196000D01*
X89069000Y-93496000D02*
X89069000Y-102196000D01*
X89069000Y-102196000D02*
X82664000Y-102196000D01*
X83894000Y-102196000D02*
X83894000Y-93496000D01*
X82664000Y-93496000D02*
X89069000Y-93496000D01*
X123099820Y-113210340D02*
X123099820Y-113911380D01*
X123099820Y-113911380D02*
X122850900Y-113911380D01*
X120300840Y-113911380D02*
X120100180Y-113911380D01*
X120100180Y-113911380D02*
X120100180Y-113210340D01*
X93750180Y-112849660D02*
X93750180Y-112148620D01*
X93750180Y-112148620D02*
X93999100Y-112148620D01*
X96549160Y-112148620D02*
X96749820Y-112148620D01*
X96749820Y-112148620D02*
X96749820Y-112849660D01*
X123230000Y-86157000D02*
X123230000Y-87157000D01*
X121880000Y-87157000D02*
X121880000Y-86157000D01*
X104640000Y-91480000D02*
X103640000Y-91480000D01*
X103640000Y-90130000D02*
X104640000Y-90130000D01*
X117562000Y-112852000D02*
X117562000Y-111852000D01*
X118912000Y-111852000D02*
X118912000Y-112852000D01*
X115149000Y-112811000D02*
X115149000Y-111811000D01*
X116499000Y-111811000D02*
X116499000Y-112811000D01*
X120896000Y-109260000D02*
X119896000Y-109260000D01*
X119896000Y-107910000D02*
X120896000Y-107910000D01*
X99814000Y-106974000D02*
X98814000Y-106974000D01*
X98814000Y-105624000D02*
X99814000Y-105624000D01*
X99687000Y-109514000D02*
X98687000Y-109514000D01*
X98687000Y-108164000D02*
X99687000Y-108164000D01*
X99068000Y-110831000D02*
X100068000Y-110831000D01*
X100068000Y-112181000D02*
X99068000Y-112181000D01*
X100111000Y-114594000D02*
X99111000Y-114594000D01*
X99111000Y-113244000D02*
X100111000Y-113244000D01*
X95242000Y-89829000D02*
X94242000Y-89829000D01*
X94242000Y-88479000D02*
X95242000Y-88479000D01*
X95242000Y-92115000D02*
X94242000Y-92115000D01*
X94242000Y-90765000D02*
X95242000Y-90765000D01*
X95242000Y-101386000D02*
X94242000Y-101386000D01*
X94242000Y-100036000D02*
X95242000Y-100036000D01*
X99354000Y-96190000D02*
X99354000Y-97190000D01*
X98004000Y-97190000D02*
X98004000Y-96190000D01*
X95158000Y-97322000D02*
X94158000Y-97322000D01*
X94158000Y-95972000D02*
X95158000Y-95972000D01*
X95072000Y-99100000D02*
X94072000Y-99100000D01*
X94072000Y-97750000D02*
X95072000Y-97750000D01*
X94199000Y-102322000D02*
X95199000Y-102322000D01*
X95199000Y-103672000D02*
X94199000Y-103672000D01*
X95377000Y-80010000D02*
X95377000Y-78486000D01*
X95377000Y-78486000D02*
X94869000Y-77978000D01*
X94869000Y-77978000D02*
X94361000Y-77978000D01*
X94361000Y-77978000D02*
X93853000Y-78486000D01*
X93853000Y-78486000D02*
X93853000Y-80010000D01*
X99441000Y-83058000D02*
X92329000Y-83058000D01*
X92329000Y-83058000D02*
X92329000Y-80010000D01*
X92329000Y-80010000D02*
X99441000Y-80010000D01*
X99441000Y-80010000D02*
X99441000Y-83058000D01*
D10*
X131953000Y-98679000D02*
X131953000Y-95879000D01*
X128253000Y-97279000D02*
G75*
G03X128253000Y-97279000I-400000J0D01*
G01*
X127453000Y-94779000D02*
X127453000Y-99779000D01*
X130953000Y-95879000D02*
X130953000Y-98679000D01*
X130953000Y-97279000D02*
G75*
G03X130953000Y-97279000I-400000J0D01*
G01*
X130353000Y-94779000D02*
X130353000Y-93779000D01*
X128753000Y-93779000D02*
X128153000Y-93779000D01*
X130353000Y-100779000D02*
X129753000Y-100779000D01*
X128153000Y-100779000D02*
X128153000Y-99779000D01*
X129753000Y-100779000D02*
X129753000Y-99779000D01*
X128153000Y-99779000D02*
X128753000Y-99779000D01*
X128753000Y-99779000D02*
X128753000Y-100779000D01*
X129753000Y-94779000D02*
X130353000Y-94779000D01*
X130953000Y-99779000D02*
X130953000Y-94779000D01*
X127453000Y-99779000D02*
X130953000Y-99779000D01*
X129753000Y-99779000D02*
X130353000Y-99779000D01*
X131953000Y-95879000D02*
X130953000Y-95879000D01*
X129753000Y-93779000D02*
X129753000Y-94779000D01*
X128153000Y-94779000D02*
X128753000Y-94779000D01*
X130353000Y-99779000D02*
X130353000Y-100779000D01*
X128753000Y-100779000D02*
X128153000Y-100779000D01*
X130953000Y-94779000D02*
X127453000Y-94779000D01*
X130353000Y-93779000D02*
X129753000Y-93779000D01*
X128153000Y-93779000D02*
X128153000Y-94779000D01*
X130953000Y-98679000D02*
X131953000Y-98679000D01*
X128753000Y-94779000D02*
X128753000Y-93779000D01*
X124079000Y-78613000D02*
X121279000Y-78613000D01*
X123079000Y-82713000D02*
G75*
G03X123079000Y-82713000I-400000J0D01*
G01*
X120179000Y-83113000D02*
X125179000Y-83113000D01*
X121279000Y-79613000D02*
X124079000Y-79613000D01*
X123079000Y-80013000D02*
G75*
G03X123079000Y-80013000I-400000J0D01*
G01*
X120179000Y-80213000D02*
X119179000Y-80213000D01*
X119179000Y-81813000D02*
X119179000Y-82413000D01*
X126179000Y-80213000D02*
X126179000Y-80813000D01*
X126179000Y-82413000D02*
X125179000Y-82413000D01*
X126179000Y-80813000D02*
X125179000Y-80813000D01*
X125179000Y-82413000D02*
X125179000Y-81813000D01*
X125179000Y-81813000D02*
X126179000Y-81813000D01*
X120179000Y-80813000D02*
X120179000Y-80213000D01*
X125179000Y-79613000D02*
X120179000Y-79613000D01*
X125179000Y-83113000D02*
X125179000Y-79613000D01*
X125179000Y-80813000D02*
X125179000Y-80213000D01*
X121279000Y-78613000D02*
X121279000Y-79613000D01*
X119179000Y-80813000D02*
X120179000Y-80813000D01*
X120179000Y-82413000D02*
X120179000Y-81813000D01*
X125179000Y-80213000D02*
X126179000Y-80213000D01*
X126179000Y-81813000D02*
X126179000Y-82413000D01*
X120179000Y-79613000D02*
X120179000Y-83113000D01*
X119179000Y-80213000D02*
X119179000Y-80813000D01*
X119179000Y-82413000D02*
X120179000Y-82413000D01*
X124079000Y-79613000D02*
X124079000Y-78613000D01*
X120179000Y-81813000D02*
X119179000Y-81813000D01*
D12*
X110163000Y-84787000D02*
G75*
G03X110163000Y-84787000I-100000J0D01*
G01*
X110613000Y-85037000D02*
X110113000Y-85037000D01*
X110613000Y-87937000D02*
X110613000Y-85037000D01*
X110113000Y-87937000D02*
X110613000Y-87937000D01*
X110113000Y-85037000D02*
X110113000Y-87937000D01*
X109159000Y-98277000D02*
X104709000Y-98277000D01*
X110684000Y-105177000D02*
X104709000Y-105177000D01*
X117651000Y-101032000D02*
X117651000Y-105332000D01*
X114251000Y-106282000D02*
X114251000Y-101032000D01*
D10*
X90820000Y-90596000D02*
X87820000Y-90596000D01*
X87820000Y-83596000D02*
X90820000Y-83596000D01*
X90820000Y-83596000D02*
X90820000Y-90596000D01*
X87820000Y-90596000D02*
X87820000Y-83596000D01*
X83820000Y-90805000D02*
X83820000Y-78596000D01*
X95453200Y-78587600D02*
X83820000Y-78596000D01*
D12*
X109553571Y-121880381D02*
X110125000Y-121880381D01*
X109839285Y-122880381D02*
X109839285Y-121880381D01*
X110791667Y-122356571D02*
X110458333Y-122356571D01*
X110458333Y-122880381D02*
X110458333Y-121880381D01*
X110934524Y-121880381D01*
X111172619Y-121880381D02*
X111744048Y-121880381D01*
X111458333Y-122880381D02*
X111458333Y-121880381D01*
X112601191Y-122880381D02*
X112029762Y-122880381D01*
X112315476Y-122880381D02*
X112315476Y-121880381D01*
X112220238Y-122023238D01*
X112125000Y-122118476D01*
X112029762Y-122166095D01*
X85002857Y-115974762D02*
X85145714Y-116022381D01*
X85383810Y-116022381D01*
X85479048Y-115974762D01*
X85526667Y-115927143D01*
X85574286Y-115831905D01*
X85574286Y-115736667D01*
X85526667Y-115641429D01*
X85479048Y-115593810D01*
X85383810Y-115546190D01*
X85193333Y-115498571D01*
X85098095Y-115450952D01*
X85050476Y-115403333D01*
X85002857Y-115308095D01*
X85002857Y-115212857D01*
X85050476Y-115117619D01*
X85098095Y-115070000D01*
X85193333Y-115022381D01*
X85431429Y-115022381D01*
X85574286Y-115070000D01*
X85907619Y-115022381D02*
X86145714Y-116022381D01*
X86336191Y-115308095D01*
X86526667Y-116022381D01*
X86764762Y-115022381D01*
X87145714Y-116022381D02*
X87145714Y-115022381D01*
X87383809Y-115022381D01*
X87526667Y-115070000D01*
X87621905Y-115165238D01*
X87669524Y-115260476D01*
X87717143Y-115450952D01*
X87717143Y-115593810D01*
X87669524Y-115784286D01*
X87621905Y-115879524D01*
X87526667Y-115974762D01*
X87383809Y-116022381D01*
X87145714Y-116022381D01*
X128357334Y-105005143D02*
X128309715Y-105052762D01*
X128166858Y-105100381D01*
X128071620Y-105100381D01*
X127928762Y-105052762D01*
X127833524Y-104957524D01*
X127785905Y-104862286D01*
X127738286Y-104671810D01*
X127738286Y-104528952D01*
X127785905Y-104338476D01*
X127833524Y-104243238D01*
X127928762Y-104148000D01*
X128071620Y-104100381D01*
X128166858Y-104100381D01*
X128309715Y-104148000D01*
X128357334Y-104195619D01*
X129309715Y-105100381D02*
X128738286Y-105100381D01*
X129024000Y-105100381D02*
X129024000Y-104100381D01*
X128928762Y-104243238D01*
X128833524Y-104338476D01*
X128738286Y-104386095D01*
X112101334Y-82653143D02*
X112053715Y-82700762D01*
X111910858Y-82748381D01*
X111815620Y-82748381D01*
X111672762Y-82700762D01*
X111577524Y-82605524D01*
X111529905Y-82510286D01*
X111482286Y-82319810D01*
X111482286Y-82176952D01*
X111529905Y-81986476D01*
X111577524Y-81891238D01*
X111672762Y-81796000D01*
X111815620Y-81748381D01*
X111910858Y-81748381D01*
X112053715Y-81796000D01*
X112101334Y-81843619D01*
X112482286Y-81843619D02*
X112529905Y-81796000D01*
X112625143Y-81748381D01*
X112863239Y-81748381D01*
X112958477Y-81796000D01*
X113006096Y-81843619D01*
X113053715Y-81938857D01*
X113053715Y-82034095D01*
X113006096Y-82176952D01*
X112434667Y-82748381D01*
X113053715Y-82748381D01*
X105497334Y-84050143D02*
X105449715Y-84097762D01*
X105306858Y-84145381D01*
X105211620Y-84145381D01*
X105068762Y-84097762D01*
X104973524Y-84002524D01*
X104925905Y-83907286D01*
X104878286Y-83716810D01*
X104878286Y-83573952D01*
X104925905Y-83383476D01*
X104973524Y-83288238D01*
X105068762Y-83193000D01*
X105211620Y-83145381D01*
X105306858Y-83145381D01*
X105449715Y-83193000D01*
X105497334Y-83240619D01*
X105830667Y-83145381D02*
X106449715Y-83145381D01*
X106116381Y-83526333D01*
X106259239Y-83526333D01*
X106354477Y-83573952D01*
X106402096Y-83621571D01*
X106449715Y-83716810D01*
X106449715Y-83954905D01*
X106402096Y-84050143D01*
X106354477Y-84097762D01*
X106259239Y-84145381D01*
X105973524Y-84145381D01*
X105878286Y-84097762D01*
X105830667Y-84050143D01*
X86066334Y-88241143D02*
X86018715Y-88288762D01*
X85875858Y-88336381D01*
X85780620Y-88336381D01*
X85637762Y-88288762D01*
X85542524Y-88193524D01*
X85494905Y-88098286D01*
X85447286Y-87907810D01*
X85447286Y-87764952D01*
X85494905Y-87574476D01*
X85542524Y-87479238D01*
X85637762Y-87384000D01*
X85780620Y-87336381D01*
X85875858Y-87336381D01*
X86018715Y-87384000D01*
X86066334Y-87431619D01*
X86923477Y-87669714D02*
X86923477Y-88336381D01*
X86685381Y-87288762D02*
X86447286Y-88003048D01*
X87066334Y-88003048D01*
X100544334Y-103481143D02*
X100496715Y-103528762D01*
X100353858Y-103576381D01*
X100258620Y-103576381D01*
X100115762Y-103528762D01*
X100020524Y-103433524D01*
X99972905Y-103338286D01*
X99925286Y-103147810D01*
X99925286Y-103004952D01*
X99972905Y-102814476D01*
X100020524Y-102719238D01*
X100115762Y-102624000D01*
X100258620Y-102576381D01*
X100353858Y-102576381D01*
X100496715Y-102624000D01*
X100544334Y-102671619D01*
X101449096Y-102576381D02*
X100972905Y-102576381D01*
X100925286Y-103052571D01*
X100972905Y-103004952D01*
X101068143Y-102957333D01*
X101306239Y-102957333D01*
X101401477Y-103004952D01*
X101449096Y-103052571D01*
X101496715Y-103147810D01*
X101496715Y-103385905D01*
X101449096Y-103481143D01*
X101401477Y-103528762D01*
X101306239Y-103576381D01*
X101068143Y-103576381D01*
X100972905Y-103528762D01*
X100925286Y-103481143D01*
X123531334Y-106656143D02*
X123483715Y-106703762D01*
X123340858Y-106751381D01*
X123245620Y-106751381D01*
X123102762Y-106703762D01*
X123007524Y-106608524D01*
X122959905Y-106513286D01*
X122912286Y-106322810D01*
X122912286Y-106179952D01*
X122959905Y-105989476D01*
X123007524Y-105894238D01*
X123102762Y-105799000D01*
X123245620Y-105751381D01*
X123340858Y-105751381D01*
X123483715Y-105799000D01*
X123531334Y-105846619D01*
X124388477Y-105751381D02*
X124198000Y-105751381D01*
X124102762Y-105799000D01*
X124055143Y-105846619D01*
X123959905Y-105989476D01*
X123912286Y-106179952D01*
X123912286Y-106560905D01*
X123959905Y-106656143D01*
X124007524Y-106703762D01*
X124102762Y-106751381D01*
X124293239Y-106751381D01*
X124388477Y-106703762D01*
X124436096Y-106656143D01*
X124483715Y-106560905D01*
X124483715Y-106322810D01*
X124436096Y-106227571D01*
X124388477Y-106179952D01*
X124293239Y-106132333D01*
X124102762Y-106132333D01*
X124007524Y-106179952D01*
X123959905Y-106227571D01*
X123912286Y-106322810D01*
X123785334Y-102592143D02*
X123737715Y-102639762D01*
X123594858Y-102687381D01*
X123499620Y-102687381D01*
X123356762Y-102639762D01*
X123261524Y-102544524D01*
X123213905Y-102449286D01*
X123166286Y-102258810D01*
X123166286Y-102115952D01*
X123213905Y-101925476D01*
X123261524Y-101830238D01*
X123356762Y-101735000D01*
X123499620Y-101687381D01*
X123594858Y-101687381D01*
X123737715Y-101735000D01*
X123785334Y-101782619D01*
X124118667Y-101687381D02*
X124785334Y-101687381D01*
X124356762Y-102687381D01*
X114641334Y-90273143D02*
X114593715Y-90320762D01*
X114450858Y-90368381D01*
X114355620Y-90368381D01*
X114212762Y-90320762D01*
X114117524Y-90225524D01*
X114069905Y-90130286D01*
X114022286Y-89939810D01*
X114022286Y-89796952D01*
X114069905Y-89606476D01*
X114117524Y-89511238D01*
X114212762Y-89416000D01*
X114355620Y-89368381D01*
X114450858Y-89368381D01*
X114593715Y-89416000D01*
X114641334Y-89463619D01*
X115212762Y-89796952D02*
X115117524Y-89749333D01*
X115069905Y-89701714D01*
X115022286Y-89606476D01*
X115022286Y-89558857D01*
X115069905Y-89463619D01*
X115117524Y-89416000D01*
X115212762Y-89368381D01*
X115403239Y-89368381D01*
X115498477Y-89416000D01*
X115546096Y-89463619D01*
X115593715Y-89558857D01*
X115593715Y-89606476D01*
X115546096Y-89701714D01*
X115498477Y-89749333D01*
X115403239Y-89796952D01*
X115212762Y-89796952D01*
X115117524Y-89844571D01*
X115069905Y-89892190D01*
X115022286Y-89987429D01*
X115022286Y-90177905D01*
X115069905Y-90273143D01*
X115117524Y-90320762D01*
X115212762Y-90368381D01*
X115403239Y-90368381D01*
X115498477Y-90320762D01*
X115546096Y-90273143D01*
X115593715Y-90177905D01*
X115593715Y-89987429D01*
X115546096Y-89892190D01*
X115498477Y-89844571D01*
X115403239Y-89796952D01*
X116099334Y-96628143D02*
X116051715Y-96675762D01*
X115908858Y-96723381D01*
X115813620Y-96723381D01*
X115670762Y-96675762D01*
X115575524Y-96580524D01*
X115527905Y-96485286D01*
X115480286Y-96294810D01*
X115480286Y-96151952D01*
X115527905Y-95961476D01*
X115575524Y-95866238D01*
X115670762Y-95771000D01*
X115813620Y-95723381D01*
X115908858Y-95723381D01*
X116051715Y-95771000D01*
X116099334Y-95818619D01*
X116575524Y-96723381D02*
X116766000Y-96723381D01*
X116861239Y-96675762D01*
X116908858Y-96628143D01*
X117004096Y-96485286D01*
X117051715Y-96294810D01*
X117051715Y-95913857D01*
X117004096Y-95818619D01*
X116956477Y-95771000D01*
X116861239Y-95723381D01*
X116670762Y-95723381D01*
X116575524Y-95771000D01*
X116527905Y-95818619D01*
X116480286Y-95913857D01*
X116480286Y-96151952D01*
X116527905Y-96247190D01*
X116575524Y-96294810D01*
X116670762Y-96342429D01*
X116861239Y-96342429D01*
X116956477Y-96294810D01*
X117004096Y-96247190D01*
X117051715Y-96151952D01*
X97909143Y-104497143D02*
X97861524Y-104544762D01*
X97718667Y-104592381D01*
X97623429Y-104592381D01*
X97480571Y-104544762D01*
X97385333Y-104449524D01*
X97337714Y-104354286D01*
X97290095Y-104163810D01*
X97290095Y-104020952D01*
X97337714Y-103830476D01*
X97385333Y-103735238D01*
X97480571Y-103640000D01*
X97623429Y-103592381D01*
X97718667Y-103592381D01*
X97861524Y-103640000D01*
X97909143Y-103687619D01*
X98861524Y-104592381D02*
X98290095Y-104592381D01*
X98575809Y-104592381D02*
X98575809Y-103592381D01*
X98480571Y-103735238D01*
X98385333Y-103830476D01*
X98290095Y-103878095D01*
X99480571Y-103592381D02*
X99575810Y-103592381D01*
X99671048Y-103640000D01*
X99718667Y-103687619D01*
X99766286Y-103782857D01*
X99813905Y-103973333D01*
X99813905Y-104211429D01*
X99766286Y-104401905D01*
X99718667Y-104497143D01*
X99671048Y-104544762D01*
X99575810Y-104592381D01*
X99480571Y-104592381D01*
X99385333Y-104544762D01*
X99337714Y-104497143D01*
X99290095Y-104401905D01*
X99242476Y-104211429D01*
X99242476Y-103973333D01*
X99290095Y-103782857D01*
X99337714Y-103687619D01*
X99385333Y-103640000D01*
X99480571Y-103592381D01*
X124198143Y-99036143D02*
X124150524Y-99083762D01*
X124007667Y-99131381D01*
X123912429Y-99131381D01*
X123769571Y-99083762D01*
X123674333Y-98988524D01*
X123626714Y-98893286D01*
X123579095Y-98702810D01*
X123579095Y-98559952D01*
X123626714Y-98369476D01*
X123674333Y-98274238D01*
X123769571Y-98179000D01*
X123912429Y-98131381D01*
X124007667Y-98131381D01*
X124150524Y-98179000D01*
X124198143Y-98226619D01*
X125150524Y-99131381D02*
X124579095Y-99131381D01*
X124864809Y-99131381D02*
X124864809Y-98131381D01*
X124769571Y-98274238D01*
X124674333Y-98369476D01*
X124579095Y-98417095D01*
X126102905Y-99131381D02*
X125531476Y-99131381D01*
X125817190Y-99131381D02*
X125817190Y-98131381D01*
X125721952Y-98274238D01*
X125626714Y-98369476D01*
X125531476Y-98417095D01*
X117848143Y-89765143D02*
X117800524Y-89812762D01*
X117657667Y-89860381D01*
X117562429Y-89860381D01*
X117419571Y-89812762D01*
X117324333Y-89717524D01*
X117276714Y-89622286D01*
X117229095Y-89431810D01*
X117229095Y-89288952D01*
X117276714Y-89098476D01*
X117324333Y-89003238D01*
X117419571Y-88908000D01*
X117562429Y-88860381D01*
X117657667Y-88860381D01*
X117800524Y-88908000D01*
X117848143Y-88955619D01*
X118800524Y-89860381D02*
X118229095Y-89860381D01*
X118514809Y-89860381D02*
X118514809Y-88860381D01*
X118419571Y-89003238D01*
X118324333Y-89098476D01*
X118229095Y-89146095D01*
X119181476Y-88955619D02*
X119229095Y-88908000D01*
X119324333Y-88860381D01*
X119562429Y-88860381D01*
X119657667Y-88908000D01*
X119705286Y-88955619D01*
X119752905Y-89050857D01*
X119752905Y-89146095D01*
X119705286Y-89288952D01*
X119133857Y-89860381D01*
X119752905Y-89860381D01*
X101338143Y-84558143D02*
X101290524Y-84605762D01*
X101147667Y-84653381D01*
X101052429Y-84653381D01*
X100909571Y-84605762D01*
X100814333Y-84510524D01*
X100766714Y-84415286D01*
X100719095Y-84224810D01*
X100719095Y-84081952D01*
X100766714Y-83891476D01*
X100814333Y-83796238D01*
X100909571Y-83701000D01*
X101052429Y-83653381D01*
X101147667Y-83653381D01*
X101290524Y-83701000D01*
X101338143Y-83748619D01*
X102290524Y-84653381D02*
X101719095Y-84653381D01*
X102004809Y-84653381D02*
X102004809Y-83653381D01*
X101909571Y-83796238D01*
X101814333Y-83891476D01*
X101719095Y-83939095D01*
X102623857Y-83653381D02*
X103242905Y-83653381D01*
X102909571Y-84034333D01*
X103052429Y-84034333D01*
X103147667Y-84081952D01*
X103195286Y-84129571D01*
X103242905Y-84224810D01*
X103242905Y-84462905D01*
X103195286Y-84558143D01*
X103147667Y-84605762D01*
X103052429Y-84653381D01*
X102766714Y-84653381D01*
X102671476Y-84605762D01*
X102623857Y-84558143D01*
X127301810Y-88098381D02*
X127920858Y-88098381D01*
X127587524Y-88479333D01*
X127730382Y-88479333D01*
X127825620Y-88526952D01*
X127873239Y-88574571D01*
X127920858Y-88669810D01*
X127920858Y-88907905D01*
X127873239Y-89003143D01*
X127825620Y-89050762D01*
X127730382Y-89098381D01*
X127444667Y-89098381D01*
X127349429Y-89050762D01*
X127301810Y-89003143D01*
X128349429Y-89003143D02*
X128397048Y-89050762D01*
X128349429Y-89098381D01*
X128301810Y-89050762D01*
X128349429Y-89003143D01*
X128349429Y-89098381D01*
X128730381Y-88098381D02*
X129349429Y-88098381D01*
X129016095Y-88479333D01*
X129158953Y-88479333D01*
X129254191Y-88526952D01*
X129301810Y-88574571D01*
X129349429Y-88669810D01*
X129349429Y-88907905D01*
X129301810Y-89003143D01*
X129254191Y-89050762D01*
X129158953Y-89098381D01*
X128873238Y-89098381D01*
X128778000Y-89050762D01*
X128730381Y-89003143D01*
X129635143Y-88098381D02*
X129968476Y-89098381D01*
X130301810Y-88098381D01*
X88138095Y-92162381D02*
X88709524Y-92162381D01*
X88423809Y-93162381D02*
X88423809Y-92162381D01*
X88947619Y-92162381D02*
X89614286Y-93162381D01*
X89614286Y-92162381D02*
X88947619Y-93162381D01*
X85352095Y-105116381D02*
X85352095Y-105925905D01*
X85399714Y-106021143D01*
X85447333Y-106068762D01*
X85542571Y-106116381D01*
X85733048Y-106116381D01*
X85828286Y-106068762D01*
X85875905Y-106021143D01*
X85923524Y-105925905D01*
X85923524Y-105116381D01*
X86352095Y-106068762D02*
X86494952Y-106116381D01*
X86733048Y-106116381D01*
X86828286Y-106068762D01*
X86875905Y-106021143D01*
X86923524Y-105925905D01*
X86923524Y-105830667D01*
X86875905Y-105735429D01*
X86828286Y-105687810D01*
X86733048Y-105640190D01*
X86542571Y-105592571D01*
X86447333Y-105544952D01*
X86399714Y-105497333D01*
X86352095Y-105402095D01*
X86352095Y-105306857D01*
X86399714Y-105211619D01*
X86447333Y-105164000D01*
X86542571Y-105116381D01*
X86780667Y-105116381D01*
X86923524Y-105164000D01*
X87685429Y-105592571D02*
X87828286Y-105640190D01*
X87875905Y-105687810D01*
X87923524Y-105783048D01*
X87923524Y-105925905D01*
X87875905Y-106021143D01*
X87828286Y-106068762D01*
X87733048Y-106116381D01*
X87352095Y-106116381D01*
X87352095Y-105116381D01*
X87685429Y-105116381D01*
X87780667Y-105164000D01*
X87828286Y-105211619D01*
X87875905Y-105306857D01*
X87875905Y-105402095D01*
X87828286Y-105497333D01*
X87780667Y-105544952D01*
X87685429Y-105592571D01*
X87352095Y-105592571D01*
X96186667Y-94416571D02*
X95853333Y-94416571D01*
X95853333Y-94940381D02*
X95853333Y-93940381D01*
X96329524Y-93940381D01*
X97234286Y-94940381D02*
X96662857Y-94940381D01*
X96948571Y-94940381D02*
X96948571Y-93940381D01*
X96853333Y-94083238D01*
X96758095Y-94178476D01*
X96662857Y-94226095D01*
X85606095Y-102576381D02*
X85606095Y-103385905D01*
X85653714Y-103481143D01*
X85701333Y-103528762D01*
X85796571Y-103576381D01*
X85987048Y-103576381D01*
X86082286Y-103528762D01*
X86129905Y-103481143D01*
X86177524Y-103385905D01*
X86177524Y-102576381D01*
X86606095Y-103528762D02*
X86748952Y-103576381D01*
X86987048Y-103576381D01*
X87082286Y-103528762D01*
X87129905Y-103481143D01*
X87177524Y-103385905D01*
X87177524Y-103290667D01*
X87129905Y-103195429D01*
X87082286Y-103147810D01*
X86987048Y-103100190D01*
X86796571Y-103052571D01*
X86701333Y-103004952D01*
X86653714Y-102957333D01*
X86606095Y-102862095D01*
X86606095Y-102766857D01*
X86653714Y-102671619D01*
X86701333Y-102624000D01*
X86796571Y-102576381D01*
X87034667Y-102576381D01*
X87177524Y-102624000D01*
X87939429Y-103052571D02*
X88082286Y-103100190D01*
X88129905Y-103147810D01*
X88177524Y-103243048D01*
X88177524Y-103385905D01*
X88129905Y-103481143D01*
X88082286Y-103528762D01*
X87987048Y-103576381D01*
X87606095Y-103576381D01*
X87606095Y-102576381D01*
X87939429Y-102576381D01*
X88034667Y-102624000D01*
X88082286Y-102671619D01*
X88129905Y-102766857D01*
X88129905Y-102862095D01*
X88082286Y-102957333D01*
X88034667Y-103004952D01*
X87939429Y-103052571D01*
X87606095Y-103052571D01*
X121824762Y-117387619D02*
X121729524Y-117340000D01*
X121634286Y-117244762D01*
X121491429Y-117101905D01*
X121396190Y-117054286D01*
X121300952Y-117054286D01*
X121348571Y-117292381D02*
X121253333Y-117244762D01*
X121158095Y-117149524D01*
X121110476Y-116959048D01*
X121110476Y-116625714D01*
X121158095Y-116435238D01*
X121253333Y-116340000D01*
X121348571Y-116292381D01*
X121539048Y-116292381D01*
X121634286Y-116340000D01*
X121729524Y-116435238D01*
X121777143Y-116625714D01*
X121777143Y-116959048D01*
X121729524Y-117149524D01*
X121634286Y-117244762D01*
X121539048Y-117292381D01*
X121348571Y-117292381D01*
X122729524Y-117292381D02*
X122158095Y-117292381D01*
X122443809Y-117292381D02*
X122443809Y-116292381D01*
X122348571Y-116435238D01*
X122253333Y-116530476D01*
X122158095Y-116578095D01*
X95154762Y-117387619D02*
X95059524Y-117340000D01*
X94964286Y-117244762D01*
X94821429Y-117101905D01*
X94726190Y-117054286D01*
X94630952Y-117054286D01*
X94678571Y-117292381D02*
X94583333Y-117244762D01*
X94488095Y-117149524D01*
X94440476Y-116959048D01*
X94440476Y-116625714D01*
X94488095Y-116435238D01*
X94583333Y-116340000D01*
X94678571Y-116292381D01*
X94869048Y-116292381D01*
X94964286Y-116340000D01*
X95059524Y-116435238D01*
X95107143Y-116625714D01*
X95107143Y-116959048D01*
X95059524Y-117149524D01*
X94964286Y-117244762D01*
X94869048Y-117292381D01*
X94678571Y-117292381D01*
X95488095Y-116387619D02*
X95535714Y-116340000D01*
X95630952Y-116292381D01*
X95869048Y-116292381D01*
X95964286Y-116340000D01*
X96011905Y-116387619D01*
X96059524Y-116482857D01*
X96059524Y-116578095D01*
X96011905Y-116720952D01*
X95440476Y-117292381D01*
X96059524Y-117292381D01*
X122261334Y-89860381D02*
X121928000Y-89384190D01*
X121689905Y-89860381D02*
X121689905Y-88860381D01*
X122070858Y-88860381D01*
X122166096Y-88908000D01*
X122213715Y-88955619D01*
X122261334Y-89050857D01*
X122261334Y-89193714D01*
X122213715Y-89288952D01*
X122166096Y-89336571D01*
X122070858Y-89384190D01*
X121689905Y-89384190D01*
X123213715Y-89860381D02*
X122642286Y-89860381D01*
X122928000Y-89860381D02*
X122928000Y-88860381D01*
X122832762Y-89003238D01*
X122737524Y-89098476D01*
X122642286Y-89146095D01*
X100714334Y-90495381D02*
X100381000Y-90019190D01*
X100142905Y-90495381D02*
X100142905Y-89495381D01*
X100523858Y-89495381D01*
X100619096Y-89543000D01*
X100666715Y-89590619D01*
X100714334Y-89685857D01*
X100714334Y-89828714D01*
X100666715Y-89923952D01*
X100619096Y-89971571D01*
X100523858Y-90019190D01*
X100142905Y-90019190D01*
X101095286Y-89590619D02*
X101142905Y-89543000D01*
X101238143Y-89495381D01*
X101476239Y-89495381D01*
X101571477Y-89543000D01*
X101619096Y-89590619D01*
X101666715Y-89685857D01*
X101666715Y-89781095D01*
X101619096Y-89923952D01*
X101047667Y-90495381D01*
X101666715Y-90495381D01*
X118197334Y-115641381D02*
X117864000Y-115165190D01*
X117625905Y-115641381D02*
X117625905Y-114641381D01*
X118006858Y-114641381D01*
X118102096Y-114689000D01*
X118149715Y-114736619D01*
X118197334Y-114831857D01*
X118197334Y-114974714D01*
X118149715Y-115069952D01*
X118102096Y-115117571D01*
X118006858Y-115165190D01*
X117625905Y-115165190D01*
X118530667Y-114641381D02*
X119149715Y-114641381D01*
X118816381Y-115022333D01*
X118959239Y-115022333D01*
X119054477Y-115069952D01*
X119102096Y-115117571D01*
X119149715Y-115212810D01*
X119149715Y-115450905D01*
X119102096Y-115546143D01*
X119054477Y-115593762D01*
X118959239Y-115641381D01*
X118673524Y-115641381D01*
X118578286Y-115593762D01*
X118530667Y-115546143D01*
X115403334Y-115768381D02*
X115070000Y-115292190D01*
X114831905Y-115768381D02*
X114831905Y-114768381D01*
X115212858Y-114768381D01*
X115308096Y-114816000D01*
X115355715Y-114863619D01*
X115403334Y-114958857D01*
X115403334Y-115101714D01*
X115355715Y-115196952D01*
X115308096Y-115244571D01*
X115212858Y-115292190D01*
X114831905Y-115292190D01*
X116260477Y-115101714D02*
X116260477Y-115768381D01*
X116022381Y-114720762D02*
X115784286Y-115435048D01*
X116403334Y-115435048D01*
X116673334Y-109037381D02*
X116340000Y-108561190D01*
X116101905Y-109037381D02*
X116101905Y-108037381D01*
X116482858Y-108037381D01*
X116578096Y-108085000D01*
X116625715Y-108132619D01*
X116673334Y-108227857D01*
X116673334Y-108370714D01*
X116625715Y-108465952D01*
X116578096Y-108513571D01*
X116482858Y-108561190D01*
X116101905Y-108561190D01*
X117578096Y-108037381D02*
X117101905Y-108037381D01*
X117054286Y-108513571D01*
X117101905Y-108465952D01*
X117197143Y-108418333D01*
X117435239Y-108418333D01*
X117530477Y-108465952D01*
X117578096Y-108513571D01*
X117625715Y-108608810D01*
X117625715Y-108846905D01*
X117578096Y-108942143D01*
X117530477Y-108989762D01*
X117435239Y-109037381D01*
X117197143Y-109037381D01*
X117101905Y-108989762D01*
X117054286Y-108942143D01*
X95591334Y-106878381D02*
X95258000Y-106402190D01*
X95019905Y-106878381D02*
X95019905Y-105878381D01*
X95400858Y-105878381D01*
X95496096Y-105926000D01*
X95543715Y-105973619D01*
X95591334Y-106068857D01*
X95591334Y-106211714D01*
X95543715Y-106306952D01*
X95496096Y-106354571D01*
X95400858Y-106402190D01*
X95019905Y-106402190D01*
X96448477Y-105878381D02*
X96258000Y-105878381D01*
X96162762Y-105926000D01*
X96115143Y-105973619D01*
X96019905Y-106116476D01*
X95972286Y-106306952D01*
X95972286Y-106687905D01*
X96019905Y-106783143D01*
X96067524Y-106830762D01*
X96162762Y-106878381D01*
X96353239Y-106878381D01*
X96448477Y-106830762D01*
X96496096Y-106783143D01*
X96543715Y-106687905D01*
X96543715Y-106449810D01*
X96496096Y-106354571D01*
X96448477Y-106306952D01*
X96353239Y-106259333D01*
X96162762Y-106259333D01*
X96067524Y-106306952D01*
X96019905Y-106354571D01*
X95972286Y-106449810D01*
X102449334Y-109291381D02*
X102116000Y-108815190D01*
X101877905Y-109291381D02*
X101877905Y-108291381D01*
X102258858Y-108291381D01*
X102354096Y-108339000D01*
X102401715Y-108386619D01*
X102449334Y-108481857D01*
X102449334Y-108624714D01*
X102401715Y-108719952D01*
X102354096Y-108767571D01*
X102258858Y-108815190D01*
X101877905Y-108815190D01*
X102782667Y-108291381D02*
X103449334Y-108291381D01*
X103020762Y-109291381D01*
X102703334Y-112085381D02*
X102370000Y-111609190D01*
X102131905Y-112085381D02*
X102131905Y-111085381D01*
X102512858Y-111085381D01*
X102608096Y-111133000D01*
X102655715Y-111180619D01*
X102703334Y-111275857D01*
X102703334Y-111418714D01*
X102655715Y-111513952D01*
X102608096Y-111561571D01*
X102512858Y-111609190D01*
X102131905Y-111609190D01*
X103274762Y-111513952D02*
X103179524Y-111466333D01*
X103131905Y-111418714D01*
X103084286Y-111323476D01*
X103084286Y-111275857D01*
X103131905Y-111180619D01*
X103179524Y-111133000D01*
X103274762Y-111085381D01*
X103465239Y-111085381D01*
X103560477Y-111133000D01*
X103608096Y-111180619D01*
X103655715Y-111275857D01*
X103655715Y-111323476D01*
X103608096Y-111418714D01*
X103560477Y-111466333D01*
X103465239Y-111513952D01*
X103274762Y-111513952D01*
X103179524Y-111561571D01*
X103131905Y-111609190D01*
X103084286Y-111704429D01*
X103084286Y-111894905D01*
X103131905Y-111990143D01*
X103179524Y-112037762D01*
X103274762Y-112085381D01*
X103465239Y-112085381D01*
X103560477Y-112037762D01*
X103608096Y-111990143D01*
X103655715Y-111894905D01*
X103655715Y-111704429D01*
X103608096Y-111609190D01*
X103560477Y-111561571D01*
X103465239Y-111513952D01*
X100163334Y-116022381D02*
X99830000Y-115546190D01*
X99591905Y-116022381D02*
X99591905Y-115022381D01*
X99972858Y-115022381D01*
X100068096Y-115070000D01*
X100115715Y-115117619D01*
X100163334Y-115212857D01*
X100163334Y-115355714D01*
X100115715Y-115450952D01*
X100068096Y-115498571D01*
X99972858Y-115546190D01*
X99591905Y-115546190D01*
X100639524Y-116022381D02*
X100830000Y-116022381D01*
X100925239Y-115974762D01*
X100972858Y-115927143D01*
X101068096Y-115784286D01*
X101115715Y-115593810D01*
X101115715Y-115212857D01*
X101068096Y-115117619D01*
X101020477Y-115070000D01*
X100925239Y-115022381D01*
X100734762Y-115022381D01*
X100639524Y-115070000D01*
X100591905Y-115117619D01*
X100544286Y-115212857D01*
X100544286Y-115450952D01*
X100591905Y-115546190D01*
X100639524Y-115593810D01*
X100734762Y-115641429D01*
X100925239Y-115641429D01*
X101020477Y-115593810D01*
X101068096Y-115546190D01*
X101115715Y-115450952D01*
X91178143Y-88590381D02*
X90844809Y-88114190D01*
X90606714Y-88590381D02*
X90606714Y-87590381D01*
X90987667Y-87590381D01*
X91082905Y-87638000D01*
X91130524Y-87685619D01*
X91178143Y-87780857D01*
X91178143Y-87923714D01*
X91130524Y-88018952D01*
X91082905Y-88066571D01*
X90987667Y-88114190D01*
X90606714Y-88114190D01*
X92130524Y-88590381D02*
X91559095Y-88590381D01*
X91844809Y-88590381D02*
X91844809Y-87590381D01*
X91749571Y-87733238D01*
X91654333Y-87828476D01*
X91559095Y-87876095D01*
X92749571Y-87590381D02*
X92844810Y-87590381D01*
X92940048Y-87638000D01*
X92987667Y-87685619D01*
X93035286Y-87780857D01*
X93082905Y-87971333D01*
X93082905Y-88209429D01*
X93035286Y-88399905D01*
X92987667Y-88495143D01*
X92940048Y-88542762D01*
X92844810Y-88590381D01*
X92749571Y-88590381D01*
X92654333Y-88542762D01*
X92606714Y-88495143D01*
X92559095Y-88399905D01*
X92511476Y-88209429D01*
X92511476Y-87971333D01*
X92559095Y-87780857D01*
X92606714Y-87685619D01*
X92654333Y-87638000D01*
X92749571Y-87590381D01*
X91305143Y-90495381D02*
X90971809Y-90019190D01*
X90733714Y-90495381D02*
X90733714Y-89495381D01*
X91114667Y-89495381D01*
X91209905Y-89543000D01*
X91257524Y-89590619D01*
X91305143Y-89685857D01*
X91305143Y-89828714D01*
X91257524Y-89923952D01*
X91209905Y-89971571D01*
X91114667Y-90019190D01*
X90733714Y-90019190D01*
X92257524Y-90495381D02*
X91686095Y-90495381D01*
X91971809Y-90495381D02*
X91971809Y-89495381D01*
X91876571Y-89638238D01*
X91781333Y-89733476D01*
X91686095Y-89781095D01*
X93209905Y-90495381D02*
X92638476Y-90495381D01*
X92924190Y-90495381D02*
X92924190Y-89495381D01*
X92828952Y-89638238D01*
X92733714Y-89733476D01*
X92638476Y-89781095D01*
X90543143Y-101290381D02*
X90209809Y-100814190D01*
X89971714Y-101290381D02*
X89971714Y-100290381D01*
X90352667Y-100290381D01*
X90447905Y-100338000D01*
X90495524Y-100385619D01*
X90543143Y-100480857D01*
X90543143Y-100623714D01*
X90495524Y-100718952D01*
X90447905Y-100766571D01*
X90352667Y-100814190D01*
X89971714Y-100814190D01*
X91495524Y-101290381D02*
X90924095Y-101290381D01*
X91209809Y-101290381D02*
X91209809Y-100290381D01*
X91114571Y-100433238D01*
X91019333Y-100528476D01*
X90924095Y-100576095D01*
X91876476Y-100385619D02*
X91924095Y-100338000D01*
X92019333Y-100290381D01*
X92257429Y-100290381D01*
X92352667Y-100338000D01*
X92400286Y-100385619D01*
X92447905Y-100480857D01*
X92447905Y-100576095D01*
X92400286Y-100718952D01*
X91828857Y-101290381D01*
X92447905Y-101290381D01*
X101036381Y-97205857D02*
X100560190Y-97539191D01*
X101036381Y-97777286D02*
X100036381Y-97777286D01*
X100036381Y-97396333D01*
X100084000Y-97301095D01*
X100131619Y-97253476D01*
X100226857Y-97205857D01*
X100369714Y-97205857D01*
X100464952Y-97253476D01*
X100512571Y-97301095D01*
X100560190Y-97396333D01*
X100560190Y-97777286D01*
X101036381Y-96253476D02*
X101036381Y-96824905D01*
X101036381Y-96539191D02*
X100036381Y-96539191D01*
X100179238Y-96634429D01*
X100274476Y-96729667D01*
X100322095Y-96824905D01*
X100036381Y-95920143D02*
X100036381Y-95301095D01*
X100417333Y-95634429D01*
X100417333Y-95491571D01*
X100464952Y-95396333D01*
X100512571Y-95348714D01*
X100607810Y-95301095D01*
X100845905Y-95301095D01*
X100941143Y-95348714D01*
X100988762Y-95396333D01*
X101036381Y-95491571D01*
X101036381Y-95777286D01*
X100988762Y-95872524D01*
X100941143Y-95920143D01*
X90543143Y-96845381D02*
X90209809Y-96369190D01*
X89971714Y-96845381D02*
X89971714Y-95845381D01*
X90352667Y-95845381D01*
X90447905Y-95893000D01*
X90495524Y-95940619D01*
X90543143Y-96035857D01*
X90543143Y-96178714D01*
X90495524Y-96273952D01*
X90447905Y-96321571D01*
X90352667Y-96369190D01*
X89971714Y-96369190D01*
X91495524Y-96845381D02*
X90924095Y-96845381D01*
X91209809Y-96845381D02*
X91209809Y-95845381D01*
X91114571Y-95988238D01*
X91019333Y-96083476D01*
X90924095Y-96131095D01*
X92352667Y-96178714D02*
X92352667Y-96845381D01*
X92114571Y-95797762D02*
X91876476Y-96512048D01*
X92495524Y-96512048D01*
X90416143Y-99258381D02*
X90082809Y-98782190D01*
X89844714Y-99258381D02*
X89844714Y-98258381D01*
X90225667Y-98258381D01*
X90320905Y-98306000D01*
X90368524Y-98353619D01*
X90416143Y-98448857D01*
X90416143Y-98591714D01*
X90368524Y-98686952D01*
X90320905Y-98734571D01*
X90225667Y-98782190D01*
X89844714Y-98782190D01*
X91368524Y-99258381D02*
X90797095Y-99258381D01*
X91082809Y-99258381D02*
X91082809Y-98258381D01*
X90987571Y-98401238D01*
X90892333Y-98496476D01*
X90797095Y-98544095D01*
X92273286Y-98258381D02*
X91797095Y-98258381D01*
X91749476Y-98734571D01*
X91797095Y-98686952D01*
X91892333Y-98639333D01*
X92130429Y-98639333D01*
X92225667Y-98686952D01*
X92273286Y-98734571D01*
X92320905Y-98829810D01*
X92320905Y-99067905D01*
X92273286Y-99163143D01*
X92225667Y-99210762D01*
X92130429Y-99258381D01*
X91892333Y-99258381D01*
X91797095Y-99210762D01*
X91749476Y-99163143D01*
X90289143Y-103322381D02*
X89955809Y-102846190D01*
X89717714Y-103322381D02*
X89717714Y-102322381D01*
X90098667Y-102322381D01*
X90193905Y-102370000D01*
X90241524Y-102417619D01*
X90289143Y-102512857D01*
X90289143Y-102655714D01*
X90241524Y-102750952D01*
X90193905Y-102798571D01*
X90098667Y-102846190D01*
X89717714Y-102846190D01*
X91241524Y-103322381D02*
X90670095Y-103322381D01*
X90955809Y-103322381D02*
X90955809Y-102322381D01*
X90860571Y-102465238D01*
X90765333Y-102560476D01*
X90670095Y-102608095D01*
X92098667Y-102322381D02*
X91908190Y-102322381D01*
X91812952Y-102370000D01*
X91765333Y-102417619D01*
X91670095Y-102560476D01*
X91622476Y-102750952D01*
X91622476Y-103131905D01*
X91670095Y-103227143D01*
X91717714Y-103274762D01*
X91812952Y-103322381D01*
X92003429Y-103322381D01*
X92098667Y-103274762D01*
X92146286Y-103227143D01*
X92193905Y-103131905D01*
X92193905Y-102893810D01*
X92146286Y-102798571D01*
X92098667Y-102750952D01*
X92003429Y-102703333D01*
X91812952Y-102703333D01*
X91717714Y-102750952D01*
X91670095Y-102798571D01*
X91622476Y-102893810D01*
X92694476Y-85748762D02*
X92837333Y-85796381D01*
X93075429Y-85796381D01*
X93170667Y-85748762D01*
X93218286Y-85701143D01*
X93265905Y-85605905D01*
X93265905Y-85510667D01*
X93218286Y-85415429D01*
X93170667Y-85367810D01*
X93075429Y-85320190D01*
X92884952Y-85272571D01*
X92789714Y-85224952D01*
X92742095Y-85177333D01*
X92694476Y-85082095D01*
X92694476Y-84986857D01*
X92742095Y-84891619D01*
X92789714Y-84844000D01*
X92884952Y-84796381D01*
X93123048Y-84796381D01*
X93265905Y-84844000D01*
X93599238Y-84796381D02*
X93837333Y-85796381D01*
X94027810Y-85082095D01*
X94218286Y-85796381D01*
X94456381Y-84796381D01*
X94599238Y-85891619D02*
X95361143Y-85891619D01*
X95599238Y-85796381D02*
X95599238Y-84796381D01*
X95980191Y-84796381D01*
X96075429Y-84844000D01*
X96123048Y-84891619D01*
X96170667Y-84986857D01*
X96170667Y-85129714D01*
X96123048Y-85224952D01*
X96075429Y-85272571D01*
X95980191Y-85320190D01*
X95599238Y-85320190D01*
X96504000Y-84796381D02*
X96742095Y-85796381D01*
X96932572Y-85082095D01*
X97123048Y-85796381D01*
X97361143Y-84796381D01*
X98313524Y-85796381D02*
X97980190Y-85320190D01*
X97742095Y-85796381D02*
X97742095Y-84796381D01*
X98123048Y-84796381D01*
X98218286Y-84844000D01*
X98265905Y-84891619D01*
X98313524Y-84986857D01*
X98313524Y-85129714D01*
X98265905Y-85224952D01*
X98218286Y-85272571D01*
X98123048Y-85320190D01*
X97742095Y-85320190D01*
X126436762Y-92860762D02*
X126579619Y-92908381D01*
X126817715Y-92908381D01*
X126912953Y-92860762D01*
X126960572Y-92813143D01*
X127008191Y-92717905D01*
X127008191Y-92622667D01*
X126960572Y-92527429D01*
X126912953Y-92479810D01*
X126817715Y-92432190D01*
X126627238Y-92384571D01*
X126532000Y-92336952D01*
X126484381Y-92289333D01*
X126436762Y-92194095D01*
X126436762Y-92098857D01*
X126484381Y-92003619D01*
X126532000Y-91956000D01*
X126627238Y-91908381D01*
X126865334Y-91908381D01*
X127008191Y-91956000D01*
X127341524Y-91908381D02*
X127579619Y-92908381D01*
X127770096Y-92194095D01*
X127960572Y-92908381D01*
X128198667Y-91908381D01*
X128341524Y-93003619D02*
X129103429Y-93003619D01*
X129912953Y-92908381D02*
X129579619Y-92432190D01*
X129341524Y-92908381D02*
X129341524Y-91908381D01*
X129722477Y-91908381D01*
X129817715Y-91956000D01*
X129865334Y-92003619D01*
X129912953Y-92098857D01*
X129912953Y-92241714D01*
X129865334Y-92336952D01*
X129817715Y-92384571D01*
X129722477Y-92432190D01*
X129341524Y-92432190D01*
X130293905Y-92860762D02*
X130436762Y-92908381D01*
X130674858Y-92908381D01*
X130770096Y-92860762D01*
X130817715Y-92813143D01*
X130865334Y-92717905D01*
X130865334Y-92622667D01*
X130817715Y-92527429D01*
X130770096Y-92479810D01*
X130674858Y-92432190D01*
X130484381Y-92384571D01*
X130389143Y-92336952D01*
X130341524Y-92289333D01*
X130293905Y-92194095D01*
X130293905Y-92098857D01*
X130341524Y-92003619D01*
X130389143Y-91956000D01*
X130484381Y-91908381D01*
X130722477Y-91908381D01*
X130865334Y-91956000D01*
X131151048Y-91908381D02*
X131722477Y-91908381D01*
X131436762Y-92908381D02*
X131436762Y-91908381D01*
X120324905Y-84224762D02*
X120467762Y-84272381D01*
X120705858Y-84272381D01*
X120801096Y-84224762D01*
X120848715Y-84177143D01*
X120896334Y-84081905D01*
X120896334Y-83986667D01*
X120848715Y-83891429D01*
X120801096Y-83843810D01*
X120705858Y-83796190D01*
X120515381Y-83748571D01*
X120420143Y-83700952D01*
X120372524Y-83653333D01*
X120324905Y-83558095D01*
X120324905Y-83462857D01*
X120372524Y-83367619D01*
X120420143Y-83320000D01*
X120515381Y-83272381D01*
X120753477Y-83272381D01*
X120896334Y-83320000D01*
X121229667Y-83272381D02*
X121467762Y-84272381D01*
X121658239Y-83558095D01*
X121848715Y-84272381D01*
X122086810Y-83272381D01*
X122229667Y-84367619D02*
X122991572Y-84367619D01*
X123229667Y-83272381D02*
X123229667Y-84081905D01*
X123277286Y-84177143D01*
X123324905Y-84224762D01*
X123420143Y-84272381D01*
X123610620Y-84272381D01*
X123705858Y-84224762D01*
X123753477Y-84177143D01*
X123801096Y-84081905D01*
X123801096Y-83272381D01*
X124229667Y-84224762D02*
X124372524Y-84272381D01*
X124610620Y-84272381D01*
X124705858Y-84224762D01*
X124753477Y-84177143D01*
X124801096Y-84081905D01*
X124801096Y-83986667D01*
X124753477Y-83891429D01*
X124705858Y-83843810D01*
X124610620Y-83796190D01*
X124420143Y-83748571D01*
X124324905Y-83700952D01*
X124277286Y-83653333D01*
X124229667Y-83558095D01*
X124229667Y-83462857D01*
X124277286Y-83367619D01*
X124324905Y-83320000D01*
X124420143Y-83272381D01*
X124658239Y-83272381D01*
X124801096Y-83320000D01*
X125801096Y-84272381D02*
X125467762Y-83796190D01*
X125229667Y-84272381D02*
X125229667Y-83272381D01*
X125610620Y-83272381D01*
X125705858Y-83320000D01*
X125753477Y-83367619D01*
X125801096Y-83462857D01*
X125801096Y-83605714D01*
X125753477Y-83700952D01*
X125705858Y-83748571D01*
X125610620Y-83796190D01*
X125229667Y-83796190D01*
X109551095Y-88352381D02*
X109551095Y-89161905D01*
X109598714Y-89257143D01*
X109646333Y-89304762D01*
X109741571Y-89352381D01*
X109932048Y-89352381D01*
X110027286Y-89304762D01*
X110074905Y-89257143D01*
X110122524Y-89161905D01*
X110122524Y-88352381D01*
X111122524Y-89352381D02*
X110551095Y-89352381D01*
X110836809Y-89352381D02*
X110836809Y-88352381D01*
X110741571Y-88495238D01*
X110646333Y-88590476D01*
X110551095Y-88638095D01*
X106172095Y-105479381D02*
X106172095Y-106288905D01*
X106219714Y-106384143D01*
X106267333Y-106431762D01*
X106362571Y-106479381D01*
X106553048Y-106479381D01*
X106648286Y-106431762D01*
X106695905Y-106384143D01*
X106743524Y-106288905D01*
X106743524Y-105479381D01*
X107172095Y-105574619D02*
X107219714Y-105527000D01*
X107314952Y-105479381D01*
X107553048Y-105479381D01*
X107648286Y-105527000D01*
X107695905Y-105574619D01*
X107743524Y-105669857D01*
X107743524Y-105765095D01*
X107695905Y-105907952D01*
X107124476Y-106479381D01*
X107743524Y-106479381D01*
X113127190Y-104108191D02*
X113603381Y-104108191D01*
X112603381Y-104441524D02*
X113127190Y-104108191D01*
X112603381Y-103774857D01*
X113603381Y-102917714D02*
X113603381Y-103489143D01*
X113603381Y-103203429D02*
X112603381Y-103203429D01*
X112746238Y-103298667D01*
X112841476Y-103393905D01*
X112889095Y-103489143D01*
X89193715Y-82304000D02*
X89098477Y-82256381D01*
X88955620Y-82256381D01*
X88812762Y-82304000D01*
X88717524Y-82399238D01*
X88669905Y-82494476D01*
X88622286Y-82684952D01*
X88622286Y-82827810D01*
X88669905Y-83018286D01*
X88717524Y-83113524D01*
X88812762Y-83208762D01*
X88955620Y-83256381D01*
X89050858Y-83256381D01*
X89193715Y-83208762D01*
X89241334Y-83161143D01*
X89241334Y-82827810D01*
X89050858Y-82827810D01*
X89574667Y-82256381D02*
X90241334Y-82256381D01*
X89812762Y-83256381D01*
M02*
