G04 #@! TF.FileFunction,Other,ECO1*
%FSLAX46Y46*%
G04 Gerber Fmt 4.6, Leading zero omitted, Abs format (unit mm)*
G04 Created by KiCad (PCBNEW 4.0.4-stable) date 10/24/16 21:05:07*
%MOMM*%
%LPD*%
G01*
G04 APERTURE LIST*
%ADD10C,0.100000*%
%ADD11C,0.300000*%
G04 APERTURE END LIST*
D10*
D11*
X89670715Y-75601429D02*
X89742144Y-75530000D01*
X89885001Y-75458571D01*
X90242144Y-75458571D01*
X90385001Y-75530000D01*
X90456430Y-75601429D01*
X90527858Y-75744286D01*
X90527858Y-75887143D01*
X90456430Y-76101429D01*
X89599287Y-76958571D01*
X90527858Y-76958571D01*
X91813572Y-75958571D02*
X91813572Y-76958571D01*
X91456429Y-75387143D02*
X91099286Y-76458571D01*
X92027858Y-76458571D01*
X92599286Y-76815714D02*
X92670714Y-76887143D01*
X92599286Y-76958571D01*
X92527857Y-76887143D01*
X92599286Y-76815714D01*
X92599286Y-76958571D01*
X94099286Y-76958571D02*
X93242143Y-76958571D01*
X93670715Y-76958571D02*
X93670715Y-75458571D01*
X93527858Y-75672857D01*
X93385000Y-75815714D01*
X93242143Y-75887143D01*
X94599286Y-75458571D02*
X95527857Y-75458571D01*
X95027857Y-76030000D01*
X95242143Y-76030000D01*
X95385000Y-76101429D01*
X95456429Y-76172857D01*
X95527857Y-76315714D01*
X95527857Y-76672857D01*
X95456429Y-76815714D01*
X95385000Y-76887143D01*
X95242143Y-76958571D01*
X94813571Y-76958571D01*
X94670714Y-76887143D01*
X94599286Y-76815714D01*
X96456428Y-75458571D02*
X96599285Y-75458571D01*
X96742142Y-75530000D01*
X96813571Y-75601429D01*
X96885000Y-75744286D01*
X96956428Y-76030000D01*
X96956428Y-76387143D01*
X96885000Y-76672857D01*
X96813571Y-76815714D01*
X96742142Y-76887143D01*
X96599285Y-76958571D01*
X96456428Y-76958571D01*
X96313571Y-76887143D01*
X96242142Y-76815714D01*
X96170714Y-76672857D01*
X96099285Y-76387143D01*
X96099285Y-76030000D01*
X96170714Y-75744286D01*
X96242142Y-75601429D01*
X96313571Y-75530000D01*
X96456428Y-75458571D01*
X98742142Y-76958571D02*
X98742142Y-75958571D01*
X98742142Y-76101429D02*
X98813570Y-76030000D01*
X98956428Y-75958571D01*
X99170713Y-75958571D01*
X99313570Y-76030000D01*
X99384999Y-76172857D01*
X99384999Y-76958571D01*
X99384999Y-76172857D02*
X99456428Y-76030000D01*
X99599285Y-75958571D01*
X99813570Y-75958571D01*
X99956428Y-76030000D01*
X100027856Y-76172857D01*
X100027856Y-76958571D01*
X100742142Y-76958571D02*
X100742142Y-75958571D01*
X100742142Y-76101429D02*
X100813570Y-76030000D01*
X100956428Y-75958571D01*
X101170713Y-75958571D01*
X101313570Y-76030000D01*
X101384999Y-76172857D01*
X101384999Y-76958571D01*
X101384999Y-76172857D02*
X101456428Y-76030000D01*
X101599285Y-75958571D01*
X101813570Y-75958571D01*
X101956428Y-76030000D01*
X102027856Y-76172857D01*
X102027856Y-76958571D01*
X83820000Y-74930000D02*
X107950000Y-74930000D01*
X83820000Y-69850000D02*
X83820000Y-77630000D01*
X107950000Y-69850000D02*
X107950000Y-77630000D01*
X107950000Y-74930000D02*
X106823496Y-75516421D01*
X107950000Y-74930000D02*
X106823496Y-74343579D01*
X83820000Y-74930000D02*
X84946504Y-75516421D01*
X83820000Y-74930000D02*
X84946504Y-74343579D01*
X102450001Y-56748571D02*
X102450001Y-57748571D01*
X102092858Y-56177143D02*
X101735715Y-57248571D01*
X102664287Y-57248571D01*
X103450001Y-56891429D02*
X103307143Y-56820000D01*
X103235715Y-56748571D01*
X103164286Y-56605714D01*
X103164286Y-56534286D01*
X103235715Y-56391429D01*
X103307143Y-56320000D01*
X103450001Y-56248571D01*
X103735715Y-56248571D01*
X103878572Y-56320000D01*
X103950001Y-56391429D01*
X104021429Y-56534286D01*
X104021429Y-56605714D01*
X103950001Y-56748571D01*
X103878572Y-56820000D01*
X103735715Y-56891429D01*
X103450001Y-56891429D01*
X103307143Y-56962857D01*
X103235715Y-57034286D01*
X103164286Y-57177143D01*
X103164286Y-57462857D01*
X103235715Y-57605714D01*
X103307143Y-57677143D01*
X103450001Y-57748571D01*
X103735715Y-57748571D01*
X103878572Y-57677143D01*
X103950001Y-57605714D01*
X104021429Y-57462857D01*
X104021429Y-57177143D01*
X103950001Y-57034286D01*
X103878572Y-56962857D01*
X103735715Y-56891429D01*
X104664286Y-57605714D02*
X104735714Y-57677143D01*
X104664286Y-57748571D01*
X104592857Y-57677143D01*
X104664286Y-57605714D01*
X104664286Y-57748571D01*
X105307143Y-56391429D02*
X105378572Y-56320000D01*
X105521429Y-56248571D01*
X105878572Y-56248571D01*
X106021429Y-56320000D01*
X106092858Y-56391429D01*
X106164286Y-56534286D01*
X106164286Y-56677143D01*
X106092858Y-56891429D01*
X105235715Y-57748571D01*
X106164286Y-57748571D01*
X107450000Y-56248571D02*
X107164286Y-56248571D01*
X107021429Y-56320000D01*
X106950000Y-56391429D01*
X106807143Y-56605714D01*
X106735714Y-56891429D01*
X106735714Y-57462857D01*
X106807143Y-57605714D01*
X106878571Y-57677143D01*
X107021429Y-57748571D01*
X107307143Y-57748571D01*
X107450000Y-57677143D01*
X107521429Y-57605714D01*
X107592857Y-57462857D01*
X107592857Y-57105714D01*
X107521429Y-56962857D01*
X107450000Y-56891429D01*
X107307143Y-56820000D01*
X107021429Y-56820000D01*
X106878571Y-56891429D01*
X106807143Y-56962857D01*
X106735714Y-57105714D01*
X108521428Y-56248571D02*
X108664285Y-56248571D01*
X108807142Y-56320000D01*
X108878571Y-56391429D01*
X108950000Y-56534286D01*
X109021428Y-56820000D01*
X109021428Y-57177143D01*
X108950000Y-57462857D01*
X108878571Y-57605714D01*
X108807142Y-57677143D01*
X108664285Y-57748571D01*
X108521428Y-57748571D01*
X108378571Y-57677143D01*
X108307142Y-57605714D01*
X108235714Y-57462857D01*
X108164285Y-57177143D01*
X108164285Y-56820000D01*
X108235714Y-56534286D01*
X108307142Y-56391429D01*
X108378571Y-56320000D01*
X108521428Y-56248571D01*
X110807142Y-57748571D02*
X110807142Y-56748571D01*
X110807142Y-56891429D02*
X110878570Y-56820000D01*
X111021428Y-56748571D01*
X111235713Y-56748571D01*
X111378570Y-56820000D01*
X111449999Y-56962857D01*
X111449999Y-57748571D01*
X111449999Y-56962857D02*
X111521428Y-56820000D01*
X111664285Y-56748571D01*
X111878570Y-56748571D01*
X112021428Y-56820000D01*
X112092856Y-56962857D01*
X112092856Y-57748571D01*
X112807142Y-57748571D02*
X112807142Y-56748571D01*
X112807142Y-56891429D02*
X112878570Y-56820000D01*
X113021428Y-56748571D01*
X113235713Y-56748571D01*
X113378570Y-56820000D01*
X113449999Y-56962857D01*
X113449999Y-57748571D01*
X113449999Y-56962857D02*
X113521428Y-56820000D01*
X113664285Y-56748571D01*
X113878570Y-56748571D01*
X114021428Y-56820000D01*
X114092856Y-56962857D01*
X114092856Y-57748571D01*
X83820000Y-58420000D02*
X132080000Y-58420000D01*
X83820000Y-78740000D02*
X83820000Y-55720000D01*
X132080000Y-78740000D02*
X132080000Y-55720000D01*
X132080000Y-58420000D02*
X130953496Y-59006421D01*
X132080000Y-58420000D02*
X130953496Y-57833579D01*
X83820000Y-58420000D02*
X84946504Y-59006421D01*
X83820000Y-58420000D02*
X84946504Y-57833579D01*
M02*
